<svg width="16" height="16" viewBox="0 0 16 16" fill="none" xmlns="http://www.w3.org/2000/svg"><path d="M-196 -860C-196 -864.418 -192.418 -868 -188 -868H876C880.418 -868 884 -864.418 884 -860V794C884 798.418 880.418 802 876 802H-188C-192.418 802 -196 798.418 -196 794V-860Z" fill="white"/><path d="M-188 -868V-867H876V-868V-869H-188V-868ZM884 -860H883V794H884H885V-860H884ZM876 802V801H-188V802V803H876V802ZM-196 794H-195V-860H-196H-197V794H-196ZM-188 802V801C-191.866 801 -195 797.866 -195 794H-196H-197C-197 798.971 -192.971 803 -188 803V802ZM884 794H883C883 797.866 879.866 801 876 801V802V803C880.971 803 885 798.971 885 794H884ZM876 -868V-867C879.866 -867 883 -863.866 883 -860H884H885C885 -864.971 880.971 -869 876 -869V-868ZM-188 -868V-869C-192.971 -869 -197 -864.971 -197 -860H-196H-195C-195 -863.866 -191.866 -867 -188 -867V-868Z" fill="#F1F1F1"/><path d="M10.8461 8.78301H2.33691C2.74334 9.38981 2.94656 9.9859 2.94656 10.5713C2.94656 11.1567 2.74334 11.7527 2.33691 12.3595H8.74401M12.6842 9.89844V12.3698M13.9199 11.1341H11.4485M13.4987 6.41063H4.2265C3.18291 6.41063 2.33691 5.61 2.33691 4.62237C2.33691 3.63474 3.18291 2.83411 4.2265 2.83411H13.4987C13.4987 2.83411 12.889 3.74767 12.889 4.62237C12.889 5.49707 13.4987 6.41063 13.4987 6.41063Z" stroke="#202020" stroke-width="1.3" stroke-linecap="round" stroke-linejoin="round"/></svg>