<svg width="24" height="24" viewBox="0 0 24 24" fill="none" xmlns="http://www.w3.org/2000/svg"><path d="M-516 -924C-516 -928.418 -512.418 -932 -508 -932H636C640.418 -932 644 -928.418 644 -924V766C644 770.418 640.418 774 636 774H-508C-512.418 774 -516 770.418 -516 766V-924Z" fill="white"/><path d="M-508 -932V-931H636V-932V-933H-508V-932ZM644 -924H643V766H644H645V-924H644ZM636 774V773H-508V774V775H636V774ZM-516 766H-515V-924H-516H-517V766H-516ZM-508 774V773C-511.866 773 -515 769.866 -515 766H-516H-517C-517 770.971 -512.971 775 -508 775V774ZM644 766H643C643 769.866 639.866 773 636 773V774V775C640.971 775 645 770.971 645 766H644ZM636 -932V-931C639.866 -931 643 -927.866 643 -924H644H645C645 -928.971 640.971 -933 636 -933V-932ZM-508 -932V-933C-512.971 -933 -517 -928.971 -517 -924H-516H-515C-515 -927.866 -511.866 -931 -508 -931V-932Z" fill="#F1F1F1"/><path d="M16.2686 13.1745H3.50488C4.11453 14.0847 4.41935 14.9788 4.41935 15.8569C4.41935 16.7349 4.11453 17.6291 3.50488 18.5393H13.1155M19.0258 14.8476V18.5547M20.8793 16.7011H17.1722M20.2475 9.61589H6.33926C4.77387 9.61589 3.50488 8.41494 3.50488 6.93349C3.50488 5.45205 4.77387 4.2511 6.33926 4.2511H20.2475C20.2475 4.2511 19.3331 5.62145 19.3331 6.93349C19.3331 8.24554 20.2475 9.61589 20.2475 9.61589Z" stroke="#202020" stroke-width="1.8" stroke-linecap="round" stroke-linejoin="round"/></svg>