<svg width="24" height="24" viewBox="0 0 24 24" fill="none" xmlns="http://www.w3.org/2000/svg"><path d="M-267 -240C-267 -241.105 -266.105 -242 -265 -242H954C955.105 -242 956 -241.105 956 -240V599C956 600.105 955.105 601 954 601H-265C-266.105 601 -267 600.105 -267 599V-240Z" fill="white"/><path d="M-265 -242V-241H954V-242V-243H-265V-242ZM956 -240H955V599H956H957V-240H956ZM954 601V600H-265V601V602H954V601ZM-267 599H-266V-240H-267H-268V599H-267ZM-265 601V600C-265.552 600 -266 599.552 -266 599H-267H-268C-268 600.657 -266.657 602 -265 602V601ZM956 599H955C955 599.552 954.552 600 954 600V601V602C955.657 602 957 600.657 957 599H956ZM954 -242V-241C954.552 -241 955 -240.552 955 -240H956H957C957 -241.657 955.657 -243 954 -243V-242ZM-265 -242V-243C-266.657 -243 -268 -241.657 -268 -240H-267H-266C-266 -240.552 -265.552 -241 -265 -241V-242Z" fill="black" fill-opacity="0.1"/><path d="M16.2686 13.1745H3.50488C4.11453 14.0847 4.41935 14.9788 4.41935 15.8569C4.41935 16.7349 4.11453 17.6291 3.50488 18.5393H13.1155M19.0258 14.8476V18.5547M20.8793 16.7011H17.1722M20.2475 9.61589H6.33926C4.77387 9.61589 3.50488 8.41494 3.50488 6.93349C3.50488 5.45205 4.77387 4.2511 6.33926 4.2511H20.2475C20.2475 4.2511 19.3331 5.62145 19.3331 6.93349C19.3331 8.24554 20.2475 9.61589 20.2475 9.61589Z" stroke="#202020" stroke-width="1.8" stroke-linecap="round" stroke-linejoin="round"/></svg>