<svg width="16" height="16" viewBox="0 0 16 16" fill="none" xmlns="http://www.w3.org/2000/svg"><path d="M-100 -92C-100 -96.4183 -96.4183 -100 -92 -100H972C976.418 -100 980 -96.4183 980 -92V1562C980 1566.42 976.418 1570 972 1570H-92C-96.4183 1570 -100 1566.42 -100 1562V-92Z" fill="white"/><path d="M-92 -100V-99H972V-100V-101H-92V-100ZM980 -92H979V1562H980H981V-92H980ZM972 1570V1569H-92V1570V1571H972V1570ZM-100 1562H-99V-92H-100H-101V1562H-100ZM-92 1570V1569C-95.866 1569 -99 1565.87 -99 1562H-100H-101C-101 1566.97 -96.9705 1571 -92 1571V1570ZM980 1562H979C979 1565.87 975.866 1569 972 1569V1570V1571C976.971 1571 981 1566.97 981 1562H980ZM972 -100V-99C975.866 -99 979 -95.866 979 -92H980H981C981 -96.9706 976.971 -101 972 -101V-100ZM-92 -100V-101C-96.9706 -101 -101 -96.9706 -101 -92H-100H-99C-99 -95.866 -95.866 -99 -92 -99V-100Z" fill="#F1F1F1"/><path d="M8.00016 5.33334V8M8.00016 10.6667H8.00683M14.6668 8C14.6668 11.6819 11.6821 14.6667 8.00016 14.6667C4.31826 14.6667 1.3335 11.6819 1.3335 8C1.3335 4.3181 4.31826 1.33334 8.00016 1.33334C11.6821 1.33334 14.6668 4.3181 14.6668 8Z" stroke="#202020" stroke-width="1.3" stroke-linecap="round" stroke-linejoin="round"/><defs><clipPath id="clip0_7809_18809"><rect width="16" height="16" fill="white"/></clipPath></defs></svg>