<svg width="24" height="24" viewBox="0 0 24 24" fill="none" xmlns="http://www.w3.org/2000/svg"><path d="M-398 -240C-398 -241.105 -397.105 -242 -396 -242H823C824.105 -242 825 -241.105 825 -240V599C825 600.105 824.105 601 823 601H-396C-397.105 601 -398 600.105 -398 599V-240Z" fill="white"/><path d="M-396 -242V-241H823V-242V-243H-396V-242ZM825 -240H824V599H825H826V-240H825ZM823 601V600H-396V601V602H823V601ZM-398 599H-397V-240H-398H-399V599H-398ZM-396 601V600C-396.552 600 -397 599.552 -397 599H-398H-399C-399 600.657 -397.657 602 -396 602V601ZM825 599H824C824 599.552 823.552 600 823 600V601V602C824.657 602 826 600.657 826 599H825ZM823 -242V-241C823.552 -241 824 -240.552 824 -240H825H826C826 -241.657 824.657 -243 823 -243V-242ZM-396 -242V-243C-397.657 -243 -399 -241.657 -399 -240H-398H-397C-397 -240.552 -396.552 -241 -396 -241V-242Z" fill="black" fill-opacity="0.1"/><circle cx="12" cy="12" r="9" stroke="#202020" stroke-width="1.8" stroke-linecap="round"/><path d="M12 7.5V12.5" stroke="#202020" stroke-width="2" stroke-linecap="round"/><circle cx="12" cy="16" r="1.05" fill="#202020" stroke="#202020" stroke-width="0.1"/></svg>