<svg width="32" height="32" viewBox="0 0 32 32" fill="none" xmlns="http://www.w3.org/2000/svg"><path d="M-100 -92C-100 -96.4183 -96.4183 -100 -92 -100H1132C1136.42 -100 1140 -96.4183 1140 -92V1598C1140 1602.42 1136.42 1606 1132 1606H-92C-96.4183 1606 -100 1602.42 -100 1598V-92Z" fill="white"/><path d="M-92 -100V-99H1132V-100V-101H-92V-100ZM1140 -92H1139V1598H1140H1141V-92H1140ZM1132 1606V1605H-92V1606V1607H1132V1606ZM-100 1598H-99V-92H-100H-101V1598H-100ZM-92 1606V1605C-95.866 1605 -99 1601.87 -99 1598H-100H-101C-101 1602.97 -96.9706 1607 -92 1607V1606ZM1140 1598H1139C1139 1601.87 1135.87 1605 1132 1605V1606V1607C1136.97 1607 1141 1602.97 1141 1598H1140ZM1132 -100V-99C1135.87 -99 1139 -95.866 1139 -92H1140H1141C1141 -96.9706 1136.97 -101 1132 -101V-100ZM-92 -100V-101C-96.9706 -101 -101 -96.9706 -101 -92H-100H-99C-99 -95.866 -95.866 -99 -92 -99V-100Z" fill="#F1F1F1"/><path d="M16.0001 10.6667V16M16.0001 21.3333H16.0134M29.3334 16C29.3334 23.3638 23.3639 29.3333 16.0001 29.3333C8.63628 29.3333 2.66675 23.3638 2.66675 16C2.66675 8.6362 8.63628 2.66666 16.0001 2.66666C23.3639 2.66666 29.3334 8.6362 29.3334 16Z" stroke="#202020" stroke-width="2.2" stroke-linecap="round" stroke-linejoin="round"/></svg>