<svg width="24" height="24" viewBox="0 0 24 24" fill="none" xmlns="http://www.w3.org/2000/svg"><path d="M-100 -92C-100 -96.4183 -96.4183 -100 -92 -100H1052C1056.42 -100 1060 -96.4183 1060 -92V1598C1060 1602.42 1056.42 1606 1052 1606H-92C-96.4183 1606 -100 1602.42 -100 1598V-92Z" fill="white"/><path d="M-92 -100V-99H1052V-100V-101H-92V-100ZM1060 -92H1059V1598H1060H1061V-92H1060ZM1052 1606V1605H-92V1606V1607H1052V1606ZM-100 1598H-99V-92H-100H-101V1598H-100ZM-92 1606V1605C-95.866 1605 -99 1601.87 -99 1598H-100H-101C-101 1602.97 -96.9706 1607 -92 1607V1606ZM1060 1598H1059C1059 1601.87 1055.87 1605 1052 1605V1606V1607C1056.97 1607 1061 1602.97 1061 1598H1060ZM1052 -100V-99C1055.87 -99 1059 -95.866 1059 -92H1060H1061C1061 -96.9706 1056.97 -101 1052 -101V-100ZM-92 -100V-101C-96.9706 -101 -101 -96.9706 -101 -92H-100H-99C-99 -95.866 -95.866 -99 -92 -99V-100Z" fill="#F1F1F1"/><path d="M12 8V12M12 16H12.01M22 12C22 17.5228 17.5228 22 12 22C6.47715 22 2 17.5228 2 12C2 6.47715 6.47715 2 12 2C17.5228 2 22 6.47715 22 12Z" stroke="#202020" stroke-width="1.8" stroke-linecap="round" stroke-linejoin="round"/></svg>