<svg width="20" height="20" viewBox="0 0 20 20" fill="none" xmlns="http://www.w3.org/2000/svg"><path d="M-200 -92C-200 -96.4183 -196.418 -100 -192 -100H912C916.418 -100 920 -96.4183 920 -92V1598C920 1602.42 916.418 1606 912 1606H-192C-196.418 1606 -200 1602.42 -200 1598V-92Z" fill="white"/><path d="M-192 -100V-99H912V-100V-101H-192V-100ZM920 -92H919V1598H920H921V-92H920ZM912 1606V1605H-192V1606V1607H912V1606ZM-200 1598H-199V-92H-200H-201V1598H-200ZM-192 1606V1605C-195.866 1605 -199 1601.87 -199 1598H-200H-201C-201 1602.97 -196.971 1607 -192 1607V1606ZM920 1598H919C919 1601.87 915.866 1605 912 1605V1606V1607C916.971 1607 921 1602.97 921 1598H920ZM912 -100V-99C915.866 -99 919 -95.866 919 -92H920H921C921 -96.9706 916.971 -101 912 -101V-100ZM-192 -100V-101C-196.971 -101 -201 -96.9706 -201 -92H-200H-199C-199 -95.866 -195.866 -99 -192 -99V-100Z" fill="#F1F1F1"/><path d="M10.0001 7.5V10.8333M10.0001 14.1667H10.0085M8.57514 3.21667L1.51681 15C1.37128 15.252 1.29428 15.5378 1.29346 15.8288C1.29265 16.1198 1.36805 16.4059 1.51216 16.6588C1.65627 16.9116 1.86408 17.1223 2.1149 17.2699C2.36571 17.4175 2.65081 17.4968 2.94181 17.5H17.0585C17.3495 17.4968 17.6346 17.4175 17.8854 17.2699C18.1362 17.1223 18.344 16.9116 18.4881 16.6588C18.6322 16.4059 18.7076 16.1198 18.7068 15.8288C18.706 15.5378 18.629 15.252 18.4835 15L11.4251 3.21667C11.2766 2.97176 11.0674 2.76927 10.8178 2.62874C10.5682 2.48821 10.2866 2.41438 10.0001 2.41438C9.71369 2.41438 9.43208 2.48821 9.18248 2.62874C8.93287 2.76927 8.7237 2.97176 8.57514 3.21667Z" stroke="#202020" stroke-width="1.5" stroke-linecap="round" stroke-linejoin="round"/></svg>