<svg width="16" height="16" viewBox="0 0 16 16" fill="none" xmlns="http://www.w3.org/2000/svg"><path d="M-196 -92C-196 -96.4183 -192.418 -100 -188 -100H876C880.418 -100 884 -96.4183 884 -92V1562C884 1566.42 880.418 1570 876 1570H-188C-192.418 1570 -196 1566.42 -196 1562V-92Z" fill="white"/><path d="M-188 -100V-99H876V-100V-101H-188V-100ZM884 -92H883V1562H884H885V-92H884ZM876 1570V1569H-188V1570V1571H876V1570ZM-196 1562H-195V-92H-196H-197V1562H-196ZM-188 1570V1569C-191.866 1569 -195 1565.87 -195 1562H-196H-197C-197 1566.97 -192.971 1571 -188 1571V1570ZM884 1562H883C883 1565.87 879.866 1569 876 1569V1570V1571C880.971 1571 885 1566.97 885 1562H884ZM876 -100V-99C879.866 -99 883 -95.866 883 -92H884H885C885 -96.9706 880.971 -101 876 -101V-100ZM-188 -100V-101C-192.971 -101 -197 -96.9706 -197 -92H-196H-195C-195 -95.866 -191.866 -99 -188 -99V-100Z" fill="#F1F1F1"/><path d="M8.00001 6V8.66667M8.00001 11.3333H8.00668M6.86001 2.57333L1.21335 12C1.09693 12.2016 1.03533 12.4302 1.03467 12.663C1.03402 12.8958 1.09434 13.1248 1.20963 13.327C1.32492 13.5293 1.49116 13.6978 1.69182 13.8159C1.89247 13.934 2.12055 13.9974 2.35335 14H13.6467C13.8795 13.9974 14.1076 13.934 14.3082 13.8159C14.5089 13.6978 14.6751 13.5293 14.7904 13.327C14.9057 13.1248 14.966 12.8958 14.9654 12.663C14.9647 12.4302 14.9031 12.2016 14.7867 12L9.14001 2.57333C9.02117 2.3774 8.85383 2.21541 8.65414 2.10299C8.45446 1.99056 8.22917 1.9315 8.00001 1.9315C7.77086 1.9315 7.54557 1.99056 7.34588 2.10299C7.1462 2.21541 6.97886 2.3774 6.86001 2.57333Z" stroke="#202020" stroke-width="1.3" stroke-linecap="round" stroke-linejoin="round"/></svg>