<svg width="12" height="12" viewBox="0 0 12 12" fill="none" xmlns="http://www.w3.org/2000/svg"><path d="M-192 -92C-192 -96.4183 -188.418 -100 -184 -100H880C884.418 -100 888 -96.4183 888 -92V1562C888 1566.42 884.418 1570 880 1570H-184C-188.418 1570 -192 1566.42 -192 1562V-92Z" fill="white"/><path d="M-184 -100V-99H880V-100V-101H-184V-100ZM888 -92H887V1562H888H889V-92H888ZM880 1570V1569H-184V1570V1571H880V1570ZM-192 1562H-191V-92H-192H-193V1562H-192ZM-184 1570V1569C-187.866 1569 -191 1565.87 -191 1562H-192H-193C-193 1566.97 -188.971 1571 -184 1571V1570ZM888 1562H887C887 1565.87 883.866 1569 880 1569V1570V1571C884.971 1571 889 1566.97 889 1562H888ZM880 -100V-99C883.866 -99 887 -95.866 887 -92H888H889C889 -96.9706 884.971 -101 880 -101V-100ZM-184 -100V-101C-188.971 -101 -193 -96.9706 -193 -92H-192H-191C-191 -95.866 -187.866 -99 -184 -99V-100Z" fill="#F1F1F1"/><path d="M6.00038 4.5V6.5M6.00038 8.5H6.00538M5.14538 1.93L0.910377 9C0.823061 9.15121 0.77686 9.32265 0.776371 9.49726C0.775882 9.67187 0.821122 9.84357 0.90759 9.99527C0.994058 10.147 1.11874 10.2734 1.26923 10.3619C1.41972 10.4505 1.59078 10.4981 1.76538 10.5H10.2354C10.41 10.4981 10.581 10.4505 10.7315 10.3619C10.882 10.2734 11.0067 10.147 11.0932 9.99527C11.1796 9.84357 11.2249 9.67187 11.2244 9.49726C11.2239 9.32265 11.1777 9.15121 11.0904 9L6.85538 1.93C6.76624 1.78306 6.64074 1.66156 6.49097 1.57725C6.34121 1.49293 6.17224 1.44863 6.00038 1.44863C5.82851 1.44863 5.65954 1.49293 5.50978 1.57725C5.36002 1.66156 5.23451 1.78306 5.14538 1.93Z" stroke="#202020" stroke-width="1.3" stroke-linecap="round" stroke-linejoin="round"/><defs><clipPath id="clip0_7809_18809"><rect width="12" height="12" fill="white"/></clipPath></defs></svg>