<svg width="20" height="20" viewBox="0 0 20 20" fill="none" xmlns="http://www.w3.org/2000/svg"><path d="M-300 -92C-300 -96.4183 -296.418 -100 -292 -100H812C816.418 -100 820 -96.4183 820 -92V1598C820 1602.42 816.418 1606 812 1606H-292C-296.418 1606 -300 1602.42 -300 1598V-92Z" fill="white"/><path d="M-292 -100V-99H812V-100V-101H-292V-100ZM820 -92H819V1598H820H821V-92H820ZM812 1606V1605H-292V1606V1607H812V1606ZM-300 1598H-299V-92H-300H-301V1598H-300ZM-292 1606V1605C-295.866 1605 -299 1601.87 -299 1598H-300H-301C-301 1602.97 -296.971 1607 -292 1607V1606ZM820 1598H819C819 1601.87 815.866 1605 812 1605V1606V1607C816.971 1607 821 1602.97 821 1598H820ZM812 -100V-99C815.866 -99 819 -95.866 819 -92H820H821C821 -96.9706 816.971 -101 812 -101V-100ZM-292 -100V-101C-296.971 -101 -301 -96.9706 -301 -92H-300H-299C-299 -95.866 -295.866 -99 -292 -99V-100Z" fill="#F1F1F1"/><path d="M9.99984 4.16666V15.8333M9.99984 15.8333L15.8332 10M9.99984 15.8333L4.1665 10" stroke="#202020" stroke-width="1.5" stroke-linecap="round" stroke-linejoin="round"/></svg>