<svg width="16" height="16" viewBox="0 0 16 16" fill="none" xmlns="http://www.w3.org/2000/svg"><path d="M-292 -92C-292 -96.4183 -288.418 -100 -284 -100H780C784.418 -100 788 -96.4183 788 -92V1562C788 1566.42 784.418 1570 780 1570H-284C-288.418 1570 -292 1566.42 -292 1562V-92Z" fill="white"/><path d="M-284 -100V-99H780V-100V-101H-284V-100ZM788 -92H787V1562H788H789V-92H788ZM780 1570V1569H-284V1570V1571H780V1570ZM-292 1562H-291V-92H-292H-293V1562H-292ZM-284 1570V1569C-287.866 1569 -291 1565.87 -291 1562H-292H-293C-293 1566.97 -288.971 1571 -284 1571V1570ZM788 1562H787C787 1565.87 783.866 1569 780 1569V1570V1571C784.971 1571 789 1566.97 789 1562H788ZM780 -100V-99C783.866 -99 787 -95.866 787 -92H788H789C789 -96.9706 784.971 -101 780 -101V-100ZM-284 -100V-101C-288.971 -101 -293 -96.9706 -293 -92H-292H-291C-291 -95.866 -287.866 -99 -284 -99V-100Z" fill="#F1F1F1"/><path d="M8.00016 3.33334V12.6667M8.00016 12.6667L12.6668 8M8.00016 12.6667L3.3335 8" stroke="#202020" stroke-width="1.3" stroke-linecap="round" stroke-linejoin="round"/></svg>