<svg width="24" height="24" viewBox="0 0 24 24" fill="none" xmlns="http://www.w3.org/2000/svg"><path d="M-828 -92C-828 -96.4183 -824.418 -100 -820 -100H324C328.418 -100 332 -96.4183 332 -92V1598C332 1602.42 328.418 1606 324 1606H-820C-824.418 1606 -828 1602.42 -828 1598V-92Z" fill="white"/><path d="M-820 -100V-99H324V-100V-101H-820V-100ZM332 -92H331V1598H332H333V-92H332ZM324 1606V1605H-820V1606V1607H324V1606ZM-828 1598H-827V-92H-828H-829V1598H-828ZM-820 1606V1605C-823.866 1605 -827 1601.87 -827 1598H-828H-829C-829 1602.97 -824.971 1607 -820 1607V1606ZM332 1598H331C331 1601.87 327.866 1605 324 1605V1606V1607C328.971 1607 333 1602.97 333 1598H332ZM324 -100V-99C327.866 -99 331 -95.866 331 -92H332H333C333 -96.9706 328.971 -101 324 -101V-100ZM-820 -100V-101C-824.971 -101 -829 -96.9706 -829 -92H-828H-827C-827 -95.866 -823.866 -99 -820 -99V-100Z" fill="#F1F1F1"/><path d="M12 19V5M12 5L5 12M12 5L19 12" stroke="#202020" stroke-width="1.8" stroke-linecap="round" stroke-linejoin="round"/></svg>