<svg width="24" height="24" viewBox="0 0 24 24" fill="none" xmlns="http://www.w3.org/2000/svg"><path d="M-724 -92C-724 -96.4183 -720.418 -100 -716 -100H428C432.418 -100 436 -96.4183 436 -92V1598C436 1602.42 432.418 1606 428 1606H-716C-720.418 1606 -724 1602.42 -724 1598V-92Z" fill="white"/><path d="M-716 -100V-99H428V-100V-101H-716V-100ZM436 -92H435V1598H436H437V-92H436ZM428 1606V1605H-716V1606V1607H428V1606ZM-724 1598H-723V-92H-724H-725V1598H-724ZM-716 1606V1605C-719.866 1605 -723 1601.87 -723 1598H-724H-725C-725 1602.97 -720.971 1607 -716 1607V1606ZM436 1598H435C435 1601.87 431.866 1605 428 1605V1606V1607C432.971 1607 437 1602.97 437 1598H436ZM428 -100V-99C431.866 -99 435 -95.866 435 -92H436H437C437 -96.9706 432.971 -101 428 -101V-100ZM-716 -100V-101C-720.971 -101 -725 -96.9706 -725 -92H-724H-723C-723 -95.866 -719.866 -99 -716 -99V-100Z" fill="#F1F1F1"/><path d="M7 17L17 7M17 7H7M17 7V17" stroke="#202020" stroke-width="1.8" stroke-linecap="round" stroke-linejoin="round"/></svg>