<svg width="16" height="16" viewBox="0 0 16 16" fill="none" xmlns="http://www.w3.org/2000/svg"><path d="M-388 -92C-388 -96.4183 -384.418 -100 -380 -100H684C688.418 -100 692 -96.4183 692 -92V1562C692 1566.42 688.418 1570 684 1570H-380C-384.418 1570 -388 1566.42 -388 1562V-92Z" fill="white"/><path d="M-380 -100V-99H684V-100V-101H-380V-100ZM692 -92H691V1562H692H693V-92H692ZM684 1570V1569H-380V1570V1571H684V1570ZM-388 1562H-387V-92H-388H-389V1562H-388ZM-380 1570V1569C-383.866 1569 -387 1565.87 -387 1562H-388H-389C-389 1566.97 -384.971 1571 -380 1571V1570ZM692 1562H691C691 1565.87 687.866 1569 684 1569V1570V1571C688.971 1571 693 1566.97 693 1562H692ZM684 -100V-99C687.866 -99 691 -95.866 691 -92H692H693C693 -96.9706 688.971 -101 684 -101V-100ZM-380 -100V-101C-384.971 -101 -389 -96.9706 -389 -92H-388H-387C-387 -95.866 -383.866 -99 -380 -99V-100Z" fill="#F1F1F1"/><path d="M12.6668 8H3.3335M3.3335 8L8.00016 12.6667M3.3335 8L8.00016 3.33334" stroke="#202020" stroke-width="1.3" stroke-linecap="round" stroke-linejoin="round"/></svg>