<svg width="24" height="24" viewBox="0 0 24 24" fill="none" xmlns="http://www.w3.org/2000/svg"><path d="M-412 -92C-412 -96.4183 -408.418 -100 -404 -100H740C744.418 -100 748 -96.4183 748 -92V1598C748 1602.42 744.418 1606 740 1606H-404C-408.418 1606 -412 1602.42 -412 1598V-92Z" fill="white"/><path d="M-404 -100V-99H740V-100V-101H-404V-100ZM748 -92H747V1598H748H749V-92H748ZM740 1606V1605H-404V1606V1607H740V1606ZM-412 1598H-411V-92H-412H-413V1598H-412ZM-404 1606V1605C-407.866 1605 -411 1601.87 -411 1598H-412H-413C-413 1602.97 -408.971 1607 -404 1607V1606ZM748 1598H747C747 1601.87 743.866 1605 740 1605V1606V1607C744.971 1607 749 1602.97 749 1598H748ZM740 -100V-99C743.866 -99 747 -95.866 747 -92H748H749C749 -96.9706 744.971 -101 740 -101V-100ZM-404 -100V-101C-408.971 -101 -413 -96.9706 -413 -92H-412H-411C-411 -95.866 -407.866 -99 -404 -99V-100Z" fill="#F1F1F1"/><path d="M19 12H5M5 12L12 19M5 12L12 5" stroke="#202020" stroke-width="1.8" stroke-linecap="round" stroke-linejoin="round"/></svg>