<svg width="16" height="16" viewBox="0 0 16 16" fill="none" xmlns="http://www.w3.org/2000/svg"><path d="M-772 -92C-772 -96.4183 -768.418 -100 -764 -100H300C304.418 -100 308 -96.4183 308 -92V1562C308 1566.42 304.418 1570 300 1570H-764C-768.418 1570 -772 1566.42 -772 1562V-92Z" fill="white"/><path d="M-764 -100V-99H300V-100V-101H-764V-100ZM308 -92H307V1562H308H309V-92H308ZM300 1570V1569H-764V1570V1571H300V1570ZM-772 1562H-771V-92H-772H-773V1562H-772ZM-764 1570V1569C-767.866 1569 -771 1565.87 -771 1562H-772H-773C-773 1566.97 -768.971 1571 -764 1571V1570ZM308 1562H307C307 1565.87 303.866 1569 300 1569V1570V1571C304.971 1571 309 1566.97 309 1562H308ZM300 -100V-99C303.866 -99 307 -95.866 307 -92H308H309C309 -96.9706 304.971 -101 300 -101V-100ZM-764 -100V-101C-768.971 -101 -773 -96.9706 -773 -92H-772H-771C-771 -95.866 -767.866 -99 -764 -99V-100Z" fill="#F1F1F1"/><path d="M8.00016 12.6667V3.33334M8.00016 3.33334L3.3335 8M8.00016 3.33334L12.6668 8" stroke="#202020" stroke-width="1.3" stroke-linecap="round" stroke-linejoin="round"/></svg>