<svg width="20" height="20" viewBox="0 0 20 20" fill="none" xmlns="http://www.w3.org/2000/svg"><path d="M-500 -92C-500 -96.4183 -496.418 -100 -492 -100H612C616.418 -100 620 -96.4183 620 -92V1598C620 1602.42 616.418 1606 612 1606H-492C-496.418 1606 -500 1602.42 -500 1598V-92Z" fill="white"/><path d="M-492 -100V-99H612V-100V-101H-492V-100ZM620 -92H619V1598H620H621V-92H620ZM612 1606V1605H-492V1606V1607H612V1606ZM-500 1598H-499V-92H-500H-501V1598H-500ZM-492 1606V1605C-495.866 1605 -499 1601.87 -499 1598H-500H-501C-501 1602.97 -496.971 1607 -492 1607V1606ZM620 1598H619C619 1601.87 615.866 1605 612 1605V1606V1607C616.971 1607 621 1602.97 621 1598H620ZM612 -100V-99C615.866 -99 619 -95.866 619 -92H620H621C621 -96.9706 616.971 -101 612 -101V-100ZM-492 -100V-101C-496.971 -101 -501 -96.9706 -501 -92H-500H-499C-499 -95.866 -495.866 -99 -492 -99V-100Z" fill="#F1F1F1"/><path d="M4.1665 10H15.8332M15.8332 10L9.99984 4.16666M15.8332 10L9.99984 15.8333" stroke="#202020" stroke-width="1.5" stroke-linecap="round" stroke-linejoin="round"/></svg>