<svg width="24" height="24" viewBox="0 0 24 24" fill="none" xmlns="http://www.w3.org/2000/svg"><path d="M-620 -92C-620 -96.4183 -616.418 -100 -612 -100H532C536.418 -100 540 -96.4183 540 -92V1598C540 1602.42 536.418 1606 532 1606H-612C-616.418 1606 -620 1602.42 -620 1598V-92Z" fill="white"/><path d="M-612 -100V-99H532V-100V-101H-612V-100ZM540 -92H539V1598H540H541V-92H540ZM532 1606V1605H-612V1606V1607H532V1606ZM-620 1598H-619V-92H-620H-621V1598H-620ZM-612 1606V1605C-615.866 1605 -619 1601.87 -619 1598H-620H-621C-621 1602.97 -616.971 1607 -612 1607V1606ZM540 1598H539C539 1601.87 535.866 1605 532 1605V1606V1607C536.971 1607 541 1602.97 541 1598H540ZM532 -100V-99C535.866 -99 539 -95.866 539 -92H540H541C541 -96.9706 536.971 -101 532 -101V-100ZM-612 -100V-101C-616.971 -101 -621 -96.9706 -621 -92H-620H-619C-619 -95.866 -615.866 -99 -612 -99V-100Z" fill="#F1F1F1"/><path d="M17 17L7 7M7 7V17M7 7H17" stroke="#202020" stroke-width="1.8" stroke-linecap="round" stroke-linejoin="round"/></svg>