<svg width="16" height="16" viewBox="0 0 16 16" fill="none" xmlns="http://www.w3.org/2000/svg"><path d="M-676 -92C-676 -96.4183 -672.418 -100 -668 -100H396C400.418 -100 404 -96.4183 404 -92V1562C404 1566.42 400.418 1570 396 1570H-668C-672.418 1570 -676 1566.42 -676 1562V-92Z" fill="white"/><path d="M-668 -100V-99H396V-100V-101H-668V-100ZM404 -92H403V1562H404H405V-92H404ZM396 1570V1569H-668V1570V1571H396V1570ZM-676 1562H-675V-92H-676H-677V1562H-676ZM-668 1570V1569C-671.866 1569 -675 1565.87 -675 1562H-676H-677C-677 1566.97 -672.971 1571 -668 1571V1570ZM404 1562H403C403 1565.87 399.866 1569 396 1569V1570V1571C400.971 1571 405 1566.97 405 1562H404ZM396 -100V-99C399.866 -99 403 -95.866 403 -92H404H405C405 -96.9706 400.971 -101 396 -101V-100ZM-668 -100V-101C-672.971 -101 -677 -96.9706 -677 -92H-676H-675C-675 -95.866 -671.866 -99 -668 -99V-100Z" fill="#F1F1F1"/><path d="M4.6665 11.3333L11.3332 4.66666M11.3332 4.66666H4.6665M11.3332 4.66666V11.3333" stroke="#202020" stroke-width="1.3" stroke-linecap="round" stroke-linejoin="round"/></svg>