<svg width="16" height="16" viewBox="0 0 16 16" fill="none" xmlns="http://www.w3.org/2000/svg"><path d="M-580 -92C-580 -96.4183 -576.418 -100 -572 -100H492C496.418 -100 500 -96.4183 500 -92V1562C500 1566.42 496.418 1570 492 1570H-572C-576.418 1570 -580 1566.42 -580 1562V-92Z" fill="white"/><path d="M-572 -100V-99H492V-100V-101H-572V-100ZM500 -92H499V1562H500H501V-92H500ZM492 1570V1569H-572V1570V1571H492V1570ZM-580 1562H-579V-92H-580H-581V1562H-580ZM-572 1570V1569C-575.866 1569 -579 1565.87 -579 1562H-580H-581C-581 1566.97 -576.971 1571 -572 1571V1570ZM500 1562H499C499 1565.87 495.866 1569 492 1569V1570V1571C496.971 1571 501 1566.97 501 1562H500ZM492 -100V-99C495.866 -99 499 -95.866 499 -92H500H501C501 -96.9706 496.971 -101 492 -101V-100ZM-572 -100V-101C-576.971 -101 -581 -96.9706 -581 -92H-580H-579C-579 -95.866 -575.866 -99 -572 -99V-100Z" fill="#F1F1F1"/><path d="M11.3332 11.3333L4.6665 4.66666M4.6665 4.66666V11.3333M4.6665 4.66666H11.3332" stroke="#202020" stroke-width="1.3" stroke-linecap="round" stroke-linejoin="round"/></svg>