<svg width="16" height="16" viewBox="0 0 16 16" fill="none" xmlns="http://www.w3.org/2000/svg"><path d="M-484 -92C-484 -96.4183 -480.418 -100 -476 -100H588C592.418 -100 596 -96.4183 596 -92V1562C596 1566.42 592.418 1570 588 1570H-476C-480.418 1570 -484 1566.42 -484 1562V-92Z" fill="white"/><path d="M-476 -100V-99H588V-100V-101H-476V-100ZM596 -92H595V1562H596H597V-92H596ZM588 1570V1569H-476V1570V1571H588V1570ZM-484 1562H-483V-92H-484H-485V1562H-484ZM-476 1570V1569C-479.866 1569 -483 1565.87 -483 1562H-484H-485C-485 1566.97 -480.971 1571 -476 1571V1570ZM596 1562H595C595 1565.87 591.866 1569 588 1569V1570V1571C592.971 1571 597 1566.97 597 1562H596ZM588 -100V-99C591.866 -99 595 -95.866 595 -92H596H597C597 -96.9706 592.971 -101 588 -101V-100ZM-476 -100V-101C-480.971 -101 -485 -96.9706 -485 -92H-484H-483C-483 -95.866 -479.866 -99 -476 -99V-100Z" fill="#F1F1F1"/><path d="M3.3335 8H12.6668M12.6668 8L8.00016 3.33334M12.6668 8L8.00016 12.6667" stroke="#202020" stroke-width="1.3" stroke-linecap="round" stroke-linejoin="round"/></svg>