<svg width="12" height="12" viewBox="0 0 12 12" fill="none" xmlns="http://www.w3.org/2000/svg"><path d="M-284 -92C-284 -96.4183 -280.418 -100 -276 -100H788C792.418 -100 796 -96.4183 796 -92V1562C796 1566.42 792.418 1570 788 1570H-276C-280.418 1570 -284 1566.42 -284 1562V-92Z" fill="white"/><path d="M-276 -100V-99H788V-100V-101H-276V-100ZM796 -92H795V1562H796H797V-92H796ZM788 1570V1569H-276V1570V1571H788V1570ZM-284 1562H-283V-92H-284H-285V1562H-284ZM-276 1570V1569C-279.866 1569 -283 1565.87 -283 1562H-284H-285C-285 1566.97 -280.971 1571 -276 1571V1570ZM796 1562H795C795 1565.87 791.866 1569 788 1569V1570V1571C792.971 1571 797 1566.97 797 1562H796ZM788 -100V-99C791.866 -99 795 -95.866 795 -92H796H797C797 -96.9706 792.971 -101 788 -101V-100ZM-276 -100V-101C-280.971 -101 -285 -96.9706 -285 -92H-284H-283C-283 -95.866 -279.866 -99 -276 -99V-100Z" fill="#F1F1F1"/><path d="M8.00001 4V6.5C8.00001 6.89783 8.15804 7.27936 8.43935 7.56066C8.72065 7.84197 9.10218 8 9.50001 8C9.89783 8 10.2794 7.84197 10.5607 7.56066C10.842 7.27936 11 6.89783 11 6.5V6C10.9999 4.87152 10.6181 3.77624 9.91664 2.89227C9.21516 2.0083 8.23528 1.38762 7.13633 1.13115C6.03737 0.874687 4.88397 0.997523 3.86368 1.47969C2.84339 1.96185 2.0162 2.77498 1.51663 3.78686C1.01706 4.79875 0.874488 5.94987 1.11209 7.05306C1.34969 8.15625 1.95349 9.14662 2.82532 9.86314C3.69715 10.5797 4.78572 10.9802 5.91404 10.9996C7.04236 11.019 8.14406 10.6561 9.04001 9.97M8.00001 6C8.00001 7.10457 7.10458 8 6.00001 8C4.89544 8 4.00001 7.10457 4.00001 6C4.00001 4.89543 4.89544 4 6.00001 4C7.10458 4 8.00001 4.89543 8.00001 6Z" stroke="#202020" stroke-width="1.3" stroke-linecap="round" stroke-linejoin="round"/><defs><clipPath id="clip0_7809_18809"><rect width="12" height="12" fill="white"/></clipPath></defs></svg>