<svg width="26" height="14" viewBox="0 0 26 14" fill="none" xmlns="http://www.w3.org/2000/svg"><path d="M-210 -106.5C-210 -107.605 -209.105 -108.5 -208 -108.5H418C419.105 -108.5 420 -107.605 420 -106.5V299.5C420 300.605 419.105 301.5 418 301.5H-208C-209.105 301.5 -210 300.605 -210 299.5V-106.5Z" fill="white"/><path d="M-208 -108.5V-107.5H418V-108.5V-109.5H-208V-108.5ZM420 -106.5H419V299.5H420H421V-106.5H420ZM418 301.5V300.5H-208V301.5V302.5H418V301.5ZM-210 299.5H-209V-106.5H-210H-211V299.5H-210ZM-208 301.5V300.5C-208.552 300.5 -209 300.052 -209 299.5H-210H-211C-211 301.157 -209.657 302.5 -208 302.5V301.5ZM420 299.5H419C419 300.052 418.552 300.5 418 300.5V301.5V302.5C419.657 302.5 421 301.157 421 299.5H420ZM418 -108.5V-107.5C418.552 -107.5 419 -107.052 419 -106.5H420H421C421 -108.157 419.657 -109.5 418 -109.5V-108.5ZM-208 -108.5V-109.5C-209.657 -109.5 -211 -108.157 -211 -106.5H-210H-209C-209 -107.052 -208.552 -107.5 -208 -107.5V-108.5Z" fill="black" fill-opacity="0.1"/><path d="M4 0.299805H24C24.9389 0.299805 25.7002 1.06112 25.7002 2V10C25.7002 12.0435 24.0435 13.7002 22 13.7002H2C1.06112 13.7002 0.299805 12.9389 0.299805 12V4C0.299805 1.95655 1.95655 0.299805 4 0.299805Z" fill="#FF83A4"/><path d="M4 0.299805H24C24.9389 0.299805 25.7002 1.06112 25.7002 2V10C25.7002 12.0435 24.0435 13.7002 22 13.7002H2C1.06112 13.7002 0.299805 12.9389 0.299805 12V4C0.299805 1.95655 1.95655 0.299805 4 0.299805Z" stroke="#FF5784" stroke-width="0.6"/><path d="M5.74 2.15L6.63 2.43C6.36 3.13 6.02 3.85 5.64 4.52V11.27H4.7V5.99C4.44 6.35 4.16 6.68 3.88 6.97C3.79 6.74 3.52 6.22 3.36 6.01C4.31 5.07 5.2 3.61 5.74 2.15ZM12.61 4.64H9.65V5.91H12.37V6.76H9.65V8.09H12.51V8.96H9.65V11.28H8.7V4.64H8.14C7.72 5.42 7.26 6.12 6.78 6.65C6.63 6.49 6.27 6.16 6.06 6.02C6.94 5.1 7.74 3.66 8.22 2.22L9.11 2.46C8.95 2.89 8.78 3.33 8.59 3.75H12.61V4.64ZM17.8 5.21H18.45C18.92 4.86 19.35 4.48 19.76 4.09H17.8V5.21ZM20.28 8.58V7.75H16.51V8.58H20.28ZM16.51 10.19H20.28V9.31H16.51V10.19ZM22.43 6.04H18.76C18.31 6.38 17.84 6.68 17.36 6.98H21.24V11.25H20.28V10.98H16.51V11.29H15.59V7.93C15.03 8.19 14.46 8.43 13.89 8.65C13.78 8.44 13.49 8.07 13.32 7.88C14.7 7.42 16.03 6.8 17.23 6.04H13.57V5.21H16.88V4.09H14.44V3.28H16.88V2.11H17.8V3.28H20.13V3.72C20.53 3.31 20.9 2.88 21.22 2.43L22.02 2.85C21.39 3.71 20.64 4.49 19.81 5.21H22.43V6.04Z" fill="white"/></svg>