<svg width="16" height="16" viewBox="0 0 16 16" fill="none" xmlns="http://www.w3.org/2000/svg"><path d="M-868 -92C-868 -96.4183 -864.418 -100 -860 -100H204C208.418 -100 212 -96.4183 212 -92V1562C212 1566.42 208.418 1570 204 1570H-860C-864.418 1570 -868 1566.42 -868 1562V-92Z" fill="white"/><path d="M-860 -100V-99H204V-100V-101H-860V-100ZM212 -92H211V1562H212H213V-92H212ZM204 1570V1569H-860V1570V1571H204V1570ZM-868 1562H-867V-92H-868H-869V1562H-868ZM-860 1570V1569C-863.866 1569 -867 1565.87 -867 1562H-868H-869C-869 1566.97 -864.971 1571 -860 1571V1570ZM212 1562H211C211 1565.87 207.866 1569 204 1569V1570V1571C208.971 1571 213 1566.97 213 1562H212ZM204 -100V-99C207.866 -99 211 -95.866 211 -92H212H213C213 -96.9706 208.971 -101 204 -101V-100ZM-860 -100V-101C-864.971 -101 -869 -96.9706 -869 -92H-868H-867C-867 -95.866 -863.866 -99 -860 -99V-100Z" fill="#F1F1F1"/><path d="M8.00016 10C10.5775 10 12.6668 7.91066 12.6668 5.33333C12.6668 2.756 10.5775 0.666664 8.00016 0.666664C5.42283 0.666664 3.3335 2.756 3.3335 5.33333C3.3335 7.91066 5.42283 10 8.00016 10Z" fill="white"/><path d="M5.4735 9.26L4.66683 15.3333L8.00016 13.3333L11.3335 15.3333L10.5268 9.25333" fill="white"/><path d="M5.4735 9.26L4.66683 15.3333L8.00016 13.3333L11.3335 15.3333L10.5268 9.25333M12.6668 5.33333C12.6668 7.91066 10.5775 10 8.00016 10C5.42283 10 3.3335 7.91066 3.3335 5.33333C3.3335 2.756 5.42283 0.666664 8.00016 0.666664C10.5775 0.666664 12.6668 2.756 12.6668 5.33333Z" stroke="#202020" stroke-width="1.3" stroke-linecap="round" stroke-linejoin="round"/></svg>