<svg width="20" height="20" viewBox="0 0 20 20" fill="none" xmlns="http://www.w3.org/2000/svg"><path d="M-900 -92C-900 -96.4183 -896.418 -100 -892 -100H212C216.418 -100 220 -96.4183 220 -92V1598C220 1602.42 216.418 1606 212 1606H-892C-896.418 1606 -900 1602.42 -900 1598V-92Z" fill="white"/><path d="M-892 -100V-99H212V-100V-101H-892V-100ZM220 -92H219V1598H220H221V-92H220ZM212 1606V1605H-892V1606V1607H212V1606ZM-900 1598H-899V-92H-900H-901V1598H-900ZM-892 1606V1605C-895.866 1605 -899 1601.87 -899 1598H-900H-901C-901 1602.97 -896.971 1607 -892 1607V1606ZM220 1598H219C219 1601.87 215.866 1605 212 1605V1606V1607C216.971 1607 221 1602.97 221 1598H220ZM212 -100V-99C215.866 -99 219 -95.866 219 -92H220H221C221 -96.9706 216.971 -101 212 -101V-100ZM-892 -100V-101C-896.971 -101 -901 -96.9706 -901 -92H-900H-899C-899 -95.866 -895.866 -99 -892 -99V-100Z" fill="#F1F1F1"/><path d="M6.8415 11.575L5.83317 19.1667L9.99984 16.6667L14.1665 19.1667L13.1582 11.5667M15.8332 6.66667C15.8332 9.88833 13.2215 12.5 9.99984 12.5C6.77818 12.5 4.1665 9.88833 4.1665 6.66667C4.1665 3.44501 6.77818 0.833336 9.99984 0.833336C13.2215 0.833336 15.8332 3.44501 15.8332 6.66667Z" stroke="#202020" stroke-width="1.5" stroke-linecap="round" stroke-linejoin="round"/></svg>