<svg width="32" height="32" viewBox="0 0 32 32" fill="none" xmlns="http://www.w3.org/2000/svg"><path d="M-324 -92C-324 -96.4183 -320.418 -100 -316 -100H908C912.418 -100 916 -96.4183 916 -92V1598C916 1602.42 912.418 1606 908 1606H-316C-320.418 1606 -324 1602.42 -324 1598V-92Z" fill="white"/><path d="M-316 -100V-99H908V-100V-101H-316V-100ZM916 -92H915V1598H916H917V-92H916ZM908 1606V1605H-316V1606V1607H908V1606ZM-324 1598H-323V-92H-324H-325V1598H-324ZM-316 1606V1605C-319.866 1605 -323 1601.87 -323 1598H-324H-325C-325 1602.97 -320.971 1607 -316 1607V1606ZM916 1598H915C915 1601.87 911.866 1605 908 1605V1606V1607C912.971 1607 917 1602.97 917 1598H916ZM908 -100V-99C911.866 -99 915 -95.866 915 -92H916H917C917 -96.9706 912.971 -101 908 -101V-100ZM-316 -100V-101C-320.971 -101 -325 -96.9706 -325 -92H-324H-323C-323 -95.866 -319.866 -99 -316 -99V-100Z" fill="#F1F1F1"/><path d="M10.9467 18.52L9.33341 30.6667L16.0001 26.6667L22.6667 30.6667L21.0534 18.5067M25.3334 10.6667C25.3334 15.8213 21.1547 20 16.0001 20C10.8454 20 6.66675 15.8213 6.66675 10.6667C6.66675 5.51201 10.8454 1.33334 16.0001 1.33334C21.1547 1.33334 25.3334 5.51201 25.3334 10.6667Z" stroke="#202020" stroke-width="2.2" stroke-linecap="round" stroke-linejoin="round"/></svg>