<svg width="16" height="16" viewBox="0 0 16 16" fill="none" xmlns="http://www.w3.org/2000/svg"><path d="M-182 -365C-182 -366.105 -181.105 -367 -180 -367H1039C1040.1 -367 1041 -366.105 1041 -365V474C1041 475.105 1040.1 476 1039 476H-180C-181.105 476 -182 475.105 -182 474V-365Z" fill="white"/><path d="M-180 -367V-366H1039V-367V-368H-180V-367ZM1041 -365H1040V474H1041H1042V-365H1041ZM1039 476V475H-180V476V477H1039V476ZM-182 474H-181V-365H-182H-183V474H-182ZM-180 476V475C-180.552 475 -181 474.552 -181 474H-182H-183C-183 475.657 -181.657 477 -180 477V476ZM1041 474H1040C1040 474.552 1039.55 475 1039 475V476V477C1040.66 477 1042 475.657 1042 474H1041ZM1039 -367V-366C1039.55 -366 1040 -365.552 1040 -365H1041H1042C1042 -366.657 1040.66 -368 1039 -368V-367ZM-180 -367V-368C-181.657 -368 -183 -366.657 -183 -365H-182H-181C-181 -365.552 -180.552 -366 -180 -366V-367Z" fill="black" fill-opacity="0.1"/><path d="M10 12L6 8L10 4" stroke="#202020" stroke-width="1.3" stroke-linecap="round" stroke-linejoin="round"/></svg>