<svg width="12" height="12" viewBox="0 0 12 12" fill="none" xmlns="http://www.w3.org/2000/svg"><path d="M-234 -367C-234 -368.105 -233.105 -369 -232 -369H987C988.105 -369 989 -368.105 989 -367V472C989 473.105 988.105 474 987 474H-232C-233.105 474 -234 473.105 -234 472V-367Z" fill="white"/><path d="M-232 -369V-368H987V-369V-370H-232V-369ZM989 -367H988V472H989H990V-367H989ZM987 474V473H-232V474V475H987V474ZM-234 472H-233V-367H-234H-235V472H-234ZM-232 474V473C-232.552 473 -233 472.552 -233 472H-234H-235C-235 473.657 -233.657 475 -232 475V474ZM989 472H988C988 472.552 987.552 473 987 473V474V475C988.657 475 990 473.657 990 472H989ZM987 -369V-368C987.552 -368 988 -367.552 988 -367H989H990C990 -368.657 988.657 -370 987 -370V-369ZM-232 -369V-370C-233.657 -370 -235 -368.657 -235 -367H-234H-233C-233 -367.552 -232.552 -368 -232 -368V-369Z" fill="black" fill-opacity="0.1"/><path d="M7.5 9L4.5 6L7.5 3" stroke="#202020" stroke-width="1.3" stroke-linecap="round" stroke-linejoin="round"/></svg>