<svg width="24" height="24" viewBox="0 0 24 24" fill="none" xmlns="http://www.w3.org/2000/svg"><path d="M-119 -361C-119 -362.105 -118.105 -363 -117 -363H1102C1103.1 -363 1104 -362.105 1104 -361V478C1104 479.105 1103.1 480 1102 480H-117C-118.105 480 -119 479.105 -119 478V-361Z" fill="white"/><path d="M-117 -363V-362H1102V-363V-364H-117V-363ZM1104 -361H1103V478H1104H1105V-361H1104ZM1102 480V479H-117V480V481H1102V480ZM-119 478H-118V-361H-119H-120V478H-119ZM-117 480V479C-117.552 479 -118 478.552 -118 478H-119H-120C-120 479.657 -118.657 481 -117 481V480ZM1104 478H1103C1103 478.552 1102.55 479 1102 479V480V481C1103.66 481 1105 479.657 1105 478H1104ZM1102 -363V-362C1102.55 -362 1103 -361.552 1103 -361H1104H1105C1105 -362.657 1103.66 -364 1102 -364V-363ZM-117 -363V-364C-118.657 -364 -120 -362.657 -120 -361H-119H-118C-118 -361.552 -117.552 -362 -117 -362V-363Z" fill="black" fill-opacity="0.1"/><path d="M14 20L6 12L14 4" stroke="#202020" stroke-width="1.8" stroke-linecap="round" stroke-linejoin="round"/></svg>