<svg width="24" height="24" viewBox="0 0 24 24" fill="none" xmlns="http://www.w3.org/2000/svg"><path d="M-204 -196C-204 -200.418 -200.418 -204 -196 -204H948C952.418 -204 956 -200.418 956 -196V1494C956 1498.42 952.418 1502 948 1502H-196C-200.418 1502 -204 1498.42 -204 1494V-196Z" fill="white"/><path d="M-196 -204V-203H948V-204V-205H-196V-204ZM956 -196H955V1494H956H957V-196H956ZM948 1502V1501H-196V1502V1503H948V1502ZM-204 1494H-203V-196H-204H-205V1494H-204ZM-196 1502V1501C-199.866 1501 -203 1497.87 -203 1494H-204H-205C-205 1498.97 -200.971 1503 -196 1503V1502ZM956 1494H955C955 1497.87 951.866 1501 948 1501V1502V1503C952.971 1503 957 1498.97 957 1494H956ZM948 -204V-203C951.866 -203 955 -199.866 955 -196H956H957C957 -200.971 952.971 -205 948 -205V-204ZM-196 -204V-205C-200.971 -205 -205 -200.971 -205 -196H-204H-203C-203 -199.866 -199.866 -203 -196 -203V-204Z" fill="#F1F1F1"/><path d="M19 21L12 16L5 21V5C5 4.46957 5.21071 3.96086 5.58579 3.58579C5.96086 3.21071 6.46957 3 7 3H17C17.5304 3 18.0391 3.21071 18.4142 3.58579C18.7893 3.96086 19 4.46957 19 5V21Z" stroke="#202020" stroke-width="1.8" stroke-linecap="round" stroke-linejoin="round"/></svg>