<svg width="20" height="20" viewBox="0 0 20 20" fill="none" xmlns="http://www.w3.org/2000/svg"><path d="M-100 -192C-100 -196.418 -96.4183 -200 -92 -200H1012C1016.42 -200 1020 -196.418 1020 -192V1498C1020 1502.42 1016.42 1506 1012 1506H-92C-96.4183 1506 -100 1502.42 -100 1498V-192Z" fill="white"/><path d="M-92 -200V-199H1012V-200V-201H-92V-200ZM1020 -192H1019V1498H1020H1021V-192H1020ZM1012 1506V1505H-92V1506V1507H1012V1506ZM-100 1498H-99V-192H-100H-101V1498H-100ZM-92 1506V1505C-95.866 1505 -99 1501.87 -99 1498H-100H-101C-101 1502.97 -96.9706 1507 -92 1507V1506ZM1020 1498H1019C1019 1501.87 1015.87 1505 1012 1505V1506V1507C1016.97 1507 1021 1502.97 1021 1498H1020ZM1012 -200V-199C1015.87 -199 1019 -195.866 1019 -192H1020H1021C1021 -196.971 1016.97 -201 1012 -201V-200ZM-92 -200V-201C-96.9706 -201 -101 -196.971 -101 -192H-100H-99C-99 -195.866 -95.866 -199 -92 -199V-200Z" fill="#F1F1F1"/><path d="M3.3335 16.25C3.3335 15.6975 3.55299 15.1676 3.94369 14.7769C4.33439 14.3862 4.8643 14.1667 5.41683 14.1667H16.6668M3.3335 16.25C3.3335 16.8025 3.55299 17.3324 3.94369 17.7231C4.33439 18.1138 4.8643 18.3333 5.41683 18.3333H16.6668V1.66667H5.41683C4.8643 1.66667 4.33439 1.88617 3.94369 2.27687C3.55299 2.66757 3.3335 3.19747 3.3335 3.75001V16.25Z" stroke="#202020" stroke-width="1.5" stroke-linecap="round" stroke-linejoin="round"/></svg>