<svg width="32" height="32" viewBox="0 0 32 32" fill="none" xmlns="http://www.w3.org/2000/svg"><path d="M-436 -92C-436 -96.4183 -432.418 -100 -428 -100H796C800.418 -100 804 -96.4183 804 -92V1598C804 1602.42 800.418 1606 796 1606H-428C-432.418 1606 -436 1602.42 -436 1598V-92Z" fill="white"/><path d="M-428 -100V-99H796V-100V-101H-428V-100ZM804 -92H803V1598H804H805V-92H804ZM796 1606V1605H-428V1606V1607H796V1606ZM-436 1598H-435V-92H-436H-437V1598H-436ZM-428 1606V1605C-431.866 1605 -435 1601.87 -435 1598H-436H-437C-437 1602.97 -432.971 1607 -428 1607V1606ZM804 1598H803C803 1601.87 799.866 1605 796 1605V1606V1607C800.971 1607 805 1602.97 805 1598H804ZM796 -100V-99C799.866 -99 803 -95.866 803 -92H804H805C805 -96.9706 800.971 -101 796 -101V-100ZM-428 -100V-101C-432.971 -101 -437 -96.9706 -437 -92H-436H-435C-435 -95.866 -431.866 -99 -428 -99V-100Z" fill="#F1F1F1"/><path d="M16.0001 9.33333C16.0001 7.91885 15.4382 6.56229 14.438 5.5621C13.4378 4.5619 12.0812 4 10.6667 4H2.66675V24H12.0001C13.0609 24 14.0784 24.4214 14.8285 25.1716C15.5787 25.9217 16.0001 26.9391 16.0001 28M16.0001 9.33333V28M16.0001 9.33333C16.0001 7.91885 16.562 6.56229 17.5622 5.5621C18.5624 4.5619 19.9189 4 21.3334 4H29.3334V24H20.0001C18.9392 24 17.9218 24.4214 17.1717 25.1716C16.4215 25.9217 16.0001 26.9391 16.0001 28" stroke="#202020" stroke-width="2.2" stroke-linecap="round" stroke-linejoin="round"/></svg>