<svg width="16" height="16" viewBox="0 0 16 16" fill="none" xmlns="http://www.w3.org/2000/svg"><path d="M-100 -188C-100 -192.418 -96.4183 -196 -92 -196H972C976.418 -196 980 -192.418 980 -188V1466C980 1470.42 976.418 1474 972 1474H-92C-96.4183 1474 -100 1470.42 -100 1466V-188Z" fill="white"/><path d="M-92 -196V-195H972V-196V-197H-92V-196ZM980 -188H979V1466H980H981V-188H980ZM972 1474V1473H-92V1474V1475H972V1474ZM-100 1466H-99V-188H-100H-101V1466H-100ZM-92 1474V1473C-95.866 1473 -99 1469.87 -99 1466H-100H-101C-101 1470.97 -96.9705 1475 -92 1475V1474ZM980 1466H979C979 1469.87 975.866 1473 972 1473V1474V1475C976.971 1475 981 1470.97 981 1466H980ZM972 -196V-195C975.866 -195 979 -191.866 979 -188H980H981C981 -192.971 976.971 -197 972 -197V-196ZM-92 -196V-197C-96.9706 -197 -101 -192.971 -101 -188H-100H-99C-99 -191.866 -95.866 -195 -92 -195V-196Z" fill="#F1F1F1"/><path d="M2.6665 13C2.6665 12.558 2.8421 12.134 3.15466 11.8215C3.46722 11.5089 3.89114 11.3333 4.33317 11.3333H13.3332M2.6665 13C2.6665 13.442 2.8421 13.8659 3.15466 14.1785C3.46722 14.4911 3.89114 14.6667 4.33317 14.6667H13.3332V1.33333H4.33317C3.89114 1.33333 3.46722 1.50892 3.15466 1.82148C2.8421 2.13404 2.6665 2.55797 2.6665 2.99999V13Z" stroke="#202020" stroke-width="1.3" stroke-linecap="round" stroke-linejoin="round"/></svg>