<svg width="16" height="16" viewBox="0 0 16 16" fill="none" xmlns="http://www.w3.org/2000/svg"><path d="M-196 -188C-196 -192.418 -192.418 -196 -188 -196H876C880.418 -196 884 -192.418 884 -188V1466C884 1470.42 880.418 1474 876 1474H-188C-192.418 1474 -196 1470.42 -196 1466V-188Z" fill="white"/><path d="M-188 -196V-195H876V-196V-197H-188V-196ZM884 -188H883V1466H884H885V-188H884ZM876 1474V1473H-188V1474V1475H876V1474ZM-196 1466H-195V-188H-196H-197V1466H-196ZM-188 1474V1473C-191.866 1473 -195 1469.87 -195 1466H-196H-197C-197 1470.97 -192.971 1475 -188 1475V1474ZM884 1466H883C883 1469.87 879.866 1473 876 1473V1474V1475C880.971 1475 885 1470.97 885 1466H884ZM876 -196V-195C879.866 -195 883 -191.866 883 -188H884H885C885 -192.971 880.971 -197 876 -197V-196ZM-188 -196V-197C-192.971 -197 -197 -192.971 -197 -188H-196H-195C-195 -191.866 -191.866 -195 -188 -195V-196Z" fill="#F1F1F1"/><path d="M12.6668 14L8.00016 10.6667L3.3335 14V3.33333C3.3335 2.97971 3.47397 2.64057 3.72402 2.39052C3.97407 2.14048 4.31321 2 4.66683 2H11.3335C11.6871 2 12.0263 2.14048 12.2763 2.39052C12.5264 2.64057 12.6668 2.97971 12.6668 3.33333V14Z" stroke="#202020" stroke-width="1.3" stroke-linecap="round" stroke-linejoin="round"/></svg>