<svg width="20" height="20" viewBox="0 0 20 20" fill="none" xmlns="http://www.w3.org/2000/svg"><path d="M-200 -192C-200 -196.418 -196.418 -200 -192 -200H912C916.418 -200 920 -196.418 920 -192V1498C920 1502.42 916.418 1506 912 1506H-192C-196.418 1506 -200 1502.42 -200 1498V-192Z" fill="white"/><path d="M-192 -200V-199H912V-200V-201H-192V-200ZM920 -192H919V1498H920H921V-192H920ZM912 1506V1505H-192V1506V1507H912V1506ZM-200 1498H-199V-192H-200H-201V1498H-200ZM-192 1506V1505C-195.866 1505 -199 1501.87 -199 1498H-200H-201C-201 1502.97 -196.971 1507 -192 1507V1506ZM920 1498H919C919 1501.87 915.866 1505 912 1505V1506V1507C916.971 1507 921 1502.97 921 1498H920ZM912 -200V-199C915.866 -199 919 -195.866 919 -192H920H921C921 -196.971 916.971 -201 912 -201V-200ZM-192 -200V-201C-196.971 -201 -201 -196.971 -201 -192H-200H-199C-199 -195.866 -195.866 -199 -192 -199V-200Z" fill="#F1F1F1"/><path d="M15.8332 17.5L9.99984 13.3333L4.1665 17.5V4.16667C4.1665 3.72464 4.3421 3.30072 4.65466 2.98816C4.96722 2.67559 5.39114 2.5 5.83317 2.5H14.1665C14.6085 2.5 15.0325 2.67559 15.345 2.98816C15.6576 3.30072 15.8332 3.72464 15.8332 4.16667V17.5Z" stroke="#202020" stroke-width="1.5" stroke-linecap="round" stroke-linejoin="round"/></svg>