<svg width="16" height="16" viewBox="0 0 16 16" fill="none" xmlns="http://www.w3.org/2000/svg"><path d="M-964 -92C-964 -96.4183 -960.418 -100 -956 -100H108C112.418 -100 116 -96.4183 116 -92V1562C116 1566.42 112.418 1570 108 1570H-956C-960.418 1570 -964 1566.42 -964 1562V-92Z" fill="white"/><path d="M-956 -100V-99H108V-100V-101H-956V-100ZM116 -92H115V1562H116H117V-92H116ZM108 1570V1569H-956V1570V1571H108V1570ZM-964 1562H-963V-92H-964H-965V1562H-964ZM-956 1570V1569C-959.866 1569 -963 1565.87 -963 1562H-964H-965C-965 1566.97 -960.971 1571 -956 1571V1570ZM116 1562H115C115 1565.87 111.866 1569 108 1569V1570V1571C112.971 1571 117 1566.97 117 1562H116ZM108 -100V-99C111.866 -99 115 -95.866 115 -92H116H117C117 -96.9706 112.971 -101 108 -101V-100ZM-956 -100V-101C-960.971 -101 -965 -96.9706 -965 -92H-964H-963C-963 -95.866 -959.866 -99 -956 -99V-100Z" fill="#F1F1F1"/><path d="M8.00016 4.66667C8.00016 3.95942 7.71921 3.28115 7.21911 2.78105C6.71902 2.28095 6.04074 2 5.3335 2H1.3335V12H6.00016C6.5306 12 7.0393 12.2107 7.41438 12.5858C7.78945 12.9609 8.00016 13.4696 8.00016 14M8.00016 4.66667V14M8.00016 4.66667C8.00016 3.95942 8.28111 3.28115 8.78121 2.78105C9.28131 2.28095 9.95959 2 10.6668 2H14.6668V12H10.0002C9.46973 12 8.96102 12.2107 8.58595 12.5858C8.21088 12.9609 8.00016 13.4696 8.00016 14" stroke="#202020" stroke-width="1.3" stroke-linecap="round" stroke-linejoin="round"/></svg>