<svg width="20" height="20" viewBox="0 0 20 20" fill="none" xmlns="http://www.w3.org/2000/svg"><path d="M-1000 -92C-1000 -96.4183 -996.418 -100 -992 -100H112C116.418 -100 120 -96.4183 120 -92V1598C120 1602.42 116.418 1606 112 1606H-992C-996.418 1606 -1000 1602.42 -1000 1598V-92Z" fill="white"/><path d="M-992 -100V-99H112V-100V-101H-992V-100ZM120 -92H119V1598H120H121V-92H120ZM112 1606V1605H-992V1606V1607H112V1606ZM-1000 1598H-999V-92H-1000H-1001V1598H-1000ZM-992 1606V1605C-995.866 1605 -999 1601.87 -999 1598H-1000H-1001C-1001 1602.97 -996.971 1607 -992 1607V1606ZM120 1598H119C119 1601.87 115.866 1605 112 1605V1606V1607C116.971 1607 121 1602.97 121 1598H120ZM112 -100V-99C115.866 -99 119 -95.866 119 -92H120H121C121 -96.9706 116.971 -101 112 -101V-100ZM-992 -100V-101C-996.971 -101 -1001 -96.9706 -1001 -92H-1000H-999C-999 -95.866 -995.866 -99 -992 -99V-100Z" fill="#F1F1F1"/><path d="M9.99984 5.83333C9.99984 4.94928 9.64865 4.10143 9.02353 3.47631C8.39841 2.85119 7.55056 2.5 6.6665 2.5H1.6665V15H7.49984C8.16288 15 8.79876 15.2634 9.2676 15.7322C9.73645 16.2011 9.99984 16.837 9.99984 17.5M9.99984 5.83333V17.5M9.99984 5.83333C9.99984 4.94928 10.351 4.10143 10.9761 3.47631C11.6013 2.85119 12.4491 2.5 13.3332 2.5H18.3332V15H12.4998C11.8368 15 11.2009 15.2634 10.7321 15.7322C10.2632 16.2011 9.99984 16.837 9.99984 17.5" stroke="#202020" stroke-width="1.5" stroke-linecap="round" stroke-linejoin="round"/></svg>