<svg width="32" height="32" viewBox="0 0 32 32" fill="none" xmlns="http://www.w3.org/2000/svg"><path d="M-548 -92C-548 -96.4183 -544.418 -100 -540 -100H684C688.418 -100 692 -96.4183 692 -92V1598C692 1602.42 688.418 1606 684 1606H-540C-544.418 1606 -548 1602.42 -548 1598V-92Z" fill="white"/><path d="M-540 -100V-99H684V-100V-101H-540V-100ZM692 -92H691V1598H692H693V-92H692ZM684 1606V1605H-540V1606V1607H684V1606ZM-548 1598H-547V-92H-548H-549V1598H-548ZM-540 1606V1605C-543.866 1605 -547 1601.87 -547 1598H-548H-549C-549 1602.97 -544.971 1607 -540 1607V1606ZM692 1598H691C691 1601.87 687.866 1605 684 1605V1606V1607C688.971 1607 693 1602.97 693 1598H692ZM684 -100V-99C687.866 -99 691 -95.866 691 -92H692H693C693 -96.9706 688.971 -101 684 -101V-100ZM-540 -100V-101C-544.971 -101 -549 -96.9706 -549 -92H-548H-547C-547 -95.866 -543.866 -99 -540 -99V-100Z" fill="#F1F1F1"/><path d="M5.33325 26C5.33325 25.1159 5.68444 24.2681 6.30956 23.643C6.93468 23.0179 7.78253 22.6667 8.66659 22.6667H26.6666M5.33325 26C5.33325 26.8841 5.68444 27.7319 6.30956 28.357C6.93468 28.9821 7.78253 29.3333 8.66659 29.3333H26.6666V2.66666H8.66659C7.78253 2.66666 6.93468 3.01785 6.30956 3.64297C5.68444 4.2681 5.33325 5.11594 5.33325 6V26Z" stroke="#202020" stroke-width="2.2" stroke-linecap="round" stroke-linejoin="round"/></svg>