<svg width="12" height="12" viewBox="0 0 12 12" fill="none" xmlns="http://www.w3.org/2000/svg"><path d="M-360 -120C-360 -121.105 -359.105 -122 -358 -122H347C348.105 -122 349 -121.105 349 -120V286C349 287.105 348.105 288 347 288H-358C-359.105 288 -360 287.105 -360 286V-120Z" fill="white"/><path d="M-358 -122V-121H347V-122V-123H-358V-122ZM349 -120H348V286H349H350V-120H349ZM347 288V287H-358V288V289H347V288ZM-360 286H-359V-120H-360H-361V286H-360ZM-358 288V287C-358.552 287 -359 286.552 -359 286H-360H-361C-361 287.657 -359.657 289 -358 289V288ZM349 286H348C348 286.552 347.552 287 347 287V288V289C348.657 289 350 287.657 350 286H349ZM347 -122V-121C347.552 -121 348 -120.552 348 -120H349H350C350 -121.657 348.657 -123 347 -123V-122ZM-358 -122V-123C-359.657 -123 -361 -121.657 -361 -120H-360H-359C-359 -120.552 -358.552 -121 -358 -121V-122Z" fill="black" fill-opacity="0.1"/><path d="M-4 4.76837e-07C-4 -1.65685 -2.65685 -3 -1 -3H51V15H-1C-2.65685 15 -4 13.6569 -4 12V4.76837e-07Z" fill="black" fill-opacity="0.7"/><path d="M7.31779 1.51089C7.86376 1.42946 8.37273 1.80575 8.45451 2.35171L9.54924 9.67105C9.63055 10.2169 9.25426 10.726 8.70842 10.8078L3.07951 11.6496C2.53357 11.7311 2.02472 11.3546 1.94279 10.8087L0.848064 3.49039C0.766338 2.94418 1.14268 2.43442 1.68888 2.35269L7.31779 1.51089ZM10.2817 2.87808C10.8302 2.94058 11.2248 3.43596 11.1625 3.98453L10.5092 9.72867C10.4624 10.1388 10.1732 10.4622 9.80119 10.5734C10.031 10.3564 10.1551 10.0347 10.1049 9.69839L9.06388 2.73941L10.2817 2.87808ZM4.08439 5.52945L2.44377 6.12417L3.80119 7.21988L3.85978 8.965L5.3217 8.01187L6.99943 8.49527L6.54435 6.80972L7.52287 5.36343L5.7797 5.27554L4.70646 3.89957L4.08439 5.52945Z" fill="#FFE847"/></svg>