<svg width="24" height="24" viewBox="0 0 24 24" fill="none" xmlns="http://www.w3.org/2000/svg"><path d="M-620 -924C-620 -928.418 -616.418 -932 -612 -932H532C536.418 -932 540 -928.418 540 -924V766C540 770.418 536.418 774 532 774H-612C-616.418 774 -620 770.418 -620 766V-924Z" fill="white"/><path d="M-612 -932V-931H532V-932V-933H-612V-932ZM540 -924H539V766H540H541V-924H540ZM532 774V773H-612V774V775H532V774ZM-620 766H-619V-924H-620H-621V766H-620ZM-612 774V773C-615.866 773 -619 769.866 -619 766H-620H-621C-621 770.971 -616.971 775 -612 775V774ZM540 766H539C539 769.866 535.866 773 532 773V774V775C536.971 775 541 770.971 541 766H540ZM532 -932V-931C535.866 -931 539 -927.866 539 -924H540H541C541 -928.971 536.971 -933 532 -933V-932ZM-612 -932V-933C-616.971 -933 -621 -928.971 -621 -924H-620H-619C-619 -927.866 -615.866 -931 -612 -931V-932Z" fill="#F1F1F1"/><path d="M7.02287 18.3788C7.51993 18.3788 7.92287 17.9758 7.92287 17.4788C7.92287 16.9817 7.51993 16.5788 7.02287 16.5788V17.4788V18.3788ZM11.0792 17.4788V16.5788C10.6851 16.5788 10.3369 16.8351 10.2198 17.2114L11.0792 17.4788ZM7.57545 19.5516C7.08878 19.6528 6.77623 20.1292 6.87734 20.6159C6.97845 21.1026 7.45493 21.4151 7.94159 21.314L7.75852 20.4328L7.57545 19.5516ZM22.9716 11.5684C22.9716 11.0713 22.5687 10.6684 22.0716 10.6684C21.5746 10.6684 21.1716 11.0713 21.1716 11.5684H22.0716H22.9716ZM16.0716 19.1C15.5746 19.1 15.1716 19.5029 15.1716 20C15.1716 20.4971 15.5746 20.9 16.0716 20.9V20V19.1ZM7.02287 17.4788V16.5788H6.09326V17.4788V18.3788H7.02287V17.4788ZM6.09326 17.4788V16.5788C4.38118 16.5788 2.99326 15.1909 2.99326 13.4788H2.09326H1.19326C1.19326 16.185 3.38707 18.3788 6.09326 18.3788V17.4788ZM2.09326 13.4788H2.99326V8H2.09326H1.19326V13.4788H2.09326ZM2.09326 8H2.99326C2.99326 6.28792 4.38118 4.9 6.09326 4.9V4V3.1C3.38707 3.1 1.19326 5.2938 1.19326 8H2.09326ZM6.09326 4V4.9H15.5002V4V3.1H6.09326V4ZM15.5002 4V4.9C17.2123 4.9 18.6002 6.28792 18.6002 8H19.5002H20.4002C20.4002 5.2938 18.2064 3.1 15.5002 3.1V4ZM19.5002 8H18.6002V13.4788H19.5002H20.4002V8H19.5002ZM19.5002 13.4788H18.6002C18.6002 15.1909 17.2123 16.5788 15.5002 16.5788V17.4788V18.3788C18.2064 18.3788 20.4002 16.185 20.4002 13.4788H19.5002ZM15.5002 17.4788V16.5788H11.0792V17.4788V18.3788H15.5002V17.4788ZM11.0792 17.4788C10.2198 17.2114 10.2199 17.211 10.2201 17.2107C10.2201 17.2106 10.2202 17.2102 10.2203 17.21C10.2204 17.2096 10.2205 17.2092 10.2206 17.2088C10.2209 17.2081 10.2211 17.2075 10.2212 17.207C10.2215 17.2061 10.2216 17.2058 10.2215 17.206C10.2214 17.2063 10.2206 17.2088 10.219 17.2134C10.2159 17.2224 10.2099 17.2395 10.2008 17.2635C10.1824 17.3116 10.1518 17.3871 10.1071 17.4821C10.0171 17.6732 9.87363 17.9361 9.66444 18.2121C9.2481 18.7614 8.59113 19.3406 7.57545 19.5516L7.75852 20.4328L7.94159 21.314C9.49347 20.9916 10.4968 20.0938 11.0989 19.2994C11.399 18.9036 11.6042 18.528 11.7357 18.2486C11.8018 18.1083 11.85 17.9905 11.8829 17.9042C11.8993 17.861 11.912 17.8255 11.9212 17.7988C11.9258 17.7855 11.9295 17.7743 11.9324 17.7655C11.9338 17.7611 11.935 17.7573 11.9361 17.754C11.9366 17.7524 11.9371 17.751 11.9375 17.7496C11.9377 17.749 11.9379 17.7484 11.9381 17.7478C11.9381 17.7475 11.9383 17.7471 11.9383 17.7469C11.9384 17.7465 11.9386 17.7461 11.0792 17.4788ZM10.1981 10.8H9.29806C9.29806 10.5779 9.4781 10.3979 9.7002 10.3979V11.2979V12.1979C10.4722 12.1979 11.0981 11.572 11.0981 10.8H10.1981ZM9.7002 11.2979V10.3979C9.9223 10.3979 10.1024 10.5779 10.1024 10.8H9.20235H8.30235C8.30235 11.572 8.92819 12.1979 9.7002 12.1979V11.2979ZM9.20235 10.8H10.1024C10.1024 11.0221 9.9223 11.2021 9.7002 11.2021V10.3021V9.40215C8.92819 9.40215 8.30235 10.028 8.30235 10.8H9.20235ZM9.7002 10.3021V11.2021C9.4781 11.2021 9.29806 11.0221 9.29806 10.8H10.1981H11.0981C11.0981 10.028 10.4722 9.40215 9.7002 9.40215V10.3021ZM15.1981 10.8H14.2981C14.2981 10.5779 14.4781 10.3979 14.7002 10.3979V11.2979V12.1979C15.4722 12.1979 16.0981 11.572 16.0981 10.8H15.1981ZM14.7002 11.2979V10.3979C14.9223 10.3979 15.1024 10.5779 15.1024 10.8H14.2024H13.3024C13.3024 11.572 13.9282 12.1979 14.7002 12.1979V11.2979ZM14.2024 10.8H15.1024C15.1024 11.0221 14.9223 11.2021 14.7002 11.2021V10.3021V9.40215C13.9282 9.40215 13.3024 10.028 13.3024 10.8H14.2024ZM14.7002 10.3021V11.2021C14.4781 11.2021 14.2981 11.0221 14.2981 10.8H15.1981H16.0981C16.0981 10.028 15.4722 9.40215 14.7002 9.40215V10.3021ZM22.0716 11.5684H21.1716V14H22.0716H22.9716V11.5684H22.0716ZM22.0716 14H21.1716C21.1716 16.8167 18.8883 19.1 16.0716 19.1V20V20.9C19.8824 20.9 22.9716 17.8108 22.9716 14H22.0716Z" fill="#202020"/></svg>