<svg width="20" height="20" viewBox="0 0 20 20" fill="none" xmlns="http://www.w3.org/2000/svg"><path d="M-600 -892C-600 -896.418 -596.418 -900 -592 -900H512C516.418 -900 520 -896.418 520 -892V798C520 802.418 516.418 806 512 806H-592C-596.418 806 -600 802.418 -600 798V-892Z" fill="white"/><path d="M-592 -900V-899H512V-900V-901H-592V-900ZM520 -892H519V798H520H521V-892H520ZM512 806V805H-592V806V807H512V806ZM-600 798H-599V-892H-600H-601V798H-600ZM-592 806V805C-595.866 805 -599 801.866 -599 798H-600H-601C-601 802.971 -596.971 807 -592 807V806ZM520 798H519C519 801.866 515.866 805 512 805V806V807C516.971 807 521 802.971 521 798H520ZM512 -900V-899C515.866 -899 519 -895.866 519 -892H520H521C521 -896.971 516.971 -901 512 -901V-900ZM-592 -900V-901C-596.971 -901 -601 -896.971 -601 -892H-600H-599C-599 -895.866 -595.866 -899 -592 -899V-900Z" fill="#F1F1F1"/><path d="M5.85215 15.3156C6.26636 15.3156 6.60215 14.9798 6.60215 14.5656C6.60215 14.1514 6.26636 13.8156 5.85215 13.8156V14.5656V15.3156ZM9.23242 14.5656V13.8156C8.90403 13.8156 8.61384 14.0293 8.51628 14.3428L9.23242 14.5656ZM6.31263 16.293C5.90707 16.3773 5.64661 16.7743 5.73087 17.1799C5.81513 17.5855 6.2122 17.8459 6.61775 17.7617L6.46519 17.0273L6.31263 16.293ZM19.1428 9.64031C19.1428 9.2261 18.807 8.89031 18.3928 8.89031C17.9785 8.89031 17.6428 9.2261 17.6428 9.64031H18.3928H19.1428ZM13.3928 15.9166C12.9785 15.9166 12.6428 16.2524 12.6428 16.6666C12.6428 17.0809 12.9785 17.4166 13.3928 17.4166V16.6666V15.9166ZM5.85215 14.5656V13.8156H5.07747V14.5656V15.3156H5.85215V14.5656ZM5.07747 14.5656V13.8156C3.65074 13.8156 2.49414 12.659 2.49414 11.2323H1.74414H0.994141C0.994141 13.4875 2.82231 15.3156 5.07747 15.3156V14.5656ZM1.74414 11.2323H2.49414V6.66665H1.74414H0.994141V11.2323H1.74414ZM1.74414 6.66665H2.49414C2.49414 5.23991 3.65074 4.08331 5.07747 4.08331V3.33331V2.58331C2.82231 2.58331 0.994141 4.41148 0.994141 6.66665H1.74414ZM5.07747 3.33331V4.08331H12.9166V3.33331V2.58331H5.07747V3.33331ZM12.9166 3.33331V4.08331C14.3433 4.08331 15.4999 5.23991 15.4999 6.66665H16.2499H16.9999C16.9999 4.41148 15.1717 2.58331 12.9166 2.58331V3.33331ZM16.2499 6.66665H15.4999V11.2323H16.2499H16.9999V6.66665H16.2499ZM16.2499 11.2323H15.4999C15.4999 12.659 14.3433 13.8156 12.9166 13.8156V14.5656V15.3156C15.1717 15.3156 16.9999 13.4875 16.9999 11.2323H16.2499ZM12.9166 14.5656V13.8156H9.23242V14.5656V15.3156H12.9166V14.5656ZM9.23242 14.5656C8.51628 14.3428 8.51637 14.3425 8.51647 14.3422C8.5165 14.3421 8.51659 14.3418 8.51665 14.3416C8.51676 14.3413 8.51686 14.3409 8.51696 14.3406C8.51715 14.34 8.51731 14.3395 8.51743 14.3392C8.51767 14.3384 8.51776 14.3381 8.51771 14.3383C8.51761 14.3386 8.51692 14.3407 8.51563 14.3444C8.51303 14.352 8.50802 14.3662 8.50039 14.3862C8.48511 14.4263 8.45957 14.4892 8.42232 14.5684C8.34735 14.7277 8.22778 14.9468 8.05346 15.1767C7.70651 15.6345 7.15903 16.1172 6.31263 16.293L6.46519 17.0273L6.61775 17.7617C7.91098 17.493 8.74711 16.7448 9.24887 16.0828C9.4989 15.7529 9.66996 15.4399 9.77953 15.2071C9.83455 15.0902 9.87476 14.9921 9.90215 14.9201C9.91587 14.8841 9.92642 14.8545 9.93407 14.8323C9.93789 14.8212 9.94099 14.8119 9.94339 14.8046C9.9446 14.8009 9.94562 14.7977 9.94648 14.795C9.94691 14.7937 9.9473 14.7924 9.94765 14.7913C9.94782 14.7908 9.94798 14.7903 9.94813 14.7898C9.94821 14.7895 9.94832 14.7892 9.94835 14.7891C9.94846 14.7888 9.94856 14.7884 9.23242 14.5656ZM8.49814 8.99998H7.74814C7.74814 8.8149 7.89817 8.66486 8.08326 8.66486V9.41486V10.1649C8.7266 10.1649 9.24814 9.64332 9.24814 8.99998H8.49814ZM8.08326 9.41486V8.66486C8.26834 8.66486 8.41838 8.8149 8.41838 8.99998H7.66838H6.91838C6.91838 9.64332 7.43992 10.1649 8.08326 10.1649V9.41486ZM7.66838 8.99998H8.41838C8.41838 9.18506 8.26834 9.3351 8.08326 9.3351V8.5851V7.8351C7.43992 7.8351 6.91838 8.35663 6.91838 8.99998H7.66838ZM8.08326 8.5851V9.3351C7.89818 9.3351 7.74814 9.18506 7.74814 8.99998H8.49814H9.24814C9.24814 8.35664 8.7266 7.8351 8.08326 7.8351V8.5851ZM12.6648 8.99998H11.9148C11.9148 8.8149 12.0648 8.66486 12.2499 8.66486V9.41486V10.1649C12.8933 10.1649 13.4148 9.64332 13.4148 8.99998H12.6648ZM12.2499 9.41486V8.66486C12.435 8.66486 12.585 8.8149 12.585 8.99998H11.835H11.085C11.085 9.64332 11.6066 10.1649 12.2499 10.1649V9.41486ZM11.835 8.99998H12.585C12.585 9.18506 12.435 9.3351 12.2499 9.3351V8.5851V7.8351C11.6066 7.8351 11.085 8.35664 11.085 8.99998H11.835ZM12.2499 8.5851V9.3351C12.0648 9.3351 11.9148 9.18506 11.9148 8.99998H12.6648H13.4148C13.4148 8.35664 12.8933 7.8351 12.2499 7.8351V8.5851ZM18.3928 9.64031H17.6428V11.6666H18.3928H19.1428V9.64031H18.3928ZM18.3928 11.6666H17.6428C17.6428 14.0139 15.74 15.9166 13.3928 15.9166V16.6666V17.4166C16.5684 17.4166 19.1428 14.8423 19.1428 11.6666H18.3928Z" fill="#202020"/></svg>