<svg width="12" height="12" viewBox="0 0 12 12" fill="none" xmlns="http://www.w3.org/2000/svg"><path d="M-376 -92C-376 -96.4183 -372.418 -100 -368 -100H696C700.418 -100 704 -96.4183 704 -92V1562C704 1566.42 700.418 1570 696 1570H-368C-372.418 1570 -376 1566.42 -376 1562V-92Z" fill="white"/><path d="M-368 -100V-99H696V-100V-101H-368V-100ZM704 -92H703V1562H704H705V-92H704ZM696 1570V1569H-368V1570V1571H696V1570ZM-376 1562H-375V-92H-376H-377V1562H-376ZM-368 1570V1569C-371.866 1569 -375 1565.87 -375 1562H-376H-377C-377 1566.97 -372.971 1571 -368 1571V1570ZM704 1562H703C703 1565.87 699.866 1569 696 1569V1570V1571C700.971 1571 705 1566.97 705 1562H704ZM696 -100V-99C699.866 -99 703 -95.866 703 -92H704H705C705 -96.9706 700.971 -101 696 -101V-100ZM-368 -100V-101C-372.971 -101 -377 -96.9706 -377 -92H-376H-375C-375 -95.866 -371.866 -99 -368 -99V-100Z" fill="#F1F1F1"/><path d="M2.4834 5.94495L4.94156 8.40311C5.00404 8.46559 5.10535 8.46559 5.16783 8.40311L9.51591 4.05503" stroke="#202020" stroke-width="1.3" stroke-linecap="round"/></svg>