<svg width="16" height="16" viewBox="0 0 16 16" fill="none" xmlns="http://www.w3.org/2000/svg"><path d="M-292 -188C-292 -192.418 -288.418 -196 -284 -196H780C784.418 -196 788 -192.418 788 -188V1466C788 1470.42 784.418 1474 780 1474H-284C-288.418 1474 -292 1470.42 -292 1466V-188Z" fill="white"/><path d="M-284 -196V-195H780V-196V-197H-284V-196ZM788 -188H787V1466H788H789V-188H788ZM780 1474V1473H-284V1474V1475H780V1474ZM-292 1466H-291V-188H-292H-293V1466H-292ZM-284 1474V1473C-287.866 1473 -291 1469.87 -291 1466H-292H-293C-293 1470.97 -288.971 1475 -284 1475V1474ZM788 1466H787C787 1469.87 783.866 1473 780 1473V1474V1475C784.971 1475 789 1470.97 789 1466H788ZM780 -196V-195C783.866 -195 787 -191.866 787 -188H788H789C789 -192.971 784.971 -197 780 -197V-196ZM-284 -196V-197C-288.971 -197 -293 -192.971 -293 -188H-292H-291C-291 -191.866 -287.866 -195 -284 -195V-196Z" fill="#F1F1F1"/><path d="M4.4834 7.94495L6.94156 10.4031C7.00404 10.4656 7.10535 10.4656 7.16783 10.4031L11.5159 6.05503" stroke="#202020" stroke-width="1.3" stroke-linecap="round"/></svg>