<svg width="32" height="32" viewBox="0 0 32 32" fill="none" xmlns="http://www.w3.org/2000/svg"><path d="M-772 -92C-772 -96.4183 -768.418 -100 -764 -100H460C464.418 -100 468 -96.4183 468 -92V1598C468 1602.42 464.418 1606 460 1606H-764C-768.418 1606 -772 1602.42 -772 1598V-92Z" fill="white"/><path d="M-764 -100V-99H460V-100V-101H-764V-100ZM468 -92H467V1598H468H469V-92H468ZM460 1606V1605H-764V1606V1607H460V1606ZM-772 1598H-771V-92H-772H-773V1598H-772ZM-764 1606V1605C-767.866 1605 -771 1601.87 -771 1598H-772H-773C-773 1602.97 -768.971 1607 -764 1607V1606ZM468 1598H467C467 1601.87 463.866 1605 460 1605V1606V1607C464.971 1607 469 1602.97 469 1598H468ZM460 -100V-99C463.866 -99 467 -95.866 467 -92H468H469C469 -96.9706 464.971 -101 460 -101V-100ZM-764 -100V-101C-768.971 -101 -773 -96.9706 -773 -92H-772H-771C-771 -95.866 -767.866 -99 -764 -99V-100Z" fill="#F1F1F1"/><path d="M29.3334 14.7733V16C29.3318 18.8752 28.4008 21.6729 26.6792 23.9758C24.9576 26.2786 22.5378 27.9633 19.7806 28.7785C17.0233 29.5938 14.0764 29.4959 11.3794 28.4994C8.68232 27.503 6.37962 25.6615 4.8147 23.2494C3.24977 20.8374 2.50647 17.9841 2.69565 15.1151C2.88483 12.2461 3.99636 9.5151 5.86445 7.32943C7.73255 5.14376 10.2571 3.62051 13.0617 2.98686C15.8662 2.35321 18.8004 2.64312 21.4268 3.81333M29.3334 5.33333L16.0001 18.68L12.0001 14.68" stroke="#202020" stroke-width="2.2" stroke-linecap="round" stroke-linejoin="round"/></svg>