<svg width="32" height="32" viewBox="0 0 32 32" fill="none" xmlns="http://www.w3.org/2000/svg"><path d="M-884 -92C-884 -96.4183 -880.418 -100 -876 -100H348C352.418 -100 356 -96.4183 356 -92V1598C356 1602.42 352.418 1606 348 1606H-876C-880.418 1606 -884 1602.42 -884 1598V-92Z" fill="white"/><path d="M-876 -100V-99H348V-100V-101H-876V-100ZM356 -92H355V1598H356H357V-92H356ZM348 1606V1605H-876V1606V1607H348V1606ZM-884 1598H-883V-92H-884H-885V1598H-884ZM-876 1606V1605C-879.866 1605 -883 1601.87 -883 1598H-884H-885C-885 1602.97 -880.971 1607 -876 1607V1606ZM356 1598H355C355 1601.87 351.866 1605 348 1605V1606V1607C352.971 1607 357 1602.97 357 1598H356ZM348 -100V-99C351.866 -99 355 -95.866 355 -92H356H357C357 -96.9706 352.971 -101 348 -101V-100ZM-876 -100V-101C-880.971 -101 -885 -96.9706 -885 -92H-884H-883C-883 -95.866 -879.866 -99 -876 -99V-100Z" fill="#F1F1F1"/><path d="M12 14.6667L16 18.6667L29.3333 5.33333M28 16V25.3333C28 26.0406 27.719 26.7189 27.219 27.219C26.7189 27.719 26.0406 28 25.3333 28H6.66667C5.95942 28 5.28115 27.719 4.78105 27.219C4.28095 26.7189 4 26.0406 4 25.3333V6.66667C4 5.95942 4.28095 5.28115 4.78105 4.78105C5.28115 4.28095 5.95942 4 6.66667 4H21.3333" stroke="#202020" stroke-width="2.2" stroke-linecap="round" stroke-linejoin="round"/></svg>