<svg width="20" height="20" viewBox="0 0 20 20" fill="none" xmlns="http://www.w3.org/2000/svg"><path d="M-300 -192C-300 -196.418 -296.418 -200 -292 -200H812C816.418 -200 820 -196.418 820 -192V1498C820 1502.42 816.418 1506 812 1506H-292C-296.418 1506 -300 1502.42 -300 1498V-192Z" fill="white"/><path d="M-292 -200V-199H812V-200V-201H-292V-200ZM820 -192H819V1498H820H821V-192H820ZM812 1506V1505H-292V1506V1507H812V1506ZM-300 1498H-299V-192H-300H-301V1498H-300ZM-292 1506V1505C-295.866 1505 -299 1501.87 -299 1498H-300H-301C-301 1502.97 -296.971 1507 -292 1507V1506ZM820 1498H819C819 1501.87 815.866 1505 812 1505V1506V1507C816.971 1507 821 1502.97 821 1498H820ZM812 -200V-199C815.866 -199 819 -195.866 819 -192H820H821C821 -196.971 816.971 -201 812 -201V-200ZM-292 -200V-201C-296.971 -201 -301 -196.971 -301 -192H-300H-299C-299 -195.866 -295.866 -199 -292 -199V-200Z" fill="#F1F1F1"/><path d="M16.6668 5L7.50016 14.1667L3.3335 10" stroke="#202020" stroke-width="1.5" stroke-linecap="round" stroke-linejoin="round"/></svg>