<svg width="20" height="20" viewBox="0 0 20 20" fill="none" xmlns="http://www.w3.org/2000/svg"><path d="M-500 -192C-500 -196.418 -496.418 -200 -492 -200H612C616.418 -200 620 -196.418 620 -192V1498C620 1502.42 616.418 1506 612 1506H-492C-496.418 1506 -500 1502.42 -500 1498V-192Z" fill="white"/><path d="M-492 -200V-199H612V-200V-201H-492V-200ZM620 -192H619V1498H620H621V-192H620ZM612 1506V1505H-492V1506V1507H612V1506ZM-500 1498H-499V-192H-500H-501V1498H-500ZM-492 1506V1505C-495.866 1505 -499 1501.87 -499 1498H-500H-501C-501 1502.97 -496.971 1507 -492 1507V1506ZM620 1498H619C619 1501.87 615.866 1505 612 1505V1506V1507C616.971 1507 621 1502.97 621 1498H620ZM612 -200V-199C615.866 -199 619 -195.866 619 -192H620H621C621 -196.971 616.971 -201 612 -201V-200ZM-492 -200V-201C-496.971 -201 -501 -196.971 -501 -192H-500H-499C-499 -195.866 -495.866 -199 -492 -199V-200Z" fill="#F1F1F1"/><path d="M12.5 15L7.5 10L12.5 5" stroke="#202020" stroke-width="1.5" stroke-linecap="round" stroke-linejoin="round"/></svg>