<svg width="12" height="12" viewBox="0 0 12 12" fill="none" xmlns="http://www.w3.org/2000/svg"><path d="M-744 -92C-744 -96.4183 -740.418 -100 -736 -100H328C332.418 -100 336 -96.4183 336 -92V1562C336 1566.42 332.418 1570 328 1570H-736C-740.418 1570 -744 1566.42 -744 1562V-92Z" fill="white"/><path d="M-736 -100V-99H328V-100V-101H-736V-100ZM336 -92H335V1562H336H337V-92H336ZM328 1570V1569H-736V1570V1571H328V1570ZM-744 1562H-743V-92H-744H-745V1562H-744ZM-736 1570V1569C-739.866 1569 -743 1565.87 -743 1562H-744H-745C-745 1566.97 -740.971 1571 -736 1571V1570ZM336 1562H335C335 1565.87 331.866 1569 328 1569V1570V1571C332.971 1571 337 1566.97 337 1562H336ZM328 -100V-99C331.866 -99 335 -95.866 335 -92H336H337C337 -96.9706 332.971 -101 328 -101V-100ZM-736 -100V-101C-740.971 -101 -745 -96.9706 -745 -92H-744H-743C-743 -95.866 -739.866 -99 -736 -99V-100Z" fill="#F1F1F1"/><path d="M9 7.5L6 4.5L3 7.5" stroke="#202020" stroke-width="1.3" stroke-linecap="round" stroke-linejoin="round"/></svg>