<svg width="12" height="12" viewBox="0 0 12 12" fill="none" xmlns="http://www.w3.org/2000/svg"><path d="M-468 -92C-468 -96.4183 -464.418 -100 -460 -100H604C608.418 -100 612 -96.4183 612 -92V1562C612 1566.42 608.418 1570 604 1570H-460C-464.418 1570 -468 1566.42 -468 1562V-92Z" fill="white"/><path d="M-460 -100V-99H604V-100V-101H-460V-100ZM612 -92H611V1562H612H613V-92H612ZM604 1570V1569H-460V1570V1571H604V1570ZM-468 1562H-467V-92H-468H-469V1562H-468ZM-460 1570V1569C-463.866 1569 -467 1565.87 -467 1562H-468H-469C-469 1566.97 -464.971 1571 -460 1571V1570ZM612 1562H611C611 1565.87 607.866 1569 604 1569V1570V1571C608.971 1571 613 1566.97 613 1562H612ZM604 -100V-99C607.866 -99 611 -95.866 611 -92H612H613C613 -96.9706 608.971 -101 604 -101V-100ZM-460 -100V-101C-464.971 -101 -469 -96.9706 -469 -92H-468H-467C-467 -95.866 -463.866 -99 -460 -99V-100Z" fill="#F1F1F1"/><path d="M3 4.5L6 7.5L9 4.5" stroke="#202020" stroke-width="1.3" stroke-linecap="round" stroke-linejoin="round"/></svg>