<svg width="12" height="12" viewBox="0 0 12 12" fill="none" xmlns="http://www.w3.org/2000/svg"><path d="M-973 -363C-973 -364.105 -972.105 -365 -971 -365H248C249.105 -365 250 -364.105 250 -363V476C250 477.105 249.105 478 248 478H-971C-972.105 478 -973 477.105 -973 476V-363Z" fill="white"/><path d="M-971 -365V-364H248V-365V-366H-971V-365ZM250 -363H249V476H250H251V-363H250ZM248 478V477H-971V478V479H248V478ZM-973 476H-972V-363H-973H-974V476H-973ZM-971 478V477C-971.552 477 -972 476.552 -972 476H-973H-974C-974 477.657 -972.657 479 -971 479V478ZM250 476H249C249 476.552 248.552 477 248 477V478V479C249.657 479 251 477.657 251 476H250ZM248 -365V-364C248.552 -364 249 -363.552 249 -363H250H251C251 -364.657 249.657 -366 248 -366V-365ZM-971 -365V-366C-972.657 -366 -974 -364.657 -974 -363H-973H-972C-972 -363.552 -971.552 -364 -971 -364V-365Z" fill="black" fill-opacity="0.1"/><path d="M9 7.5L6 4.5L3 7.5" stroke="#202020" stroke-width="1.3" stroke-linecap="round" stroke-linejoin="round"/></svg>