<svg width="16" height="16" viewBox="0 0 16 16" fill="none" xmlns="http://www.w3.org/2000/svg"><path d="M-484 -188C-484 -192.418 -480.418 -196 -476 -196H588C592.418 -196 596 -192.418 596 -188V1466C596 1470.42 592.418 1474 588 1474H-476C-480.418 1474 -484 1470.42 -484 1466V-188Z" fill="white"/><path d="M-476 -196V-195H588V-196V-197H-476V-196ZM596 -188H595V1466H596H597V-188H596ZM588 1474V1473H-476V1474V1475H588V1474ZM-484 1466H-483V-188H-484H-485V1466H-484ZM-476 1474V1473C-479.866 1473 -483 1469.87 -483 1466H-484H-485C-485 1470.97 -480.971 1475 -476 1475V1474ZM596 1466H595C595 1469.87 591.866 1473 588 1473V1474V1475C592.971 1475 597 1470.97 597 1466H596ZM588 -196V-195C591.866 -195 595 -191.866 595 -188H596H597C597 -192.971 592.971 -197 588 -197V-196ZM-476 -196V-197C-480.971 -197 -485 -192.971 -485 -188H-484H-483C-483 -191.866 -479.866 -195 -476 -195V-196Z" fill="#F1F1F1"/><path d="M10 12L6 8L10 4" stroke="#202020" stroke-width="1.3" stroke-linecap="round" stroke-linejoin="round"/></svg>