<svg width="24" height="24" viewBox="0 0 24 24" fill="none" xmlns="http://www.w3.org/2000/svg"><path d="M-412 -196C-412 -200.418 -408.418 -204 -404 -204H740C744.418 -204 748 -200.418 748 -196V1494C748 1498.42 744.418 1502 740 1502H-404C-408.418 1502 -412 1498.42 -412 1494V-196Z" fill="white"/><path d="M-404 -204V-203H740V-204V-205H-404V-204ZM748 -196H747V1494H748H749V-196H748ZM740 1502V1501H-404V1502V1503H740V1502ZM-412 1494H-411V-196H-412H-413V1494H-412ZM-404 1502V1501C-407.866 1501 -411 1497.87 -411 1494H-412H-413C-413 1498.97 -408.971 1503 -404 1503V1502ZM748 1494H747C747 1497.87 743.866 1501 740 1501V1502V1503C744.971 1503 749 1498.97 749 1494H748ZM740 -204V-203C743.866 -203 747 -199.866 747 -196H748H749C749 -200.971 744.971 -205 740 -205V-204ZM-404 -204V-205C-408.971 -205 -413 -200.971 -413 -196H-412H-411C-411 -199.866 -407.866 -203 -404 -203V-204Z" fill="#F1F1F1"/><path d="M4 10L12 18L20 10" stroke="#202020" stroke-width="1.8" stroke-linecap="round" stroke-linejoin="round"/></svg>