<svg width="20" height="20" viewBox="0 0 20 20" fill="none" xmlns="http://www.w3.org/2000/svg"><path d="M-600 -192C-600 -196.418 -596.418 -200 -592 -200H512C516.418 -200 520 -196.418 520 -192V1498C520 1502.42 516.418 1506 512 1506H-592C-596.418 1506 -600 1502.42 -600 1498V-192Z" fill="white"/><path d="M-592 -200V-199H512V-200V-201H-592V-200ZM520 -192H519V1498H520H521V-192H520ZM512 1506V1505H-592V1506V1507H512V1506ZM-600 1498H-599V-192H-600H-601V1498H-600ZM-592 1506V1505C-595.866 1505 -599 1501.87 -599 1498H-600H-601C-601 1502.97 -596.971 1507 -592 1507V1506ZM520 1498H519C519 1501.87 515.866 1505 512 1505V1506V1507C516.971 1507 521 1502.97 521 1498H520ZM512 -200V-199C515.866 -199 519 -195.866 519 -192H520H521C521 -196.971 516.971 -201 512 -201V-200ZM-592 -200V-201C-596.971 -201 -601 -196.971 -601 -192H-600H-599C-599 -195.866 -595.866 -199 -592 -199V-200Z" fill="#F1F1F1"/><path d="M7.5 15L12.5 10L7.5 5" stroke="#202020" stroke-width="1.5" stroke-linecap="round" stroke-linejoin="round"/></svg>