<svg width="12" height="12" viewBox="0 0 12 12" fill="none" xmlns="http://www.w3.org/2000/svg"><path d="M-652 -92C-652 -96.4183 -648.418 -100 -644 -100H420C424.418 -100 428 -96.4183 428 -92V1562C428 1566.42 424.418 1570 420 1570H-644C-648.418 1570 -652 1566.42 -652 1562V-92Z" fill="white"/><path d="M-644 -100V-99H420V-100V-101H-644V-100ZM428 -92H427V1562H428H429V-92H428ZM420 1570V1569H-644V1570V1571H420V1570ZM-652 1562H-651V-92H-652H-653V1562H-652ZM-644 1570V1569C-647.866 1569 -651 1565.87 -651 1562H-652H-653C-653 1566.97 -648.971 1571 -644 1571V1570ZM428 1562H427C427 1565.87 423.866 1569 420 1569V1570V1571C424.971 1571 429 1566.97 429 1562H428ZM420 -100V-99C423.866 -99 427 -95.866 427 -92H428H429C429 -96.9706 424.971 -101 420 -101V-100ZM-644 -100V-101C-648.971 -101 -653 -96.9706 -653 -92H-652H-651C-651 -95.866 -647.866 -99 -644 -99V-100Z" fill="#F1F1F1"/><path d="M4.5 9L7.5 6L4.5 3" stroke="#202020" stroke-width="1.3" stroke-linecap="round" stroke-linejoin="round"/></svg>