<svg width="16" height="16" viewBox="0 0 16 16" fill="none" xmlns="http://www.w3.org/2000/svg"><path d="M-676 -188C-676 -192.418 -672.418 -196 -668 -196H396C400.418 -196 404 -192.418 404 -188V1466C404 1470.42 400.418 1474 396 1474H-668C-672.418 1474 -676 1470.42 -676 1466V-188Z" fill="white"/><path d="M-668 -196V-195H396V-196V-197H-668V-196ZM404 -188H403V1466H404H405V-188H404ZM396 1474V1473H-668V1474V1475H396V1474ZM-676 1466H-675V-188H-676H-677V1466H-676ZM-668 1474V1473C-671.866 1473 -675 1469.87 -675 1466H-676H-677C-677 1470.97 -672.971 1475 -668 1475V1474ZM404 1466H403C403 1469.87 399.866 1473 396 1473V1474V1475C400.971 1475 405 1470.97 405 1466H404ZM396 -196V-195C399.866 -195 403 -191.866 403 -188H404H405C405 -192.971 400.971 -197 396 -197V-196ZM-668 -196V-197C-672.971 -197 -677 -192.971 -677 -188H-676H-675C-675 -191.866 -671.866 -195 -668 -195V-196Z" fill="#F1F1F1"/><path d="M12 10L8 6L4 10" stroke="#202020" stroke-width="1.3" stroke-linecap="round" stroke-linejoin="round"/></svg>