<svg width="12" height="12" viewBox="0 0 12 12" fill="none" xmlns="http://www.w3.org/2000/svg"><path d="M-560 -92C-560 -96.4183 -556.418 -100 -552 -100H512C516.418 -100 520 -96.4183 520 -92V1562C520 1566.42 516.418 1570 512 1570H-552C-556.418 1570 -560 1566.42 -560 1562V-92Z" fill="white"/><path d="M-552 -100V-99H512V-100V-101H-552V-100ZM520 -92H519V1562H520H521V-92H520ZM512 1570V1569H-552V1570V1571H512V1570ZM-560 1562H-559V-92H-560H-561V1562H-560ZM-552 1570V1569C-555.866 1569 -559 1565.87 -559 1562H-560H-561C-561 1566.97 -556.971 1571 -552 1571V1570ZM520 1562H519C519 1565.87 515.866 1569 512 1569V1570V1571C516.971 1571 521 1566.97 521 1562H520ZM512 -100V-99C515.866 -99 519 -95.866 519 -92H520H521C521 -96.9706 516.971 -101 512 -101V-100ZM-552 -100V-101C-556.971 -101 -561 -96.9706 -561 -92H-560H-559C-559 -95.866 -555.866 -99 -552 -99V-100Z" fill="#F1F1F1"/><path d="M7.5 9L4.5 6L7.5 3" stroke="#202020" stroke-width="1.3" stroke-linecap="round" stroke-linejoin="round"/></svg>