<svg width="16" height="16" viewBox="0 0 16 16" fill="none" xmlns="http://www.w3.org/2000/svg"><path d="M-388 -188C-388 -192.418 -384.418 -196 -380 -196H684C688.418 -196 692 -192.418 692 -188V1466C692 1470.42 688.418 1474 684 1474H-380C-384.418 1474 -388 1470.42 -388 1466V-188Z" fill="white"/><path d="M-380 -196V-195H684V-196V-197H-380V-196ZM692 -188H691V1466H692H693V-188H692ZM684 1474V1473H-380V1474V1475H684V1474ZM-388 1466H-387V-188H-388H-389V1466H-388ZM-380 1474V1473C-383.866 1473 -387 1469.87 -387 1466H-388H-389C-389 1470.97 -384.971 1475 -380 1475V1474ZM692 1466H691C691 1469.87 687.866 1473 684 1473V1474V1475C688.971 1475 693 1470.97 693 1466H692ZM684 -196V-195C687.866 -195 691 -191.866 691 -188H692H693C693 -192.971 688.971 -197 684 -197V-196ZM-380 -196V-197C-384.971 -197 -389 -192.971 -389 -188H-388H-387C-387 -191.866 -383.866 -195 -380 -195V-196Z" fill="#F1F1F1"/><path d="M4 6L8 10L12 6" stroke="#202020" stroke-width="1.3" stroke-linecap="round" stroke-linejoin="round"/></svg>