<svg width="20" height="20" viewBox="0 0 20 20" fill="none" xmlns="http://www.w3.org/2000/svg"><path d="M-700 -192C-700 -196.418 -696.418 -200 -692 -200H412C416.418 -200 420 -196.418 420 -192V1498C420 1502.42 416.418 1506 412 1506H-692C-696.418 1506 -700 1502.42 -700 1498V-192Z" fill="white"/><path d="M-692 -200V-199H412V-200V-201H-692V-200ZM420 -192H419V1498H420H421V-192H420ZM412 1506V1505H-692V1506V1507H412V1506ZM-700 1498H-699V-192H-700H-701V1498H-700ZM-692 1506V1505C-695.866 1505 -699 1501.87 -699 1498H-700H-701C-701 1502.97 -696.971 1507 -692 1507V1506ZM420 1498H419C419 1501.87 415.866 1505 412 1505V1506V1507C416.971 1507 421 1502.97 421 1498H420ZM412 -200V-199C415.866 -199 419 -195.866 419 -192H420H421C421 -196.971 416.971 -201 412 -201V-200ZM-692 -200V-201C-696.971 -201 -701 -196.971 -701 -192H-700H-699C-699 -195.866 -695.866 -199 -692 -199V-200Z" fill="#F1F1F1"/><path d="M15 12.5L10 7.5L5 12.5" stroke="#202020" stroke-width="1.5" stroke-linecap="round" stroke-linejoin="round"/></svg>