<svg width="16" height="16" viewBox="0 0 16 16" fill="none" xmlns="http://www.w3.org/2000/svg"><path d="M-580 -188C-580 -192.418 -576.418 -196 -572 -196H492C496.418 -196 500 -192.418 500 -188V1466C500 1470.42 496.418 1474 492 1474H-572C-576.418 1474 -580 1470.42 -580 1466V-188Z" fill="white"/><path d="M-572 -196V-195H492V-196V-197H-572V-196ZM500 -188H499V1466H500H501V-188H500ZM492 1474V1473H-572V1474V1475H492V1474ZM-580 1466H-579V-188H-580H-581V1466H-580ZM-572 1474V1473C-575.866 1473 -579 1469.87 -579 1466H-580H-581C-581 1470.97 -576.971 1475 -572 1475V1474ZM500 1466H499C499 1469.87 495.866 1473 492 1473V1474V1475C496.971 1475 501 1470.97 501 1466H500ZM492 -196V-195C495.866 -195 499 -191.866 499 -188H500H501C501 -192.971 496.971 -197 492 -197V-196ZM-572 -196V-197C-576.971 -197 -581 -192.971 -581 -188H-580H-579C-579 -191.866 -575.866 -195 -572 -195V-196Z" fill="#F1F1F1"/><path d="M6 12L10 8L6 4" stroke="#202020" stroke-width="1.3" stroke-linecap="round" stroke-linejoin="round"/></svg>