<svg width="16" height="16" viewBox="0 0 16 16" fill="none" xmlns="http://www.w3.org/2000/svg"><path d="M-772 -188C-772 -192.418 -768.418 -196 -764 -196H300C304.418 -196 308 -192.418 308 -188V1466C308 1470.42 304.418 1474 300 1474H-764C-768.418 1474 -772 1470.42 -772 1466V-188Z" fill="white"/><path d="M-764 -196V-195H300V-196V-197H-764V-196ZM308 -188H307V1466H308H309V-188H308ZM300 1474V1473H-764V1474V1475H300V1474ZM-772 1466H-771V-188H-772H-773V1466H-772ZM-764 1474V1473C-767.866 1473 -771 1469.87 -771 1466H-772H-773C-773 1470.97 -768.971 1475 -764 1475V1474ZM308 1466H307C307 1469.87 303.866 1473 300 1473V1474V1475C304.971 1475 309 1470.97 309 1466H308ZM300 -196V-195C303.866 -195 307 -191.866 307 -188H308H309C309 -192.971 304.971 -197 300 -197V-196ZM-764 -196V-197C-768.971 -197 -773 -192.971 -773 -188H-772H-771C-771 -191.866 -767.866 -195 -764 -195V-196Z" fill="#F1F1F1"/><path d="M8.00016 14.6667C11.6821 14.6667 14.6668 11.6819 14.6668 7.99999C14.6668 4.3181 11.6821 1.33333 8.00016 1.33333C4.31826 1.33333 1.3335 4.3181 1.3335 7.99999C1.3335 11.6819 4.31826 14.6667 8.00016 14.6667Z" stroke="#202020" stroke-width="1.3" stroke-linecap="round" stroke-linejoin="round"/><defs><clipPath id="clip0_7809_18809"><rect width="16" height="16" fill="white"/></clipPath></defs></svg>