<svg width="20" height="20" viewBox="0 0 20 20" fill="none" xmlns="http://www.w3.org/2000/svg"><path d="M-800 -192C-800 -196.418 -796.418 -200 -792 -200H312C316.418 -200 320 -196.418 320 -192V1498C320 1502.42 316.418 1506 312 1506H-792C-796.418 1506 -800 1502.42 -800 1498V-192Z" fill="white"/><path d="M-792 -200V-199H312V-200V-201H-792V-200ZM320 -192H319V1498H320H321V-192H320ZM312 1506V1505H-792V1506V1507H312V1506ZM-800 1498H-799V-192H-800H-801V1498H-800ZM-792 1506V1505C-795.866 1505 -799 1501.87 -799 1498H-800H-801C-801 1502.97 -796.971 1507 -792 1507V1506ZM320 1498H319C319 1501.87 315.866 1505 312 1505V1506V1507C316.971 1507 321 1502.97 321 1498H320ZM312 -200V-199C315.866 -199 319 -195.866 319 -192H320H321C321 -196.971 316.971 -201 312 -201V-200ZM-792 -200V-201C-796.971 -201 -801 -196.971 -801 -192H-800H-799C-799 -195.866 -795.866 -199 -792 -199V-200Z" fill="#F1F1F1"/><path d="M9.99984 18.3333C14.6022 18.3333 18.3332 14.6024 18.3332 10C18.3332 5.39763 14.6022 1.66667 9.99984 1.66667C5.39746 1.66667 1.6665 5.39763 1.6665 10C1.6665 14.6024 5.39746 18.3333 9.99984 18.3333Z" stroke="#202020" stroke-width="1.5" stroke-linecap="round" stroke-linejoin="round"/><defs><clipPath id="clip0_7809_18809"><rect width="20" height="20" fill="white"/></clipPath></defs></svg>