<svg width="12" height="12" viewBox="0 0 12 12" fill="none" xmlns="http://www.w3.org/2000/svg"><path d="M-836 -92C-836 -96.4183 -832.418 -100 -828 -100H236C240.418 -100 244 -96.4183 244 -92V1562C244 1566.42 240.418 1570 236 1570H-828C-832.418 1570 -836 1566.42 -836 1562V-92Z" fill="white"/><path d="M-828 -100V-99H236V-100V-101H-828V-100ZM244 -92H243V1562H244H245V-92H244ZM236 1570V1569H-828V1570V1571H236V1570ZM-836 1562H-835V-92H-836H-837V1562H-836ZM-828 1570V1569C-831.866 1569 -835 1565.87 -835 1562H-836H-837C-837 1566.97 -832.971 1571 -828 1571V1570ZM244 1562H243C243 1565.87 239.866 1569 236 1569V1570V1571C240.971 1571 245 1566.97 245 1562H244ZM236 -100V-99C239.866 -99 243 -95.866 243 -92H244H245C245 -96.9706 240.971 -101 236 -101V-100ZM-828 -100V-101C-832.971 -101 -837 -96.9706 -837 -92H-836H-835C-835 -95.866 -831.866 -99 -828 -99V-100Z" fill="#F1F1F1"/><path d="M6 11C8.76142 11 11 8.76142 11 6C11 3.23858 8.76142 1 6 1C3.23858 1 1 3.23858 1 6C1 8.76142 3.23858 11 6 11Z" stroke="#202020" stroke-width="1.3" stroke-linecap="round" stroke-linejoin="round"/><defs><clipPath id="clip0_7809_18809"><rect width="12" height="12" fill="white"/></clipPath></defs></svg>