<svg width="12" height="12" viewBox="0 0 12 12" fill="none" xmlns="http://www.w3.org/2000/svg"><path d="M-928 -92C-928 -96.4183 -924.418 -100 -920 -100H144C148.418 -100 152 -96.4183 152 -92V1562C152 1566.42 148.418 1570 144 1570H-920C-924.418 1570 -928 1566.42 -928 1562V-92Z" fill="white"/><path d="M-920 -100V-99H144V-100V-101H-920V-100ZM152 -92H151V1562H152H153V-92H152ZM144 1570V1569H-920V1570V1571H144V1570ZM-928 1562H-927V-92H-928H-929V1562H-928ZM-920 1570V1569C-923.866 1569 -927 1565.87 -927 1562H-928H-929C-929 1566.97 -924.971 1571 -920 1571V1570ZM152 1562H151C151 1565.87 147.866 1569 144 1569V1570V1571C148.971 1571 153 1566.97 153 1562H152ZM144 -100V-99C147.866 -99 151 -95.866 151 -92H152H153C153 -96.9706 148.971 -101 144 -101V-100ZM-920 -100V-101C-924.971 -101 -929 -96.9706 -929 -92H-928H-927C-927 -95.866 -923.866 -99 -920 -99V-100Z" fill="#F1F1F1"/><path d="M6 3V6L8 7M11 6C11 8.76142 8.76142 11 6 11C3.23858 11 1 8.76142 1 6C1 3.23858 3.23858 1 6 1C8.76142 1 11 3.23858 11 6Z" stroke="#202020" stroke-width="1.3" stroke-linecap="round" stroke-linejoin="round"/><defs><clipPath id="clip0_7809_18809"><rect width="12" height="12" fill="white"/></clipPath></defs></svg>