<svg width="16" height="16" viewBox="0 0 16 16" fill="none" xmlns="http://www.w3.org/2000/svg"><path d="M-868 -188C-868 -192.418 -864.418 -196 -860 -196H204C208.418 -196 212 -192.418 212 -188V1466C212 1470.42 208.418 1474 204 1474H-860C-864.418 1474 -868 1470.42 -868 1466V-188Z" fill="white"/><path d="M-860 -196V-195H204V-196V-197H-860V-196ZM212 -188H211V1466H212H213V-188H212ZM204 1474V1473H-860V1474V1475H204V1474ZM-868 1466H-867V-188H-868H-869V1466H-868ZM-860 1474V1473C-863.866 1473 -867 1469.87 -867 1466H-868H-869C-869 1470.97 -864.971 1475 -860 1475V1474ZM212 1466H211C211 1469.87 207.866 1473 204 1473V1474V1475C208.971 1475 213 1470.97 213 1466H212ZM204 -196V-195C207.866 -195 211 -191.866 211 -188H212H213C213 -192.971 208.971 -197 204 -197V-196ZM-860 -196V-197C-864.971 -197 -869 -192.971 -869 -188H-868H-867C-867 -191.866 -863.866 -195 -860 -195V-196Z" fill="#F1F1F1"/><path d="M8.00016 3.99999V7.99999L10.6668 9.33333M14.6668 7.99999C14.6668 11.6819 11.6821 14.6667 8.00016 14.6667C4.31826 14.6667 1.3335 11.6819 1.3335 7.99999C1.3335 4.3181 4.31826 1.33333 8.00016 1.33333C11.6821 1.33333 14.6668 4.3181 14.6668 7.99999Z" stroke="#202020" stroke-width="1.3" stroke-linecap="round" stroke-linejoin="round"/><defs><clipPath id="clip0_7809_18809"><rect width="16" height="16" fill="white"/></clipPath></defs></svg>