<svg width="20" height="20" viewBox="0 0 20 20" fill="none" xmlns="http://www.w3.org/2000/svg"><path d="M-900 -192C-900 -196.418 -896.418 -200 -892 -200H212C216.418 -200 220 -196.418 220 -192V1498C220 1502.42 216.418 1506 212 1506H-892C-896.418 1506 -900 1502.42 -900 1498V-192Z" fill="white"/><path d="M-892 -200V-199H212V-200V-201H-892V-200ZM220 -192H219V1498H220H221V-192H220ZM212 1506V1505H-892V1506V1507H212V1506ZM-900 1498H-899V-192H-900H-901V1498H-900ZM-892 1506V1505C-895.866 1505 -899 1501.87 -899 1498H-900H-901C-901 1502.97 -896.971 1507 -892 1507V1506ZM220 1498H219C219 1501.87 215.866 1505 212 1505V1506V1507C216.971 1507 221 1502.97 221 1498H220ZM212 -200V-199C215.866 -199 219 -195.866 219 -192H220H221C221 -196.971 216.971 -201 212 -201V-200ZM-892 -200V-201C-896.971 -201 -901 -196.971 -901 -192H-900H-899C-899 -195.866 -895.866 -199 -892 -199V-200Z" fill="#F1F1F1"/><path d="M9.99984 5V10L13.3332 11.6667M18.3332 10C18.3332 14.6024 14.6022 18.3333 9.99984 18.3333C5.39746 18.3333 1.6665 14.6024 1.6665 10C1.6665 5.39763 5.39746 1.66667 9.99984 1.66667C14.6022 1.66667 18.3332 5.39763 18.3332 10Z" stroke="#202020" stroke-width="1.5" stroke-linecap="round" stroke-linejoin="round"/><defs><clipPath id="clip0_7809_18809"><rect width="20" height="20" fill="white"/></clipPath></defs></svg>