<svg width="24" height="24" viewBox="0 0 24 24" fill="none" xmlns="http://www.w3.org/2000/svg"><path d="M-244 -115C-244 -116.105 -243.105 -117 -242 -117H977C978.105 -117 979 -116.105 979 -115V724C979 725.105 978.105 726 977 726H-242C-243.105 726 -244 725.105 -244 724V-115Z" fill="white"/><path d="M-242 -117V-116H977V-117V-118H-242V-117ZM979 -115H978V724H979H980V-115H979ZM977 726V725H-242V726V727H977V726ZM-244 724H-243V-115H-244H-245V724H-244ZM-242 726V725C-242.552 725 -243 724.552 -243 724H-244H-245C-245 725.657 -243.657 727 -242 727V726ZM979 724H978C978 724.552 977.552 725 977 725V726V727C978.657 727 980 725.657 980 724H979ZM977 -117V-116C977.552 -116 978 -115.552 978 -115H979H980C980 -116.657 978.657 -118 977 -118V-117ZM-242 -117V-118C-243.657 -118 -245 -116.657 -245 -115H-244H-243C-243 -115.552 -242.552 -116 -242 -116V-117Z" fill="black" fill-opacity="0.1"/><path d="M18 6L6 18M6 6L18 18" stroke="#202020" stroke-width="1.8" stroke-linecap="round" stroke-linejoin="round"/></svg>