<svg width="32" height="32" viewBox="0 0 32 32" fill="none" xmlns="http://www.w3.org/2000/svg"><path d="M-117 -111C-117 -112.105 -116.105 -113 -115 -113H1104C1105.1 -113 1106 -112.105 1106 -111V728C1106 729.105 1105.1 730 1104 730H-115C-116.105 730 -117 729.105 -117 728V-111Z" fill="white"/><path d="M-115 -113V-112H1104V-113V-114H-115V-113ZM1106 -111H1105V728H1106H1107V-111H1106ZM1104 730V729H-115V730V731H1104V730ZM-117 728H-116V-111H-117H-118V728H-117ZM-115 730V729C-115.552 729 -116 728.552 -116 728H-117H-118C-118 729.657 -116.657 731 -115 731V730ZM1106 728H1105C1105 728.552 1104.55 729 1104 729V730V731C1105.66 731 1107 729.657 1107 728H1106ZM1104 -113V-112C1104.55 -112 1105 -111.552 1105 -111H1106H1107C1107 -112.657 1105.66 -114 1104 -114V-113ZM-115 -113V-114C-116.657 -114 -118 -112.657 -118 -111H-117H-116C-116 -111.552 -115.552 -112 -115 -112V-113Z" fill="black" fill-opacity="0.1"/><circle cx="16" cy="16" r="13.3" stroke="white" stroke-opacity="0.4" stroke-width="1.4"/><path d="M20.0003 12.0003C20.2899 12.2899 20.2899 12.7602 20.0003 13.0499L17.0503 15.9998L20.0003 18.9498C20.2902 19.2401 20.2904 19.7106 20.0003 20.0008C19.7101 20.2908 19.2395 20.2907 18.9493 20.0008L15.9993 17.0508L13.0493 20.0008C12.7597 20.2903 12.2901 20.2897 12.0004 20.0001C11.7108 19.7105 11.7109 19.2415 12.0004 18.9519L14.9504 16.0019L11.9997 13.0513C11.7098 12.761 11.7098 12.2905 11.9997 12.0003C12.2899 11.7101 12.7604 11.7103 13.0507 12.0003L16.0014 14.9509L18.9513 12.001C19.241 11.7113 19.7106 11.7106 20.0003 12.0003Z" fill="#ECECEC"/></svg>