<svg width="32" height="32" viewBox="0 0 32 32" fill="none" xmlns="http://www.w3.org/2000/svg"><path d="M-172 -111C-172 -112.105 -171.105 -113 -170 -113H1049C1050.1 -113 1051 -112.105 1051 -111V728C1051 729.105 1050.1 730 1049 730H-170C-171.105 730 -172 729.105 -172 728V-111Z" fill="white"/><path d="M-170 -113V-112H1049V-113V-114H-170V-113ZM1051 -111H1050V728H1051H1052V-111H1051ZM1049 730V729H-170V730V731H1049V730ZM-172 728H-171V-111H-172H-173V728H-172ZM-170 730V729C-170.552 729 -171 728.552 -171 728H-172H-173C-173 729.657 -171.657 731 -170 731V730ZM1051 728H1050C1050 728.552 1049.55 729 1049 729V730V731C1050.66 731 1052 729.657 1052 728H1051ZM1049 -113V-112C1049.55 -112 1050 -111.552 1050 -111H1051H1052C1052 -112.657 1050.66 -114 1049 -114V-113ZM-170 -113V-114C-171.657 -114 -173 -112.657 -173 -111H-172H-171C-171 -111.552 -170.552 -112 -170 -112V-113Z" fill="black" fill-opacity="0.1"/><circle cx="16" cy="16" r="14" fill="black" fill-opacity="0.2"/><path d="M20.0003 12.0003C20.2899 12.2899 20.2899 12.7602 20.0003 13.0499L17.0503 15.9998L20.0003 18.9498C20.2902 19.2401 20.2904 19.7106 20.0003 20.0008C19.7101 20.2908 19.2395 20.2907 18.9493 20.0008L15.9993 17.0508L13.0493 20.0008C12.7597 20.2903 12.2901 20.2897 12.0004 20.0001C11.7108 19.7105 11.7109 19.2415 12.0004 18.9519L14.9504 16.0019L11.9997 13.0513C11.7098 12.761 11.7098 12.2905 11.9997 12.0003C12.2899 11.7101 12.7604 11.7103 13.0507 12.0003L16.0014 14.9509L18.9513 12.001C19.241 11.7113 19.7106 11.7106 20.0003 12.0003Z" fill="white"/></svg>