<svg width="16" height="16" viewBox="0 0 16 16" fill="none" xmlns="http://www.w3.org/2000/svg"><path d="M-389 -367C-389 -368.105 -388.105 -369 -387 -369H832C833.105 -369 834 -368.105 834 -367V472C834 473.105 833.105 474 832 474H-387C-388.105 474 -389 473.105 -389 472V-367Z" fill="white"/><path d="M-387 -369V-368H832V-369V-370H-387V-369ZM834 -367H833V472H834H835V-367H834ZM832 474V473H-387V474V475H832V474ZM-389 472H-388V-367H-389H-390V472H-389ZM-387 474V473C-387.552 473 -388 472.552 -388 472H-389H-390C-390 473.657 -388.657 475 -387 475V474ZM834 472H833C833 472.552 832.552 473 832 473V474V475C833.657 475 835 473.657 835 472H834ZM832 -369V-368C832.552 -368 833 -367.552 833 -367H834H835C835 -368.657 833.657 -370 832 -370V-369ZM-387 -369V-370C-388.657 -370 -390 -368.657 -390 -367H-389H-388C-388 -367.552 -387.552 -368 -387 -368V-369Z" fill="black" fill-opacity="0.1"/><path d="M12 10L8 6L4 10" stroke="#B9B9B9" stroke-width="1.3" stroke-linecap="round" stroke-linejoin="round"/></svg>