<svg width="16" height="16" viewBox="0 0 16 16" fill="none" xmlns="http://www.w3.org/2000/svg"><path d="M-911 -363C-911 -364.105 -910.105 -365 -909 -365H310C311.105 -365 312 -364.105 312 -363V476C312 477.105 311.105 478 310 478H-909C-910.105 478 -911 477.105 -911 476V-363Z" fill="white"/><path d="M-909 -365V-364H310V-365V-366H-909V-365ZM312 -363H311V476H312H313V-363H312ZM310 478V477H-909V478V479H310V478ZM-911 476H-910V-363H-911H-912V476H-911ZM-909 478V477C-909.552 477 -910 476.552 -910 476H-911H-912C-912 477.657 -910.657 479 -909 479V478ZM312 476H311C311 476.552 310.552 477 310 477V478V479C311.657 479 313 477.657 313 476H312ZM310 -365V-364C310.552 -364 311 -363.552 311 -363H312H313C313 -364.657 311.657 -366 310 -366V-365ZM-909 -365V-366C-910.657 -366 -912 -364.657 -912 -363H-911H-910C-910 -363.552 -909.552 -364 -909 -364V-365Z" fill="black" fill-opacity="0.1"/><path d="M12 10L8 6L4 10" stroke="#202020" stroke-width="1.3" stroke-linecap="round" stroke-linejoin="round"/></svg>