<svg width="24" height="24" viewBox="0 0 24 24" fill="none" xmlns="http://www.w3.org/2000/svg"><path d="M-841 -361C-841 -362.105 -840.105 -363 -839 -363H380C381.105 -363 382 -362.105 382 -361V478C382 479.105 381.105 480 380 480H-839C-840.105 480 -841 479.105 -841 478V-361Z" fill="white"/><path d="M-839 -363V-362H380V-363V-364H-839V-363ZM382 -361H381V478H382H383V-361H382ZM380 480V479H-839V480V481H380V480ZM-841 478H-840V-361H-841H-842V478H-841ZM-839 480V479C-839.552 479 -840 478.552 -840 478H-841H-842C-842 479.657 -840.657 481 -839 481V480ZM382 478H381C381 478.552 380.552 479 380 479V480V481C381.657 481 383 479.657 383 478H382ZM380 -363V-362C380.552 -362 381 -361.552 381 -361H382H383C383 -362.657 381.657 -364 380 -364V-363ZM-839 -363V-364C-840.657 -364 -842 -362.657 -842 -361H-841H-840C-840 -361.552 -839.552 -362 -839 -362V-363Z" fill="black" fill-opacity="0.1"/><path d="M20 14L12 6L4 14" stroke="#202020" stroke-width="1.8" stroke-linecap="round" stroke-linejoin="round"/></svg>