<svg width="16" height="16" viewBox="0 0 16 16" fill="none" xmlns="http://www.w3.org/2000/svg"><path d="M-964 -188C-964 -192.418 -960.418 -196 -956 -196H108C112.418 -196 116 -192.418 116 -188V1466C116 1470.42 112.418 1474 108 1474H-956C-960.418 1474 -964 1470.42 -964 1466V-188Z" fill="white"/><path d="M-956 -196V-195H108V-196V-197H-956V-196ZM116 -188H115V1466H116H117V-188H116ZM108 1474V1473H-956V1474V1475H108V1474ZM-964 1466H-963V-188H-964H-965V1466H-964ZM-956 1474V1473C-959.866 1473 -963 1469.87 -963 1466H-964H-965C-965 1470.97 -960.971 1475 -956 1475V1474ZM116 1466H115C115 1469.87 111.866 1473 108 1473V1474V1475C112.971 1475 117 1470.97 117 1466H116ZM108 -196V-195C111.866 -195 115 -191.866 115 -188H116H117C117 -192.971 112.971 -197 108 -197V-196ZM-956 -196V-197C-960.971 -197 -965 -192.971 -965 -188H-964H-963C-963 -191.866 -959.866 -195 -956 -195V-196Z" fill="#F1F1F1"/><path d="M8.00016 14.6667C11.6821 14.6667 14.6668 11.6819 14.6668 7.99999C14.6668 4.3181 11.6821 1.33333 8.00016 1.33333C4.31826 1.33333 1.3335 4.3181 1.3335 7.99999C1.3335 11.6819 4.31826 14.6667 8.00016 14.6667Z" stroke="#202020" stroke-width="1.3" stroke-linecap="round" stroke-linejoin="round"/><path d="M10.8268 5.17333L9.4135 9.41333L5.1735 10.8267L6.58683 6.58666L10.8268 5.17333Z" stroke="#202020" stroke-width="1.3" stroke-linecap="round" stroke-linejoin="round"/><defs><clipPath id="clip0_7809_18809"><rect width="16" height="16" fill="white"/></clipPath></defs></svg>