<svg width="32" height="32" viewBox="0 0 32 32" fill="none" xmlns="http://www.w3.org/2000/svg"><path d="M-660 -204C-660 -208.418 -656.418 -212 -652 -212H572C576.418 -212 580 -208.418 580 -204V1486C580 1490.42 576.418 1494 572 1494H-652C-656.418 1494 -660 1490.42 -660 1486V-204Z" fill="white"/><path d="M-652 -212V-211H572V-212V-213H-652V-212ZM580 -204H579V1486H580H581V-204H580ZM572 1494V1493H-652V1494V1495H572V1494ZM-660 1486H-659V-204H-660H-661V1486H-660ZM-652 1494V1493C-655.866 1493 -659 1489.87 -659 1486H-660H-661C-661 1490.97 -656.971 1495 -652 1495V1494ZM580 1486H579C579 1489.87 575.866 1493 572 1493V1494V1495C576.971 1495 581 1490.97 581 1486H580ZM572 -212V-211C575.866 -211 579 -207.866 579 -204H580H581C581 -208.971 576.971 -213 572 -213V-212ZM-652 -212V-213C-656.971 -213 -661 -208.971 -661 -204H-660H-659C-659 -207.866 -655.866 -211 -652 -211V-212Z" fill="#F1F1F1"/><path d="M16.0001 29.3333C23.3639 29.3333 29.3334 23.3638 29.3334 16C29.3334 8.63621 23.3639 2.66667 16.0001 2.66667C8.63628 2.66667 2.66675 8.63621 2.66675 16C2.66675 23.3638 8.63628 29.3333 16.0001 29.3333Z" stroke="#202020" stroke-width="2.2" stroke-linecap="round" stroke-linejoin="round"/><path d="M21.6534 10.3467L18.8267 18.8267L10.3467 21.6533L13.1734 13.1733L21.6534 10.3467Z" stroke="#202020" stroke-width="2.2" stroke-linecap="round" stroke-linejoin="round"/></svg>