<svg width="20" height="20" viewBox="0 0 20 20" fill="none" xmlns="http://www.w3.org/2000/svg"><path d="M-1000 -192C-1000 -196.418 -996.418 -200 -992 -200H112C116.418 -200 120 -196.418 120 -192V1498C120 1502.42 116.418 1506 112 1506H-992C-996.418 1506 -1000 1502.42 -1000 1498V-192Z" fill="white"/><path d="M-992 -200V-199H112V-200V-201H-992V-200ZM120 -192H119V1498H120H121V-192H120ZM112 1506V1505H-992V1506V1507H112V1506ZM-1000 1498H-999V-192H-1000H-1001V1498H-1000ZM-992 1506V1505C-995.866 1505 -999 1501.87 -999 1498H-1000H-1001C-1001 1502.97 -996.971 1507 -992 1507V1506ZM120 1498H119C119 1501.87 115.866 1505 112 1505V1506V1507C116.971 1507 121 1502.97 121 1498H120ZM112 -200V-199C115.866 -199 119 -195.866 119 -192H120H121C121 -196.971 116.971 -201 112 -201V-200ZM-992 -200V-201C-996.971 -201 -1001 -196.971 -1001 -192H-1000H-999C-999 -195.866 -995.866 -199 -992 -199V-200Z" fill="#F1F1F1"/><path d="M9.99984 18.3333C14.6022 18.3333 18.3332 14.6024 18.3332 10C18.3332 5.39763 14.6022 1.66667 9.99984 1.66667C5.39746 1.66667 1.6665 5.39763 1.6665 10C1.6665 14.6024 5.39746 18.3333 9.99984 18.3333Z" stroke="#202020" stroke-width="1.5" stroke-linecap="round" stroke-linejoin="round"/><path d="M13.5332 6.46667L11.7665 11.7667L6.4665 13.5333L8.23317 8.23334L13.5332 6.46667Z" stroke="#202020" stroke-width="1.5" stroke-linecap="round" stroke-linejoin="round"/><defs><clipPath id="clip0_7809_18809"><rect width="20" height="20" fill="white"/></clipPath></defs></svg>