<svg width="20" height="20" viewBox="0 0 20 20" fill="none" xmlns="http://www.w3.org/2000/svg"><path d="M-100 -292C-100 -296.418 -96.4183 -300 -92 -300H1012C1016.42 -300 1020 -296.418 1020 -292V1398C1020 1402.42 1016.42 1406 1012 1406H-92C-96.4183 1406 -100 1402.42 -100 1398V-292Z" fill="white"/><path d="M-92 -300V-299H1012V-300V-301H-92V-300ZM1020 -292H1019V1398H1020H1021V-292H1020ZM1012 1406V1405H-92V1406V1407H1012V1406ZM-100 1398H-99V-292H-100H-101V1398H-100ZM-92 1406V1405C-95.866 1405 -99 1401.87 -99 1398H-100H-101C-101 1402.97 -96.9706 1407 -92 1407V1406ZM1020 1398H1019C1019 1401.87 1015.87 1405 1012 1405V1406V1407C1016.97 1407 1021 1402.97 1021 1398H1020ZM1012 -300V-299C1015.87 -299 1019 -295.866 1019 -292H1020H1021C1021 -296.971 1016.97 -301 1012 -301V-300ZM-92 -300V-301C-96.9706 -301 -101 -296.971 -101 -292H-100H-99C-99 -295.866 -95.866 -299 -92 -299V-300Z" fill="#F1F1F1"/><path d="M15.0002 7.50001L10.0002 12.5M10.0002 7.50001L15.0002 12.5M17.5002 3.33334H6.66683L0.833496 10L6.66683 16.6667H17.5002C17.9422 16.6667 18.3661 16.4911 18.6787 16.1785C18.9912 15.866 19.1668 15.442 19.1668 15V5.00001C19.1668 4.55798 18.9912 4.13406 18.6787 3.8215C18.3661 3.50894 17.9422 3.33334 17.5002 3.33334Z" stroke="#202020" stroke-width="1.5" stroke-linecap="round" stroke-linejoin="round"/></svg>