<svg width="16" height="16" viewBox="0 0 16 16" fill="none" xmlns="http://www.w3.org/2000/svg"><path d="M-100 -284C-100 -288.418 -96.4183 -292 -92 -292H972C976.418 -292 980 -288.418 980 -284V1370C980 1374.42 976.418 1378 972 1378H-92C-96.4183 1378 -100 1374.42 -100 1370V-284Z" fill="white"/><path d="M-92 -292V-291H972V-292V-293H-92V-292ZM980 -284H979V1370H980H981V-284H980ZM972 1378V1377H-92V1378V1379H972V1378ZM-100 1370H-99V-284H-100H-101V1370H-100ZM-92 1378V1377C-95.866 1377 -99 1373.87 -99 1370H-100H-101C-101 1374.97 -96.9705 1379 -92 1379V1378ZM980 1370H979C979 1373.87 975.866 1377 972 1377V1378V1379C976.971 1379 981 1374.97 981 1370H980ZM972 -292V-291C975.866 -291 979 -287.866 979 -284H980H981C981 -288.971 976.971 -293 972 -293V-292ZM-92 -292V-293C-96.9706 -293 -101 -288.971 -101 -284H-100H-99C-99 -287.866 -95.866 -291 -92 -291V-292Z" fill="#F1F1F1"/><path d="M11.9998 5.99999L7.99984 9.99999M7.99984 5.99999L11.9998 9.99999M13.9998 2.66666H5.33317L0.666504 7.99999L5.33317 13.3333H13.9998C14.3535 13.3333 14.6926 13.1928 14.9426 12.9428C15.1927 12.6927 15.3332 12.3536 15.3332 12V3.99999C15.3332 3.64637 15.1927 3.30723 14.9426 3.05718C14.6926 2.80713 14.3535 2.66666 13.9998 2.66666Z" stroke="#202020" stroke-width="1.3" stroke-linecap="round" stroke-linejoin="round"/></svg>