<svg width="32" height="32" viewBox="0 0 32 32" fill="none" xmlns="http://www.w3.org/2000/svg"><path d="M-772 -204C-772 -208.418 -768.418 -212 -764 -212H460C464.418 -212 468 -208.418 468 -204V1486C468 1490.42 464.418 1494 460 1494H-764C-768.418 1494 -772 1490.42 -772 1486V-204Z" fill="white"/><path d="M-764 -212V-211H460V-212V-213H-764V-212ZM468 -204H467V1486H468H469V-204H468ZM460 1494V1493H-764V1494V1495H460V1494ZM-772 1486H-771V-204H-772H-773V1486H-772ZM-764 1494V1493C-767.866 1493 -771 1489.87 -771 1486H-772H-773C-773 1490.97 -768.971 1495 -764 1495V1494ZM468 1486H467C467 1489.87 463.866 1493 460 1493V1494V1495C464.971 1495 469 1490.97 469 1486H468ZM460 -212V-211C463.866 -211 467 -207.866 467 -204H468H469C469 -208.971 464.971 -213 460 -213V-212ZM-764 -212V-213C-768.971 -213 -773 -208.971 -773 -204H-772H-771C-771 -207.866 -767.866 -211 -764 -211V-212Z" fill="#F1F1F1"/><path d="M23.9999 12L15.9999 20M15.9999 12L23.9999 20M27.9999 5.33333H10.6666L1.33325 16L10.6666 26.6667H27.9999C28.7072 26.6667 29.3854 26.3857 29.8855 25.8856C30.3856 25.3855 30.6666 24.7072 30.6666 24V7.99999C30.6666 7.29275 30.3856 6.61447 29.8855 6.11438C29.3854 5.61428 28.7072 5.33333 27.9999 5.33333Z" stroke="#202020" stroke-width="2.2" stroke-linecap="round" stroke-linejoin="round"/></svg>