<svg width="24" height="24" viewBox="0 0 24 24" fill="none" xmlns="http://www.w3.org/2000/svg"><path d="M-361 -361C-361 -362.105 -360.105 -363 -359 -363H860C861.105 -363 862 -362.105 862 -361V478C862 479.105 861.105 480 860 480H-359C-360.105 480 -361 479.105 -361 478V-361Z" fill="white"/><path d="M-359 -363V-362H860V-363V-364H-359V-363ZM862 -361H861V478H862H863V-361H862ZM860 480V479H-359V480V481H860V480ZM-361 478H-360V-361H-361H-362V478H-361ZM-359 480V479C-359.552 479 -360 478.552 -360 478H-361H-362C-362 479.657 -360.657 481 -359 481V480ZM862 478H861C861 478.552 860.552 479 860 479V480V481C861.657 481 863 479.657 863 478H862ZM860 -363V-362C860.552 -362 861 -361.552 861 -361H862H863C863 -362.657 861.657 -364 860 -364V-363ZM-359 -363V-364C-360.657 -364 -362 -362.657 -362 -361H-361H-360C-360 -361.552 -359.552 -362 -359 -362V-363Z" fill="black" fill-opacity="0.1"/><path d="M10 20L18 12L10 4" stroke="#202020" stroke-width="1.8" stroke-linecap="round" stroke-linejoin="round"/></svg>