<svg width="16" height="16" viewBox="0 0 16 16" fill="none" xmlns="http://www.w3.org/2000/svg"><path d="M-422 -367C-422 -368.105 -421.105 -369 -420 -369H799C800.105 -369 801 -368.105 801 -367V472C801 473.105 800.105 474 799 474H-420C-421.105 474 -422 473.105 -422 472V-367Z" fill="white"/><path d="M-420 -369V-368H799V-369V-370H-420V-369ZM801 -367H800V472H801H802V-367H801ZM799 474V473H-420V474V475H799V474ZM-422 472H-421V-367H-422H-423V472H-422ZM-420 474V473C-420.552 473 -421 472.552 -421 472H-422H-423C-423 473.657 -421.657 475 -420 475V474ZM801 472H800C800 472.552 799.552 473 799 473V474V475C800.657 475 802 473.657 802 472H801ZM799 -369V-368C799.552 -368 800 -367.552 800 -367H801H802C802 -368.657 800.657 -370 799 -370V-369ZM-420 -369V-370C-421.657 -370 -423 -368.657 -423 -367H-422H-421C-421 -367.552 -420.552 -368 -420 -368V-369Z" fill="black" fill-opacity="0.1"/><path d="M6 12L10 8L6 4" stroke="#202020" stroke-width="1.3" stroke-linecap="round" stroke-linejoin="round"/></svg>