<svg width="12" height="12" viewBox="0 0 12 12" fill="none" xmlns="http://www.w3.org/2000/svg"><path d="M-477 -369C-477 -370.105 -476.105 -371 -475 -371H744C745.105 -371 746 -370.105 746 -369V470C746 471.105 745.105 472 744 472H-475C-476.105 472 -477 471.105 -477 470V-369Z" fill="white"/><path d="M-475 -371V-370H744V-371V-372H-475V-371ZM746 -369H745V470H746H747V-369H746ZM744 472V471H-475V472V473H744V472ZM-477 470H-476V-369H-477H-478V470H-477ZM-475 472V471C-475.552 471 -476 470.552 -476 470H-477H-478C-478 471.657 -476.657 473 -475 473V472ZM746 470H745C745 470.552 744.552 471 744 471V472V473C745.657 473 747 471.657 747 470H746ZM744 -371V-370C744.552 -370 745 -369.552 745 -369H746H747C747 -370.657 745.657 -372 744 -372V-371ZM-475 -371V-372C-476.657 -372 -478 -370.657 -478 -369H-477H-476C-476 -369.552 -475.552 -370 -475 -370V-371Z" fill="black" fill-opacity="0.1"/><path d="M4.5 9L7.5 6L4.5 3" stroke="#202020" stroke-width="1.3" stroke-linecap="round" stroke-linejoin="round"/></svg>