<svg width="12" height="12" viewBox="0 0 12 12" fill="none" xmlns="http://www.w3.org/2000/svg"><path d="M-220 -367C-220 -368.105 -219.105 -369 -218 -369H1001C1002.1 -369 1003 -368.105 1003 -367V472C1003 473.105 1002.1 474 1001 474H-218C-219.105 474 -220 473.105 -220 472V-367Z" fill="white"/><path d="M-218 -369V-368H1001V-369V-370H-218V-369ZM1003 -367H1002V472H1003H1004V-367H1003ZM1001 474V473H-218V474V475H1001V474ZM-220 472H-219V-367H-220H-221V472H-220ZM-218 474V473C-218.552 473 -219 472.552 -219 472H-220H-221C-221 473.657 -219.657 475 -218 475V474ZM1003 472H1002C1002 472.552 1001.55 473 1001 473V474V475C1002.66 475 1004 473.657 1004 472H1003ZM1001 -369V-368C1001.55 -368 1002 -367.552 1002 -367H1003H1004C1004 -368.657 1002.66 -370 1001 -370V-369ZM-218 -369V-370C-219.657 -370 -221 -368.657 -221 -367H-220H-219C-219 -367.552 -218.552 -368 -218 -368V-369Z" fill="black" fill-opacity="0.1"/><path d="M4.5 9L7.5 6L4.5 3" stroke="#757575" stroke-width="1.3" stroke-linecap="round" stroke-linejoin="round"/></svg>