<svg width="32" height="32" viewBox="0 0 32 32" fill="none" xmlns="http://www.w3.org/2000/svg"><path d="M-884 -204C-884 -208.418 -880.418 -212 -876 -212H348C352.418 -212 356 -208.418 356 -204V1486C356 1490.42 352.418 1494 348 1494H-876C-880.418 1494 -884 1490.42 -884 1486V-204Z" fill="white"/><path d="M-876 -212V-211H348V-212V-213H-876V-212ZM356 -204H355V1486H356H357V-204H356ZM348 1494V1493H-876V1494V1495H348V1494ZM-884 1486H-883V-204H-884H-885V1486H-884ZM-876 1494V1493C-879.866 1493 -883 1489.87 -883 1486H-884H-885C-885 1490.97 -880.971 1495 -876 1495V1494ZM356 1486H355C355 1489.87 351.866 1493 348 1493V1494V1495C352.971 1495 357 1490.97 357 1486H356ZM348 -212V-211C351.866 -211 355 -207.866 355 -204H356H357C357 -208.971 352.971 -213 348 -213V-212ZM-876 -212V-213C-880.971 -213 -885 -208.971 -885 -204H-884H-883C-883 -207.866 -879.866 -211 -876 -211V-212Z" fill="#F1F1F1"/><path d="M28 20V25.3333C28 26.0406 27.719 26.7189 27.219 27.219C26.7189 27.719 26.0406 28 25.3333 28H6.66667C5.95942 28 5.28115 27.719 4.78105 27.219C4.28095 26.7189 4 26.0406 4 25.3333V20M9.33333 13.3333L16 20M16 20L22.6667 13.3333M16 20V4" stroke="#202020" stroke-width="2.2" stroke-linecap="round" stroke-linejoin="round"/></svg>