<svg width="16" height="16" viewBox="0 0 16 16" fill="none" xmlns="http://www.w3.org/2000/svg"><path d="M-196 -284C-196 -288.418 -192.418 -292 -188 -292H876C880.418 -292 884 -288.418 884 -284V1370C884 1374.42 880.418 1378 876 1378H-188C-192.418 1378 -196 1374.42 -196 1370V-284Z" fill="white"/><path d="M-188 -292V-291H876V-292V-293H-188V-292ZM884 -284H883V1370H884H885V-284H884ZM876 1378V1377H-188V1378V1379H876V1378ZM-196 1370H-195V-284H-196H-197V1370H-196ZM-188 1378V1377C-191.866 1377 -195 1373.87 -195 1370H-196H-197C-197 1374.97 -192.971 1379 -188 1379V1378ZM884 1370H883C883 1373.87 879.866 1377 876 1377V1378V1379C880.971 1379 885 1374.97 885 1370H884ZM876 -292V-291C879.866 -291 883 -287.866 883 -284H884H885C885 -288.971 880.971 -293 876 -293V-292ZM-188 -292V-293C-192.971 -293 -197 -288.971 -197 -284H-196H-195C-195 -287.866 -191.866 -291 -188 -291V-292Z" fill="#F1F1F1"/><path d="M3.1948 8.68513H3.8448H3.1948ZM3.48881 7.9769L3.9477 8.43725L3.48881 7.9769ZM3.5948 11.2037L3.5948 10.5537H3.5948L3.5948 11.2037ZM3.1948 10.8037H2.5448H3.1948ZM6.41849 10.9125L6.87705 11.3731L6.41849 10.9125ZM5.71301 11.2037L5.71301 11.8537H5.71301V11.2037ZM12.6885 3.27242L13.1531 2.81783V2.81783L12.6885 3.27242ZM12.6792 4.68053L12.2207 4.21985V4.21985L12.6792 4.68053ZM11.1822 1.733L10.7176 2.18759V2.18759L11.1822 1.733ZM9.76147 1.72414L10.2204 2.18449L9.76147 1.72414ZM1.6499 13.264C1.29092 13.264 0.999902 13.555 0.999902 13.914C0.999902 14.273 1.29092 14.564 1.6499 14.564V13.914V13.264ZM14.3499 14.564C14.7089 14.564 14.9999 14.273 14.9999 13.914C14.9999 13.555 14.7089 13.264 14.3499 13.264V13.914V14.564ZM11.1822 1.733L10.7176 2.18759L12.2239 3.72701L12.6885 3.27242L13.1531 2.81783L11.6468 1.27841L11.1822 1.733ZM12.6792 4.68053L12.2207 4.21985L5.95993 10.4518L6.41849 10.9125L6.87705 11.3731L13.1378 5.1412L12.6792 4.68053ZM5.71301 11.2037L5.71301 10.5537L3.5948 10.5537L3.5948 11.2037L3.5948 11.8537L5.71301 11.8537L5.71301 11.2037ZM3.1948 10.8037H3.8448V8.68513H3.1948H2.5448L2.5448 10.8037H3.1948ZM3.48881 7.9769L3.9477 8.43725L10.2204 2.18449L9.76147 1.72414L9.30259 1.26379L3.02993 7.51655L3.48881 7.9769ZM3.1948 8.68513H3.8448C3.8448 8.59211 3.88182 8.50292 3.9477 8.43725L3.48881 7.9769L3.02993 7.51655C2.71936 7.82613 2.5448 8.24661 2.5448 8.68513H3.1948ZM3.5948 11.2037L3.5948 10.5537C3.73287 10.5537 3.8448 10.6656 3.8448 10.8037H3.1948H2.5448C2.5448 11.3836 3.0149 11.8537 3.5948 11.8537L3.5948 11.2037ZM6.41849 10.9125L5.95993 10.4518C5.89434 10.5171 5.80556 10.5537 5.71301 10.5537V11.2037V11.8537C6.1493 11.8537 6.56783 11.6809 6.87705 11.3731L6.41849 10.9125ZM12.6885 3.27242L12.2239 3.72701C12.3583 3.86434 12.3568 4.08431 12.2207 4.21985L12.6792 4.68053L13.1378 5.1412C13.7797 4.50222 13.7865 3.46522 13.1531 2.81783L12.6885 3.27242ZM11.1822 1.733L11.6468 1.27841C11.0053 0.622788 9.95222 0.616225 9.30259 1.26379L9.76147 1.72414L10.2204 2.18449C10.3582 2.04713 10.5815 2.04852 10.7176 2.18759L11.1822 1.733ZM8.99406 2.69582L8.53444 3.15544L11.1057 5.72674L11.5654 5.26712L12.025 4.8075L9.45368 2.2362L8.99406 2.69582ZM1.6499 13.914V14.564H14.3499V13.914V13.264H1.6499V13.914Z" fill="#202020"/></svg>