<svg width="32" height="32" viewBox="0 0 32 32" fill="none" xmlns="http://www.w3.org/2000/svg"><path d="M-996 -204C-996 -208.418 -992.418 -212 -988 -212H236C240.418 -212 244 -208.418 244 -204V1486C244 1490.42 240.418 1494 236 1494H-988C-992.418 1494 -996 1490.42 -996 1486V-204Z" fill="white"/><path d="M-988 -212V-211H236V-212V-213H-988V-212ZM244 -204H243V1486H244H245V-204H244ZM236 1494V1493H-988V1494V1495H236V1494ZM-996 1486H-995V-204H-996H-997V1486H-996ZM-988 1494V1493C-991.866 1493 -995 1489.87 -995 1486H-996H-997C-997 1490.97 -992.971 1495 -988 1495V1494ZM244 1486H243C243 1489.87 239.866 1493 236 1493V1494V1495C240.971 1495 245 1490.97 245 1486H244ZM236 -212V-211C239.866 -211 243 -207.866 243 -204H244H245C245 -208.971 240.971 -213 236 -213V-212ZM-988 -212V-213C-992.971 -213 -997 -208.971 -997 -204H-996H-995C-995 -207.866 -991.866 -211 -988 -211V-212Z" fill="#F1F1F1"/><path d="M14.6667 5.33334H5.33341C4.62617 5.33334 3.94789 5.61429 3.4478 6.11439C2.9477 6.61449 2.66675 7.29276 2.66675 8.00001V26.6667C2.66675 27.3739 2.9477 28.0522 3.4478 28.5523C3.94789 29.0524 4.62617 29.3333 5.33341 29.3333H24.0001C24.7073 29.3333 25.3856 29.0524 25.8857 28.5523C26.3858 28.0522 26.6667 27.3739 26.6667 26.6667V17.3333M24.6667 3.33334C25.1972 2.80291 25.9166 2.50491 26.6667 2.50491C27.4169 2.50491 28.1363 2.80291 28.6667 3.33334C29.1972 3.86377 29.4952 4.58319 29.4952 5.33334C29.4952 6.08349 29.1972 6.80291 28.6667 7.33334L16.0001 20L10.6667 21.3333L12.0001 16L24.6667 3.33334Z" stroke="#202020" stroke-width="2.2" stroke-linecap="round" stroke-linejoin="round"/></svg>