<svg width="24" height="24" viewBox="0 0 24 24" fill="none" xmlns="http://www.w3.org/2000/svg"><path d="M-471 -240C-471 -241.105 -470.105 -242 -469 -242H750C751.105 -242 752 -241.105 752 -240V599C752 600.105 751.105 601 750 601H-469C-470.105 601 -471 600.105 -471 599V-240Z" fill="white"/><path d="M-469 -242V-241H750V-242V-243H-469V-242ZM752 -240H751V599H752H753V-240H752ZM750 601V600H-469V601V602H750V601ZM-471 599H-470V-240H-471H-472V599H-471ZM-469 601V600C-469.552 600 -470 599.552 -470 599H-471H-472C-472 600.657 -470.657 602 -469 602V601ZM752 599H751C751 599.552 750.552 600 750 600V601V602C751.657 602 753 600.657 753 599H752ZM750 -242V-241C750.552 -241 751 -240.552 751 -240H752H753C753 -241.657 751.657 -243 750 -243V-242ZM-469 -242V-243C-470.657 -243 -472 -241.657 -472 -240H-471H-470C-470 -240.552 -469.552 -241 -469 -241V-242Z" fill="black" fill-opacity="0.1"/><path d="M4.79195 13.0277H5.69195H4.79195ZM5.23298 11.9653L5.86836 12.6028L5.23298 11.9653ZM5.39195 16.8056L5.39195 15.9056H5.39195L5.39195 16.8056ZM4.79195 16.2056H3.89195H4.79195ZM9.62749 16.3687L10.2624 17.0065L9.62749 16.3687ZM8.56928 16.8056L8.56928 17.7056V17.7056L8.56928 16.8056ZM19.0325 4.90863L19.6758 4.27919V4.27919L19.0325 4.90863ZM19.0186 7.02079L18.3837 6.38293V6.38293L19.0186 7.02079ZM16.7731 2.5995L16.1298 3.22894V3.22894L16.7731 2.5995ZM14.642 2.58622L15.2774 3.22362V3.22362L14.642 2.58622ZM2.47461 19.971C1.97755 19.971 1.57461 20.3739 1.57461 20.871C1.57461 21.368 1.97755 21.771 2.47461 21.771V20.871V19.971ZM21.5246 21.771C22.0217 21.771 22.4246 21.368 22.4246 20.871C22.4246 20.3739 22.0217 19.971 21.5246 19.971V20.871V21.771ZM16.7731 2.5995L16.1298 3.22894L18.3892 5.53806L19.0325 4.90863L19.6758 4.27919L17.4164 1.97006L16.7731 2.5995ZM19.0186 7.02079L18.3837 6.38293L8.99256 15.7308L9.62749 16.3687L10.2624 17.0065L19.6535 7.65865L19.0186 7.02079ZM8.56928 16.8056V15.9056L5.39195 15.9056L5.39195 16.8056L5.39195 17.7056L8.56928 17.7056L8.56928 16.8056ZM4.79195 16.2056H5.69195L5.69195 13.0277H4.79195H3.89195L3.89195 16.2056H4.79195ZM5.23298 11.9653L5.86836 12.6028L15.2774 3.22362L14.642 2.58622L14.0066 1.94881L4.59759 11.3279L5.23298 11.9653ZM4.79195 13.0277H5.69195C5.69195 12.8682 5.75543 12.7153 5.86836 12.6028L5.23298 11.9653L4.59759 11.3279C4.14586 11.7782 3.89195 12.3898 3.89195 13.0277H4.79195ZM5.39195 16.8056L5.39195 15.9056C5.55764 15.9056 5.69195 16.0399 5.69195 16.2056H4.79195H3.89195C3.89195 17.034 4.56353 17.7056 5.39195 17.7056L5.39195 16.8056ZM9.62749 16.3687L8.99256 15.7308C8.88012 15.8427 8.72793 15.9056 8.56928 15.9056V16.8056L8.56928 17.7056C9.20388 17.7056 9.81265 17.4542 10.2624 17.0065L9.62749 16.3687ZM19.0325 4.90863L18.3892 5.53806C18.6196 5.77348 18.6171 6.15057 18.3837 6.38293L19.0186 7.02079L19.6535 7.65865C20.5872 6.72922 20.5972 5.22085 19.6758 4.27919L19.0325 4.90863ZM16.7731 2.5995L17.4164 1.97006C16.4833 1.01644 14.9515 1.00689 14.0066 1.94881L14.642 2.58622L15.2774 3.22362C15.5136 2.98814 15.8965 2.99053 16.1298 3.22894L16.7731 2.5995ZM13.4908 4.04373L12.8544 4.68013L16.7114 8.53707L17.3478 7.90068L17.9842 7.26428L14.1272 3.40733L13.4908 4.04373ZM2.47461 20.871V21.771H21.5246V20.871V19.971H2.47461V20.871Z" fill="#202020"/></svg>