<svg width="28" height="16" viewBox="0 0 28 16" fill="none" xmlns="http://www.w3.org/2000/svg"><path d="M-79 -53C-79 -54.1046 -78.1046 -55 -77 -55H549C550.105 -55 551 -54.1046 551 -53V353C551 354.105 550.105 355 549 355H-77C-78.1046 355 -79 354.105 -79 353V-53Z" fill="white"/><path d="M-77 -55V-54H549V-55V-56H-77V-55ZM551 -53H550V353H551H552V-53H551ZM549 355V354H-77V355V356H549V355ZM-79 353H-78V-53H-79H-80V353H-79ZM-77 355V354C-77.5523 354 -78 353.552 -78 353H-79H-80C-80 354.657 -78.6569 356 -77 356V355ZM551 353H550C550 353.552 549.552 354 549 354V355V356C550.657 356 552 354.657 552 353H551ZM549 -55V-54C549.552 -54 550 -53.5523 550 -53H551H552C552 -54.6569 550.657 -56 549 -56V-55ZM-77 -55V-56C-78.6569 -56 -80 -54.6569 -80 -53H-79H-78C-78 -53.5523 -77.5523 -54 -77 -54V-55Z" fill="black" fill-opacity="0.1"/><mask id="path-3-inside-1_7809_18809" fill="white"><path d="M0 3C0 1.34315 1.34315 0 3 0H25C26.6569 0 28 1.34315 28 3V13C28 14.6569 26.6569 16 25 16H3C1.34315 16 0 14.6569 0 13V3Z"/></mask><path d="M0 3C0 1.34315 1.34315 0 3 0H25C26.6569 0 28 1.34315 28 3V13C28 14.6569 26.6569 16 25 16H3C1.34315 16 0 14.6569 0 13V3Z" fill="#3D394B"/><path d="M3 0V1H25V0V-1H3V0ZM28 3H27V13H28H29V3H28ZM25 16V15H3V16V17H25V16ZM0 13H1V3H0H-1V13H0ZM3 16V15C1.89543 15 1 14.1046 1 13H0H-1C-1 15.2091 0.790861 17 3 17V16ZM28 13H27C27 14.1046 26.1046 15 25 15V16V17C27.2091 17 29 15.2091 29 13H28ZM25 0V1C26.1046 1 27 1.89543 27 3H28H29C29 0.790861 27.2091 -1 25 -1V0ZM3 0V-1C0.790861 -1 -1 0.790861 -1 3H0H1C1 1.89543 1.89543 1 3 1V0Z" fill="#2A253A" mask="url(#path-3-inside-1_7809_18809)"/><path d="M5.75 5.09V6.52H4.82V4.2H8.57C8.46 3.9 8.3 3.56 8.15 3.29L9.09 3.01C9.31 3.37 9.54 3.83 9.68 4.2H13.15V6.52H12.19V5.09H5.75ZM11.61 6.86H6.34V6.01H11.61V6.86ZM11.07 11.29H12.28C12.62 11.29 12.68 11.12 12.72 10.02C12.93 10.18 13.32 10.33 13.56 10.39C13.46 11.79 13.21 12.14 12.36 12.14H10.95C9.93 12.14 9.69 11.87 9.69 10.95V8.71H8.12C7.98 10.71 7.48 11.78 4.95 12.3C4.87 12.06 4.63 11.7 4.46 11.51C6.69 11.11 7.06 10.34 7.17 8.71H4.59V7.84H13.4V8.71H10.63V10.95C10.63 11.25 10.69 11.29 11.07 11.29ZM14.52 11.8L14.37 10.85C15.31 10.7 16.72 10.42 18.07 10.16L18.15 11.02C16.88 11.3 15.53 11.58 14.52 11.8ZM15.59 6.26L16.7 6.17C16.91 5.84 17.13 5.49 17.32 5.13L18.15 5.65C17.53 6.65 16.8 7.64 16.04 8.48L18.02 8.16C18.02 8.41 18.04 8.78 18.08 8.98C15.35 9.47 14.94 9.56 14.69 9.7C14.65 9.51 14.49 9.05 14.39 8.8C14.63 8.75 14.86 8.53 15.18 8.16C15.36 7.99 15.72 7.56 16.12 7.01C15.03 7.14 14.78 7.2 14.62 7.27C14.56 7.07 14.42 6.61 14.3 6.36C14.49 6.31 14.67 6.09 14.88 5.78C15.1 5.48 15.8 4.28 16.18 3.15L17.13 3.54C16.71 4.49 16.15 5.48 15.59 6.26ZM22.08 9.25H19.52V11.01H22.08V9.25ZM18.61 12.28V8.41H23.02V12.24H22.08V11.85H19.52V12.28H18.61ZM23.43 5.29H21.27V6.63H23.24V7.51H18.36V6.63H20.3V5.29H18.11V4.39H20.3V3.11H21.27V4.39H23.43V5.29Z" fill="white"/></svg>