<svg width="16" height="16" viewBox="0 0 16 16" fill="none" xmlns="http://www.w3.org/2000/svg"><path d="M-144.021 -126C-144.021 -127.105 -143.126 -128 -142.021 -128H453.979C455.083 -128 455.979 -127.105 455.979 -126V525C455.979 526.105 455.083 527 453.979 527H-142.021C-143.126 527 -144.021 526.105 -144.021 525V-126Z" fill="white"/><path d="M-142.021 -128V-127H453.979V-128V-129H-142.021V-128ZM455.979 -126H454.979V525H455.979H456.979V-126H455.979ZM453.979 527V526H-142.021V527V528H453.979V527ZM-144.021 525H-143.021V-126H-144.021H-145.021V525H-144.021ZM-142.021 527V526C-142.574 526 -143.021 525.552 -143.021 525H-144.021H-145.021C-145.021 526.657 -143.678 528 -142.021 528V527ZM455.979 525H454.979C454.979 525.552 454.531 526 453.979 526V527V528C455.635 528 456.979 526.657 456.979 525H455.979ZM453.979 -128V-127C454.531 -127 454.979 -126.552 454.979 -126H455.979H456.979C456.979 -127.657 455.635 -129 453.979 -129V-128ZM-142.021 -128V-129C-143.678 -129 -145.021 -127.657 -145.021 -126H-144.021H-143.021C-143.021 -126.552 -142.574 -127 -142.021 -127V-128Z" fill="black" fill-opacity="0.1"/><path d="M4.92229 1.84941C5.23491 1.68025 5.60327 1.646 5.94214 1.75487L9.23467 2.81358L12.3362 3.81074C12.9079 3.99486 13.1602 4.66236 12.8531 5.17758L10.7624 8.68225L11.8237 9.7678C12.1873 10.1399 12.1117 10.7525 11.6688 11.0235L10.5407 11.7113L10.5417 11.7122L5.84395 14.6314C4.8111 15.273 3.5864 14.1459 4.1408 13.0636L5.09992 11.1895L3.1896 9.47785C3.03181 9.33638 2.94168 9.13422 2.9409 8.92251L2.92108 3.63921C2.91953 3.20494 3.15671 2.80495 3.53836 2.5983L4.92229 1.84941Z" fill="#FFED63" stroke="#FFF9D8" stroke-linejoin="round"/><path d="M5.01775 2.0254C5.28251 1.88212 5.59491 1.85345 5.88191 1.94572L9.17444 3.00443L12.2749 4.00066C12.7244 4.14517 12.9227 4.67004 12.6813 5.07494L10.5117 8.71178L11.6806 9.90718C11.9546 10.1873 11.8976 10.6489 11.5638 10.8529L10.4349 11.5417L5.73906 14.4618C4.87835 14.9967 3.85691 14.0571 4.31878 13.1551L5.3488 11.1435L3.32347 9.32917C3.20792 9.22564 3.14114 9.07796 3.14043 8.923L3.12153 3.63867C3.12031 3.27803 3.31686 2.94591 3.63381 2.77429L5.01775 2.0254Z" fill="#FFED63" stroke="url(#paint0_linear_7809_18809)" stroke-width="0.6" stroke-linejoin="round"/><mask id="mask0_7809_18809" style="mask-type:luminance" maskUnits="userSpaceOnUse" x="3" y="2" width="10" height="13"><path fill-rule="evenodd" clip-rule="evenodd" d="M5.57987 14.2069C4.97734 14.5814 4.26282 13.9237 4.58624 13.2923L5.58123 11.3499C5.66405 11.1882 5.62729 10.9908 5.49176 10.8694L3.60704 9.18082C3.50143 9.0862 3.44083 8.95131 3.44032 8.80966L3.421 3.53039C3.42033 3.3465 3.52068 3.17728 3.68228 3.08978L5.23754 2.24763C5.38137 2.16975 5.55088 2.15405 5.7068 2.20418L9.08282 3.28958L12.3433 4.33784C12.5272 4.39696 12.6085 4.61173 12.5097 4.77739L10.1362 8.75679L11.5625 10.2149C11.6524 10.3069 11.6337 10.4584 11.5242 10.5253L10.2769 11.2877L5.57987 14.2069Z" fill="white"/></mask><g mask="url(#mask0_7809_18809)"><path fill-rule="evenodd" clip-rule="evenodd" d="M10.5526 5.259L12.7025 4.45253L5.46227 2.12478L3.41948 3.23091L10.5526 5.259Z" fill="url(#paint1_linear_7809_18809)"/><path fill-rule="evenodd" clip-rule="evenodd" d="M12.7042 4.45262L10.1374 8.75596L8.25165 9.23641L10.5543 5.2591L12.7042 4.45262Z" fill="url(#paint2_linear_7809_18809)"/><mask id="mask1_7809_18809" style="mask-type:luminance" maskUnits="userSpaceOnUse" x="3" y="3" width="8" height="12"><path fill-rule="evenodd" clip-rule="evenodd" d="M3.4228 3.23189L3.44369 8.94322C3.4439 8.99988 3.46813 9.05383 3.51038 9.09168L5.60966 10.9725C5.67743 11.0332 5.6958 11.1319 5.65439 11.2127L4.58913 13.2923C4.26571 13.9237 4.98023 14.5814 5.58276 14.2069L10.2798 11.2877L8.30703 9.29167C8.2753 9.25956 8.26894 9.21024 8.29152 9.17124L10.5559 5.25997L3.4228 3.23189Z" fill="white"/></mask><g mask="url(#mask1_7809_18809)"><ellipse cx="4.95631" cy="1.91981" rx="4.95631" ry="1.91981" transform="matrix(0.901866 -0.432015 0.444776 0.895642 2.0625 13.6338)" fill="#FFC334"/><g opacity="0.925393"><path d="M3.73757 4.63783L3.64141 7.3003C3.71229 6.21334 3.93441 5.26466 4.42304 4.81056C5.00672 4.26813 5.92566 4.34729 6.80619 4.58996L4.62312 3.98826C4.18746 3.86818 3.75388 4.18622 3.73757 4.63783Z" fill="white"/><path d="M4.59697 4.08437L5.42074 4.31142C5.02192 4.34067 4.65034 4.46296 4.3553 4.73698C4.10429 4.97026 3.92491 5.31843 3.79796 5.73005L3.83754 4.64188C3.85152 4.25479 4.22355 3.98145 4.59697 4.08437Z" stroke="#FFED63" stroke-opacity="0.181125" stroke-width="0.2"/></g><ellipse cx="4.95631" cy="1.91981" rx="4.95631" ry="1.91981" transform="matrix(0.901866 -0.432015 0.444776 0.895642 1.88916 10.3819)" fill="#FFDC50"/></g><path opacity="0.42" d="M10.4806 5.28965L8.24838 9.14581C8.21451 9.20431 8.22411 9.27834 8.27171 9.32649L10.1563 11.2331C10.1788 11.2559 10.1739 11.2939 10.1467 11.3109L5.55589 14.1639C4.99642 14.5115 4.33305 13.9009 4.63335 13.3147L5.69889 11.2357C5.75065 11.1346 5.72747 11.0113 5.64277 10.9354L3.54348 9.05454C3.51182 9.02615 3.49366 8.98518 3.4935 8.9427L3.47192 3.29671L10.4806 5.28965Z" stroke="url(#paint3_linear_7809_18809)" stroke-width="0.1" stroke-linejoin="round"/><path opacity="0.531759" fill-rule="evenodd" clip-rule="evenodd" d="M12.7081 4.45323L10.1413 8.75657L8.25556 9.23702L10.0731 8.66427L12.7081 4.45323Z" fill="#FFE14C"/><path fill-rule="evenodd" clip-rule="evenodd" d="M8.25234 9.23677L10.1381 8.75632L11.8586 10.4171L10.2788 11.2872L8.25234 9.23677Z" fill="#F89527"/><path fill-rule="evenodd" clip-rule="evenodd" d="M3.42183 3.23107L3.44304 9.03141L3.5428 3.35635L10.5549 5.25916L3.62527 3.2206L5.46462 2.12493L3.42183 3.23107Z" fill="#FFFDE9"/><path opacity="0.498324" fill-rule="evenodd" clip-rule="evenodd" d="M8.25217 9.23746L10.5551 5.26511L12.7047 4.45367L10.5279 5.18294L5.80469 3.95337L10.4587 5.27007L8.25217 9.23746Z" fill="#FFFDE9"/></g><defs><linearGradient id="paint0_linear_7809_18809" x1="7.64289" y1="2.01349" x2="8.32617" y2="15.2883" gradientUnits="userSpaceOnUse"><stop stop-color="#F48620"/><stop offset="1" stop-color="#E17216"/></linearGradient><linearGradient id="paint1_linear_7809_18809" x1="1.60724" y1="4.06838" x2="3.36354" y2="8.14846" gradientUnits="userSpaceOnUse"><stop stop-color="#FAE05A"/><stop offset="1" stop-color="#F7C550"/></linearGradient><linearGradient id="paint2_linear_7809_18809" x1="8.92408" y1="4.01929" x2="7.21076" y2="8.34676" gradientUnits="userSpaceOnUse"><stop stop-color="#F89527"/><stop offset="1" stop-color="#FFC02D"/></linearGradient><linearGradient id="paint3_linear_7809_18809" x1="2.99223" y1="1.39199" x2="-2.36413" y2="11.0284" gradientUnits="userSpaceOnUse"><stop stop-color="#FEFACF"/><stop offset="0.566902" stop-color="#FCF250"/><stop offset="1" stop-color="#FDF2AD"/></linearGradient></defs></svg>