<svg width="24" height="24" viewBox="0 0 24 24" fill="none" xmlns="http://www.w3.org/2000/svg"><path d="M-86.0215 -126C-86.0215 -127.105 -85.1261 -128 -84.0215 -128H511.979C513.083 -128 513.979 -127.105 513.979 -126V525C513.979 526.105 513.083 527 511.979 527H-84.0215C-85.1261 527 -86.0215 526.105 -86.0215 525V-126Z" fill="white"/><path d="M-84.0215 -128V-127H511.979V-128V-129H-84.0215V-128ZM513.979 -126H512.979V525H513.979H514.979V-126H513.979ZM511.979 527V526H-84.0215V527V528H511.979V527ZM-86.0215 525H-85.0215V-126H-86.0215H-87.0215V525H-86.0215ZM-84.0215 527V526C-84.5738 526 -85.0215 525.552 -85.0215 525H-86.0215H-87.0215C-87.0215 526.657 -85.6783 528 -84.0215 528V527ZM513.979 525H512.979C512.979 525.552 512.531 526 511.979 526V527V528C513.635 528 514.979 526.657 514.979 525H513.979ZM511.979 -128V-127C512.531 -127 512.979 -126.552 512.979 -126H513.979H514.979C514.979 -127.657 513.635 -129 511.979 -129V-128ZM-84.0215 -128V-129C-85.6783 -129 -87.0215 -127.657 -87.0215 -126H-86.0215H-85.0215C-85.0215 -126.552 -84.5738 -127 -84.0215 -127V-128Z" fill="black" fill-opacity="0.1"/><path d="M7.38249 2.77468C7.85151 2.52072 8.40473 2.46897 8.91321 2.63233L13.8525 4.22037L18.5032 5.7157C19.3614 5.99162 19.7417 6.99427 19.2806 7.76732L16.1442 13.0244L17.7351 14.6508C18.2811 15.2089 18.1672 16.1289 17.5022 16.5354L15.8116 17.568L8.76644 21.9476C7.21712 22.9103 5.38007 21.2188 6.21169 19.5954L7.65091 16.7852L4.7854 14.2172C4.54864 14.0051 4.41269 13.7023 4.41141 13.3848L4.38161 5.45885C4.37929 4.80753 4.73527 4.20847 5.30759 3.89845L7.38249 2.77468Z" fill="#FFED63" stroke="#FFF9D8" stroke-width="1.5" stroke-linejoin="round"/><path d="M7.52662 3.03813C7.92363 2.82328 8.39147 2.77945 8.82184 2.91768L13.7611 4.50572L18.4119 6.00105C19.0862 6.21784 19.3844 7.00602 19.0221 7.61341L15.7681 13.0682L17.5213 14.8603C17.9324 15.2805 17.8465 15.9733 17.3457 16.2794L15.6523 17.3131L15.6533 17.314L8.6081 21.6927C7.31701 22.4951 5.78629 21.0861 6.47918 19.7332L8.02374 16.7162L4.98471 13.9938C4.81128 13.8384 4.71154 13.6167 4.71062 13.384L4.6818 5.45807C4.67997 4.91716 4.97542 4.41942 5.45074 4.16195L7.52662 3.03813Z" fill="#FFED63" stroke="url(#paint0_linear_7809_18809)" stroke-width="0.9" stroke-linejoin="round"/><mask id="mask0_7809_18809" style="mask-type:luminance" maskUnits="userSpaceOnUse" x="5" y="3" width="14" height="19"><path fill-rule="evenodd" clip-rule="evenodd" d="M8.36981 21.3104C7.46601 21.8721 6.39423 20.8855 6.87937 19.9385L8.37184 17.0249C8.49607 16.7823 8.44094 16.4863 8.23764 16.3041L5.41055 13.7713C5.25214 13.6293 5.16125 13.427 5.16047 13.2145L5.13151 5.29561C5.1305 5.01978 5.28102 4.76595 5.52341 4.6347L7.85632 3.37147C8.07205 3.25465 8.32632 3.23111 8.5602 3.3063L13.6242 4.9344L18.515 6.50679C18.7908 6.59547 18.9128 6.91763 18.7646 7.16611L15.2043 13.1352L17.3438 15.3224C17.4787 15.4603 17.4506 15.6876 17.2863 15.788L15.4153 16.9316L8.36981 21.3104Z" fill="white"/></mask><g mask="url(#mask0_7809_18809)"><path fill-rule="evenodd" clip-rule="evenodd" d="M15.8284 7.88856L19.0532 6.67885L8.19292 3.18723L5.12873 4.84643L15.8284 7.88856Z" fill="url(#paint1_linear_7809_18809)"/><path fill-rule="evenodd" clip-rule="evenodd" d="M19.056 6.67896L15.2059 13.134L12.3772 13.8547L15.8312 7.88867L19.056 6.67896Z" fill="url(#paint2_linear_7809_18809)"/><mask id="mask1_7809_18809" style="mask-type:luminance" maskUnits="userSpaceOnUse" x="5" y="4" width="11" height="18"><path fill-rule="evenodd" clip-rule="evenodd" d="M5.13395 4.84774L5.16529 13.4147C5.1656 13.4997 5.20196 13.5807 5.26532 13.6374L8.41424 16.4586C8.51589 16.5497 8.54346 16.6977 8.48135 16.819L6.88345 19.9384C6.39832 20.8855 7.4701 21.872 8.37389 21.3103L15.4194 16.9315L12.4603 13.9374C12.4127 13.8893 12.4032 13.8153 12.437 13.7568L15.8336 7.88987L5.13395 4.84774Z" fill="white"/></mask><g mask="url(#mask1_7809_18809)"><ellipse cx="7.43447" cy="2.87971" rx="7.43447" ry="2.87971" transform="matrix(0.901866 -0.432015 0.444776 0.895642 3.09375 20.4507)" fill="#FFC334"/><g opacity="0.925393"><path d="M5.60636 6.95671L5.46212 10.9504C5.56844 9.31997 5.90162 7.89697 6.63457 7.21581C7.51007 6.40216 8.88849 6.52091 10.2093 6.88491L6.93467 5.98235C6.28119 5.80224 5.63083 6.27931 5.60636 6.95671Z" fill="white"/><path d="M6.89472 6.12734L8.12991 6.46779C7.53192 6.51183 6.97502 6.6953 6.53269 7.10638C6.15603 7.45648 5.8871 7.9782 5.69667 8.59599L5.75597 6.96219C5.77695 6.38156 6.33459 5.97296 6.89472 6.12734Z" stroke="#FFED63" stroke-opacity="0.181125" stroke-width="0.3"/></g><ellipse cx="7.43447" cy="2.87971" rx="7.43447" ry="2.87971" transform="matrix(0.901866 -0.432015 0.444776 0.895642 2.83398 15.5728)" fill="#FFDC50"/></g><path opacity="0.42" d="M15.7193 7.93452L12.3723 13.7187C12.3215 13.8064 12.3359 13.9175 12.4073 13.9897L15.2337 16.8502C15.2675 16.8844 15.2612 16.9418 15.2204 16.9672L8.33413 21.2468C7.49496 21.7681 6.49949 20.8518 6.94981 19.9725L8.54855 16.853C8.62598 16.7015 8.59086 16.5164 8.46389 16.4026L5.31494 13.5813C5.26761 13.5387 5.24073 13.4776 5.2405 13.414L5.2082 4.94647L15.7193 7.93452Z" stroke="url(#paint3_linear_7809_18809)" stroke-width="0.15" stroke-linejoin="round"/><path opacity="0.531759" fill-rule="evenodd" clip-rule="evenodd" d="M19.0619 6.67994L15.2117 13.1349L12.3831 13.8556L15.1094 12.9965L19.0619 6.67994Z" fill="#FFE14C"/><path fill-rule="evenodd" clip-rule="evenodd" d="M12.3783 13.8552L15.2069 13.1345L17.7876 15.6256L15.418 16.9309L12.3783 13.8552Z" fill="#F89527"/><path fill-rule="evenodd" clip-rule="evenodd" d="M5.13225 4.84669L5.16407 13.5472L5.31371 5.03462L15.8319 7.88883L5.43741 4.83099L8.19644 3.18749L5.13225 4.84669Z" fill="#FFFDE9"/><path opacity="0.498324" fill-rule="evenodd" clip-rule="evenodd" d="M12.3783 13.8563L15.8326 7.89773L19.057 6.68056L15.7918 7.77448L8.70703 5.93011L15.6881 7.90516L12.3783 13.8563Z" fill="#FFFDE9"/></g><defs><linearGradient id="paint0_linear_7809_18809" x1="11.4643" y1="3.02026" x2="12.4893" y2="22.9324" gradientUnits="userSpaceOnUse"><stop stop-color="#F48620"/><stop offset="1" stop-color="#E17216"/></linearGradient><linearGradient id="paint1_linear_7809_18809" x1="2.41037" y1="6.10263" x2="5.04482" y2="12.2227" gradientUnits="userSpaceOnUse"><stop stop-color="#FAE05A"/><stop offset="1" stop-color="#F7C550"/></linearGradient><linearGradient id="paint2_linear_7809_18809" x1="13.3859" y1="6.02897" x2="10.8159" y2="12.5202" gradientUnits="userSpaceOnUse"><stop stop-color="#F89527"/><stop offset="1" stop-color="#FFC02D"/></linearGradient><linearGradient id="paint3_linear_7809_18809" x1="4.4881" y1="2.08796" x2="-3.54644" y2="16.5425" gradientUnits="userSpaceOnUse"><stop stop-color="#FEFACF"/><stop offset="0.566902" stop-color="#FCF250"/><stop offset="1" stop-color="#FDF2AD"/></linearGradient></defs></svg>