<svg width="16" height="16" viewBox="0 0 16 16" fill="none" xmlns="http://www.w3.org/2000/svg"><path d="M-644 -367C-644 -368.105 -643.105 -369 -642 -369H577C578.105 -369 579 -368.105 579 -367V472C579 473.105 578.105 474 577 474H-642C-643.105 474 -644 473.105 -644 472V-367Z" fill="white"/><path d="M-642 -369V-368H577V-369V-370H-642V-369ZM579 -367H578V472H579H580V-367H579ZM577 474V473H-642V474V475H577V474ZM-644 472H-643V-367H-644H-645V472H-644ZM-642 474V473C-642.552 473 -643 472.552 -643 472H-644H-645C-645 473.657 -643.657 475 -642 475V474ZM579 472H578C578 472.552 577.552 473 577 473V474V475C578.657 475 580 473.657 580 472H579ZM577 -369V-368C577.552 -368 578 -367.552 578 -367H579H580C580 -368.657 578.657 -370 577 -370V-369ZM-642 -369V-370C-643.657 -370 -645 -368.657 -645 -367H-644H-643C-643 -367.552 -642.552 -368 -642 -368V-369Z" fill="black" fill-opacity="0.1"/><path d="M4 6L8 10L12 6" stroke="#202020" stroke-width="1.3" stroke-linecap="round" stroke-linejoin="round"/></svg>