<svg width="16" height="16" viewBox="0 0 16 16" fill="none" xmlns="http://www.w3.org/2000/svg"><path d="M-318 -367C-318 -368.105 -317.105 -369 -316 -369H903C904.105 -369 905 -368.105 905 -367V472C905 473.105 904.105 474 903 474H-316C-317.105 474 -318 473.105 -318 472V-367Z" fill="white"/><path d="M-316 -369V-368H903V-369V-370H-316V-369ZM905 -367H904V472H905H906V-367H905ZM903 474V473H-316V474V475H903V474ZM-318 472H-317V-367H-318H-319V472H-318ZM-316 474V473C-316.552 473 -317 472.552 -317 472H-318H-319C-319 473.657 -317.657 475 -316 475V474ZM905 472H904C904 472.552 903.552 473 903 473V474V475C904.657 475 906 473.657 906 472H905ZM903 -369V-368C903.552 -368 904 -367.552 904 -367H905H906C906 -368.657 904.657 -370 903 -370V-369ZM-316 -369V-370C-317.657 -370 -319 -368.657 -319 -367H-318H-317C-317 -367.552 -316.552 -368 -316 -368V-369Z" fill="black" fill-opacity="0.1"/><path d="M4 6L8 10L12 6" stroke="#B9B9B9" stroke-width="1.3" stroke-linecap="round" stroke-linejoin="round"/></svg>