<svg width="12" height="12" viewBox="0 0 12 12" fill="none" xmlns="http://www.w3.org/2000/svg"><path d="M-699 -369C-699 -370.105 -698.105 -371 -697 -371H522C523.105 -371 524 -370.105 524 -369V470C524 471.105 523.105 472 522 472H-697C-698.105 472 -699 471.105 -699 470V-369Z" fill="white"/><path d="M-697 -371V-370H522V-371V-372H-697V-371ZM524 -369H523V470H524H525V-369H524ZM522 472V471H-697V472V473H522V472ZM-699 470H-698V-369H-699H-700V470H-699ZM-697 472V471C-697.552 471 -698 470.552 -698 470H-699H-700C-700 471.657 -698.657 473 -697 473V472ZM524 470H523C523 470.552 522.552 471 522 471V472V473C523.657 473 525 471.657 525 470H524ZM522 -371V-370C522.552 -370 523 -369.552 523 -369H524H525C525 -370.657 523.657 -372 522 -372V-371ZM-697 -371V-372C-698.657 -372 -700 -370.657 -700 -369H-699H-698C-698 -369.552 -697.552 -370 -697 -370V-371Z" fill="black" fill-opacity="0.1"/><path d="M3 4.5L6 7.5L9 4.5" stroke="#202020" stroke-width="1.3" stroke-linecap="round" stroke-linejoin="round"/></svg>