<svg width="24" height="24" viewBox="0 0 24 24" fill="none" xmlns="http://www.w3.org/2000/svg"><path d="M-581 -361C-581 -362.105 -580.105 -363 -579 -363H640C641.105 -363 642 -362.105 642 -361V478C642 479.105 641.105 480 640 480H-579C-580.105 480 -581 479.105 -581 478V-361Z" fill="white"/><path d="M-579 -363V-362H640V-363V-364H-579V-363ZM642 -361H641V478H642H643V-361H642ZM640 480V479H-579V480V481H640V480ZM-581 478H-580V-361H-581H-582V478H-581ZM-579 480V479C-579.552 479 -580 478.552 -580 478H-581H-582C-582 479.657 -580.657 481 -579 481V480ZM642 478H641C641 478.552 640.552 479 640 479V480V481C641.657 481 643 479.657 643 478H642ZM640 -363V-362C640.552 -362 641 -361.552 641 -361H642H643C643 -362.657 641.657 -364 640 -364V-363ZM-579 -363V-364C-580.657 -364 -582 -362.657 -582 -361H-581H-580C-580 -361.552 -579.552 -362 -579 -362V-363Z" fill="black" fill-opacity="0.1"/><path d="M4 10L12 18L20 10" stroke="#202020" stroke-width="1.8" stroke-linecap="round" stroke-linejoin="round"/></svg>