<svg width="32" height="32" viewBox="0 0 32 32" fill="none" xmlns="http://www.w3.org/2000/svg"><path d="M-1108 -204C-1108 -208.418 -1104.42 -212 -1100 -212H124C128.418 -212 132 -208.418 132 -204V1486C132 1490.42 128.418 1494 124 1494H-1100C-1104.42 1494 -1108 1490.42 -1108 1486V-204Z" fill="white"/><path d="M-1100 -212V-211H124V-212V-213H-1100V-212ZM132 -204H131V1486H132H133V-204H132ZM124 1494V1493H-1100V1494V1495H124V1494ZM-1108 1486H-1107V-204H-1108H-1109V1486H-1108ZM-1100 1494V1493C-1103.87 1493 -1107 1489.87 -1107 1486H-1108H-1109C-1109 1490.97 -1104.97 1495 -1100 1495V1494ZM132 1486H131C131 1489.87 127.866 1493 124 1493V1494V1495C128.971 1495 133 1490.97 133 1486H132ZM124 -212V-211C127.866 -211 131 -207.866 131 -204H132H133C133 -208.971 128.971 -213 124 -213V-212ZM-1100 -212V-213C-1104.97 -213 -1109 -208.971 -1109 -204H-1108H-1107C-1107 -207.866 -1103.87 -211 -1100 -211V-212Z" fill="#F1F1F1"/><path d="M24 17.3333V25.3333C24 26.0406 23.719 26.7189 23.219 27.219C22.7189 27.719 22.0406 28 21.3333 28H6.66667C5.95942 28 5.28115 27.719 4.78105 27.219C4.28095 26.7189 4 26.0406 4 25.3333V10.6667C4 9.95942 4.28095 9.28115 4.78105 8.78105C5.28115 8.28095 5.95942 8 6.66667 8H14.6667M20 4H28M28 4V12M28 4L13.3333 18.6667" stroke="#202020" stroke-width="2.2" stroke-linecap="round" stroke-linejoin="round"/></svg>