<svg width="16" height="16" viewBox="0 0 16 16" fill="none" xmlns="http://www.w3.org/2000/svg"><path d="M-292 -284C-292 -288.418 -288.418 -292 -284 -292H780C784.418 -292 788 -288.418 788 -284V1370C788 1374.42 784.418 1378 780 1378H-284C-288.418 1378 -292 1374.42 -292 1370V-284Z" fill="white"/><path d="M-284 -292V-291H780V-292V-293H-284V-292ZM788 -284H787V1370H788H789V-284H788ZM780 1378V1377H-284V1378V1379H780V1378ZM-292 1370H-291V-284H-292H-293V1370H-292ZM-284 1378V1377C-287.866 1377 -291 1373.87 -291 1370H-292H-293C-293 1374.97 -288.971 1379 -284 1379V1378ZM788 1370H787C787 1373.87 783.866 1377 780 1377V1378V1379C784.971 1379 789 1374.97 789 1370H788ZM780 -292V-291C783.866 -291 787 -287.866 787 -284H788H789C789 -288.971 784.971 -293 780 -293V-292ZM-284 -292V-293C-288.971 -293 -293 -288.971 -293 -284H-292H-291C-291 -287.866 -287.866 -291 -284 -291V-292Z" fill="#F1F1F1"/><path d="M12 8.66667V12.6667C12 13.0203 11.8595 13.3594 11.6095 13.6095C11.3594 13.8595 11.0203 14 10.6667 14H3.33333C2.97971 14 2.64057 13.8595 2.39052 13.6095C2.14048 13.3594 2 13.0203 2 12.6667V5.33333C2 4.97971 2.14048 4.64057 2.39052 4.39052C2.64057 4.14048 2.97971 4 3.33333 4H7.33333M10 2H14M14 2V6M14 2L6.66667 9.33333" stroke="#202020" stroke-width="1.3" stroke-linecap="round" stroke-linejoin="round"/></svg>