<svg width="16" height="16" viewBox="0 0 16 16" fill="none" xmlns="http://www.w3.org/2000/svg"><path d="M-388 -284C-388 -288.418 -384.418 -292 -380 -292H684C688.418 -292 692 -288.418 692 -284V1370C692 1374.42 688.418 1378 684 1378H-380C-384.418 1378 -388 1374.42 -388 1370V-284Z" fill="white"/><path d="M-380 -292V-291H684V-292V-293H-380V-292ZM692 -284H691V1370H692H693V-284H692ZM684 1378V1377H-380V1378V1379H684V1378ZM-388 1370H-387V-284H-388H-389V1370H-388ZM-380 1378V1377C-383.866 1377 -387 1373.87 -387 1370H-388H-389C-389 1374.97 -384.971 1379 -380 1379V1378ZM692 1370H691C691 1373.87 687.866 1377 684 1377V1378V1379C688.971 1379 693 1374.97 693 1370H692ZM684 -292V-291C687.866 -291 691 -287.866 691 -284H692H693C693 -288.971 688.971 -293 684 -293V-292ZM-380 -292V-293C-384.971 -293 -389 -288.971 -389 -284H-388H-387C-387 -287.866 -383.866 -291 -380 -291V-292Z" fill="#F1F1F1"/><path d="M11.9598 11.96C10.8202 12.8287 9.43258 13.3099 7.99984 13.3333C3.33317 13.3333 0.666504 7.99999 0.666504 7.99999C1.49576 6.45459 2.64593 5.10439 4.03984 4.03999M6.59984 2.82666C7.05872 2.71924 7.52855 2.66555 7.99984 2.66666C12.6665 2.66666 15.3332 7.99999 15.3332 7.99999C14.9285 8.75706 14.4459 9.46981 13.8932 10.1267M9.41317 9.41332C9.23007 9.60982 9.00927 9.76743 8.76394 9.87674C8.51861 9.98605 8.25377 10.0448 7.98523 10.0496C7.71669 10.0543 7.44995 10.0049 7.20091 9.90432C6.95188 9.80373 6.72565 9.65401 6.53573 9.46409C6.34582 9.27417 6.1961 9.04795 6.09551 8.79892C5.99492 8.54988 5.94552 8.28314 5.95026 8.0146C5.955 7.74605 6.01378 7.48122 6.12309 7.23589C6.2324 6.99056 6.39001 6.76976 6.5865 6.58666M0.666504 0.666656L15.3332 15.3333" stroke="#202020" stroke-width="1.3" stroke-linecap="round" stroke-linejoin="round"/><defs><clipPath id="clip0_7809_18809"><rect width="16" height="16" fill="white"/></clipPath></defs></svg>