<svg width="20" height="20" viewBox="0 0 20 20" fill="none" xmlns="http://www.w3.org/2000/svg"><path d="M-300 -292C-300 -296.418 -296.418 -300 -292 -300H812C816.418 -300 820 -296.418 820 -292V1398C820 1402.42 816.418 1406 812 1406H-292C-296.418 1406 -300 1402.42 -300 1398V-292Z" fill="white"/><path d="M-292 -300V-299H812V-300V-301H-292V-300ZM820 -292H819V1398H820H821V-292H820ZM812 1406V1405H-292V1406V1407H812V1406ZM-300 1398H-299V-292H-300H-301V1398H-300ZM-292 1406V1405C-295.866 1405 -299 1401.87 -299 1398H-300H-301C-301 1402.97 -296.971 1407 -292 1407V1406ZM820 1398H819C819 1401.87 815.866 1405 812 1405V1406V1407C816.971 1407 821 1402.97 821 1398H820ZM812 -300V-299C815.866 -299 819 -295.866 819 -292H820H821C821 -296.971 816.971 -301 812 -301V-300ZM-292 -300V-301C-296.971 -301 -301 -296.971 -301 -292H-300H-299C-299 -295.866 -295.866 -299 -292 -299V-300Z" fill="#F1F1F1"/><path d="M14.9502 14.95C13.5257 16.0358 11.7911 16.6374 10.0002 16.6667C4.16683 16.6667 0.833496 10 0.833496 10C1.87007 8.06826 3.30778 6.38052 5.05016 5.05001M8.25016 3.53334C8.82377 3.39908 9.41105 3.33196 10.0002 3.33334C15.8335 3.33334 19.1668 10 19.1668 10C18.661 10.9463 18.0577 11.8373 17.3668 12.6583M11.7668 11.7667C11.538 12.0123 11.262 12.2093 10.9553 12.3459C10.6486 12.4826 10.3176 12.5561 9.9819 12.562C9.64623 12.5679 9.3128 12.5062 9.0015 12.3804C8.69021 12.2547 8.40743 12.0675 8.17003 11.8301C7.93264 11.5927 7.74549 11.31 7.61975 10.9987C7.49402 10.6874 7.43227 10.3539 7.43819 10.0183C7.44411 9.68259 7.51759 9.35155 7.65423 9.04488C7.79087 8.73822 7.98787 8.46222 8.2335 8.23334M0.833496 0.833344L19.1668 19.1667" stroke="#202020" stroke-width="1.5" stroke-linecap="round" stroke-linejoin="round"/><defs><clipPath id="clip0_7809_18809"><rect width="20" height="20" fill="white"/></clipPath></defs></svg>