<svg width="32" height="32" viewBox="0 0 32 32" fill="none" xmlns="http://www.w3.org/2000/svg"><path d="M-100 -316C-100 -320.418 -96.4183 -324 -92 -324H1132C1136.42 -324 1140 -320.418 1140 -316V1374C1140 1378.42 1136.42 1382 1132 1382H-92C-96.4183 1382 -100 1378.42 -100 1374V-316Z" fill="white"/><path d="M-92 -324V-323H1132V-324V-325H-92V-324ZM1140 -316H1139V1374H1140H1141V-316H1140ZM1132 1382V1381H-92V1382V1383H1132V1382ZM-100 1374H-99V-316H-100H-101V1374H-100ZM-92 1382V1381C-95.866 1381 -99 1377.87 -99 1374H-100H-101C-101 1378.97 -96.9706 1383 -92 1383V1382ZM1140 1374H1139C1139 1377.87 1135.87 1381 1132 1381V1382V1383C1136.97 1383 1141 1378.97 1141 1374H1140ZM1132 -324V-323C1135.87 -323 1139 -319.866 1139 -316H1140H1141C1141 -320.971 1136.97 -325 1132 -325V-324ZM-92 -324V-325C-96.9706 -325 -101 -320.971 -101 -316H-100H-99C-99 -319.866 -95.866 -323 -92 -323V-324Z" fill="#F1F1F1"/><path d="M23.9199 23.92C21.6407 25.6573 18.8654 26.6198 15.9999 26.6667C6.66658 26.6667 1.33325 16 1.33325 16C2.99177 12.9092 5.2921 10.2088 8.07992 8.08001M13.1999 5.65334C14.1177 5.43852 15.0573 5.33113 15.9999 5.33334C25.3333 5.33334 30.6666 16 30.6666 16C29.8572 17.5142 28.892 18.9397 27.7866 20.2533M18.8266 18.8267C18.4604 19.2197 18.0188 19.5349 17.5281 19.7535C17.0375 19.9721 16.5078 20.0897 15.9707 20.0992C15.4336 20.1086 14.9001 20.0098 14.4021 19.8087C13.904 19.6075 13.4515 19.308 13.0717 18.9282C12.6919 18.5484 12.3924 18.0959 12.1913 17.5979C11.9901 17.0998 11.8913 16.5663 11.9008 16.0292C11.9102 15.4921 12.0278 14.9625 12.2464 14.4718C12.465 13.9811 12.7803 13.5395 13.1733 13.1733M1.33325 1.33334L30.6666 30.6667" stroke="#202020" stroke-width="2.2" stroke-linecap="round" stroke-linejoin="round"/><defs><clipPath id="clip0_7809_18809"><rect width="32" height="32" fill="white"/></clipPath></defs></svg>