<svg width="16" height="16" viewBox="0 0 16 16" fill="none" xmlns="http://www.w3.org/2000/svg"><path d="M-484 -284C-484 -288.418 -480.418 -292 -476 -292H588C592.418 -292 596 -288.418 596 -284V1370C596 1374.42 592.418 1378 588 1378H-476C-480.418 1378 -484 1374.42 -484 1370V-284Z" fill="white"/><path d="M-476 -292V-291H588V-292V-293H-476V-292ZM596 -284H595V1370H596H597V-284H596ZM588 1378V1377H-476V1378V1379H588V1378ZM-484 1370H-483V-284H-484H-485V1370H-484ZM-476 1378V1377C-479.866 1377 -483 1373.87 -483 1370H-484H-485C-485 1374.97 -480.971 1379 -476 1379V1378ZM596 1370H595C595 1373.87 591.866 1377 588 1377V1378V1379C592.971 1379 597 1374.97 597 1370H596ZM588 -292V-291C591.866 -291 595 -287.866 595 -284H596H597C597 -288.971 592.971 -293 588 -293V-292ZM-476 -292V-293C-480.971 -293 -485 -288.971 -485 -284H-484H-483C-483 -287.866 -479.866 -291 -476 -291V-292Z" fill="#F1F1F1"/><path d="M0.666504 7.99999C0.666504 7.99999 3.33317 2.66666 7.99984 2.66666C12.6665 2.66666 15.3332 7.99999 15.3332 7.99999C15.3332 7.99999 12.6665 13.3333 7.99984 13.3333C3.33317 13.3333 0.666504 7.99999 0.666504 7.99999Z" stroke="#202020" stroke-width="1.3" stroke-linecap="round" stroke-linejoin="round"/><path d="M7.99984 9.99999C9.10441 9.99999 9.99984 9.10456 9.99984 7.99999C9.99984 6.89542 9.10441 5.99999 7.99984 5.99999C6.89527 5.99999 5.99984 6.89542 5.99984 7.99999C5.99984 9.10456 6.89527 9.99999 7.99984 9.99999Z" stroke="#202020" stroke-width="1.3" stroke-linecap="round" stroke-linejoin="round"/></svg>