<svg width="32" height="32" viewBox="0 0 32 32" fill="none" xmlns="http://www.w3.org/2000/svg"><path d="M-212 -316C-212 -320.418 -208.418 -324 -204 -324H1020C1024.42 -324 1028 -320.418 1028 -316V1374C1028 1378.42 1024.42 1382 1020 1382H-204C-208.418 1382 -212 1378.42 -212 1374V-316Z" fill="white"/><path d="M-204 -324V-323H1020V-324V-325H-204V-324ZM1028 -316H1027V1374H1028H1029V-316H1028ZM1020 1382V1381H-204V1382V1383H1020V1382ZM-212 1374H-211V-316H-212H-213V1374H-212ZM-204 1382V1381C-207.866 1381 -211 1377.87 -211 1374H-212H-213C-213 1378.97 -208.971 1383 -204 1383V1382ZM1028 1374H1027C1027 1377.87 1023.87 1381 1020 1381V1382V1383C1024.97 1383 1029 1378.97 1029 1374H1028ZM1020 -324V-323C1023.87 -323 1027 -319.866 1027 -316H1028H1029C1029 -320.971 1024.97 -325 1020 -325V-324ZM-204 -324V-325C-208.971 -325 -213 -320.971 -213 -316H-212H-211C-211 -319.866 -207.866 -323 -204 -323V-324Z" fill="#F1F1F1"/><path d="M1.33325 16C1.33325 16 6.66658 5.33334 15.9999 5.33334C25.3333 5.33334 30.6666 16 30.6666 16C30.6666 16 25.3333 26.6667 15.9999 26.6667C6.66658 26.6667 1.33325 16 1.33325 16Z" stroke="#202020" stroke-width="2.2" stroke-linecap="round" stroke-linejoin="round"/><path d="M15.9999 20C18.2091 20 19.9999 18.2091 19.9999 16C19.9999 13.7909 18.2091 12 15.9999 12C13.7908 12 11.9999 13.7909 11.9999 16C11.9999 18.2091 13.7908 20 15.9999 20Z" stroke="#202020" stroke-width="2.2" stroke-linecap="round" stroke-linejoin="round"/></svg>