<svg width="20" height="20" viewBox="0 0 20 20" fill="none" xmlns="http://www.w3.org/2000/svg"><path d="M-400 -292C-400 -296.418 -396.418 -300 -392 -300H712C716.418 -300 720 -296.418 720 -292V1398C720 1402.42 716.418 1406 712 1406H-392C-396.418 1406 -400 1402.42 -400 1398V-292Z" fill="white"/><path d="M-392 -300V-299H712V-300V-301H-392V-300ZM720 -292H719V1398H720H721V-292H720ZM712 1406V1405H-392V1406V1407H712V1406ZM-400 1398H-399V-292H-400H-401V1398H-400ZM-392 1406V1405C-395.866 1405 -399 1401.87 -399 1398H-400H-401C-401 1402.97 -396.971 1407 -392 1407V1406ZM720 1398H719C719 1401.87 715.866 1405 712 1405V1406V1407C716.971 1407 721 1402.97 721 1398H720ZM712 -300V-299C715.866 -299 719 -295.866 719 -292H720H721C721 -296.971 716.971 -301 712 -301V-300ZM-392 -300V-301C-396.971 -301 -401 -296.971 -401 -292H-400H-399C-399 -295.866 -395.866 -299 -392 -299V-300Z" fill="#F1F1F1"/><path d="M0.833496 10C0.833496 10 4.16683 3.33334 10.0002 3.33334C15.8335 3.33334 19.1668 10 19.1668 10C19.1668 10 15.8335 16.6667 10.0002 16.6667C4.16683 16.6667 0.833496 10 0.833496 10Z" stroke="#202020" stroke-width="1.5" stroke-linecap="round" stroke-linejoin="round"/><path d="M10.0002 12.5C11.3809 12.5 12.5002 11.3807 12.5002 10C12.5002 8.6193 11.3809 7.50001 10.0002 7.50001C8.61945 7.50001 7.50016 8.6193 7.50016 10C7.50016 11.3807 8.61945 12.5 10.0002 12.5Z" stroke="#202020" stroke-width="1.5" stroke-linecap="round" stroke-linejoin="round"/></svg>