<svg width="20" height="20" viewBox="0 0 20 20" fill="none" xmlns="http://www.w3.org/2000/svg"><path d="M-500 -292C-500 -296.418 -496.418 -300 -492 -300H612C616.418 -300 620 -296.418 620 -292V1398C620 1402.42 616.418 1406 612 1406H-492C-496.418 1406 -500 1402.42 -500 1398V-292Z" fill="white"/><path d="M-492 -300V-299H612V-300V-301H-492V-300ZM620 -292H619V1398H620H621V-292H620ZM612 1406V1405H-492V1406V1407H612V1406ZM-500 1398H-499V-292H-500H-501V1398H-500ZM-492 1406V1405C-495.866 1405 -499 1401.87 -499 1398H-500H-501C-501 1402.97 -496.971 1407 -492 1407V1406ZM620 1398H619C619 1401.87 615.866 1405 612 1405V1406V1407C616.971 1407 621 1402.97 621 1398H620ZM612 -300V-299C615.866 -299 619 -295.866 619 -292H620H621C621 -296.971 616.971 -301 612 -301V-300ZM-492 -300V-301C-496.971 -301 -501 -296.971 -501 -292H-500H-499C-499 -295.866 -495.866 -299 -492 -299V-300Z" fill="#F1F1F1"/><path d="M18.3332 2.5H1.6665L8.33317 10.3833V15.8333L11.6665 17.5V10.3833L18.3332 2.5Z" stroke="#202020" stroke-width="1.5" stroke-linecap="round" stroke-linejoin="round"/></svg>