<svg width="32" height="32" viewBox="0 0 32 32" fill="none" xmlns="http://www.w3.org/2000/svg"><path d="M-324 -316C-324 -320.418 -320.418 -324 -316 -324H908C912.418 -324 916 -320.418 916 -316V1374C916 1378.42 912.418 1382 908 1382H-316C-320.418 1382 -324 1378.42 -324 1374V-316Z" fill="white"/><path d="M-316 -324V-323H908V-324V-325H-316V-324ZM916 -316H915V1374H916H917V-316H916ZM908 1382V1381H-316V1382V1383H908V1382ZM-324 1374H-323V-316H-324H-325V1374H-324ZM-316 1382V1381C-319.866 1381 -323 1377.87 -323 1374H-324H-325C-325 1378.97 -320.971 1383 -316 1383V1382ZM916 1374H915C915 1377.87 911.866 1381 908 1381V1382V1383C912.971 1383 917 1378.97 917 1374H916ZM908 -324V-323C911.866 -323 915 -319.866 915 -316H916H917C917 -320.971 912.971 -325 908 -325V-324ZM-316 -324V-325C-320.971 -325 -325 -320.971 -325 -316H-324H-323C-323 -319.866 -319.866 -323 -316 -323V-324Z" fill="#F1F1F1"/><path d="M29.3334 4H2.66675L13.3334 16.6133V25.3333L18.6667 28V16.6133L29.3334 4Z" stroke="#202020" stroke-width="2.2" stroke-linecap="round" stroke-linejoin="round"/></svg>