<svg width="16" height="16" viewBox="0 0 16 16" fill="none" xmlns="http://www.w3.org/2000/svg"><path d="M-580 -284C-580 -288.418 -576.418 -292 -572 -292H492C496.418 -292 500 -288.418 500 -284V1370C500 1374.42 496.418 1378 492 1378H-572C-576.418 1378 -580 1374.42 -580 1370V-284Z" fill="white"/><path d="M-572 -292V-291H492V-292V-293H-572V-292ZM500 -284H499V1370H500H501V-284H500ZM492 1378V1377H-572V1378V1379H492V1378ZM-580 1370H-579V-284H-580H-581V1370H-580ZM-572 1378V1377C-575.866 1377 -579 1373.87 -579 1370H-580H-581C-581 1374.97 -576.971 1379 -572 1379V1378ZM500 1370H499C499 1373.87 495.866 1377 492 1377V1378V1379C496.971 1379 501 1374.97 501 1370H500ZM492 -292V-291C495.866 -291 499 -287.866 499 -284H500H501C501 -288.971 496.971 -293 492 -293V-292ZM-572 -292V-293C-576.971 -293 -581 -288.971 -581 -284H-580H-579C-579 -287.866 -575.866 -291 -572 -291V-292Z" fill="#F1F1F1"/><path d="M14.6668 2H1.3335L6.66683 8.30667V12.6667L9.3335 14V8.30667L14.6668 2Z" stroke="#202020" stroke-width="1.3" stroke-linecap="round" stroke-linejoin="round"/></svg>