<svg width="28" height="16" viewBox="0 0 28 16" fill="none" xmlns="http://www.w3.org/2000/svg"><path d="M-128 -53C-128 -54.1046 -127.105 -55 -126 -55H500C501.105 -55 502 -54.1046 502 -53V353C502 354.105 501.105 355 500 355H-126C-127.105 355 -128 354.105 -128 353V-53Z" fill="white"/><path d="M-126 -55V-54H500V-55V-56H-126V-55ZM502 -53H501V353H502H503V-53H502ZM500 355V354H-126V355V356H500V355ZM-128 353H-127V-53H-128H-129V353H-128ZM-126 355V354C-126.552 354 -127 353.552 -127 353H-128H-129C-129 354.657 -127.657 356 -126 356V355ZM502 353H501C501 353.552 500.552 354 500 354V355V356C501.657 356 503 354.657 503 353H502ZM500 -55V-54C500.552 -54 501 -53.5523 501 -53H502H503C503 -54.6569 501.657 -56 500 -56V-55ZM-126 -55V-56C-127.657 -56 -129 -54.6569 -129 -53H-128H-127C-127 -53.5523 -126.552 -54 -126 -54V-55Z" fill="black" fill-opacity="0.1"/><mask id="path-3-inside-1_7809_18809" fill="white"><path d="M0 3C0 1.34315 1.34315 0 3 0H25C26.6569 0 28 1.34315 28 3V13C28 14.6569 26.6569 16 25 16H3C1.34315 16 0 14.6569 0 13V3Z"/></mask><path d="M0 3C0 1.34315 1.34315 0 3 0H25C26.6569 0 28 1.34315 28 3V13C28 14.6569 26.6569 16 25 16H3C1.34315 16 0 14.6569 0 13V3Z" fill="#3D394B"/><path d="M3 0V1H25V0V-1H3V0ZM28 3H27V13H28H29V3H28ZM25 16V15H3V16V17H25V16ZM0 13H1V3H0H-1V13H0ZM3 16V15C1.89543 15 1 14.1046 1 13H0H-1C-1 15.2091 0.790861 17 3 17V16ZM28 13H27C27 14.1046 26.1046 15 25 15V16V17C27.2091 17 29 15.2091 29 13H28ZM25 0V1C26.1046 1 27 1.89543 27 3H28H29C29 0.790861 27.2091 -1 25 -1V0ZM3 0V-1C0.790861 -1 -1 0.790861 -1 3H0H1C1 1.89543 1.89543 1 3 1V0Z" fill="#2A253A" mask="url(#path-3-inside-1_7809_18809)"/><path d="M12.71 7.61L11.99 7.44C12.11 7.14 12.24 6.73 12.36 6.32H7.65V5.53H10.01V4.75H8V3.97H10.01V3.12H10.92V3.97H12.94V4.75H10.92V5.53H12.65L12.8 5.5L13.38 5.64C13.19 6.33 12.94 7.11 12.71 7.61ZM10.24 7.52L9.81 8.03C9.51 7.73 8.88 7.31 8.37 7.05L8.78 6.59C9.28 6.84 9.91 7.23 10.24 7.52ZM7.18 4.75L6.55 5.43C6.23 5.01 5.53 4.36 4.99 3.9L5.58 3.3C6.12 3.73 6.84 4.34 7.18 4.75ZM13.43 9.7H10.84C10.45 10.67 9.6 11.64 7.82 12.35C7.73 12.13 7.46 11.8 7.27 11.62C8.67 11.09 9.42 10.41 9.82 9.7H7.45C7.54 9.94 7.67 10.21 7.76 10.36C6.19 11.68 5.93 11.93 5.78 12.15C5.69 11.96 5.45 11.65 5.31 11.51C5.5 11.36 5.78 11.01 5.78 10.51V7.08H4.43V6.19H6.63V10.2L7.4 9.57L7.44 9.68V8.9H9.05C8.71 8.6 8.13 8.19 7.65 7.93L8.07 7.45C8.59 7.72 9.23 8.13 9.55 8.45L9.17 8.9H10.14C10.25 8.51 10.27 8.12 10.27 7.77V6.65H11.16V7.79C11.16 8.14 11.14 8.52 11.07 8.9H13.43V9.7ZM10.78 10.48L11.33 9.95C12.12 10.45 13.12 11.2 13.6 11.73L13.01 12.33C12.55 11.81 11.58 11.01 10.78 10.48ZM15.75 5.09V6.52H14.82V4.2H18.57C18.46 3.9 18.3 3.56 18.15 3.29L19.09 3.01C19.31 3.37 19.54 3.83 19.68 4.2H23.15V6.52H22.19V5.09H15.75ZM21.61 6.86H16.34V6.01H21.61V6.86ZM21.07 11.29H22.28C22.62 11.29 22.68 11.12 22.72 10.02C22.93 10.18 23.32 10.33 23.56 10.39C23.46 11.79 23.21 12.14 22.36 12.14H20.95C19.93 12.14 19.69 11.87 19.69 10.95V8.71H18.12C17.98 10.71 17.48 11.78 14.95 12.3C14.87 12.06 14.63 11.7 14.46 11.51C16.69 11.11 17.06 10.34 17.17 8.71H14.59V7.84H23.4V8.71H20.63V10.95C20.63 11.25 20.69 11.29 21.07 11.29Z" fill="white"/></svg>