<svg width="16" height="16" viewBox="0 0 16 16" fill="none" xmlns="http://www.w3.org/2000/svg"><path d="M-237 -126C-237 -127.105 -236.105 -128 -235 -128H361C362.105 -128 363 -127.105 363 -126V525C363 526.105 362.105 527 361 527H-235C-236.105 527 -237 526.105 -237 525V-126Z" fill="white"/><path d="M-235 -128V-127H361V-128V-129H-235V-128ZM363 -126H362V525H363H364V-126H363ZM361 527V526H-235V527V528H361V527ZM-237 525H-236V-126H-237H-238V525H-237ZM-235 527V526C-235.552 526 -236 525.552 -236 525H-237H-238C-238 526.657 -236.657 528 -235 528V527ZM363 525H362C362 525.552 361.552 526 361 526V527V528C362.657 528 364 526.657 364 525H363ZM361 -128V-127C361.552 -127 362 -126.552 362 -126H363H364C364 -127.657 362.657 -129 361 -129V-128ZM-235 -128V-129C-236.657 -129 -238 -127.657 -238 -126H-237H-236C-236 -126.552 -235.552 -127 -235 -127V-128Z" fill="black" fill-opacity="0.1"/><circle cx="8" cy="8" r="8" fill="#FCE64D"/><path d="M4.91016 7.77142L7.23115 10.0924L11.595 5.72856" stroke="#202020" stroke-width="1.8" stroke-linecap="round" stroke-linejoin="round"/></svg>