<svg width="20" height="20" viewBox="0 0 20 20" fill="none" xmlns="http://www.w3.org/2000/svg"><path d="M-197 -124C-197 -125.105 -196.105 -126 -195 -126H401C402.105 -126 403 -125.105 403 -124V527C403 528.105 402.105 529 401 529H-195C-196.105 529 -197 528.105 -197 527V-124Z" fill="white"/><path d="M-195 -126V-125H401V-126V-127H-195V-126ZM403 -124H402V527H403H404V-124H403ZM401 529V528H-195V529V530H401V529ZM-197 527H-196V-124H-197H-198V527H-197ZM-195 529V528C-195.552 528 -196 527.552 -196 527H-197H-198C-198 528.657 -196.657 530 -195 530V529ZM403 527H402C402 527.552 401.552 528 401 528V529V530C402.657 530 404 528.657 404 527H403ZM401 -126V-125C401.552 -125 402 -124.552 402 -124H403H404C404 -125.657 402.657 -127 401 -127V-126ZM-195 -126V-127C-196.657 -127 -198 -125.657 -198 -124H-197H-196C-196 -124.552 -195.552 -125 -195 -125V-126Z" fill="black" fill-opacity="0.1"/><circle cx="10" cy="10" r="10" fill="#FFE847"/><path d="M5.54785 10.0765L8.62055 13.1492C8.69866 13.2273 8.82529 13.2273 8.90339 13.1492L14.3385 7.71415" stroke="#202020" stroke-width="1.8" stroke-linecap="round"/></svg>