<svg width="14" height="14" viewBox="0 0 14 14" fill="none" xmlns="http://www.w3.org/2000/svg"><path d="M-382 -264C-382 -265.105 -381.105 -266 -380 -266H325C326.105 -266 327 -265.105 327 -264V142C327 143.105 326.105 144 325 144H-380C-381.105 144 -382 143.105 -382 142V-264Z" fill="white"/><path d="M-380 -266V-265H325V-266V-267H-380V-266ZM327 -264H326V142H327H328V-264H327ZM325 144V143H-380V144V145H325V144ZM-382 142H-381V-264H-382H-383V142H-382ZM-380 144V143C-380.552 143 -381 142.552 -381 142H-382H-383C-383 143.657 -381.657 145 -380 145V144ZM327 142H326C326 142.552 325.552 143 325 143V144V145C326.657 145 328 143.657 328 142H327ZM325 -266V-265C325.552 -265 326 -264.552 326 -264H327H328C328 -265.657 326.657 -267 325 -267V-266ZM-380 -266V-267C-381.657 -267 -383 -265.657 -383 -264H-382H-381C-381 -264.552 -380.552 -265 -380 -265V-266Z" fill="black" fill-opacity="0.1"/><path d="M-4 0.299999C-4 -1.52254 -2.52254 -3 -0.7 -3H56V17H-0.7C-2.52254 17 -4 15.5225 -4 13.7V0.299999Z" fill="black" fill-opacity="0.7"/><path d="M8.53741 1.76253C9.17455 1.66734 9.76923 2.10683 9.86456 2.74398L11.1419 11.283C11.2367 11.9198 10.7972 12.5138 10.1605 12.6092L3.59405 13.5916C2.95697 13.687 2.36247 13.2472 2.2669 12.6102L0.989559 4.0721C0.894212 3.43486 1.33377 2.8403 1.971 2.74495L8.53741 1.76253ZM11.9954 3.35726C12.6355 3.43008 13.0954 4.00818 13.0228 4.64827L12.2601 11.3494C12.2055 11.828 11.8689 12.205 11.4349 12.3348C11.703 12.0816 11.848 11.7067 11.7894 11.3143L10.5745 3.19612L11.9954 3.35726ZM4.76495 6.45003L2.85089 7.14437L4.43585 8.42269L4.50323 10.4578L6.20929 9.34554L8.16534 9.90999L7.63604 7.94417L8.77667 6.25765L6.74249 6.15413L5.49151 4.54866L4.76495 6.45003Z" fill="#FFE847"/></svg>