<svg width="14" height="14" viewBox="0 0 14 14" fill="none" xmlns="http://www.w3.org/2000/svg"><path d="M-526 -264C-526 -265.105 -525.105 -266 -524 -266H181C182.105 -266 183 -265.105 183 -264V142C183 143.105 182.105 144 181 144H-524C-525.105 144 -526 143.105 -526 142V-264Z" fill="white"/><path d="M-524 -266V-265H181V-266V-267H-524V-266ZM183 -264H182V142H183H184V-264H183ZM181 144V143H-524V144V145H181V144ZM-526 142H-525V-264H-526H-527V142H-526ZM-524 144V143C-524.552 143 -525 142.552 -525 142H-526H-527C-527 143.657 -525.657 145 -524 145V144ZM183 142H182C182 142.552 181.552 143 181 143V144V145C182.657 145 184 143.657 184 142H183ZM181 -266V-265C181.552 -265 182 -264.552 182 -264H183H184C184 -265.657 182.657 -267 181 -267V-266ZM-524 -266V-267C-525.657 -267 -527 -265.657 -527 -264H-526H-525C-525 -264.552 -524.552 -265 -524 -265V-266Z" fill="black" fill-opacity="0.1"/><path d="M-4 1.4C-4 -1.03005 -2.03005 -3 0.4 -3H53V17H0.400002C-2.03005 17 -4 15.0301 -4 12.6V1.4Z" fill="black" fill-opacity="0.7"/><path d="M7.10381 0.584988C7.15841 0.579744 7.1733 0.585933 7.21126 0.616153C7.2329 0.678143 7.11351 0.945701 7.10094 1.06185C7.01793 1.8291 7.95767 2.27688 8.487 2.6827C8.76442 2.8954 8.9826 3.06887 9.19276 3.32992C9.82082 4.08976 9.86597 5.03397 9.36101 5.86215C9.14223 6.22096 8.6445 6.86157 8.99559 7.24065C9.26556 7.53215 9.69133 7.50202 9.98594 7.26665C10.3972 6.93812 10.4993 6.41939 10.488 5.93537C10.484 5.76254 10.441 5.54727 10.4565 5.3817C10.4937 5.33208 10.4739 5.34566 10.5298 5.32598C10.8548 5.3549 11.438 6.35486 11.5709 6.62886C11.6572 6.80833 11.729 6.99378 11.7855 7.18355C12.1608 8.41802 12.103 9.6798 11.4355 10.8182C10.7148 12.0222 9.52271 12.9098 8.11639 13.2895C7.82029 13.3496 7.51982 13.3886 7.21752 13.4061C4.49049 13.5809 1.93926 11.5583 1.75958 8.94898C1.66208 7.40887 2.31259 5.91083 3.52634 4.88038C3.87601 4.57779 4.27175 4.33565 4.63588 4.05059C4.7362 3.97205 4.84772 3.68017 4.95374 3.68437C5.16578 3.8725 4.68241 4.55057 4.79118 4.83798C4.80465 4.87359 4.82842 4.9043 4.86672 4.91865C4.94848 4.94928 5.06274 4.90986 5.13924 4.88024C5.42563 4.76936 5.68225 4.52938 5.86966 4.3021C6.89916 3.05356 5.8845 2.35678 6.34145 1.33157C6.4869 1.00524 6.75383 0.719402 7.10381 0.584988Z" fill="url(#paint0_linear_7809_18809)"/><defs><linearGradient id="paint0_linear_7809_18809" x1="6.88333" y1="0.583313" x2="6.88333" y2="13.4166" gradientUnits="userSpaceOnUse"><stop stop-color="#FF502C"/><stop offset="1" stop-color="#FF6A41"/></linearGradient></defs></svg>