<svg width="14" height="14" viewBox="0 0 14 14" fill="none" xmlns="http://www.w3.org/2000/svg"><path d="M-454 -264C-454 -265.105 -453.105 -266 -452 -266H253C254.105 -266 255 -265.105 255 -264V142C255 143.105 254.105 144 253 144H-452C-453.105 144 -454 143.105 -454 142V-264Z" fill="white"/><path d="M-452 -266V-265H253V-266V-267H-452V-266ZM255 -264H254V142H255H256V-264H255ZM253 144V143H-452V144V145H253V144ZM-454 142H-453V-264H-454H-455V142H-454ZM-452 144V143C-452.552 143 -453 142.552 -453 142H-454H-455C-455 143.657 -453.657 145 -452 145V144ZM255 142H254C254 142.552 253.552 143 253 143V144V145C254.657 145 256 143.657 256 142H255ZM253 -266V-265C253.552 -265 254 -264.552 254 -264H255H256C256 -265.657 254.657 -267 253 -267V-266ZM-452 -266V-267C-453.657 -267 -455 -265.657 -455 -264H-454H-453C-453 -264.552 -452.552 -265 -452 -265V-266Z" fill="black" fill-opacity="0.1"/><path d="M-4 0.299999C-4 -1.52254 -2.52254 -3 -0.7 -3H56V17H-0.7C-2.52254 17 -4 15.5225 -4 13.7V0.299999Z" fill="black" fill-opacity="0.7"/><path d="M8.39893 0.583313C9.1755 0.751717 9.89991 1.0585 10.5474 1.47491C10.1022 2.02753 10.1359 2.8387 10.6489 3.35187C11.1622 3.86514 11.9732 3.898 12.5259 3.45245C12.9425 4.0998 13.2489 4.82438 13.4175 5.60089C12.7111 5.67602 12.1607 6.27402 12.1606 7.00031C12.1606 7.72662 12.7111 8.32354 13.4175 8.39874C13.249 9.17569 12.9426 9.90046 12.5259 10.5482C11.9733 10.1028 11.1622 10.1365 10.6489 10.6497C10.1363 11.1628 10.1016 11.9742 10.5464 12.5267C9.89916 12.9428 9.17515 13.2489 8.39893 13.4173C8.32374 12.7109 7.72681 12.1605 7.00049 12.1605C6.27418 12.1605 5.67619 12.7109 5.60107 13.4173C4.82451 13.2487 4.10002 12.9423 3.45264 12.5257C3.89825 11.973 3.86535 11.1621 3.35205 10.6487C2.83867 10.1355 2.02674 10.1015 1.47412 10.5472C1.05784 9.8998 0.751847 9.17519 0.583496 8.39874C1.29002 8.32371 1.84033 7.72674 1.84033 7.00031C1.84025 6.27393 1.28998 5.67688 0.583496 5.60187C0.752051 4.82505 1.05838 4.10003 1.4751 3.45245C2.02776 3.89831 2.83864 3.86528 3.35205 3.35187C3.86544 2.83845 3.89848 2.02757 3.45264 1.47491C4.10022 1.05825 4.82524 0.751827 5.60205 0.583313C5.67708 1.2898 6.27411 1.84008 7.00049 1.84015C7.72691 1.84015 8.32388 1.28983 8.39893 0.583313ZM7.00049 3.53156C5.0847 3.53156 3.53174 5.08452 3.53174 7.00031C3.53194 8.91592 5.08483 10.4691 7.00049 10.4691C8.91603 10.4689 10.469 8.91583 10.4692 7.00031C10.4692 5.0846 8.91616 3.53169 7.00049 3.53156ZM7.00049 5.0755C8.06349 5.07567 8.92529 5.93726 8.92529 7.00031C8.9252 8.06327 8.06343 8.92494 7.00049 8.92511C5.9374 8.92511 5.0748 8.06337 5.07471 7.00031C5.07471 5.93716 5.93734 5.0755 7.00049 5.0755Z" fill="#FFE847"/></svg>