<svg width="20" height="20" viewBox="0 0 20 20" fill="none" xmlns="http://www.w3.org/2000/svg"><path d="M-348 -60C-348 -61.1046 -347.105 -62 -346 -62H250C251.105 -62 252 -61.1046 252 -60V591C252 592.105 251.105 593 250 593H-346C-347.105 593 -348 592.105 -348 591V-60Z" fill="white"/><path d="M-346 -62V-61H250V-62V-63H-346V-62ZM252 -60H251V591H252H253V-60H252ZM250 593V592H-346V593V594H250V593ZM-348 591H-347V-60H-348H-349V591H-348ZM-346 593V592C-346.552 592 -347 591.552 -347 591H-348H-349C-349 592.657 -347.657 594 -346 594V593ZM252 591H251C251 591.552 250.552 592 250 592V593V594C251.657 594 253 592.657 253 591H252ZM250 -62V-61C250.552 -61 251 -60.5523 251 -60H252H253C253 -61.6569 251.657 -63 250 -63V-62ZM-346 -62V-63C-347.657 -63 -349 -61.6569 -349 -60H-348H-347C-347 -60.5523 -346.552 -61 -346 -61V-62Z" fill="black" fill-opacity="0.1"/><circle cx="10" cy="10" r="10" fill="#FFE847"/><path d="M5.54785 10.0765L8.62055 13.1492C8.69866 13.2273 8.82529 13.2273 8.90339 13.1492L14.3385 7.71415" stroke="#202020" stroke-width="1.8" stroke-linecap="round"/></svg>