<svg width="28" height="16" viewBox="0 0 28 16" fill="none" xmlns="http://www.w3.org/2000/svg"><path d="M-275 -53C-275 -54.1046 -274.105 -55 -273 -55H353C354.105 -55 355 -54.1046 355 -53V353C355 354.105 354.105 355 353 355H-273C-274.105 355 -275 354.105 -275 353V-53Z" fill="white"/><path d="M-273 -55V-54H353V-55V-56H-273V-55ZM355 -53H354V353H355H356V-53H355ZM353 355V354H-273V355V356H353V355ZM-275 353H-274V-53H-275H-276V353H-275ZM-273 355V354C-273.552 354 -274 353.552 -274 353H-275H-276C-276 354.657 -274.657 356 -273 356V355ZM355 353H354C354 353.552 353.552 354 353 354V355V356C354.657 356 356 354.657 356 353H355ZM353 -55V-54C353.552 -54 354 -53.5523 354 -53H355H356C356 -54.6569 354.657 -56 353 -56V-55ZM-273 -55V-56C-274.657 -56 -276 -54.6569 -276 -53H-275H-274C-274 -53.5523 -273.552 -54 -273 -54V-55Z" fill="black" fill-opacity="0.1"/><path d="M3 0.5H25C26.3807 0.5 27.5 1.61929 27.5 3V13C27.5 14.3807 26.3807 15.5 25 15.5H3C1.61929 15.5 0.5 14.3807 0.5 13V3C0.5 1.61929 1.61929 0.5 3 0.5Z" fill="#FFAE7F"/><path d="M3 0.5H25C26.3807 0.5 27.5 1.61929 27.5 3V13C27.5 14.3807 26.3807 15.5 25 15.5H3C1.61929 15.5 0.5 14.3807 0.5 13V3C0.5 1.61929 1.61929 0.5 3 0.5Z" stroke="#FF9659"/><path d="M11.79 6.42H9.54C9.49 6.95 9.43 7.48 9.33 7.97H11.79V6.42ZM6.43 7.97H8.35C8.46 7.48 8.51 6.96 8.56 6.42H6.43V7.97ZM9.62 4.59H7.34C7.08 4.93 6.79 5.27 6.48 5.59H8.87C9.13 5.3 9.4 4.93 9.62 4.59ZM10.89 11.27H12.22C12.6 11.27 12.67 11.08 12.71 9.93C12.92 10.08 13.31 10.23 13.56 10.29C13.45 11.72 13.2 12.1 12.29 12.1H10.76C9.7 12.1 9.43 11.83 9.43 10.92V8.8H9.11C8.61 10.32 7.54 11.52 5.04 12.21C4.94 11.97 4.71 11.62 4.51 11.43C6.67 10.89 7.63 9.96 8.1 8.8H5.5V6.49C5.35 6.61 5.2 6.73 5.04 6.84C4.89 6.63 4.59 6.3 4.37 6.16C5.72 5.27 6.68 4.06 7.21 3.08L8.23 3.27C8.13 3.46 8.02 3.63 7.89 3.82H10.15L10.29 3.78L10.94 4.19C10.69 4.63 10.33 5.15 9.97 5.59H12.77V8.8H10.4V10.91C10.4 11.22 10.47 11.27 10.89 11.27ZM17.48 5.58H16.19C16.16 5.79 16.13 5.98 16.09 6.18H17.34C17.42 5.99 17.46 5.79 17.48 5.58ZM18.34 4.34V4.93H19.72V4.34H18.34ZM21.87 4.34H20.6V4.93H21.87V4.34ZM19.72 6.18V5.58H18.33C18.32 5.79 18.29 5.98 18.25 6.18H19.72ZM15.84 10.82V8.3C15.59 8.38 15.33 8.45 15.05 8.51C14.97 8.31 14.74 7.96 14.58 7.81C15.77 7.55 16.49 7.22 16.91 6.82H15.14C15.25 6.31 15.37 5.56 15.44 4.94H15.79V4.93H17.5V4.34H15.11V3.7H17.5V3.11H18.34V3.7H19.72V3.11H20.6V3.7H22.72V5.58H20.6V6.18H23.33C23.33 6.18 23.32 6.36 23.31 6.47C23.25 7.13 23.18 7.47 23.02 7.64C22.89 7.79 22.71 7.85 22.5 7.86C22.32 7.87 21.98 7.87 21.6 7.85C21.59 7.67 21.52 7.41 21.44 7.24C21.72 7.28 21.96 7.28 22.06 7.28C22.17 7.28 22.23 7.27 22.29 7.21C22.33 7.15 22.37 7.05 22.4 6.82H20.6V7.87H19.72V6.82H18.01C17.75 7.31 17.28 7.74 16.47 8.08H22.22V10.73H21.28V8.85H16.74V10.82H15.84ZM18.66 9.22H19.59C19.21 10.96 18.22 11.86 14.83 12.28C14.77 12.05 14.59 11.68 14.43 11.49C17.55 11.18 18.34 10.54 18.66 9.22ZM19.19 10.98L19.68 10.35C20.9 10.64 22.59 11.17 23.49 11.57L22.97 12.29C22.13 11.89 20.44 11.31 19.19 10.98Z" fill="white"/></svg>