<svg width="24" height="24" viewBox="0 0 24 24" fill="none" xmlns="http://www.w3.org/2000/svg"><path d="M-620 -300C-620 -304.418 -616.418 -308 -612 -308H532C536.418 -308 540 -304.418 540 -300V1390C540 1394.42 536.418 1398 532 1398H-612C-616.418 1398 -620 1394.42 -620 1390V-300Z" fill="white"/><path d="M-612 -308V-307H532V-308V-309H-612V-308ZM540 -300H539V1390H540H541V-300H540ZM532 1398V1397H-612V1398V1399H532V1398ZM-620 1390H-619V-300H-620H-621V1390H-620ZM-612 1398V1397C-615.866 1397 -619 1393.87 -619 1390H-620H-621C-621 1394.97 -616.971 1399 -612 1399V1398ZM540 1390H539C539 1393.87 535.866 1397 532 1397V1398V1399C536.971 1399 541 1394.97 541 1390H540ZM532 -308V-307C535.866 -307 539 -303.866 539 -300H540H541C541 -304.971 536.971 -309 532 -309V-308ZM-612 -308V-309C-616.971 -309 -621 -304.971 -621 -300H-620H-619C-619 -303.866 -615.866 -307 -612 -307V-308Z" fill="#F1F1F1"/><path d="M16 16C16 16 14.5 14 12 14C9.5 14 8 16 8 16M9 9H9.01M15 9H15.01M22 12C22 17.5228 17.5228 22 12 22C6.47715 22 2 17.5228 2 12C2 6.47715 6.47715 2 12 2C17.5228 2 22 6.47715 22 12Z" stroke="#202020" stroke-width="1.8" stroke-linecap="round" stroke-linejoin="round"/></svg>