<svg width="32" height="32" viewBox="0 0 32 32" fill="none" xmlns="http://www.w3.org/2000/svg"><path d="M-436 -316C-436 -320.418 -432.418 -324 -428 -324H796C800.418 -324 804 -320.418 804 -316V1374C804 1378.42 800.418 1382 796 1382H-428C-432.418 1382 -436 1378.42 -436 1374V-316Z" fill="white"/><path d="M-428 -324V-323H796V-324V-325H-428V-324ZM804 -316H803V1374H804H805V-316H804ZM796 1382V1381H-428V1382V1383H796V1382ZM-436 1374H-435V-316H-436H-437V1374H-436ZM-428 1382V1381C-431.866 1381 -435 1377.87 -435 1374H-436H-437C-437 1378.97 -432.971 1383 -428 1383V1382ZM804 1374H803C803 1377.87 799.866 1381 796 1381V1382V1383C800.971 1383 805 1378.97 805 1374H804ZM796 -324V-323C799.866 -323 803 -319.866 803 -316H804H805C805 -320.971 800.971 -325 796 -325V-324ZM-428 -324V-325C-432.971 -325 -437 -320.971 -437 -316H-436H-435C-435 -319.866 -431.866 -323 -428 -323V-324Z" fill="#F1F1F1"/><path d="M26.6667 16V29.3333H5.33341V16M16.0001 29.3333V9.33332M16.0001 9.33332H10.0001C9.11603 9.33332 8.26818 8.98213 7.64306 8.35701C7.01794 7.73189 6.66675 6.88405 6.66675 5.99999C6.66675 5.11593 7.01794 4.26809 7.64306 3.64297C8.26818 3.01785 9.11603 2.66666 10.0001 2.66666C14.6667 2.66666 16.0001 9.33332 16.0001 9.33332ZM16.0001 9.33332H22.0001C22.8841 9.33332 23.732 8.98213 24.3571 8.35701C24.9822 7.73189 25.3334 6.88405 25.3334 5.99999C25.3334 5.11593 24.9822 4.26809 24.3571 3.64297C23.732 3.01785 22.8841 2.66666 22.0001 2.66666C17.3334 2.66666 16.0001 9.33332 16.0001 9.33332ZM2.66675 9.33332H29.3334V16H2.66675V9.33332Z" stroke="#202020" stroke-width="2.2" stroke-linecap="round" stroke-linejoin="round"/></svg>