<svg width="16" height="16" viewBox="0 0 16 16" fill="none" xmlns="http://www.w3.org/2000/svg"><path d="M-676 -284C-676 -288.418 -672.418 -292 -668 -292H396C400.418 -292 404 -288.418 404 -284V1370C404 1374.42 400.418 1378 396 1378H-668C-672.418 1378 -676 1374.42 -676 1370V-284Z" fill="white"/><path d="M-668 -292V-291H396V-292V-293H-668V-292ZM404 -284H403V1370H404H405V-284H404ZM396 1378V1377H-668V1378V1379H396V1378ZM-676 1370H-675V-284H-676H-677V1370H-676ZM-668 1378V1377C-671.866 1377 -675 1373.87 -675 1370H-676H-677C-677 1374.97 -672.971 1379 -668 1379V1378ZM404 1370H403C403 1373.87 399.866 1377 396 1377V1378V1379C400.971 1379 405 1374.97 405 1370H404ZM396 -292V-291C399.866 -291 403 -287.866 403 -284H404H405C405 -288.971 400.971 -293 396 -293V-292ZM-668 -292V-293C-672.971 -293 -677 -288.971 -677 -284H-676H-675C-675 -287.866 -671.866 -291 -668 -291V-292Z" fill="#F1F1F1"/><path d="M13.3335 8.00001V14.6667H2.66683V8.00001M8.00016 14.6667V4.66668M8.00016 4.66668H5.00016C4.55814 4.66668 4.13421 4.49108 3.82165 4.17852C3.50909 3.86596 3.3335 3.44204 3.3335 3.00001C3.3335 2.55798 3.50909 2.13406 3.82165 1.8215C4.13421 1.50894 4.55814 1.33334 5.00016 1.33334C7.3335 1.33334 8.00016 4.66668 8.00016 4.66668ZM8.00016 4.66668H11.0002C11.4422 4.66668 11.8661 4.49108 12.1787 4.17852C12.4912 3.86596 12.6668 3.44204 12.6668 3.00001C12.6668 2.55798 12.4912 2.13406 12.1787 1.8215C11.8661 1.50894 11.4422 1.33334 11.0002 1.33334C8.66683 1.33334 8.00016 4.66668 8.00016 4.66668ZM1.3335 4.66668H14.6668V8.00001H1.3335V4.66668Z" stroke="#202020" stroke-width="1.3" stroke-linecap="round" stroke-linejoin="round"/><defs><clipPath id="clip0_7809_18809"><rect width="16" height="16" fill="white"/></clipPath></defs></svg>