<svg width="20" height="20" viewBox="0 0 20 20" fill="none" xmlns="http://www.w3.org/2000/svg"><path d="M-600 -292C-600 -296.418 -596.418 -300 -592 -300H512C516.418 -300 520 -296.418 520 -292V1398C520 1402.42 516.418 1406 512 1406H-592C-596.418 1406 -600 1402.42 -600 1398V-292Z" fill="white"/><path d="M-592 -300V-299H512V-300V-301H-592V-300ZM520 -292H519V1398H520H521V-292H520ZM512 1406V1405H-592V1406V1407H512V1406ZM-600 1398H-599V-292H-600H-601V1398H-600ZM-592 1406V1405C-595.866 1405 -599 1401.87 -599 1398H-600H-601C-601 1402.97 -596.971 1407 -592 1407V1406ZM520 1398H519C519 1401.87 515.866 1405 512 1405V1406V1407C516.971 1407 521 1402.97 521 1398H520ZM512 -300V-299C515.866 -299 519 -295.866 519 -292H520H521C521 -296.971 516.971 -301 512 -301V-300ZM-592 -300V-301C-596.971 -301 -601 -296.971 -601 -292H-600H-599C-599 -295.866 -595.866 -299 -592 -299V-300Z" fill="#F1F1F1"/><path d="M16.6665 9.99999V18.3333H3.33317V9.99999M9.99984 18.3333V5.83332M9.99984 5.83332H6.24984C5.6973 5.83332 5.1674 5.61383 4.7767 5.22313C4.386 4.83243 4.1665 4.30252 4.1665 3.74999C4.1665 3.19746 4.386 2.66755 4.7767 2.27685C5.1674 1.88615 5.6973 1.66666 6.24984 1.66666C9.1665 1.66666 9.99984 5.83332 9.99984 5.83332ZM9.99984 5.83332H13.7498C14.3024 5.83332 14.8323 5.61383 15.223 5.22313C15.6137 4.83243 15.8332 4.30252 15.8332 3.74999C15.8332 3.19746 15.6137 2.66755 15.223 2.27685C14.8323 1.88615 14.3024 1.66666 13.7498 1.66666C10.8332 1.66666 9.99984 5.83332 9.99984 5.83332ZM1.6665 5.83332H18.3332V9.99999H1.6665V5.83332Z" stroke="#202020" stroke-width="1.5" stroke-linecap="round" stroke-linejoin="round"/><defs><clipPath id="clip0_7809_18809"><rect width="20" height="20" fill="white"/></clipPath></defs></svg>