<svg width="26" height="14" viewBox="0 0 26 14" fill="none" xmlns="http://www.w3.org/2000/svg"><path d="M-165 -106.5C-165 -107.605 -164.105 -108.5 -163 -108.5H463C464.105 -108.5 465 -107.605 465 -106.5V299.5C465 300.605 464.105 301.5 463 301.5H-163C-164.105 301.5 -165 300.605 -165 299.5V-106.5Z" fill="white"/><path d="M-163 -108.5V-107.5H463V-108.5V-109.5H-163V-108.5ZM465 -106.5H464V299.5H465H466V-106.5H465ZM463 301.5V300.5H-163V301.5V302.5H463V301.5ZM-165 299.5H-164V-106.5H-165H-166V299.5H-165ZM-163 301.5V300.5C-163.552 300.5 -164 300.052 -164 299.5H-165H-166C-166 301.157 -164.657 302.5 -163 302.5V301.5ZM465 299.5H464C464 300.052 463.552 300.5 463 300.5V301.5V302.5C464.657 302.5 466 301.157 466 299.5H465ZM463 -108.5V-107.5C463.552 -107.5 464 -107.052 464 -106.5H465H466C466 -108.157 464.657 -109.5 463 -109.5V-108.5ZM-163 -108.5V-109.5C-164.657 -109.5 -166 -108.157 -166 -106.5H-165H-164C-164 -107.052 -163.552 -107.5 -163 -107.5V-108.5Z" fill="black" fill-opacity="0.1"/><rect x="0.3" y="0.3" width="25.4" height="13.4" rx="1.7" fill="url(#paint0_linear_7809_18809)"/><rect x="0.3" y="0.3" width="25.4" height="13.4" rx="1.7" stroke="#8DCFFF" stroke-width="0.6"/><path d="M7.33 7.66L7.44 8.49C6.07 8.88 4.63 9.28 3.56 9.57L3.33 8.61C3.75 8.52 4.27 8.4 4.85 8.27V4.22H3.49V3.33H7.22V4.22H5.77V8.05C6.28 7.92 6.81 7.79 7.33 7.66ZM10.81 4.81H8.5C8.76 5.97 9.13 7.01 9.66 7.9C10.2 7.06 10.56 6.04 10.81 4.81ZM12.56 4.81H11.78C11.45 6.42 10.96 7.69 10.23 8.71C10.87 9.49 11.68 10.09 12.7 10.46C12.48 10.65 12.19 11.03 12.04 11.3C11.03 10.88 10.23 10.26 9.59 9.46C8.81 10.26 7.82 10.86 6.55 11.31C6.48 11.08 6.21 10.66 6.05 10.44C7.33 10.04 8.3 9.47 9.04 8.69C8.56 7.9 8.19 6.98 7.9 5.96C7.68 6.34 7.46 6.69 7.21 7C7.04 6.85 6.64 6.56 6.42 6.45C7.32 5.43 7.99 3.78 8.39 2.1L9.31 2.28C9.16 2.84 8.99 3.39 8.81 3.92H12.56V4.81ZM18.13 7.52H21.84C21.18 7.24 20.57 6.88 20.03 6.45C19.44 6.89 18.79 7.24 18.13 7.52ZM18.84 9.89H21.19V8.34H18.84V9.89ZM21.22 3.96H19.02C19.27 4.47 19.62 4.94 20.04 5.36C20.51 4.95 20.92 4.48 21.22 3.96ZM15.74 8.75H16.38V6.47H15.74V8.75ZM14.47 6.47V8.75H15.14V6.47H14.47ZM15.14 3.66H14.47V5.76H15.14V3.66ZM16.38 5.76V3.66H15.74V5.76H16.38ZM21.91 3.09L22.44 3.42C22.05 4.39 21.44 5.21 20.7 5.9C21.29 6.31 21.97 6.64 22.72 6.84C22.61 7.07 22.5 7.49 22.47 7.75C22.32 7.71 22.18 7.66 22.04 7.6V11.19H21.19V10.7H18.84V11.21H18.02V7.56C17.82 7.65 17.62 7.72 17.42 7.78C17.36 7.55 17.21 7.14 17.08 6.94V9.55H14.47V10.25H13.75V2.85H17.08V6.9C17.9 6.66 18.7 6.3 19.38 5.84C19.04 5.48 18.75 5.09 18.5 4.67C18.24 5.01 17.95 5.32 17.66 5.59C17.56 5.42 17.29 5.05 17.13 4.87C17.92 4.2 18.64 3.15 19.06 2.06L19.85 2.29C19.75 2.57 19.62 2.85 19.47 3.12H21.73L21.91 3.09Z" fill="#1384D5"/><defs><linearGradient id="paint0_linear_7809_18809" x1="0" y1="7" x2="26" y2="7" gradientUnits="userSpaceOnUse"><stop stop-color="#BAE2FF"/><stop offset="1" stop-color="#9FFBCD"/></linearGradient></defs></svg>