<svg width="20" height="20" viewBox="0 0 20 20" fill="none" xmlns="http://www.w3.org/2000/svg"><path d="M-700 -292C-700 -296.418 -696.418 -300 -692 -300H412C416.418 -300 420 -296.418 420 -292V1398C420 1402.42 416.418 1406 412 1406H-692C-696.418 1406 -700 1402.42 -700 1398V-292Z" fill="white"/><path d="M-692 -300V-299H412V-300V-301H-692V-300ZM420 -292H419V1398H420H421V-292H420ZM412 1406V1405H-692V1406V1407H412V1406ZM-700 1398H-699V-292H-700H-701V1398H-700ZM-692 1406V1405C-695.866 1405 -699 1401.87 -699 1398H-700H-701C-701 1402.97 -696.971 1407 -692 1407V1406ZM420 1398H419C419 1401.87 415.866 1405 412 1405V1406V1407C416.971 1407 421 1402.97 421 1398H420ZM412 -300V-299C415.866 -299 419 -295.866 419 -292H420H421C421 -296.971 416.971 -301 412 -301V-300ZM-692 -300V-301C-696.971 -301 -701 -296.971 -701 -292H-700H-699C-699 -295.866 -695.866 -299 -692 -299V-300Z" fill="#F1F1F1"/><path d="M3.3335 7.5H16.6668M3.3335 12.5H16.6668M8.3335 2.5L6.66683 17.5M13.3335 2.5L11.6668 17.5" stroke="#202020" stroke-width="1.5" stroke-linecap="round" stroke-linejoin="round"/></svg>