<svg width="16" height="16" viewBox="0 0 16 16" fill="none" xmlns="http://www.w3.org/2000/svg"><path d="M-772 -284C-772 -288.418 -768.418 -292 -764 -292H300C304.418 -292 308 -288.418 308 -284V1370C308 1374.42 304.418 1378 300 1378H-764C-768.418 1378 -772 1374.42 -772 1370V-284Z" fill="white"/><path d="M-764 -292V-291H300V-292V-293H-764V-292ZM308 -284H307V1370H308H309V-284H308ZM300 1378V1377H-764V1378V1379H300V1378ZM-772 1370H-771V-284H-772H-773V1370H-772ZM-764 1378V1377C-767.866 1377 -771 1373.87 -771 1370H-772H-773C-773 1374.97 -768.971 1379 -764 1379V1378ZM308 1370H307C307 1373.87 303.866 1377 300 1377V1378V1379C304.971 1379 309 1374.97 309 1370H308ZM300 -292V-291C303.866 -291 307 -287.866 307 -284H308H309C309 -288.971 304.971 -293 300 -293V-292ZM-764 -292V-293C-768.971 -293 -773 -288.971 -773 -284H-772H-771C-771 -287.866 -767.866 -291 -764 -291V-292Z" fill="#F1F1F1"/><path d="M2.6665 6H13.3332M2.6665 10H13.3332M6.6665 2L5.33317 14M10.6665 2L9.33317 14" stroke="#202020" stroke-width="1.3" stroke-linecap="round" stroke-linejoin="round"/></svg>