<svg width="20" height="20" viewBox="0 0 20 20" fill="none" xmlns="http://www.w3.org/2000/svg"><path d="M-800 -292C-800 -296.418 -796.418 -300 -792 -300H312C316.418 -300 320 -296.418 320 -292V1398C320 1402.42 316.418 1406 312 1406H-792C-796.418 1406 -800 1402.42 -800 1398V-292Z" fill="white"/><path d="M-792 -300V-299H312V-300V-301H-792V-300ZM320 -292H319V1398H320H321V-292H320ZM312 1406V1405H-792V1406V1407H312V1406ZM-800 1398H-799V-292H-800H-801V1398H-800ZM-792 1406V1405C-795.866 1405 -799 1401.87 -799 1398H-800H-801C-801 1402.97 -796.971 1407 -792 1407V1406ZM320 1398H319C319 1401.87 315.866 1405 312 1405V1406V1407C316.971 1407 321 1402.97 321 1398H320ZM312 -300V-299C315.866 -299 319 -295.866 319 -292H320H321C321 -296.971 316.971 -301 312 -301V-300ZM-792 -300V-301C-796.971 -301 -801 -296.971 -801 -292H-800H-799C-799 -295.866 -795.866 -299 -792 -299V-300Z" fill="#F1F1F1"/><path d="M2.5 15V10C2.5 8.01088 3.29018 6.10322 4.6967 4.6967C6.10322 3.29018 8.01088 2.5 10 2.5C11.9891 2.5 13.8968 3.29018 15.3033 4.6967C16.7098 6.10322 17.5 8.01088 17.5 10V15M17.5 15.8333C17.5 16.2754 17.3244 16.6993 17.0118 17.0118C16.6993 17.3244 16.2754 17.5 15.8333 17.5H15C14.558 17.5 14.134 17.3244 13.8215 17.0118C13.5089 16.6993 13.3333 16.2754 13.3333 15.8333V13.3333C13.3333 12.8913 13.5089 12.4674 13.8215 12.1548C14.134 11.8423 14.558 11.6667 15 11.6667H17.5V15.8333ZM2.5 15.8333C2.5 16.2754 2.67559 16.6993 2.98816 17.0118C3.30072 17.3244 3.72464 17.5 4.16667 17.5H5C5.44203 17.5 5.86595 17.3244 6.17851 17.0118C6.49107 16.6993 6.66667 16.2754 6.66667 15.8333V13.3333C6.66667 12.8913 6.49107 12.4674 6.17851 12.1548C5.86595 11.8423 5.44203 11.6667 5 11.6667H2.5V15.8333Z" stroke="#202020" stroke-width="1.5" stroke-linecap="round" stroke-linejoin="round"/></svg>