<svg width="16" height="16" viewBox="0 0 16 16" fill="none" xmlns="http://www.w3.org/2000/svg"><path d="M-868 -284C-868 -288.418 -864.418 -292 -860 -292H204C208.418 -292 212 -288.418 212 -284V1370C212 1374.42 208.418 1378 204 1378H-860C-864.418 1378 -868 1374.42 -868 1370V-284Z" fill="white"/><path d="M-860 -292V-291H204V-292V-293H-860V-292ZM212 -284H211V1370H212H213V-284H212ZM204 1378V1377H-860V1378V1379H204V1378ZM-868 1370H-867V-284H-868H-869V1370H-868ZM-860 1378V1377C-863.866 1377 -867 1373.87 -867 1370H-868H-869C-869 1374.97 -864.971 1379 -860 1379V1378ZM212 1370H211C211 1373.87 207.866 1377 204 1377V1378V1379C208.971 1379 213 1374.97 213 1370H212ZM204 -292V-291C207.866 -291 211 -287.866 211 -284H212H213C213 -288.971 208.971 -293 204 -293V-292ZM-860 -292V-293C-864.971 -293 -869 -288.971 -869 -284H-868H-867C-867 -287.866 -863.866 -291 -860 -291V-292Z" fill="#F1F1F1"/><path fill-rule="evenodd" clip-rule="evenodd" d="M10.5775 2.86777C12.0136 2.86777 14.0346 4.03074 13.8907 6.44499C13.8094 7.80771 12.7369 9.28895 10.4294 11.259L9.95256 11.6579C9.62439 11.927 9.2757 12.2027 8.9065 12.4849L8.33733 12.913L8.0412 13.1307C8.04073 13.1332 8.03903 13.1319 8.03903 13.1319C7.83949 12.9913 7.64695 12.8504 7.45935 12.711L6.91137 12.2976C6.1116 11.6845 5.41179 11.1028 4.81195 10.5524L4.42687 10.1901C2.88406 8.70005 2.18997 7.50094 2.11261 6.44499C1.93588 4.03239 4.1247 2.86777 5.50102 2.86777C6.28029 2.86777 7.11543 3.30265 7.86959 4.06872L8.03903 4.2331L8.20817 4.06872C8.95235 3.31124 9.79825 2.86777 10.5775 2.86777Z" stroke="#202020" stroke-width="1.5" stroke-linecap="round" stroke-linejoin="round"/></svg>