<svg width="20" height="20" viewBox="0 0 20 20" fill="none" xmlns="http://www.w3.org/2000/svg"><path d="M-900 -292C-900 -296.418 -896.418 -300 -892 -300H212C216.418 -300 220 -296.418 220 -292V1398C220 1402.42 216.418 1406 212 1406H-892C-896.418 1406 -900 1402.42 -900 1398V-292Z" fill="white"/><path d="M-892 -300V-299H212V-300V-301H-892V-300ZM220 -292H219V1398H220H221V-292H220ZM212 1406V1405H-892V1406V1407H212V1406ZM-900 1398H-899V-292H-900H-901V1398H-900ZM-892 1406V1405C-895.866 1405 -899 1401.87 -899 1398H-900H-901C-901 1402.97 -896.971 1407 -892 1407V1406ZM220 1398H219C219 1401.87 215.866 1405 212 1405V1406V1407C216.971 1407 221 1402.97 221 1398H220ZM212 -300V-299C215.866 -299 219 -295.866 219 -292H220H221C221 -296.971 216.971 -301 212 -301V-300ZM-892 -300V-301C-896.971 -301 -901 -296.971 -901 -292H-900H-899C-899 -295.866 -895.866 -299 -892 -299V-300Z" fill="#F1F1F1"/><path fill-rule="evenodd" clip-rule="evenodd" d="M13.1399 3.88885C14.8888 3.88885 17.3498 5.30509 17.1746 8.24508C17.0756 9.90457 15.7696 11.7084 12.9596 14.1074L12.3789 14.5932C11.9792 14.921 11.5546 15.2566 11.105 15.6002L10.4119 16.1216L10.0513 16.3867C10.0507 16.3897 10.0486 16.3882 10.0486 16.3882C9.80562 16.217 9.57115 16.0454 9.3427 15.8757L8.67538 15.3723C7.70144 14.6256 6.84924 13.9172 6.11877 13.247L5.64983 12.8058C3.77105 10.9912 2.9258 9.531 2.8316 8.24508C2.61639 5.3071 5.28186 3.88885 6.9579 3.88885C7.90687 3.88885 8.92388 4.41844 9.84228 5.35134L10.0486 5.55151L10.2546 5.35134C11.1608 4.4289 12.1909 3.88885 13.1399 3.88885Z" stroke="#202020" stroke-width="1.5" stroke-linecap="round" stroke-linejoin="round"/></svg>