<svg width="32" height="32" viewBox="0 0 32 32" fill="none" xmlns="http://www.w3.org/2000/svg"><path d="M-548 -316C-548 -320.418 -544.418 -324 -540 -324H684C688.418 -324 692 -320.418 692 -316V1374C692 1378.42 688.418 1382 684 1382H-540C-544.418 1382 -548 1378.42 -548 1374V-316Z" fill="white"/><path d="M-540 -324V-323H684V-324V-325H-540V-324ZM692 -316H691V1374H692H693V-316H692ZM684 1382V1381H-540V1382V1383H684V1382ZM-548 1374H-547V-316H-548H-549V1374H-548ZM-540 1382V1381C-543.866 1381 -547 1377.87 -547 1374H-548H-549C-549 1378.97 -544.971 1383 -540 1383V1382ZM692 1374H691C691 1377.87 687.866 1381 684 1381V1382V1383C688.971 1383 693 1378.97 693 1374H692ZM684 -324V-323C687.866 -323 691 -319.866 691 -316H692H693C693 -320.971 688.971 -325 684 -325V-324ZM-540 -324V-325C-544.971 -325 -549 -320.971 -549 -316H-548H-547C-547 -319.866 -543.866 -323 -540 -323V-324Z" fill="#F1F1F1"/><path d="M27.7867 6.14666C27.1057 5.46533 26.2971 4.92485 25.4071 4.5561C24.5172 4.18735 23.5633 3.99756 22.6 3.99756C21.6367 3.99756 20.6828 4.18735 19.7929 4.5561C18.9029 4.92485 18.0943 5.46533 17.4133 6.14666L16 7.55999L14.5867 6.14666C13.2111 4.77107 11.3454 3.99827 9.4 3.99827C7.45462 3.99827 5.58892 4.77107 4.21333 6.14666C2.83774 7.52225 2.06494 9.38795 2.06494 11.3333C2.06494 13.2787 2.83774 15.1444 4.21333 16.52L16 28.3067L27.7867 16.52C28.468 15.839 29.0085 15.0304 29.3772 14.1405C29.746 13.2505 29.9358 12.2966 29.9358 11.3333C29.9358 10.37 29.746 9.41613 29.3772 8.52619C29.0085 7.63624 28.468 6.82767 27.7867 6.14666Z" stroke="#202020" stroke-width="2.2" stroke-linecap="round" stroke-linejoin="round"/></svg>