<svg width="32" height="32" viewBox="0 0 32 32" fill="none" xmlns="http://www.w3.org/2000/svg"><path d="M-660 -316C-660 -320.418 -656.418 -324 -652 -324H572C576.418 -324 580 -320.418 580 -316V1374C580 1378.42 576.418 1382 572 1382H-652C-656.418 1382 -660 1378.42 -660 1374V-316Z" fill="white"/><path d="M-652 -324V-323H572V-324V-325H-652V-324ZM580 -316H579V1374H580H581V-316H580ZM572 1382V1381H-652V1382V1383H572V1382ZM-660 1374H-659V-316H-660H-661V1374H-660ZM-652 1382V1381C-655.866 1381 -659 1377.87 -659 1374H-660H-661C-661 1378.97 -656.971 1383 -652 1383V1382ZM580 1374H579C579 1377.87 575.866 1381 572 1381V1382V1383C576.971 1383 581 1378.97 581 1374H580ZM572 -324V-323C575.866 -323 579 -319.866 579 -316H580H581C581 -320.971 576.971 -325 572 -325V-324ZM-652 -324V-325C-656.971 -325 -661 -320.971 -661 -316H-660H-659C-659 -319.866 -655.866 -323 -652 -323V-324Z" fill="#F1F1F1"/><path d="M12.1201 12C12.4336 11.1089 13.0523 10.3575 13.8667 9.87883C14.6811 9.4002 15.6386 9.22524 16.5697 9.38494C17.5007 9.54464 18.3452 10.0287 18.9535 10.7514C19.5619 11.474 19.8948 12.3887 19.8934 13.3333C19.8934 16 15.8934 17.3333 15.8934 17.3333M16.0001 22.6667H16.0134M29.3334 16C29.3334 23.3638 23.3639 29.3333 16.0001 29.3333C8.63628 29.3333 2.66675 23.3638 2.66675 16C2.66675 8.63619 8.63628 2.66666 16.0001 2.66666C23.3639 2.66666 29.3334 8.63619 29.3334 16Z" stroke="#202020" stroke-width="2.2" stroke-linecap="round" stroke-linejoin="round"/></svg>