<svg width="16" height="16" viewBox="0 0 16 16" fill="none" xmlns="http://www.w3.org/2000/svg"><path d="M-964 -284C-964 -288.418 -960.418 -292 -956 -292H108C112.418 -292 116 -288.418 116 -284V1370C116 1374.42 112.418 1378 108 1378H-956C-960.418 1378 -964 1374.42 -964 1370V-284Z" fill="white"/><path d="M-956 -292V-291H108V-292V-293H-956V-292ZM116 -284H115V1370H116H117V-284H116ZM108 1378V1377H-956V1378V1379H108V1378ZM-964 1370H-963V-284H-964H-965V1370H-964ZM-956 1378V1377C-959.866 1377 -963 1373.87 -963 1370H-964H-965C-965 1374.97 -960.971 1379 -956 1379V1378ZM116 1370H115C115 1373.87 111.866 1377 108 1377V1378V1379C112.971 1379 117 1374.97 117 1370H116ZM108 -292V-291C111.866 -291 115 -287.866 115 -284H116H117C117 -288.971 112.971 -293 108 -293V-292ZM-956 -292V-293C-960.971 -293 -965 -288.971 -965 -284H-964H-963C-963 -287.866 -959.866 -291 -956 -291V-292Z" fill="#F1F1F1"/><path d="M6.06016 6.00001C6.2169 5.55446 6.52626 5.17875 6.93347 4.93943C7.34067 4.70012 7.81943 4.61264 8.28495 4.69248C8.75047 4.77233 9.17271 5.01436 9.47688 5.3757C9.78105 5.73703 9.94753 6.19436 9.94683 6.66668C9.94683 8.00001 7.94683 8.66668 7.94683 8.66668M8.00016 11.3333H8.00683M14.6668 8.00001C14.6668 11.6819 11.6821 14.6667 8.00016 14.6667C4.31826 14.6667 1.3335 11.6819 1.3335 8.00001C1.3335 4.31811 4.31826 1.33334 8.00016 1.33334C11.6821 1.33334 14.6668 4.31811 14.6668 8.00001Z" stroke="#202020" stroke-width="1.3" stroke-linecap="round" stroke-linejoin="round"/><defs><clipPath id="clip0_7809_18809"><rect width="16" height="16" fill="white"/></clipPath></defs></svg>