<svg width="20" height="20" viewBox="0 0 20 20" fill="none" xmlns="http://www.w3.org/2000/svg"><path d="M-1000 -292C-1000 -296.418 -996.418 -300 -992 -300H112C116.418 -300 120 -296.418 120 -292V1398C120 1402.42 116.418 1406 112 1406H-992C-996.418 1406 -1000 1402.42 -1000 1398V-292Z" fill="white"/><path d="M-992 -300V-299H112V-300V-301H-992V-300ZM120 -292H119V1398H120H121V-292H120ZM112 1406V1405H-992V1406V1407H112V1406ZM-1000 1398H-999V-292H-1000H-1001V1398H-1000ZM-992 1406V1405C-995.866 1405 -999 1401.87 -999 1398H-1000H-1001C-1001 1402.97 -996.971 1407 -992 1407V1406ZM120 1398H119C119 1401.87 115.866 1405 112 1405V1406V1407C116.971 1407 121 1402.97 121 1398H120ZM112 -300V-299C115.866 -299 119 -295.866 119 -292H120H121C121 -296.971 116.971 -301 112 -301V-300ZM-992 -300V-301C-996.971 -301 -1001 -296.971 -1001 -292H-1000H-999C-999 -295.866 -995.866 -299 -992 -299V-300Z" fill="#F1F1F1"/><path d="M7.57484 7.49999C7.77076 6.94305 8.15746 6.47341 8.66647 6.17427C9.17547 5.87512 9.77392 5.76577 10.3558 5.86558C10.9377 5.96539 11.4655 6.26793 11.8457 6.7196C12.226 7.17127 12.434 7.74292 12.4332 8.33332C12.4332 9.99999 9.93317 10.8333 9.93317 10.8333M9.99984 14.1667H10.0082M18.3332 9.99999C18.3332 14.6024 14.6022 18.3333 9.99984 18.3333C5.39746 18.3333 1.6665 14.6024 1.6665 9.99999C1.6665 5.39762 5.39746 1.66666 9.99984 1.66666C14.6022 1.66666 18.3332 5.39762 18.3332 9.99999Z" stroke="#202020" stroke-width="1.5" stroke-linecap="round" stroke-linejoin="round"/><defs><clipPath id="clip0_7809_18809"><rect width="20" height="20" fill="white"/></clipPath></defs></svg>