<svg width="28" height="16" viewBox="0 0 28 16" fill="none" xmlns="http://www.w3.org/2000/svg"><path d="M-226 -53C-226 -54.1046 -225.105 -55 -224 -55H402C403.105 -55 404 -54.1046 404 -53V353C404 354.105 403.105 355 402 355H-224C-225.105 355 -226 354.105 -226 353V-53Z" fill="white"/><path d="M-224 -55V-54H402V-55V-56H-224V-55ZM404 -53H403V353H404H405V-53H404ZM402 355V354H-224V355V356H402V355ZM-226 353H-225V-53H-226H-227V353H-226ZM-224 355V354C-224.552 354 -225 353.552 -225 353H-226H-227C-227 354.657 -225.657 356 -224 356V355ZM404 353H403C403 353.552 402.552 354 402 354V355V356C403.657 356 405 354.657 405 353H404ZM402 -55V-54C402.552 -54 403 -53.5523 403 -53H404H405C405 -54.6569 403.657 -56 402 -56V-55ZM-224 -55V-56C-225.657 -56 -227 -54.6569 -227 -53H-226H-225C-225 -53.5523 -224.552 -54 -224 -54V-55Z" fill="black" fill-opacity="0.1"/><mask id="path-3-inside-1_7809_18809" fill="white"><path d="M0 3C0 1.34315 1.34315 0 3 0H25C26.6569 0 28 1.34315 28 3V13C28 14.6569 26.6569 16 25 16H3C1.34315 16 0 14.6569 0 13V3Z"/></mask><path d="M0 3C0 1.34315 1.34315 0 3 0H25C26.6569 0 28 1.34315 28 3V13C28 14.6569 26.6569 16 25 16H3C1.34315 16 0 14.6569 0 13V3Z" fill="#3D394B"/><path d="M3 0V1H25V0V-1H3V0ZM28 3H27V13H28H29V3H28ZM25 16V15H3V16V17H25V16ZM0 13H1V3H0H-1V13H0ZM3 16V15C1.89543 15 1 14.1046 1 13H0H-1C-1 15.2091 0.790861 17 3 17V16ZM28 13H27C27 14.1046 26.1046 15 25 15V16V17C27.2091 17 29 15.2091 29 13H28ZM25 0V1C26.1046 1 27 1.89543 27 3H28H29C29 0.790861 27.2091 -1 25 -1V0ZM3 0V-1C0.790861 -1 -1 0.790861 -1 3H0H1C1 1.89543 1.89543 1 3 1V0Z" fill="#2A253A" mask="url(#path-3-inside-1_7809_18809)"/><path d="M8.62 3.8L9.36 4C9.12 4.59 8.83 5.29 8.61 5.73L8.07 5.56C8.26 5.08 8.5 4.32 8.62 3.8ZM6.96 5.52L6.33 5.72C6.3 5.25 6.15 4.55 5.94 4.01L6.53 3.81C6.75 4.35 6.92 5.06 6.96 5.52ZM7.19 10.25V8.08C6.86 8.75 6.46 9.36 6.04 9.75C5.97 9.52 5.8 9.19 5.67 8.98C6.2 8.49 6.76 7.64 7.1 6.83H5.86V6.05H7.19V3.13H7.97V6.05H9.35V6.83H7.97V6.93C8.26 7.2 9.13 8.17 9.32 8.42L8.81 9.05C8.65 8.77 8.28 8.26 7.97 7.84V10.25H7.19ZM9.07 10.51V11.32H4.83V3.46H5.64V10.51H9.07ZM13.59 6.42V7.28H12.63V12.29H11.75V7.28H10.56C10.56 9.03 10.42 10.77 9.65 12.35C9.47 12.16 9.17 11.93 8.92 11.79C9.6 10.33 9.68 8.72 9.68 7.22V4.15C10.8 3.88 12.08 3.48 12.81 3.08L13.58 3.76C12.75 4.17 11.61 4.5 10.56 4.73V6.42H13.59ZM16.44 8.35H18.57C18.59 8.19 18.59 8.03 18.59 7.86V7.5H16.44V8.35ZM16.44 5.93V6.78H18.59V5.93H16.44ZM21.78 5.93H19.56V6.78H21.78V5.93ZM21.78 8.35V7.5H19.56V7.87C19.56 8.04 19.56 8.19 19.54 8.35H21.78ZM22.7 9.11H19.43C19.31 9.68 19.06 10.21 18.6 10.68C19.88 11.18 21.56 11.29 23.68 11.31C23.51 11.53 23.34 11.92 23.29 12.23C21.05 12.15 19.23 11.98 17.83 11.29C17.18 11.7 16.27 12.04 15.05 12.3C14.94 12.09 14.69 11.69 14.48 11.48C15.57 11.29 16.36 11.04 16.96 10.75C16.51 10.41 16.13 9.98 15.8 9.46L16.61 9.14C16.92 9.59 17.29 9.95 17.73 10.24C18.11 9.9 18.32 9.52 18.44 9.11H15.56V5.17H18.59V4.45H14.68V3.61H23.33V4.45H19.56V5.17H22.7V9.11Z" fill="white"/></svg>