<svg width="12" height="12" viewBox="0 0 12 12" fill="none" xmlns="http://www.w3.org/2000/svg"><path d="M-287 -38.0969C-287 -39.2015 -286.105 -40.0969 -285 -40.0969H311C312.105 -40.0969 313 -39.2015 313 -38.0969V612.903C313 614.008 312.105 614.903 311 614.903H-285C-286.105 614.903 -287 614.008 -287 612.903V-38.0969Z" fill="white"/><path d="M-285 -40.0969V-39.0969H311V-40.0969V-41.0969H-285V-40.0969ZM313 -38.0969H312V612.903H313H314V-38.0969H313ZM311 614.903V613.903H-285V614.903V615.903H311V614.903ZM-287 612.903H-286V-38.0969H-287H-288V612.903H-287ZM-285 614.903V613.903C-285.552 613.903 -286 613.455 -286 612.903H-287H-288C-288 614.56 -286.657 615.903 -285 615.903V614.903ZM313 612.903H312C312 613.455 311.552 613.903 311 613.903V614.903V615.903C312.657 615.903 314 614.56 314 612.903H313ZM311 -40.0969V-39.0969C311.552 -39.0969 312 -38.6492 312 -38.0969H313H314C314 -39.7538 312.657 -41.0969 311 -41.0969V-40.0969ZM-285 -40.0969V-41.0969C-286.657 -41.0969 -288 -39.7538 -288 -38.0969H-287H-286C-286 -38.6492 -285.552 -39.0969 -285 -39.0969V-40.0969Z" fill="black" fill-opacity="0.1"/><rect width="12" height="12" fill="#D8D8D8" fill-opacity="0.01"/><mask id="mask0_7809_18809" style="mask-type:luminance" maskUnits="userSpaceOnUse" x="0" y="0" width="12" height="12"><rect width="12" height="12" fill="white"/></mask><g mask="url(#mask0_7809_18809)"><path fill-rule="evenodd" clip-rule="evenodd" d="M10.5529 7.00641C10.5529 9.37387 8.63827 10.8 6.27644 10.8C3.91462 10.8 2 9.37387 2 7.00641C2 5.90884 2.27037 5.15869 2.66358 4.4689C2.9984 3.88156 3.47466 3.38493 3.91705 3.1632C4.48858 2.87672 4.44722 4.25622 4.99841 3.85299C5.90781 3.18785 4.88083 1.32971 5.68657 1.5126C6.98919 1.80821 7.41223 3.16266 7.72651 3.311C8.39086 3.62458 8.25246 2.01707 9.34861 3.38492C10.5529 4.8877 10.5529 6.07606 10.5529 7.00641Z" fill="#FF502C"/></g></svg>