<svg width="12" height="12" viewBox="0 0 12 12" fill="none" xmlns="http://www.w3.org/2000/svg"><path d="M-303 -62.0969C-303 -63.2015 -302.105 -64.0969 -301 -64.0969H295C296.105 -64.0969 297 -63.2015 297 -62.0969V588.903C297 590.008 296.105 590.903 295 590.903H-301C-302.105 590.903 -303 590.008 -303 588.903V-62.0969Z" fill="white"/><path d="M-301 -64.0969V-63.0969H295V-64.0969V-65.0969H-301V-64.0969ZM297 -62.0969H296V588.903H297H298V-62.0969H297ZM295 590.903V589.903H-301V590.903V591.903H295V590.903ZM-303 588.903H-302V-62.0969H-303H-304V588.903H-303ZM-301 590.903V589.903C-301.552 589.903 -302 589.455 -302 588.903H-303H-304C-304 590.56 -302.657 591.903 -301 591.903V590.903ZM297 588.903H296C296 589.455 295.552 589.903 295 589.903V590.903V591.903C296.657 591.903 298 590.56 298 588.903H297ZM295 -64.0969V-63.0969C295.552 -63.0969 296 -62.6492 296 -62.0969H297H298C298 -63.7538 296.657 -65.0969 295 -65.0969V-64.0969ZM-301 -64.0969V-65.0969C-302.657 -65.0969 -304 -63.7538 -304 -62.0969H-303H-302C-302 -62.6492 -301.552 -63.0969 -301 -63.0969V-64.0969Z" fill="black" fill-opacity="0.1"/><rect width="12" height="12" fill="#D8D8D8" fill-opacity="0.01"/><mask id="mask0_7809_18809" style="mask-type:luminance" maskUnits="userSpaceOnUse" x="0" y="0" width="12" height="12"><rect width="12" height="12" fill="white"/></mask><g mask="url(#mask0_7809_18809)"><path fill-rule="evenodd" clip-rule="evenodd" d="M10.5529 7.00641C10.5529 9.37387 8.63827 10.8 6.27644 10.8C3.91462 10.8 2 9.37387 2 7.00641C2 5.90884 2.27037 5.15869 2.66358 4.4689C2.9984 3.88156 3.47466 3.38493 3.91705 3.1632C4.48858 2.87672 4.44722 4.25622 4.99841 3.85299C5.90781 3.18785 4.88083 1.32971 5.68657 1.5126C6.98919 1.80821 7.41223 3.16266 7.72651 3.311C8.39086 3.62458 8.25246 2.01707 9.34861 3.38492C10.5529 4.8877 10.5529 6.07606 10.5529 7.00641Z" fill="#FF502C"/></g></svg>