<svg width="16" height="16" viewBox="0 0 16 16" fill="none" xmlns="http://www.w3.org/2000/svg"><path d="M-100 -380C-100 -384.418 -96.4183 -388 -92 -388H972C976.418 -388 980 -384.418 980 -380V1274C980 1278.42 976.418 1282 972 1282H-92C-96.4183 1282 -100 1278.42 -100 1274V-380Z" fill="white"/><path d="M-92 -388V-387H972V-388V-389H-92V-388ZM980 -380H979V1274H980H981V-380H980ZM972 1282V1281H-92V1282V1283H972V1282ZM-100 1274H-99V-380H-100H-101V1274H-100ZM-92 1282V1281C-95.866 1281 -99 1277.87 -99 1274H-100H-101C-101 1278.97 -96.9705 1283 -92 1283V1282ZM980 1274H979C979 1277.87 975.866 1281 972 1281V1282V1283C976.971 1283 981 1278.97 981 1274H980ZM972 -388V-387C975.866 -387 979 -383.866 979 -380H980H981C981 -384.971 976.971 -389 972 -389V-388ZM-92 -388V-389C-96.9706 -389 -101 -384.971 -101 -380H-100H-99C-99 -383.866 -95.866 -387 -92 -387V-388Z" fill="#F1F1F1"/><path d="M3.33333 14H12.6667C13.403 14 14 13.403 14 12.6667V3.33333C14 2.59695 13.403 2 12.6667 2H3.33333C2.59695 2 2 2.59695 2 3.33333V12.6667C2 13.403 2.59695 14 3.33333 14ZM3.33333 14L10.6667 6.66667L14 10M6.66667 5.66667C6.66667 6.21895 6.21895 6.66667 5.66667 6.66667C5.11438 6.66667 4.66667 6.21895 4.66667 5.66667C4.66667 5.11438 5.11438 4.66667 5.66667 4.66667C6.21895 4.66667 6.66667 5.11438 6.66667 5.66667Z" stroke="#202020" stroke-width="1.3" stroke-linecap="round" stroke-linejoin="round"/></svg>