<svg width="20" height="20" viewBox="0 0 20 20" fill="none" xmlns="http://www.w3.org/2000/svg"><path d="M-100 -392C-100 -396.418 -96.4183 -400 -92 -400H1012C1016.42 -400 1020 -396.418 1020 -392V1298C1020 1302.42 1016.42 1306 1012 1306H-92C-96.4183 1306 -100 1302.42 -100 1298V-392Z" fill="white"/><path d="M-92 -400V-399H1012V-400V-401H-92V-400ZM1020 -392H1019V1298H1020H1021V-392H1020ZM1012 1306V1305H-92V1306V1307H1012V1306ZM-100 1298H-99V-392H-100H-101V1298H-100ZM-92 1306V1305C-95.866 1305 -99 1301.87 -99 1298H-100H-101C-101 1302.97 -96.9706 1307 -92 1307V1306ZM1020 1298H1019C1019 1301.87 1015.87 1305 1012 1305V1306V1307C1016.97 1307 1021 1302.97 1021 1298H1020ZM1012 -400V-399C1015.87 -399 1019 -395.866 1019 -392H1020H1021C1021 -396.971 1016.97 -401 1012 -401V-400ZM-92 -400V-401C-96.9706 -401 -101 -396.971 -101 -392H-100H-99C-99 -395.866 -95.866 -399 -92 -399V-400Z" fill="#F1F1F1"/><path d="M4.16667 17.5H15.8333C16.7538 17.5 17.5 16.7538 17.5 15.8333V4.16667C17.5 3.24619 16.7538 2.5 15.8333 2.5H4.16667C3.24619 2.5 2.5 3.24619 2.5 4.16667V15.8333C2.5 16.7538 3.24619 17.5 4.16667 17.5ZM4.16667 17.5L13.3333 8.33333L17.5 12.5M8.33333 7.08333C8.33333 7.77369 7.77369 8.33333 7.08333 8.33333C6.39298 8.33333 5.83333 7.77369 5.83333 7.08333C5.83333 6.39298 6.39298 5.83333 7.08333 5.83333C7.77369 5.83333 8.33333 6.39298 8.33333 7.08333Z" stroke="#202020" stroke-width="1.5" stroke-linecap="round" stroke-linejoin="round"/></svg>