<svg width="24" height="24" viewBox="0 0 24 24" fill="none" xmlns="http://www.w3.org/2000/svg"><path d="M-1036 -300C-1036 -304.418 -1032.42 -308 -1028 -308H116C120.418 -308 124 -304.418 124 -300V1390C124 1394.42 120.418 1398 116 1398H-1028C-1032.42 1398 -1036 1394.42 -1036 1390V-300Z" fill="white"/><path d="M-1028 -308V-307H116V-308V-309H-1028V-308ZM124 -300H123V1390H124H125V-300H124ZM116 1398V1397H-1028V1398V1399H116V1398ZM-1036 1390H-1035V-300H-1036H-1037V1390H-1036ZM-1028 1398V1397C-1031.87 1397 -1035 1393.87 -1035 1390H-1036H-1037C-1037 1394.97 -1032.97 1399 -1028 1399V1398ZM124 1390H123C123 1393.87 119.866 1397 116 1397V1398V1399C120.971 1399 125 1394.97 125 1390H124ZM116 -308V-307C119.866 -307 123 -303.866 123 -300H124H125C125 -304.971 120.971 -309 116 -309V-308ZM-1028 -308V-309C-1032.97 -309 -1037 -304.971 -1037 -300H-1036H-1035C-1035 -303.866 -1031.87 -307 -1028 -307V-308Z" fill="#F1F1F1"/><path d="M5 21H19C20.1046 21 21 20.1046 21 19V5C21 3.89543 20.1046 3 19 3H5C3.89543 3 3 3.89543 3 5V19C3 20.1046 3.89543 21 5 21ZM5 21L16 10L21 15M10 8.5C10 9.32843 9.32843 10 8.5 10C7.67157 10 7 9.32843 7 8.5C7 7.67157 7.67157 7 8.5 7C9.32843 7 10 7.67157 10 8.5Z" stroke="#202020" stroke-width="1.8" stroke-linecap="round" stroke-linejoin="round"/></svg>