<svg width="24" height="24" viewBox="0 0 24 24" fill="none" xmlns="http://www.w3.org/2000/svg"><path d="M-100 -404C-100 -408.418 -96.4183 -412 -92 -412H1052C1056.42 -412 1060 -408.418 1060 -404V1286C1060 1290.42 1056.42 1294 1052 1294H-92C-96.4183 1294 -100 1290.42 -100 1286V-404Z" fill="white"/><path d="M-92 -412V-411H1052V-412V-413H-92V-412ZM1060 -404H1059V1286H1060H1061V-404H1060ZM1052 1294V1293H-92V1294V1295H1052V1294ZM-100 1286H-99V-404H-100H-101V1286H-100ZM-92 1294V1293C-95.866 1293 -99 1289.87 -99 1286H-100H-101C-101 1290.97 -96.9706 1295 -92 1295V1294ZM1060 1286H1059C1059 1289.87 1055.87 1293 1052 1293V1294V1295C1056.97 1295 1061 1290.97 1061 1286H1060ZM1052 -412V-411C1055.87 -411 1059 -407.866 1059 -404H1060H1061C1061 -408.971 1056.97 -413 1052 -413V-412ZM-92 -412V-413C-96.9706 -413 -101 -408.971 -101 -404H-100H-99C-99 -407.866 -95.866 -411 -92 -411V-412Z" fill="#F1F1F1"/><path d="M12 16V12M12 8H12.01M22 12C22 17.5228 17.5228 22 12 22C6.47715 22 2 17.5228 2 12C2 6.47715 6.47715 2 12 2C17.5228 2 22 6.47715 22 12Z" stroke="#202020" stroke-width="1.8" stroke-linecap="round" stroke-linejoin="round"/></svg>