<svg width="16" height="16" viewBox="0 0 16 16" fill="none" xmlns="http://www.w3.org/2000/svg"><path d="M-196 -380C-196 -384.418 -192.418 -388 -188 -388H876C880.418 -388 884 -384.418 884 -380V1274C884 1278.42 880.418 1282 876 1282H-188C-192.418 1282 -196 1278.42 -196 1274V-380Z" fill="white"/><path d="M-188 -388V-387H876V-388V-389H-188V-388ZM884 -380H883V1274H884H885V-380H884ZM876 1282V1281H-188V1282V1283H876V1282ZM-196 1274H-195V-380H-196H-197V1274H-196ZM-188 1282V1281C-191.866 1281 -195 1277.87 -195 1274H-196H-197C-197 1278.97 -192.971 1283 -188 1283V1282ZM884 1274H883C883 1277.87 879.866 1281 876 1281V1282V1283C880.971 1283 885 1278.97 885 1274H884ZM876 -388V-387C879.866 -387 883 -383.866 883 -380H884H885C885 -384.971 880.971 -389 876 -389V-388ZM-188 -388V-389C-192.971 -389 -197 -384.971 -197 -380H-196H-195C-195 -383.866 -191.866 -387 -188 -387V-388Z" fill="#F1F1F1"/><path d="M8.00016 10.6667V8.00001M8.00016 5.33334H8.00683M14.6668 8.00001C14.6668 11.6819 11.6821 14.6667 8.00016 14.6667C4.31826 14.6667 1.3335 11.6819 1.3335 8.00001C1.3335 4.31811 4.31826 1.33334 8.00016 1.33334C11.6821 1.33334 14.6668 4.31811 14.6668 8.00001Z" stroke="#202020" stroke-width="1.3" stroke-linecap="round" stroke-linejoin="round"/><defs><clipPath id="clip0_7809_18809"><rect width="16" height="16" fill="white"/></clipPath></defs></svg>