<svg width="12" height="12" viewBox="0 0 12 12" fill="none" xmlns="http://www.w3.org/2000/svg"><path d="M-192 -184C-192 -188.418 -188.418 -192 -184 -192H880C884.418 -192 888 -188.418 888 -184V1470C888 1474.42 884.418 1478 880 1478H-184C-188.418 1478 -192 1474.42 -192 1470V-184Z" fill="white"/><path d="M-184 -192V-191H880V-192V-193H-184V-192ZM888 -184H887V1470H888H889V-184H888ZM880 1478V1477H-184V1478V1479H880V1478ZM-192 1470H-191V-184H-192H-193V1470H-192ZM-184 1478V1477C-187.866 1477 -191 1473.87 -191 1470H-192H-193C-193 1474.97 -188.971 1479 -184 1479V1478ZM888 1470H887C887 1473.87 883.866 1477 880 1477V1478V1479C884.971 1479 889 1474.97 889 1470H888ZM880 -192V-191C883.866 -191 887 -187.866 887 -184H888H889C889 -188.971 884.971 -193 880 -193V-192ZM-184 -192V-193C-188.971 -193 -193 -188.971 -193 -184H-192H-191C-191 -187.866 -187.866 -191 -184 -191V-192Z" fill="#F1F1F1"/><path d="M6 8V6M6 4H6.005M11 6C11 8.76142 8.76142 11 6 11C3.23858 11 1 8.76142 1 6C1 3.23858 3.23858 1 6 1C8.76142 1 11 3.23858 11 6Z" stroke="#202020" stroke-width="1.3" stroke-linecap="round" stroke-linejoin="round"/><defs><clipPath id="clip0_7809_18809"><rect width="12" height="12" fill="white"/></clipPath></defs></svg>