<svg width="32" height="32" viewBox="0 0 32 32" fill="none" xmlns="http://www.w3.org/2000/svg"><path d="M-996 -316C-996 -320.418 -992.418 -324 -988 -324H236C240.418 -324 244 -320.418 244 -316V1374C244 1378.42 240.418 1382 236 1382H-988C-992.418 1382 -996 1378.42 -996 1374V-316Z" fill="white"/><path d="M-988 -324V-323H236V-324V-325H-988V-324ZM244 -316H243V1374H244H245V-316H244ZM236 1382V1381H-988V1382V1383H236V1382ZM-996 1374H-995V-316H-996H-997V1374H-996ZM-988 1382V1381C-991.866 1381 -995 1377.87 -995 1374H-996H-997C-997 1378.97 -992.971 1383 -988 1383V1382ZM244 1374H243C243 1377.87 239.866 1381 236 1381V1382V1383C240.971 1383 245 1378.97 245 1374H244ZM236 -324V-323C239.866 -323 243 -319.866 243 -316H244H245C245 -320.971 240.971 -325 236 -325V-324ZM-988 -324V-325C-992.971 -325 -997 -320.971 -997 -316H-996H-995C-995 -319.866 -991.866 -323 -988 -323V-324Z" fill="#F1F1F1"/><path d="M2.66675 22.6667L16.0001 29.3333L29.3334 22.6667M2.66675 16L16.0001 22.6667L29.3334 16M16.0001 2.66666L2.66675 9.33332L16.0001 16L29.3334 9.33332L16.0001 2.66666Z" stroke="#202020" stroke-width="2.2" stroke-linecap="round" stroke-linejoin="round"/></svg>