<svg width="20" height="20" viewBox="0 0 20 20" fill="none" xmlns="http://www.w3.org/2000/svg"><path d="M-187 -36C-187 -37.1046 -186.105 -38 -185 -38H411C412.105 -38 413 -37.1046 413 -36V615C413 616.105 412.105 617 411 617H-185C-186.105 617 -187 616.105 -187 615V-36Z" fill="white"/><path d="M-185 -38V-37H411V-38V-39H-185V-38ZM413 -36H412V615H413H414V-36H413ZM411 617V616H-185V617V618H411V617ZM-187 615H-186V-36H-187H-188V615H-187ZM-185 617V616C-185.552 616 -186 615.552 -186 615H-187H-188C-188 616.657 -186.657 618 -185 618V617ZM413 615H412C412 615.552 411.552 616 411 616V617V618C412.657 618 414 616.657 414 615H413ZM411 -38V-37C411.552 -37 412 -36.5523 412 -36H413H414C414 -37.6569 412.657 -39 411 -39V-38ZM-185 -38V-39C-186.657 -39 -188 -37.6569 -188 -36H-187H-186C-186 -36.5523 -185.552 -37 -185 -37V-38Z" fill="black" fill-opacity="0.1"/><path fill-rule="evenodd" clip-rule="evenodd" d="M9.26733 2.00478C11.0989 2.16005 11.4164 3.45903 11.3125 4.74458L11.3021 4.84613C11.2596 5.18557 11.5241 5.48549 11.8662 5.48565L13.3613 5.48634C15.0181 5.48634 16.3613 6.82949 16.3613 8.48634C16.3613 8.60685 16.354 8.72725 16.3395 8.84688L16.1935 10.0533C15.878 12.6599 13.6658 14.6204 11.0403 14.6204H6C4.34315 14.6204 3 13.2772 3 11.6204V8.48634C3 6.82949 4.34315 5.48634 6 5.48634C6.14811 5.48578 6.27333 5.37653 6.29398 5.22987L6.404 4.44871C6.59325 3.09216 7.65137 1.91542 9.26733 2.00478Z" stroke="#9B9B9B" stroke-width="1.5"/><circle cx="6.6999" cy="11.5203" r="1.3" fill="#D8D8D8"/></svg>