<svg width="20" height="20" viewBox="0 0 20 20" fill="none" xmlns="http://www.w3.org/2000/svg"><path d="M-237 -36C-237 -37.1046 -236.105 -38 -235 -38H361C362.105 -38 363 -37.1046 363 -36V615C363 616.105 362.105 617 361 617H-235C-236.105 617 -237 616.105 -237 615V-36Z" fill="white"/><path d="M-235 -38V-37H361V-38V-39H-235V-38ZM363 -36H362V615H363H364V-36H363ZM361 617V616H-235V617V618H361V617ZM-237 615H-236V-36H-237H-238V615H-237ZM-235 617V616C-235.552 616 -236 615.552 -236 615H-237H-238C-238 616.657 -236.657 618 -235 618V617ZM363 615H362C362 615.552 361.552 616 361 616V617V618C362.657 618 364 616.657 364 615H363ZM361 -38V-37C361.552 -37 362 -36.5523 362 -36H363H364C364 -37.6569 362.657 -39 361 -39V-38ZM-235 -38V-39C-236.657 -39 -238 -37.6569 -238 -36H-237H-236C-236 -36.5523 -235.552 -37 -235 -37V-38Z" fill="black" fill-opacity="0.1"/><path fill-rule="evenodd" clip-rule="evenodd" d="M9.30859 1.25588L9.31934 1.25686L9.33105 1.25783C10.4397 1.35192 11.2214 1.81722 11.6631 2.57229C12.06 3.25093 12.1125 4.05084 12.0645 4.73537L13.3613 4.73635L13.5547 4.74123C15.5358 4.84188 17.1113 6.48018 17.1113 8.48635C17.1113 8.63696 17.1021 8.788 17.084 8.93752L16.9385 10.1436C16.5773 13.1267 14.0449 15.3701 11.04 15.3701H6C3.92893 15.3701 2.25 13.6912 2.25 11.6201V8.48635C2.25004 6.54955 3.71833 4.95534 5.60254 4.75686L5.66113 4.34377C5.88651 2.73252 7.14671 1.23722 9.11621 1.25002L9.30859 1.25588ZM6.7002 10.2207C5.98231 10.2208 5.40039 10.8026 5.40039 11.5205C5.40052 12.2383 5.98239 12.8202 6.7002 12.8203C7.41809 12.8203 7.99987 12.2384 8 11.5205C8 10.8026 7.41817 10.2207 6.7002 10.2207Z" fill="#FF7E32"/></svg>