<svg width="24" height="24" viewBox="0 0 24 24" fill="none" xmlns="http://www.w3.org/2000/svg"><path d="M-328 -240C-328 -241.105 -327.105 -242 -326 -242H893C894.105 -242 895 -241.105 895 -240V599C895 600.105 894.105 601 893 601H-326C-327.105 601 -328 600.105 -328 599V-240Z" fill="white"/><path d="M-326 -242V-241H893V-242V-243H-326V-242ZM895 -240H894V599H895H896V-240H895ZM893 601V600H-326V601V602H893V601ZM-328 599H-327V-240H-328H-329V599H-328ZM-326 601V600C-326.552 600 -327 599.552 -327 599H-328H-329C-329 600.657 -327.657 602 -326 602V601ZM895 599H894C894 599.552 893.552 600 893 600V601V602C894.657 602 896 600.657 896 599H895ZM893 -242V-241C893.552 -241 894 -240.552 894 -240H895H896C896 -241.657 894.657 -243 893 -243V-242ZM-326 -242V-243C-327.657 -243 -329 -241.657 -329 -240H-328H-327C-327 -240.552 -326.552 -241 -326 -241V-242Z" fill="black" fill-opacity="0.1"/><path d="M16.5008 12.6539C16.007 13.3919 15.2406 14.2035 14.1695 15.1383M15.768 4.66663C17.8666 4.66663 20.8198 6.3661 20.6096 9.8941C20.4909 11.8855 18.9236 14.05 15.5516 16.9289L14.8547 17.5118C14.3752 17.9051 13.8656 18.308 13.3261 18.7203L12.4943 19.3459L12.0616 19.664C12.0609 19.6677 12.0584 19.6659 12.0584 19.6659C11.7668 19.4604 11.4855 19.2545 11.2113 19.0508L10.4106 18.4467C9.24183 17.5507 8.21919 16.7006 7.34263 15.8964L6.7799 15.367C4.52536 13.1895 3.51106 11.4372 3.39802 9.8941C3.13976 6.36851 6.33833 4.66663 8.34958 4.66663C9.48834 4.66663 10.7088 5.30212 11.8108 6.4216L12.0584 6.66181L12.3056 6.4216C13.3931 5.31468 14.6292 4.66663 15.768 4.66663Z" stroke="#202020" stroke-width="1.8" stroke-linecap="round" stroke-linejoin="round"/></svg>