<svg width="28" height="16" viewBox="0 0 28 16" fill="none" xmlns="http://www.w3.org/2000/svg"><path d="M-324 -53C-324 -54.1046 -323.105 -55 -322 -55H304C305.105 -55 306 -54.1046 306 -53V353C306 354.105 305.105 355 304 355H-322C-323.105 355 -324 354.105 -324 353V-53Z" fill="white"/><path d="M-322 -55V-54H304V-55V-56H-322V-55ZM306 -53H305V353H306H307V-53H306ZM304 355V354H-322V355V356H304V355ZM-324 353H-323V-53H-324H-325V353H-324ZM-322 355V354C-322.552 354 -323 353.552 -323 353H-324H-325C-325 354.657 -323.657 356 -322 356V355ZM306 353H305C305 353.552 304.552 354 304 354V355V356C305.657 356 307 354.657 307 353H306ZM304 -55V-54C304.552 -54 305 -53.5523 305 -53H306H307C307 -54.6569 305.657 -56 304 -56V-55ZM-322 -55V-56C-323.657 -56 -325 -54.6569 -325 -53H-324H-323C-323 -53.5523 -322.552 -54 -322 -54V-55Z" fill="black" fill-opacity="0.1"/><path d="M3 0.5H25C26.3807 0.5 27.5 1.61929 27.5 3V13C27.5 14.3807 26.3807 15.5 25 15.5H3C1.61929 15.5 0.5 14.3807 0.5 13V3C0.5 1.61929 1.61929 0.5 3 0.5Z" fill="#A794FF"/><path d="M3 0.5H25C26.3807 0.5 27.5 1.61929 27.5 3V13C27.5 14.3807 26.3807 15.5 25 15.5H3C1.61929 15.5 0.5 14.3807 0.5 13V3C0.5 1.61929 1.61929 0.5 3 0.5Z" stroke="#8F75FF"/><path d="M7.4 3.48L8.01 3.83C7.73 4.65 7.39 5.63 7.08 6.4C7.74 7.22 7.89 7.92 7.89 8.53C7.89 9.11 7.77 9.53 7.48 9.75C7.33 9.86 7.16 9.92 6.94 9.95C6.76 9.97 6.51 9.97 6.29 9.97C6.29 9.74 6.21 9.39 6.07 9.16C6.28 9.17 6.44 9.18 6.59 9.17C6.7 9.17 6.8 9.14 6.88 9.09C7.02 8.98 7.07 8.73 7.07 8.43C7.07 7.92 6.91 7.26 6.27 6.51C6.51 5.85 6.77 5.01 6.95 4.35H5.72V12.26H4.91V3.52H7.27L7.4 3.48ZM9.32 6.12V7.16H11.94V6.12H9.32ZM11.94 4.35H9.32V5.36H11.94V4.35ZM12.81 8.2L13.43 8.85C12.95 9.24 12.35 9.64 11.85 9.94C12.31 10.6 12.9 11.12 13.64 11.43C13.44 11.61 13.14 11.98 13.02 12.22C11.49 11.45 10.62 9.93 10.13 7.97H9.32V11.04L10.92 10.67C10.92 10.93 10.93 11.3 10.97 11.51C8.97 12.04 8.63 12.16 8.42 12.3C8.35 12.09 8.15 11.72 8.01 11.55C8.18 11.45 8.42 11.21 8.42 10.78V3.54H12.84V7.97H10.94C11.08 8.43 11.24 8.87 11.45 9.29C11.92 8.96 12.47 8.54 12.81 8.2ZM21.79 6.42H19.54C19.49 6.95 19.43 7.48 19.33 7.97H21.79V6.42ZM16.43 7.97H18.35C18.46 7.48 18.51 6.96 18.56 6.42H16.43V7.97ZM19.62 4.59H17.34C17.08 4.93 16.79 5.27 16.48 5.59H18.87C19.13 5.3 19.4 4.93 19.62 4.59ZM20.89 11.27H22.22C22.6 11.27 22.67 11.08 22.71 9.93C22.92 10.08 23.31 10.23 23.56 10.29C23.45 11.72 23.2 12.1 22.29 12.1H20.76C19.7 12.1 19.43 11.83 19.43 10.92V8.8H19.11C18.61 10.32 17.54 11.52 15.04 12.21C14.94 11.97 14.71 11.62 14.51 11.43C16.67 10.89 17.63 9.96 18.1 8.8H15.5V6.49C15.35 6.61 15.2 6.73 15.04 6.84C14.89 6.63 14.59 6.3 14.37 6.16C15.72 5.27 16.68 4.06 17.21 3.08L18.23 3.27C18.13 3.46 18.02 3.63 17.89 3.82H20.15L20.29 3.78L20.94 4.19C20.69 4.63 20.33 5.15 19.97 5.59H22.77V8.8H20.4V10.91C20.4 11.22 20.47 11.27 20.89 11.27Z" fill="white"/></svg>