<svg width="16" height="16" viewBox="0 0 16 16" fill="none" xmlns="http://www.w3.org/2000/svg"><path d="M-292 -380C-292 -384.418 -288.418 -388 -284 -388H780C784.418 -388 788 -384.418 788 -380V1274C788 1278.42 784.418 1282 780 1282H-284C-288.418 1282 -292 1278.42 -292 1274V-380Z" fill="white"/><path d="M-284 -388V-387H780V-388V-389H-284V-388ZM788 -380H787V1274H788H789V-380H788ZM780 1282V1281H-284V1282V1283H780V1282ZM-292 1274H-291V-380H-292H-293V1274H-292ZM-284 1282V1281C-287.866 1281 -291 1277.87 -291 1274H-292H-293C-293 1278.97 -288.971 1283 -284 1283V1282ZM788 1274H787C787 1277.87 783.866 1281 780 1281V1282V1283C784.971 1283 789 1278.97 789 1274H788ZM780 -388V-387C783.866 -387 787 -383.866 787 -380H788H789C789 -384.971 784.971 -389 780 -389V-388ZM-284 -388V-389C-288.971 -389 -293 -384.971 -293 -380H-292H-291C-291 -383.866 -287.866 -387 -284 -387V-388Z" fill="#F1F1F1"/><path d="M9.99984 4.66666H11.9998C12.4376 4.66666 12.871 4.75288 13.2754 4.92039C13.6799 5.08791 14.0473 5.33344 14.3569 5.64297C14.6664 5.9525 14.9119 6.31996 15.0794 6.72438C15.247 7.1288 15.3332 7.56225 15.3332 7.99999C15.3332 8.43773 15.247 8.87118 15.0794 9.2756C14.9119 9.68002 14.6664 10.0475 14.3569 10.357C14.0473 10.6665 13.6799 10.9121 13.2754 11.0796C12.871 11.2471 12.4376 11.3333 11.9998 11.3333H9.99984M5.99984 11.3333H3.99984C3.5621 11.3333 3.12864 11.2471 2.72423 11.0796C2.31981 10.9121 1.95234 10.6665 1.64281 10.357C1.01769 9.73189 0.666504 8.88404 0.666504 7.99999C0.666504 7.11593 1.01769 6.26809 1.64281 5.64297C2.26794 5.01785 3.11578 4.66666 3.99984 4.66666H5.99984M5.33317 7.99999H10.6665" stroke="#202020" stroke-width="1.3" stroke-linecap="round" stroke-linejoin="round"/></svg>