<svg width="32" height="32" viewBox="0 0 32 32" fill="none" xmlns="http://www.w3.org/2000/svg"><path d="M-1108 -316C-1108 -320.418 -1104.42 -324 -1100 -324H124C128.418 -324 132 -320.418 132 -316V1374C132 1378.42 128.418 1382 124 1382H-1100C-1104.42 1382 -1108 1378.42 -1108 1374V-316Z" fill="white"/><path d="M-1100 -324V-323H124V-324V-325H-1100V-324ZM132 -316H131V1374H132H133V-316H132ZM124 1382V1381H-1100V1382V1383H124V1382ZM-1108 1374H-1107V-316H-1108H-1109V1374H-1108ZM-1100 1382V1381C-1103.87 1381 -1107 1377.87 -1107 1374H-1108H-1109C-1109 1378.97 -1104.97 1383 -1100 1383V1382ZM132 1374H131C131 1377.87 127.866 1381 124 1381V1382V1383C128.971 1383 133 1378.97 133 1374H132ZM124 -324V-323C127.866 -323 131 -319.866 131 -316H132H133C133 -320.971 128.971 -325 124 -325V-324ZM-1100 -324V-325C-1104.97 -325 -1109 -320.971 -1109 -316H-1108H-1107C-1107 -319.866 -1103.87 -323 -1100 -323V-324Z" fill="#F1F1F1"/><path d="M20.0002 9.33334H24.0002C24.8756 9.33334 25.7426 9.50578 26.5514 9.84081C27.3602 10.1758 28.0952 10.6669 28.7142 11.286C29.3333 11.905 29.8243 12.64 30.1594 13.4488C30.4944 14.2576 30.6668 15.1245 30.6668 16C30.6668 16.8755 30.4944 17.7424 30.1594 18.5512C29.8243 19.3601 29.3333 20.095 28.7142 20.7141C28.0952 21.3331 27.3602 21.8242 26.5514 22.1592C25.7426 22.4942 24.8756 22.6667 24.0002 22.6667H20.0002M12.0002 22.6667H8.00016C7.12468 22.6667 6.25778 22.4942 5.44894 22.1592C4.6401 21.8242 3.90517 21.3331 3.28612 20.7141C2.03587 19.4638 1.3335 17.7681 1.3335 16C1.3335 14.2319 2.03587 12.5362 3.28612 11.286C4.53636 10.0357 6.23205 9.33334 8.00016 9.33334H12.0002M10.6668 16H21.3335" stroke="#202020" stroke-width="2.2" stroke-linecap="round" stroke-linejoin="round"/></svg>