<svg width="32" height="32" viewBox="0 0 32 32" fill="none" xmlns="http://www.w3.org/2000/svg"><path d="M-100 -428C-100 -432.418 -96.4183 -436 -92 -436H1132C1136.42 -436 1140 -432.418 1140 -428V1262C1140 1266.42 1136.42 1270 1132 1270H-92C-96.4183 1270 -100 1266.42 -100 1262V-428Z" fill="white"/><path d="M-92 -436V-435H1132V-436V-437H-92V-436ZM1140 -428H1139V1262H1140H1141V-428H1140ZM1132 1270V1269H-92V1270V1271H1132V1270ZM-100 1262H-99V-428H-100H-101V1262H-100ZM-92 1270V1269C-95.866 1269 -99 1265.87 -99 1262H-100H-101C-101 1266.97 -96.9706 1271 -92 1271V1270ZM1140 1262H1139C1139 1265.87 1135.87 1269 1132 1269V1270V1271C1136.97 1271 1141 1266.97 1141 1262H1140ZM1132 -436V-435C1135.87 -435 1139 -431.866 1139 -428H1140H1141C1141 -432.971 1136.97 -437 1132 -437V-436ZM-92 -436V-437C-96.9706 -437 -101 -432.971 -101 -428H-100H-99C-99 -431.866 -95.866 -435 -92 -435V-436Z" fill="#F1F1F1"/><path d="M10.6667 8H28M10.6667 16H28M10.6667 24H28M4 8H4.01333M4 16H4.01333M4 24H4.01333" stroke="#202020" stroke-width="2.2" stroke-linecap="round" stroke-linejoin="round"/></svg>