<svg width="16" height="16" viewBox="0 0 16 16" fill="none" xmlns="http://www.w3.org/2000/svg"><path d="M-388 -380C-388 -384.418 -384.418 -388 -380 -388H684C688.418 -388 692 -384.418 692 -380V1274C692 1278.42 688.418 1282 684 1282H-380C-384.418 1282 -388 1278.42 -388 1274V-380Z" fill="white"/><path d="M-380 -388V-387H684V-388V-389H-380V-388ZM692 -380H691V1274H692H693V-380H692ZM684 1282V1281H-380V1282V1283H684V1282ZM-388 1274H-387V-380H-388H-389V1274H-388ZM-380 1282V1281C-383.866 1281 -387 1277.87 -387 1274H-388H-389C-389 1278.97 -384.971 1283 -380 1283V1282ZM692 1274H691C691 1277.87 687.866 1281 684 1281V1282V1283C688.971 1283 693 1278.97 693 1274H692ZM684 -388V-387C687.866 -387 691 -383.866 691 -380H692H693C693 -384.971 688.971 -389 684 -389V-388ZM-380 -388V-389C-384.971 -389 -389 -384.971 -389 -380H-388H-387C-387 -383.866 -383.866 -387 -380 -387V-388Z" fill="#F1F1F1"/><path d="M5.33333 4H14M5.33333 8H14M5.33333 12H14M2 4H2.00667M2 8H2.00667M2 12H2.00667" stroke="#202020" stroke-width="1.3" stroke-linecap="round" stroke-linejoin="round"/></svg>