<svg width="32" height="32" viewBox="0 0 32 32" fill="none" xmlns="http://www.w3.org/2000/svg"><path d="M-212 -428C-212 -432.418 -208.418 -436 -204 -436H1020C1024.42 -436 1028 -432.418 1028 -428V1262C1028 1266.42 1024.42 1270 1020 1270H-204C-208.418 1270 -212 1266.42 -212 1262V-428Z" fill="white"/><path d="M-204 -436V-435H1020V-436V-437H-204V-436ZM1028 -428H1027V1262H1028H1029V-428H1028ZM1020 1270V1269H-204V1270V1271H1020V1270ZM-212 1262H-211V-428H-212H-213V1262H-212ZM-204 1270V1269C-207.866 1269 -211 1265.87 -211 1262H-212H-213C-213 1266.97 -208.971 1271 -204 1271V1270ZM1028 1262H1027C1027 1265.87 1023.87 1269 1020 1269V1270V1271C1024.97 1271 1029 1266.97 1029 1262H1028ZM1020 -436V-435C1023.87 -435 1027 -431.866 1027 -428H1028H1029C1029 -432.971 1024.97 -437 1020 -437V-436ZM-204 -436V-437C-208.971 -437 -213 -432.971 -213 -428H-212H-211C-211 -431.866 -207.866 -435 -204 -435V-436Z" fill="#F1F1F1"/><path d="M16.0001 2.66666V7.99999M16.0001 24V29.3333M6.57341 6.57332L10.3467 10.3467M21.6534 21.6533L25.4267 25.4267M2.66675 16H8.00008M24.0001 16H29.3334M6.57341 25.4267L10.3467 21.6533M21.6534 10.3467L25.4267 6.57332" stroke="#202020" stroke-width="2.2" stroke-linecap="round" stroke-linejoin="round"/></svg>