<svg width="16" height="16" viewBox="0 0 16 16" fill="none" xmlns="http://www.w3.org/2000/svg"><path d="M-484 -380C-484 -384.418 -480.418 -388 -476 -388H588C592.418 -388 596 -384.418 596 -380V1274C596 1278.42 592.418 1282 588 1282H-476C-480.418 1282 -484 1278.42 -484 1274V-380Z" fill="white"/><path d="M-476 -388V-387H588V-388V-389H-476V-388ZM596 -380H595V1274H596H597V-380H596ZM588 1282V1281H-476V1282V1283H588V1282ZM-484 1274H-483V-380H-484H-485V1274H-484ZM-476 1282V1281C-479.866 1281 -483 1277.87 -483 1274H-484H-485C-485 1278.97 -480.971 1283 -476 1283V1282ZM596 1274H595C595 1277.87 591.866 1281 588 1281V1282V1283C592.971 1283 597 1278.97 597 1274H596ZM588 -388V-387C591.866 -387 595 -383.866 595 -380H596H597C597 -384.971 592.971 -389 588 -389V-388ZM-476 -388V-389C-480.971 -389 -485 -384.971 -485 -380H-484H-483C-483 -383.866 -479.866 -387 -476 -387V-388Z" fill="#F1F1F1"/><path d="M8.00016 1.33334V4.00001M8.00016 12V14.6667M3.28683 3.28668L5.1735 5.17334M10.8268 10.8267L12.7135 12.7133M1.3335 8.00001H4.00016M12.0002 8.00001H14.6668M3.28683 12.7133L5.1735 10.8267M10.8268 5.17334L12.7135 3.28668" stroke="#202020" stroke-width="1.3" stroke-linecap="round" stroke-linejoin="round"/><defs><clipPath id="clip0_7809_18809"><rect width="16" height="16" fill="white"/></clipPath></defs></svg>