<svg width="20" height="20" viewBox="0 0 20 20" fill="none" xmlns="http://www.w3.org/2000/svg"><path d="M-119 -448C-119 -449.105 -118.105 -450 -117 -450H1102C1103.1 -450 1104 -449.105 1104 -448V391C1104 392.105 1103.1 393 1102 393H-117C-118.105 393 -119 392.105 -119 391V-448Z" fill="white"/><path d="M-117 -450V-449H1102V-450V-451H-117V-450ZM1104 -448H1103V391H1104H1105V-448H1104ZM1102 393V392H-117V393V394H1102V393ZM-119 391H-118V-448H-119H-120V391H-119ZM-117 393V392C-117.552 392 -118 391.552 -118 391H-119H-120C-120 392.657 -118.657 394 -117 394V393ZM1104 391H1103C1103 391.552 1102.55 392 1102 392V393V394C1103.66 394 1105 392.657 1105 391H1104ZM1102 -450V-449C1102.55 -449 1103 -448.552 1103 -448H1104H1105C1105 -449.657 1103.66 -451 1102 -451V-450ZM-117 -450V-451C-118.657 -451 -120 -449.657 -120 -448H-119H-118C-118 -448.552 -117.552 -449 -117 -449V-450Z" fill="black" fill-opacity="0.1"/><mask id="mask0_7809_18809" style="mask-type:luminance" maskUnits="userSpaceOnUse" x="1" y="1" width="18" height="18"><rect x="1" y="1" width="18" height="18" fill="white"/></mask><g mask="url(#mask0_7809_18809)"><path fill-rule="evenodd" clip-rule="evenodd" d="M6.01025 6.68056C6.01025 4.71688 7.60213 3.125 9.56581 3.125H10.4547C12.4184 3.125 14.0103 4.71688 14.0103 6.68056V7.625H6.01025V6.68056Z" stroke="#9B9B9B" stroke-width="1.3"/><rect x="4" y="7.625" width="12" height="9.23077" rx="1.77778" stroke="#9B9B9B" stroke-width="1.3"/><path d="M10.0005 9.92548C10.4146 9.92565 10.7505 10.2614 10.7505 10.6755V11.4255C10.7505 11.4898 10.7384 11.5514 10.7231 11.611C11.1862 11.8664 11.5005 12.3593 11.5005 12.9255C11.5002 13.7536 10.8286 14.4253 10.0005 14.4255C9.17221 14.4255 8.50073 13.7537 8.50049 12.9255C8.50049 12.3597 8.81335 11.8665 9.27588 11.611C9.26064 11.5515 9.25053 11.4897 9.25049 11.4255V10.6755C9.25049 10.2613 9.58627 9.92548 10.0005 9.92548Z" fill="#9B9B9B"/></g></svg>