<svg width="16" height="16" viewBox="0 0 16 16" fill="none" xmlns="http://www.w3.org/2000/svg"><path d="M-580 -380C-580 -384.418 -576.418 -388 -572 -388H492C496.418 -388 500 -384.418 500 -380V1274C500 1278.42 496.418 1282 492 1282H-572C-576.418 1282 -580 1278.42 -580 1274V-380Z" fill="white"/><path d="M-572 -388V-387H492V-388V-389H-572V-388ZM500 -380H499V1274H500H501V-380H500ZM492 1282V1281H-572V1282V1283H492V1282ZM-580 1274H-579V-380H-580H-581V1274H-580ZM-572 1282V1281C-575.866 1281 -579 1277.87 -579 1274H-580H-581C-581 1278.97 -576.971 1283 -572 1283V1282ZM500 1274H499C499 1277.87 495.866 1281 492 1281V1282V1283C496.971 1283 501 1278.97 501 1274H500ZM492 -388V-387C495.866 -387 499 -383.866 499 -380H500H501C501 -384.971 496.971 -389 492 -389V-388ZM-572 -388V-389C-576.971 -389 -581 -384.971 -581 -380H-580H-579C-579 -383.866 -575.866 -387 -572 -387V-388Z" fill="#F1F1F1"/><path d="M4.66667 7.33334V4.66668C4.66667 3.78262 5.01786 2.93478 5.64298 2.30965C6.2681 1.68453 7.11595 1.33334 8 1.33334C8.88406 1.33334 9.7319 1.68453 10.357 2.30965C10.9821 2.93478 11.3333 3.78262 11.3333 4.66668V7.33334M3.33333 7.33334H12.6667C13.403 7.33334 14 7.9303 14 8.66668V13.3333C14 14.0697 13.403 14.6667 12.6667 14.6667H3.33333C2.59695 14.6667 2 14.0697 2 13.3333V8.66668C2 7.9303 2.59695 7.33334 3.33333 7.33334Z" stroke="#202020" stroke-width="1.3" stroke-linecap="round" stroke-linejoin="round"/></svg>