<svg width="32" height="32" viewBox="0 0 32 32" fill="none" xmlns="http://www.w3.org/2000/svg"><path d="M-324 -428C-324 -432.418 -320.418 -436 -316 -436H908C912.418 -436 916 -432.418 916 -428V1262C916 1266.42 912.418 1270 908 1270H-316C-320.418 1270 -324 1266.42 -324 1262V-428Z" fill="white"/><path d="M-316 -436V-435H908V-436V-437H-316V-436ZM916 -428H915V1262H916H917V-428H916ZM908 1270V1269H-316V1270V1271H908V1270ZM-324 1262H-323V-428H-324H-325V1262H-324ZM-316 1270V1269C-319.866 1269 -323 1265.87 -323 1262H-324H-325C-325 1266.97 -320.971 1271 -316 1271V1270ZM916 1262H915C915 1265.87 911.866 1269 908 1269V1270V1271C912.971 1271 917 1266.97 917 1262H916ZM908 -436V-435C911.866 -435 915 -431.866 915 -428H916H917C917 -432.971 912.971 -437 908 -437V-436ZM-316 -436V-437C-320.971 -437 -325 -432.971 -325 -428H-324H-323C-323 -431.866 -319.866 -435 -316 -435V-436Z" fill="#F1F1F1"/><path d="M9.33333 14.6667V9.33332C9.33333 7.56521 10.0357 5.86952 11.286 4.61928C12.5362 3.36904 14.2319 2.66666 16 2.66666C17.7681 2.66666 19.4638 3.36904 20.714 4.61928C21.9643 5.86952 22.6667 7.56521 22.6667 9.33332V14.6667M6.66667 14.6667H25.3333C26.8061 14.6667 28 15.8606 28 17.3333V26.6667C28 28.1394 26.8061 29.3333 25.3333 29.3333H6.66667C5.19391 29.3333 4 28.1394 4 26.6667V17.3333C4 15.8606 5.19391 14.6667 6.66667 14.6667Z" stroke="#202020" stroke-width="2.2" stroke-linecap="round" stroke-linejoin="round"/></svg>