<svg width="32" height="32" viewBox="0 0 32 32" fill="none" xmlns="http://www.w3.org/2000/svg"><path d="M-548 -428C-548 -432.418 -544.418 -436 -540 -436H684C688.418 -436 692 -432.418 692 -428V1262C692 1266.42 688.418 1270 684 1270H-540C-544.418 1270 -548 1266.42 -548 1262V-428Z" fill="white"/><path d="M-540 -436V-435H684V-436V-437H-540V-436ZM692 -428H691V1262H692H693V-428H692ZM684 1270V1269H-540V1270V1271H684V1270ZM-548 1262H-547V-428H-548H-549V1262H-548ZM-540 1270V1269C-543.866 1269 -547 1265.87 -547 1262H-548H-549C-549 1266.97 -544.971 1271 -540 1271V1270ZM692 1262H691C691 1265.87 687.866 1269 684 1269V1270V1271C688.971 1271 693 1266.97 693 1262H692ZM684 -436V-435C687.866 -435 691 -431.866 691 -428H692H693C693 -432.971 688.971 -437 684 -437V-436ZM-540 -436V-437C-544.971 -437 -549 -432.971 -549 -428H-548H-547C-547 -431.866 -543.866 -435 -540 -435V-436Z" fill="#F1F1F1"/><path d="M12 28H6.66667C5.95942 28 5.28115 27.719 4.78105 27.219C4.28095 26.7189 4 26.0406 4 25.3333V6.66667C4 5.95942 4.28095 5.28115 4.78105 4.78105C5.28115 4.28095 5.95942 4 6.66667 4H12M21.3333 22.6667L28 16M28 16L21.3333 9.33333M28 16H12" stroke="#202020" stroke-width="2.2" stroke-linecap="round" stroke-linejoin="round"/></svg>