<svg width="32" height="32" viewBox="0 0 32 32" fill="none" xmlns="http://www.w3.org/2000/svg"><path d="M-436 -428C-436 -432.418 -432.418 -436 -428 -436H796C800.418 -436 804 -432.418 804 -428V1262C804 1266.42 800.418 1270 796 1270H-428C-432.418 1270 -436 1266.42 -436 1262V-428Z" fill="white"/><path d="M-428 -436V-435H796V-436V-437H-428V-436ZM804 -428H803V1262H804H805V-428H804ZM796 1270V1269H-428V1270V1271H796V1270ZM-436 1262H-435V-428H-436H-437V1262H-436ZM-428 1270V1269C-431.866 1269 -435 1265.87 -435 1262H-436H-437C-437 1266.97 -432.971 1271 -428 1271V1270ZM804 1262H803C803 1265.87 799.866 1269 796 1269V1270V1271C800.971 1271 805 1266.97 805 1262H804ZM796 -436V-435C799.866 -435 803 -431.866 803 -428H804H805C805 -432.971 800.971 -437 796 -437V-436ZM-428 -436V-437C-432.971 -437 -437 -432.971 -437 -428H-436H-435C-435 -431.866 -431.866 -435 -428 -435V-436Z" fill="#F1F1F1"/><path d="M20 4H25.3333C26.0406 4 26.7189 4.28095 27.219 4.78105C27.719 5.28115 28 5.95942 28 6.66667V25.3333C28 26.0406 27.719 26.7189 27.219 27.219C26.7189 27.719 26.0406 28 25.3333 28H20M13.3333 22.6667L20 16M20 16L13.3333 9.33333M20 16H4" stroke="#202020" stroke-width="2.2" stroke-linecap="round" stroke-linejoin="round"/></svg>