<svg width="32" height="32" viewBox="0 0 32 32" fill="none" xmlns="http://www.w3.org/2000/svg"><path d="M-660 -428C-660 -432.418 -656.418 -436 -652 -436H572C576.418 -436 580 -432.418 580 -428V1262C580 1266.42 576.418 1270 572 1270H-652C-656.418 1270 -660 1266.42 -660 1262V-428Z" fill="white"/><path d="M-652 -436V-435H572V-436V-437H-652V-436ZM580 -428H579V1262H580H581V-428H580ZM572 1270V1269H-652V1270V1271H572V1270ZM-660 1262H-659V-428H-660H-661V1262H-660ZM-652 1270V1269C-655.866 1269 -659 1265.87 -659 1262H-660H-661C-661 1266.97 -656.971 1271 -652 1271V1270ZM580 1262H579C579 1265.87 575.866 1269 572 1269V1270V1271C576.971 1271 581 1266.97 581 1262H580ZM572 -436V-435C575.866 -435 579 -431.866 579 -428H580H581C581 -432.971 576.971 -437 572 -437V-436ZM-652 -436V-437C-656.971 -437 -661 -432.971 -661 -428H-660H-659C-659 -431.866 -655.866 -435 -652 -435V-436Z" fill="#F1F1F1"/><path d="M29.3334 8.00001C29.3334 6.53334 28.1334 5.33334 26.6667 5.33334H5.33341C3.86675 5.33334 2.66675 6.53334 2.66675 8.00001M29.3334 8.00001V24C29.3334 25.4667 28.1334 26.6667 26.6667 26.6667H5.33341C3.86675 26.6667 2.66675 25.4667 2.66675 24V8.00001M29.3334 8.00001L16.0001 17.3333L2.66675 8.00001" stroke="#202020" stroke-width="2.2" stroke-linecap="round" stroke-linejoin="round"/></svg>