<svg width="16" height="16" viewBox="0 0 16 16" fill="none" xmlns="http://www.w3.org/2000/svg"><path d="M-676 -380C-676 -384.418 -672.418 -388 -668 -388H396C400.418 -388 404 -384.418 404 -380V1274C404 1278.42 400.418 1282 396 1282H-668C-672.418 1282 -676 1278.42 -676 1274V-380Z" fill="white"/><path d="M-668 -388V-387H396V-388V-389H-668V-388ZM404 -380H403V1274H404H405V-380H404ZM396 1282V1281H-668V1282V1283H396V1282ZM-676 1274H-675V-380H-676H-677V1274H-676ZM-668 1282V1281C-671.866 1281 -675 1277.87 -675 1274H-676H-677C-677 1278.97 -672.971 1283 -668 1283V1282ZM404 1274H403C403 1277.87 399.866 1281 396 1281V1282V1283C400.971 1283 405 1278.97 405 1274H404ZM396 -388V-387C399.866 -387 403 -383.866 403 -380H404H405C405 -384.971 400.971 -389 396 -389V-388ZM-668 -388V-389C-672.971 -389 -677 -384.971 -677 -380H-676H-675C-675 -383.866 -671.866 -387 -668 -387V-388Z" fill="#F1F1F1"/><path d="M14.6668 3.99999C14.6668 3.26666 14.0668 2.66666 13.3335 2.66666H2.66683C1.9335 2.66666 1.3335 3.26666 1.3335 3.99999M14.6668 3.99999V12C14.6668 12.7333 14.0668 13.3333 13.3335 13.3333H2.66683C1.9335 13.3333 1.3335 12.7333 1.3335 12V3.99999M14.6668 3.99999L8.00016 8.66666L1.3335 3.99999" stroke="#202020" stroke-width="1.3" stroke-linecap="round" stroke-linejoin="round"/></svg>