<svg width="16" height="16" viewBox="0 0 16 16" fill="none" xmlns="http://www.w3.org/2000/svg"><path d="M-772 -380C-772 -384.418 -768.418 -388 -764 -388H300C304.418 -388 308 -384.418 308 -380V1274C308 1278.42 304.418 1282 300 1282H-764C-768.418 1282 -772 1278.42 -772 1274V-380Z" fill="white"/><path d="M-764 -388V-387H300V-388V-389H-764V-388ZM308 -380H307V1274H308H309V-380H308ZM300 1282V1281H-764V1282V1283H300V1282ZM-772 1274H-771V-380H-772H-773V1274H-772ZM-764 1282V1281C-767.866 1281 -771 1277.87 -771 1274H-772H-773C-773 1278.97 -768.971 1283 -764 1283V1282ZM308 1274H307C307 1277.87 303.866 1281 300 1281V1282V1283C304.971 1283 309 1278.97 309 1274H308ZM300 -388V-387C303.866 -387 307 -383.866 307 -380H308H309C309 -384.971 304.971 -389 300 -389V-388ZM-764 -388V-389C-768.971 -389 -773 -384.971 -773 -380H-772H-771C-771 -383.866 -767.866 -387 -764 -387V-388Z" fill="#F1F1F1"/><path d="M14 6.66666C14 11.3333 8 15.3333 8 15.3333C8 15.3333 2 11.3333 2 6.66666C2 5.07536 2.63214 3.54923 3.75736 2.42402C4.88258 1.2988 6.4087 0.666656 8 0.666656C9.5913 0.666656 11.1174 1.2988 12.2426 2.42402C13.3679 3.54923 14 5.07536 14 6.66666Z" stroke="#202020" stroke-width="1.3" stroke-linecap="round" stroke-linejoin="round"/><path d="M8 8.66666C9.10457 8.66666 10 7.77123 10 6.66666C10 5.56209 9.10457 4.66666 8 4.66666C6.89543 4.66666 6 5.56209 6 6.66666C6 7.77123 6.89543 8.66666 8 8.66666Z" stroke="#202020" stroke-width="1.3" stroke-linecap="round" stroke-linejoin="round"/></svg>