<svg width="32" height="32" viewBox="0 0 32 32" fill="none" xmlns="http://www.w3.org/2000/svg"><path d="M-772 -428C-772 -432.418 -768.418 -436 -764 -436H460C464.418 -436 468 -432.418 468 -428V1262C468 1266.42 464.418 1270 460 1270H-764C-768.418 1270 -772 1266.42 -772 1262V-428Z" fill="white"/><path d="M-764 -436V-435H460V-436V-437H-764V-436ZM468 -428H467V1262H468H469V-428H468ZM460 1270V1269H-764V1270V1271H460V1270ZM-772 1262H-771V-428H-772H-773V1262H-772ZM-764 1270V1269C-767.866 1269 -771 1265.87 -771 1262H-772H-773C-773 1266.97 -768.971 1271 -764 1271V1270ZM468 1262H467C467 1265.87 463.866 1269 460 1269V1270V1271C464.971 1271 469 1266.97 469 1262H468ZM460 -436V-435C463.866 -435 467 -431.866 467 -428H468H469C469 -432.971 464.971 -437 460 -437V-436ZM-764 -436V-437C-768.971 -437 -773 -432.971 -773 -428H-772H-771C-771 -431.866 -767.866 -435 -764 -435V-436Z" fill="#F1F1F1"/><path d="M28 13.3333C28 22.6667 16 30.6667 16 30.6667C16 30.6667 4 22.6667 4 13.3333C4 10.1507 5.26428 7.0985 7.51472 4.84806C9.76516 2.59763 12.8174 1.33334 16 1.33334C19.1826 1.33334 22.2348 2.59763 24.4853 4.84806C26.7357 7.0985 28 10.1507 28 13.3333Z" stroke="#202020" stroke-width="2.2" stroke-linecap="round" stroke-linejoin="round"/><path d="M16 17.3333C18.2091 17.3333 20 15.5425 20 13.3333C20 11.1242 18.2091 9.33334 16 9.33334C13.7909 9.33334 12 11.1242 12 13.3333C12 15.5425 13.7909 17.3333 16 17.3333Z" stroke="#202020" stroke-width="2.2" stroke-linecap="round" stroke-linejoin="round"/></svg>