<svg width="16" height="16" viewBox="0 0 16 16" fill="none" xmlns="http://www.w3.org/2000/svg"><path d="M-964 -380C-964 -384.418 -960.418 -388 -956 -388H108C112.418 -388 116 -384.418 116 -380V1274C116 1278.42 112.418 1282 108 1282H-956C-960.418 1282 -964 1278.42 -964 1274V-380Z" fill="white"/><path d="M-956 -388V-387H108V-388V-389H-956V-388ZM116 -380H115V1274H116H117V-380H116ZM108 1282V1281H-956V1282V1283H108V1282ZM-964 1274H-963V-380H-964H-965V1274H-964ZM-956 1282V1281C-959.866 1281 -963 1277.87 -963 1274H-964H-965C-965 1278.97 -960.971 1283 -956 1283V1282ZM116 1274H115C115 1277.87 111.866 1281 108 1281V1282V1283C112.971 1283 117 1278.97 117 1274H116ZM108 -388V-387C111.866 -387 115 -383.866 115 -380H116H117C117 -384.971 112.971 -389 108 -389V-388ZM-956 -388V-389C-960.971 -389 -965 -384.971 -965 -380H-964H-963C-963 -383.866 -959.866 -387 -956 -387V-388Z" fill="#F1F1F1"/><path d="M5.33333 2H3.33333C2.97971 2 2.64057 2.14048 2.39052 2.39052C2.14048 2.64057 2 2.97971 2 3.33333V5.33333M14 5.33333V3.33333C14 2.97971 13.8595 2.64057 13.6095 2.39052C13.3594 2.14048 13.0203 2 12.6667 2H10.6667M10.6667 14H12.6667C13.0203 14 13.3594 13.8595 13.6095 13.6095C13.8595 13.3594 14 13.0203 14 12.6667V10.6667M2 10.6667V12.6667C2 13.0203 2.14048 13.3594 2.39052 13.6095C2.64057 13.8595 2.97971 14 3.33333 14H5.33333" stroke="#202020" stroke-width="1.3" stroke-linecap="round" stroke-linejoin="round"/></svg>