<svg width="32" height="32" viewBox="0 0 32 32" fill="none" xmlns="http://www.w3.org/2000/svg"><path d="M-996 -428C-996 -432.418 -992.418 -436 -988 -436H236C240.418 -436 244 -432.418 244 -428V1262C244 1266.42 240.418 1270 236 1270H-988C-992.418 1270 -996 1266.42 -996 1262V-428Z" fill="white"/><path d="M-988 -436V-435H236V-436V-437H-988V-436ZM244 -428H243V1262H244H245V-428H244ZM236 1270V1269H-988V1270V1271H236V1270ZM-996 1262H-995V-428H-996H-997V1262H-996ZM-988 1270V1269C-991.866 1269 -995 1265.87 -995 1262H-996H-997C-997 1266.97 -992.971 1271 -988 1271V1270ZM244 1262H243C243 1265.87 239.866 1269 236 1269V1270V1271C240.971 1271 245 1266.97 245 1262H244ZM236 -436V-435C239.866 -435 243 -431.866 243 -428H244H245C245 -432.971 240.971 -437 236 -437V-436ZM-988 -436V-437C-992.971 -437 -997 -432.971 -997 -428H-996H-995C-995 -431.866 -991.866 -435 -988 -435V-436Z" fill="#F1F1F1"/><path d="M10.6667 4H6.66667C5.95942 4 5.28115 4.28095 4.78105 4.78105C4.28095 5.28115 4 5.95942 4 6.66667V10.6667M28 10.6667V6.66667C28 5.95942 27.719 5.28115 27.219 4.78105C26.7189 4.28095 26.0406 4 25.3333 4H21.3333M21.3333 28H25.3333C26.0406 28 26.7189 27.719 27.219 27.219C27.719 26.7189 28 26.0406 28 25.3333V21.3333M4 21.3333V25.3333C4 26.0406 4.28095 26.7189 4.78105 27.219C5.28115 27.719 5.95942 28 6.66667 28H10.6667" stroke="#202020" stroke-width="2.2" stroke-linecap="round" stroke-linejoin="round"/></svg>