<svg width="32" height="32" viewBox="0 0 32 32" fill="none" xmlns="http://www.w3.org/2000/svg"><path d="M-884 -428C-884 -432.418 -880.418 -436 -876 -436H348C352.418 -436 356 -432.418 356 -428V1262C356 1266.42 352.418 1270 348 1270H-876C-880.418 1270 -884 1266.42 -884 1262V-428Z" fill="white"/><path d="M-876 -436V-435H348V-436V-437H-876V-436ZM356 -428H355V1262H356H357V-428H356ZM348 1270V1269H-876V1270V1271H348V1270ZM-884 1262H-883V-428H-884H-885V1262H-884ZM-876 1270V1269C-879.866 1269 -883 1265.87 -883 1262H-884H-885C-885 1266.97 -880.971 1271 -876 1271V1270ZM356 1262H355C355 1265.87 351.866 1269 348 1269V1270V1271C352.971 1271 357 1266.97 357 1262H356ZM348 -436V-435C351.866 -435 355 -431.866 355 -428H356H357C357 -432.971 352.971 -437 348 -437V-436ZM-876 -436V-437C-880.971 -437 -885 -432.971 -885 -428H-884H-883C-883 -431.866 -879.866 -435 -876 -435V-436Z" fill="#F1F1F1"/><path d="M20 4H28M28 4V12M28 4L18.6667 13.3333M12 28H4M4 28V20M4 28L13.3333 18.6667" stroke="#202020" stroke-width="2.2" stroke-linecap="round" stroke-linejoin="round"/></svg>