<svg width="16" height="16" viewBox="0 0 16 16" fill="none" xmlns="http://www.w3.org/2000/svg"><path d="M-868 -380C-868 -384.418 -864.418 -388 -860 -388H204C208.418 -388 212 -384.418 212 -380V1274C212 1278.42 208.418 1282 204 1282H-860C-864.418 1282 -868 1278.42 -868 1274V-380Z" fill="white"/><path d="M-860 -388V-387H204V-388V-389H-860V-388ZM212 -380H211V1274H212H213V-380H212ZM204 1282V1281H-860V1282V1283H204V1282ZM-868 1274H-867V-380H-868H-869V1274H-868ZM-860 1282V1281C-863.866 1281 -867 1277.87 -867 1274H-868H-869C-869 1278.97 -864.971 1283 -860 1283V1282ZM212 1274H211C211 1277.87 207.866 1281 204 1281V1282V1283C208.971 1283 213 1278.97 213 1274H212ZM204 -388V-387C207.866 -387 211 -383.866 211 -380H212H213C213 -384.971 208.971 -389 204 -389V-388ZM-860 -388V-389C-864.971 -389 -869 -384.971 -869 -380H-868H-867C-867 -383.866 -863.866 -387 -860 -387V-388Z" fill="#F1F1F1"/><path d="M10 2H14M14 2V6M14 2L9.33333 6.66667M6 14H2M2 14V10M2 14L6.66667 9.33333" stroke="#202020" stroke-width="1.3" stroke-linecap="round" stroke-linejoin="round"/></svg>