<svg width="12" height="12" viewBox="0 0 12 12" fill="none" xmlns="http://www.w3.org/2000/svg"><path d="M-427 -120C-427 -121.105 -426.105 -122 -425 -122H280C281.105 -122 282 -121.105 282 -120V286C282 287.105 281.105 288 280 288H-425C-426.105 288 -427 287.105 -427 286V-120Z" fill="white"/><path d="M-425 -122V-121H280V-122V-123H-425V-122ZM282 -120H281V286H282H283V-120H282ZM280 288V287H-425V288V289H280V288ZM-427 286H-426V-120H-427H-428V286H-427ZM-425 288V287C-425.552 287 -426 286.552 -426 286H-427H-428C-428 287.657 -426.657 289 -425 289V288ZM282 286H281C281 286.552 280.552 287 280 287V288V289C281.657 289 283 287.657 283 286H282ZM280 -122V-121C280.552 -121 281 -120.552 281 -120H282H283C283 -121.657 281.657 -123 280 -123V-122ZM-425 -122V-123C-426.657 -123 -428 -121.657 -428 -120H-427H-426C-426 -120.552 -425.552 -121 -425 -121V-122Z" fill="black" fill-opacity="0.1"/><path d="M-4 4.76837e-07C-4 -1.65685 -2.65685 -3 -1 -3H51V15H-1C-2.65685 15 -4 13.6569 -4 12V4.76837e-07Z" fill="black" fill-opacity="0.7"/><path d="M7.19922 0.5C7.86454 0.644326 8.48529 0.906954 9.04004 1.26367C8.6584 1.73738 8.68805 2.43317 9.12793 2.87305C9.56779 3.31274 10.2627 3.34146 10.7363 2.95996C11.0932 3.51468 11.3555 4.13543 11.5 4.80078C10.895 4.86553 10.4241 5.37785 10.4238 6C10.4238 6.6223 10.8949 7.13435 11.5 7.19922C11.3556 7.86465 11.0931 8.48522 10.7363 9.04004C10.2627 8.65883 9.56767 8.68828 9.12793 9.12793C8.6882 9.56766 8.65881 10.2626 9.04004 10.7363C8.48523 11.0932 7.86466 11.3556 7.19922 11.5C7.1344 10.8951 6.62301 10.4241 6.00098 10.4238C5.37865 10.4238 4.86564 10.8949 4.80078 11.5C4.13541 11.3555 3.5147 11.0932 2.95996 10.7363C3.34152 10.2627 3.31282 9.5678 2.87305 9.12793C2.43315 8.68803 1.73737 8.65836 1.26367 9.04004C0.906947 8.48527 0.644318 7.86457 0.5 7.19922C1.10546 7.13471 1.57714 6.62257 1.57715 6C1.57692 5.37758 1.10537 4.86517 0.5 4.80078C0.644433 4.13552 0.90688 3.51464 1.26367 2.95996C1.73738 3.34202 2.43301 3.31308 2.87305 2.87305C3.31305 2.43301 3.34202 1.73737 2.95996 1.26367C3.51464 0.906903 4.13552 0.644413 4.80078 0.5C4.86522 1.10554 5.37834 1.57715 6.00098 1.57715C6.62333 1.57686 7.13482 1.10532 7.19922 0.5ZM6 3.02637C4.3579 3.02637 3.02637 4.3579 3.02637 6C3.02645 7.64204 4.35795 8.97266 6 8.97266C7.64205 8.97265 8.97355 7.64203 8.97363 6C8.97363 4.3579 7.6421 3.02637 6 3.02637ZM6 4.34961C6.91127 4.34961 7.65039 5.08873 7.65039 6C7.65039 6.91127 6.91127 7.65039 6 7.65039C5.08873 7.65039 4.34961 6.91127 4.34961 6C4.34961 5.08873 5.08873 4.34961 6 4.34961Z" fill="#FFE847"/></svg>