<svg width="24" height="24" viewBox="0 0 24 24" fill="none" xmlns="http://www.w3.org/2000/svg"><path d="M-1036 -404C-1036 -408.418 -1032.42 -412 -1028 -412H116C120.418 -412 124 -408.418 124 -404V1286C124 1290.42 120.418 1294 116 1294H-1028C-1032.42 1294 -1036 1290.42 -1036 1286V-404Z" fill="white"/><path d="M-1028 -412V-411H116V-412V-413H-1028V-412ZM124 -404H123V1286H124H125V-404H124ZM116 1294V1293H-1028V1294V1295H116V1294ZM-1036 1286H-1035V-404H-1036H-1037V1286H-1036ZM-1028 1294V1293C-1031.87 1293 -1035 1289.87 -1035 1286H-1036H-1037C-1037 1290.97 -1032.97 1295 -1028 1295V1294ZM124 1286H123C123 1289.87 119.866 1293 116 1293V1294V1295C120.971 1295 125 1290.97 125 1286H124ZM116 -412V-411C119.866 -411 123 -407.866 123 -404H124H125C125 -408.971 120.971 -413 116 -413V-412ZM-1028 -412V-413C-1032.97 -413 -1037 -408.971 -1037 -404H-1036H-1035C-1035 -407.866 -1031.87 -411 -1028 -411V-412Z" fill="#F1F1F1"/><path d="M8 15H16M9 9H9.01M15 9H15.01M22 12C22 17.5228 17.5228 22 12 22C6.47715 22 2 17.5228 2 12C2 6.47715 6.47715 2 12 2C17.5228 2 22 6.47715 22 12Z" stroke="#202020" stroke-width="1.8" stroke-linecap="round" stroke-linejoin="round"/></svg>