<svg width="32" height="32" viewBox="0 0 32 32" fill="none" xmlns="http://www.w3.org/2000/svg"><path d="M-1108 -428C-1108 -432.418 -1104.42 -436 -1100 -436H124C128.418 -436 132 -432.418 132 -428V1262C132 1266.42 128.418 1270 124 1270H-1100C-1104.42 1270 -1108 1266.42 -1108 1262V-428Z" fill="white"/><path d="M-1100 -436V-435H124V-436V-437H-1100V-436ZM132 -428H131V1262H132H133V-428H132ZM124 1270V1269H-1100V1270V1271H124V1270ZM-1108 1262H-1107V-428H-1108H-1109V1262H-1108ZM-1100 1270V1269C-1103.87 1269 -1107 1265.87 -1107 1262H-1108H-1109C-1109 1266.97 -1104.97 1271 -1100 1271V1270ZM132 1262H131C131 1265.87 127.866 1269 124 1269V1270V1271C128.971 1271 133 1266.97 133 1262H132ZM124 -436V-435C127.866 -435 131 -431.866 131 -428H132H133C133 -432.971 128.971 -437 124 -437V-436ZM-1100 -436V-437C-1104.97 -437 -1109 -432.971 -1109 -428H-1108H-1107C-1107 -431.866 -1103.87 -435 -1100 -435V-436Z" fill="#F1F1F1"/><path d="M10.6665 20H21.3332M11.9998 12H12.0132M19.9998 12H20.0132M29.3332 16C29.3332 23.3638 23.3636 29.3333 15.9998 29.3333C8.63604 29.3333 2.6665 23.3638 2.6665 16C2.6665 8.63619 8.63604 2.66666 15.9998 2.66666C23.3636 2.66666 29.3332 8.63619 29.3332 16Z" stroke="#202020" stroke-width="2.2" stroke-linecap="round" stroke-linejoin="round"/></svg>