<svg width="20" height="20" viewBox="0 0 20 20" fill="none" xmlns="http://www.w3.org/2000/svg"><path d="M-100 -492C-100 -496.418 -96.4183 -500 -92 -500H1012C1016.42 -500 1020 -496.418 1020 -492V1198C1020 1202.42 1016.42 1206 1012 1206H-92C-96.4183 1206 -100 1202.42 -100 1198V-492Z" fill="white"/><path d="M-92 -500V-499H1012V-500V-501H-92V-500ZM1020 -492H1019V1198H1020H1021V-492H1020ZM1012 1206V1205H-92V1206V1207H1012V1206ZM-100 1198H-99V-492H-100H-101V1198H-100ZM-92 1206V1205C-95.866 1205 -99 1201.87 -99 1198H-100H-101C-101 1202.97 -96.9706 1207 -92 1207V1206ZM1020 1198H1019C1019 1201.87 1015.87 1205 1012 1205V1206V1207C1016.97 1207 1021 1202.97 1021 1198H1020ZM1012 -500V-499C1015.87 -499 1019 -495.866 1019 -492H1020H1021C1021 -496.971 1016.97 -501 1012 -501V-500ZM-92 -500V-501C-96.9706 -501 -101 -496.971 -101 -492H-100H-99C-99 -495.866 -95.866 -499 -92 -499V-500Z" fill="#F1F1F1"/><path d="M2.5 10H17.5M2.5 5H17.5M2.5 15H17.5" stroke="#202020" stroke-width="1.5" stroke-linecap="round" stroke-linejoin="round"/></svg>