<svg width="16" height="16" viewBox="0 0 16 16" fill="none" xmlns="http://www.w3.org/2000/svg"><path d="M-100 -476C-100 -480.418 -96.4183 -484 -92 -484H972C976.418 -484 980 -480.418 980 -476V1178C980 1182.42 976.418 1186 972 1186H-92C-96.4183 1186 -100 1182.42 -100 1178V-476Z" fill="white"/><path d="M-92 -484V-483H972V-484V-485H-92V-484ZM980 -476H979V1178H980H981V-476H980ZM972 1186V1185H-92V1186V1187H972V1186ZM-100 1178H-99V-476H-100H-101V1178H-100ZM-92 1186V1185C-95.866 1185 -99 1181.87 -99 1178H-100H-101C-101 1182.97 -96.9705 1187 -92 1187V1186ZM980 1178H979C979 1181.87 975.866 1185 972 1185V1186V1187C976.971 1187 981 1182.97 981 1178H980ZM972 -484V-483C975.866 -483 979 -479.866 979 -476H980H981C981 -480.971 976.971 -485 972 -485V-484ZM-92 -484V-485C-96.9706 -485 -101 -480.971 -101 -476H-100H-99C-99 -479.866 -95.866 -483 -92 -483V-484Z" fill="#F1F1F1"/><path d="M2 8H14M2 4H14M2 12H14" stroke="#202020" stroke-width="1.3" stroke-linecap="round" stroke-linejoin="round"/></svg>