<svg width="24" height="24" viewBox="0 0 24 24" fill="none" xmlns="http://www.w3.org/2000/svg"><path d="M-100 -508C-100 -512.418 -96.4183 -516 -92 -516H1052C1056.42 -516 1060 -512.418 1060 -508V1182C1060 1186.42 1056.42 1190 1052 1190H-92C-96.4183 1190 -100 1186.42 -100 1182V-508Z" fill="white"/><path d="M-92 -516V-515H1052V-516V-517H-92V-516ZM1060 -508H1059V1182H1060H1061V-508H1060ZM1052 1190V1189H-92V1190V1191H1052V1190ZM-100 1182H-99V-508H-100H-101V1182H-100ZM-92 1190V1189C-95.866 1189 -99 1185.87 -99 1182H-100H-101C-101 1186.97 -96.9706 1191 -92 1191V1190ZM1060 1182H1059C1059 1185.87 1055.87 1189 1052 1189V1190V1191C1056.97 1191 1061 1186.97 1061 1182H1060ZM1052 -516V-515C1055.87 -515 1059 -511.866 1059 -508H1060H1061C1061 -512.971 1056.97 -517 1052 -517V-516ZM-92 -516V-517C-96.9706 -517 -101 -512.971 -101 -508H-100H-99C-99 -511.866 -95.866 -515 -92 -515V-516Z" fill="#F1F1F1"/><path d="M3 12H21M3 6H21M3 18H21" stroke="#202020" stroke-width="1.8" stroke-linecap="round" stroke-linejoin="round"/></svg>