<svg width="20" height="20" viewBox="0 0 20 20" fill="none" xmlns="http://www.w3.org/2000/svg"><path d="M-300 -492C-300 -496.418 -296.418 -500 -292 -500H812C816.418 -500 820 -496.418 820 -492V1198C820 1202.42 816.418 1206 812 1206H-292C-296.418 1206 -300 1202.42 -300 1198V-492Z" fill="white"/><path d="M-292 -500V-499H812V-500V-501H-292V-500ZM820 -492H819V1198H820H821V-492H820ZM812 1206V1205H-292V1206V1207H812V1206ZM-300 1198H-299V-492H-300H-301V1198H-300ZM-292 1206V1205C-295.866 1205 -299 1201.87 -299 1198H-300H-301C-301 1202.97 -296.971 1207 -292 1207V1206ZM820 1198H819C819 1201.87 815.866 1205 812 1205V1206V1207C816.971 1207 821 1202.97 821 1198H820ZM812 -500V-499C815.866 -499 819 -495.866 819 -492H820H821C821 -496.971 816.971 -501 812 -501V-500ZM-292 -500V-501C-296.971 -501 -301 -496.971 -301 -492H-300H-299C-299 -495.866 -295.866 -499 -292 -499V-500Z" fill="#F1F1F1"/><path d="M17.5 12.5C17.5 12.942 17.3244 13.366 17.0118 13.6785C16.6993 13.9911 16.2754 14.1667 15.8333 14.1667H5.83333L2.5 17.5V4.16667C2.5 3.72464 2.67559 3.30072 2.98816 2.98816C3.30072 2.67559 3.72464 2.5 4.16667 2.5H15.8333C16.2754 2.5 16.6993 2.67559 17.0118 2.98816C17.3244 3.30072 17.5 3.72464 17.5 4.16667V12.5Z" stroke="#202020" stroke-width="1.5" stroke-linecap="round" stroke-linejoin="round"/></svg>