<svg width="24" height="24" viewBox="0 0 24 24" fill="none" xmlns="http://www.w3.org/2000/svg"><path d="M-204 -508C-204 -512.418 -200.418 -516 -196 -516H948C952.418 -516 956 -512.418 956 -508V1182C956 1186.42 952.418 1190 948 1190H-196C-200.418 1190 -204 1186.42 -204 1182V-508Z" fill="white"/><path d="M-196 -516V-515H948V-516V-517H-196V-516ZM956 -508H955V1182H956H957V-508H956ZM948 1190V1189H-196V1190V1191H948V1190ZM-204 1182H-203V-508H-204H-205V1182H-204ZM-196 1190V1189C-199.866 1189 -203 1185.87 -203 1182H-204H-205C-205 1186.97 -200.971 1191 -196 1191V1190ZM956 1182H955C955 1185.87 951.866 1189 948 1189V1190V1191C952.971 1191 957 1186.97 957 1182H956ZM948 -516V-515C951.866 -515 955 -511.866 955 -508H956H957C957 -512.971 952.971 -517 948 -517V-516ZM-196 -516V-517C-200.971 -517 -205 -512.971 -205 -508H-204H-203C-203 -511.866 -199.866 -515 -196 -515V-516Z" fill="#F1F1F1"/><path d="M21 11.5C21.0034 12.8199 20.6951 14.1219 20.1 15.3C19.3944 16.7118 18.3098 17.8992 16.9674 18.7293C15.6251 19.5594 14.0782 19.9994 12.5 20C11.1801 20.0035 9.87812 19.6951 8.7 19.1L3 21L4.9 15.3C4.30493 14.1219 3.99656 12.8199 4 11.5C4.00061 9.92179 4.44061 8.37488 5.27072 7.03258C6.10083 5.69028 7.28825 4.6056 8.7 3.90003C9.87812 3.30496 11.1801 2.99659 12.5 3.00003H13C15.0843 3.11502 17.053 3.99479 18.5291 5.47089C20.0052 6.94699 20.885 8.91568 21 11V11.5Z" stroke="#202020" stroke-width="1.8" stroke-linecap="round" stroke-linejoin="round"/></svg>