<svg width="32" height="32" viewBox="0 0 32 32" fill="none" xmlns="http://www.w3.org/2000/svg"><path d="M-324 -540C-324 -544.418 -320.418 -548 -316 -548H908C912.418 -548 916 -544.418 916 -540V1150C916 1154.42 912.418 1158 908 1158H-316C-320.418 1158 -324 1154.42 -324 1150V-540Z" fill="white"/><path d="M-316 -548V-547H908V-548V-549H-316V-548ZM916 -540H915V1150H916H917V-540H916ZM908 1158V1157H-316V1158V1159H908V1158ZM-324 1150H-323V-540H-324H-325V1150H-324ZM-316 1158V1157C-319.866 1157 -323 1153.87 -323 1150H-324H-325C-325 1154.97 -320.971 1159 -316 1159V1158ZM916 1150H915C915 1153.87 911.866 1157 908 1157V1158V1159C912.971 1159 917 1154.97 917 1150H916ZM908 -548V-547C911.866 -547 915 -543.866 915 -540H916H917C917 -544.971 912.971 -549 908 -549V-548ZM-316 -548V-549C-320.971 -549 -325 -544.971 -325 -540H-324H-323C-323 -543.866 -319.866 -547 -316 -547V-548Z" fill="#F1F1F1"/><path d="M28 20C28 20.7072 27.719 21.3855 27.219 21.8856C26.7189 22.3857 26.0406 22.6667 25.3333 22.6667H9.33333L4 28V6.66667C4 5.95942 4.28095 5.28115 4.78105 4.78105C5.28115 4.28095 5.95942 4 6.66667 4H25.3333C26.0406 4 26.7189 4.28095 27.219 4.78105C27.719 5.28115 28 5.95942 28 6.66667V20Z" stroke="#202020" stroke-width="2.2" stroke-linecap="round" stroke-linejoin="round"/></svg>