<svg width="16" height="16" viewBox="0 0 16 16" fill="none" xmlns="http://www.w3.org/2000/svg"><path d="M-292 -476C-292 -480.418 -288.418 -484 -284 -484H780C784.418 -484 788 -480.418 788 -476V1178C788 1182.42 784.418 1186 780 1186H-284C-288.418 1186 -292 1182.42 -292 1178V-476Z" fill="white"/><path d="M-284 -484V-483H780V-484V-485H-284V-484ZM788 -476H787V1178H788H789V-476H788ZM780 1186V1185H-284V1186V1187H780V1186ZM-292 1178H-291V-476H-292H-293V1178H-292ZM-284 1186V1185C-287.866 1185 -291 1181.87 -291 1178H-292H-293C-293 1182.97 -288.971 1187 -284 1187V1186ZM788 1178H787C787 1181.87 783.866 1185 780 1185V1186V1187C784.971 1187 789 1182.97 789 1178H788ZM780 -484V-483C783.866 -483 787 -479.866 787 -476H788H789C789 -480.971 784.971 -485 780 -485V-484ZM-284 -484V-485C-288.971 -485 -293 -480.971 -293 -476H-292H-291C-291 -479.866 -287.866 -483 -284 -483V-484Z" fill="#F1F1F1"/><path d="M14 10C14 10.3536 13.8595 10.6928 13.6095 10.9428C13.3594 11.1929 13.0203 11.3333 12.6667 11.3333H4.66667L2 14V3.33333C2 2.97971 2.14048 2.64057 2.39052 2.39052C2.64057 2.14048 2.97971 2 3.33333 2H12.6667C13.0203 2 13.3594 2.14048 13.6095 2.39052C13.8595 2.64057 14 2.97971 14 3.33333V10Z" stroke="#202020" stroke-width="1.3" stroke-linecap="round" stroke-linejoin="round"/></svg>