<svg width="16" height="16" viewBox="0 0 16 16" fill="none" xmlns="http://www.w3.org/2000/svg"><path d="M-196 -476C-196 -480.418 -192.418 -484 -188 -484H876C880.418 -484 884 -480.418 884 -476V1178C884 1182.42 880.418 1186 876 1186H-188C-192.418 1186 -196 1182.42 -196 1178V-476Z" fill="white"/><path d="M-188 -484V-483H876V-484V-485H-188V-484ZM884 -476H883V1178H884H885V-476H884ZM876 1186V1185H-188V1186V1187H876V1186ZM-196 1178H-195V-476H-196H-197V1178H-196ZM-188 1186V1185C-191.866 1185 -195 1181.87 -195 1178H-196H-197C-197 1182.97 -192.971 1187 -188 1187V1186ZM884 1178H883C883 1181.87 879.866 1185 876 1185V1186V1187C880.971 1187 885 1182.97 885 1178H884ZM876 -484V-483C879.866 -483 883 -479.866 883 -476H884H885C885 -480.971 880.971 -485 876 -485V-484ZM-188 -484V-485C-192.971 -485 -197 -480.971 -197 -476H-196H-195C-195 -479.866 -191.866 -483 -188 -483V-484Z" fill="#F1F1F1"/><path d="M14 7.66666C14.0023 8.54657 13.7967 9.41458 13.4 10.2C12.9296 11.1412 12.2065 11.9328 11.3116 12.4862C10.4168 13.0396 9.3855 13.3329 8.33333 13.3333C7.45342 13.3356 6.58541 13.13 5.8 12.7333L2 14L3.26667 10.2C2.86995 9.41458 2.66437 8.54657 2.66667 7.66666C2.66707 6.61449 2.96041 5.58322 3.51381 4.68836C4.06722 3.79349 4.85884 3.07037 5.8 2.59999C6.58541 2.20328 7.45342 1.99769 8.33333 1.99999H8.66667C10.0562 2.07665 11.3687 2.66316 12.3528 3.64723C13.3368 4.63129 13.9233 5.94376 14 7.33332V7.66666Z" stroke="#202020" stroke-width="1.3" stroke-linecap="round" stroke-linejoin="round"/></svg>