<svg width="20" height="20" viewBox="0 0 20 20" fill="none" xmlns="http://www.w3.org/2000/svg"><path d="M-400 -492C-400 -496.418 -396.418 -500 -392 -500H712C716.418 -500 720 -496.418 720 -492V1198C720 1202.42 716.418 1206 712 1206H-392C-396.418 1206 -400 1202.42 -400 1198V-492Z" fill="white"/><path d="M-392 -500V-499H712V-500V-501H-392V-500ZM720 -492H719V1198H720H721V-492H720ZM712 1206V1205H-392V1206V1207H712V1206ZM-400 1198H-399V-492H-400H-401V1198H-400ZM-392 1206V1205C-395.866 1205 -399 1201.87 -399 1198H-400H-401C-401 1202.97 -396.971 1207 -392 1207V1206ZM720 1198H719C719 1201.87 715.866 1205 712 1205V1206V1207C716.971 1207 721 1202.97 721 1198H720ZM712 -500V-499C715.866 -499 719 -495.866 719 -492H720H721C721 -496.971 716.971 -501 712 -501V-500ZM-392 -500V-501C-396.971 -501 -401 -496.971 -401 -492H-400H-399C-399 -495.866 -395.866 -499 -392 -499V-500Z" fill="#F1F1F1"/><path d="M3.33333 11.6667H8.33333M8.33333 11.6667V16.6667M8.33333 11.6667L2.5 17.5M16.6667 8.33333H11.6667M11.6667 8.33333V3.33333M11.6667 8.33333L17.5 2.5" stroke="#202020" stroke-width="1.5" stroke-linecap="round" stroke-linejoin="round"/></svg>