<svg width="16" height="16" viewBox="0 0 16 16" fill="none" xmlns="http://www.w3.org/2000/svg"><path d="M-388 -476C-388 -480.418 -384.418 -484 -380 -484H684C688.418 -484 692 -480.418 692 -476V1178C692 1182.42 688.418 1186 684 1186H-380C-384.418 1186 -388 1182.42 -388 1178V-476Z" fill="white"/><path d="M-380 -484V-483H684V-484V-485H-380V-484ZM692 -476H691V1178H692H693V-476H692ZM684 1186V1185H-380V1186V1187H684V1186ZM-388 1178H-387V-476H-388H-389V1178H-388ZM-380 1186V1185C-383.866 1185 -387 1181.87 -387 1178H-388H-389C-389 1182.97 -384.971 1187 -380 1187V1186ZM692 1178H691C691 1181.87 687.866 1185 684 1185V1186V1187C688.971 1187 693 1182.97 693 1178H692ZM684 -484V-483C687.866 -483 691 -479.866 691 -476H692H693C693 -480.971 688.971 -485 684 -485V-484ZM-380 -484V-485C-384.971 -485 -389 -480.971 -389 -476H-388H-387C-387 -479.866 -383.866 -483 -380 -483V-484Z" fill="#F1F1F1"/><path d="M2.66667 9.33333H6.66667M6.66667 9.33333V13.3333M6.66667 9.33333L2 14M13.3333 6.66667H9.33333M9.33333 6.66667V2.66667M9.33333 6.66667L14 2" stroke="#202020" stroke-width="1.3" stroke-linecap="round" stroke-linejoin="round"/></svg>