<svg width="24" height="24" viewBox="0 0 24 24" fill="none" xmlns="http://www.w3.org/2000/svg"><path d="M-412 -508C-412 -512.418 -408.418 -516 -404 -516H740C744.418 -516 748 -512.418 748 -508V1182C748 1186.42 744.418 1190 740 1190H-404C-408.418 1190 -412 1186.42 -412 1182V-508Z" fill="white"/><path d="M-404 -516V-515H740V-516V-517H-404V-516ZM748 -508H747V1182H748H749V-508H748ZM740 1190V1189H-404V1190V1191H740V1190ZM-412 1182H-411V-508H-412H-413V1182H-412ZM-404 1190V1189C-407.866 1189 -411 1185.87 -411 1182H-412H-413C-413 1186.97 -408.971 1191 -404 1191V1190ZM748 1182H747C747 1185.87 743.866 1189 740 1189V1190V1191C744.971 1191 749 1186.97 749 1182H748ZM740 -516V-515C743.866 -515 747 -511.866 747 -508H748H749C749 -512.971 744.971 -517 740 -517V-516ZM-404 -516V-517C-408.971 -517 -413 -512.971 -413 -508H-412H-411C-411 -511.866 -407.866 -515 -404 -515V-516Z" fill="#F1F1F1"/><path d="M4 14H10M10 14V20M10 14L3 21M20 10H14M14 10V4M14 10L21 3" stroke="#202020" stroke-width="1.8" stroke-linecap="round" stroke-linejoin="round"/></svg>