<svg width="32" height="32" viewBox="0 0 32 32" fill="none" xmlns="http://www.w3.org/2000/svg"><path d="M-660 -540C-660 -544.418 -656.418 -548 -652 -548H572C576.418 -548 580 -544.418 580 -540V1150C580 1154.42 576.418 1158 572 1158H-652C-656.418 1158 -660 1154.42 -660 1150V-540Z" fill="white"/><path d="M-652 -548V-547H572V-548V-549H-652V-548ZM580 -540H579V1150H580H581V-540H580ZM572 1158V1157H-652V1158V1159H572V1158ZM-660 1150H-659V-540H-660H-661V1150H-660ZM-652 1158V1157C-655.866 1157 -659 1153.87 -659 1150H-660H-661C-661 1154.97 -656.971 1159 -652 1159V1158ZM580 1150H579C579 1153.87 575.866 1157 572 1157V1158V1159C576.971 1159 581 1154.97 581 1150H580ZM572 -548V-547C575.866 -547 579 -543.866 579 -540H580H581C581 -544.971 576.971 -549 572 -549V-548ZM-652 -548V-549C-656.971 -549 -661 -544.971 -661 -540H-660H-659C-659 -543.866 -655.866 -547 -652 -547V-548Z" fill="#F1F1F1"/><path d="M6.66675 16H25.3334" stroke="#202020" stroke-width="2.2" stroke-linecap="round" stroke-linejoin="round"/></svg>