<svg width="16" height="16" viewBox="0 0 16 16" fill="none" xmlns="http://www.w3.org/2000/svg"><path d="M-580 -476C-580 -480.418 -576.418 -484 -572 -484H492C496.418 -484 500 -480.418 500 -476V1178C500 1182.42 496.418 1186 492 1186H-572C-576.418 1186 -580 1182.42 -580 1178V-476Z" fill="white"/><path d="M-572 -484V-483H492V-484V-485H-572V-484ZM500 -476H499V1178H500H501V-476H500ZM492 1186V1185H-572V1186V1187H492V1186ZM-580 1178H-579V-476H-580H-581V1178H-580ZM-572 1186V1185C-575.866 1185 -579 1181.87 -579 1178H-580H-581C-581 1182.97 -576.971 1187 -572 1187V1186ZM500 1178H499C499 1181.87 495.866 1185 492 1185V1186V1187C496.971 1187 501 1182.97 501 1178H500ZM492 -484V-483C495.866 -483 499 -479.866 499 -476H500H501C501 -480.971 496.971 -485 492 -485V-484ZM-572 -484V-485C-576.971 -485 -581 -480.971 -581 -476H-580H-579C-579 -479.866 -575.866 -483 -572 -483V-484Z" fill="#F1F1F1"/><path d="M3.72754 8H12.2731" stroke="#202020" stroke-width="1.3" stroke-linecap="round" stroke-linejoin="round"/></svg>