<svg width="20" height="20" viewBox="0 0 20 20" fill="none" xmlns="http://www.w3.org/2000/svg"><path d="M-600 -492C-600 -496.418 -596.418 -500 -592 -500H512C516.418 -500 520 -496.418 520 -492V1198C520 1202.42 516.418 1206 512 1206H-592C-596.418 1206 -600 1202.42 -600 1198V-492Z" fill="white"/><path d="M-592 -500V-499H512V-500V-501H-592V-500ZM520 -492H519V1198H520H521V-492H520ZM512 1206V1205H-592V1206V1207H512V1206ZM-600 1198H-599V-492H-600H-601V1198H-600ZM-592 1206V1205C-595.866 1205 -599 1201.87 -599 1198H-600H-601C-601 1202.97 -596.971 1207 -592 1207V1206ZM520 1198H519C519 1201.87 515.866 1205 512 1205V1206V1207C516.971 1207 521 1202.97 521 1198H520ZM512 -500V-499C515.866 -499 519 -495.866 519 -492H520H521C521 -496.971 516.971 -501 512 -501V-500ZM-592 -500V-501C-596.971 -501 -601 -496.971 -601 -492H-600H-599C-599 -495.866 -595.866 -499 -592 -499V-500Z" fill="#F1F1F1"/><path d="M4.1665 10H15.8332" stroke="#202020" stroke-width="1.5" stroke-linecap="round" stroke-linejoin="round"/></svg>