<svg width="32" height="32" viewBox="0 0 32 32" fill="none" xmlns="http://www.w3.org/2000/svg"><path d="M-548 -540C-548 -544.418 -544.418 -548 -540 -548H684C688.418 -548 692 -544.418 692 -540V1150C692 1154.42 688.418 1158 684 1158H-540C-544.418 1158 -548 1154.42 -548 1150V-540Z" fill="white"/><path d="M-540 -548V-547H684V-548V-549H-540V-548ZM692 -540H691V1150H692H693V-540H692ZM684 1158V1157H-540V1158V1159H684V1158ZM-548 1150H-547V-540H-548H-549V1150H-548ZM-540 1158V1157C-543.866 1157 -547 1153.87 -547 1150H-548H-549C-549 1154.97 -544.971 1159 -540 1159V1158ZM692 1150H691C691 1153.87 687.866 1157 684 1157V1158V1159C688.971 1159 693 1154.97 693 1150H692ZM684 -548V-547C687.866 -547 691 -543.866 691 -540H692H693C693 -544.971 688.971 -549 684 -549V-548ZM-540 -548V-549C-544.971 -549 -549 -544.971 -549 -540H-548H-547C-547 -543.866 -543.866 -547 -540 -547V-548Z" fill="#F1F1F1"/><path d="M10.6667 16H21.3334M29.3334 16C29.3334 23.3638 23.3639 29.3334 16.0001 29.3334C8.63628 29.3334 2.66675 23.3638 2.66675 16C2.66675 8.63622 8.63628 2.66669 16.0001 2.66669C23.3639 2.66669 29.3334 8.63622 29.3334 16Z" stroke="#202020" stroke-width="2.2" stroke-linecap="round" stroke-linejoin="round"/></svg>