<svg width="16" height="16" viewBox="0 0 16 16" fill="none" xmlns="http://www.w3.org/2000/svg"><path d="M-484 -476C-484 -480.418 -480.418 -484 -476 -484H588C592.418 -484 596 -480.418 596 -476V1178C596 1182.42 592.418 1186 588 1186H-476C-480.418 1186 -484 1182.42 -484 1178V-476Z" fill="white"/><path d="M-476 -484V-483H588V-484V-485H-476V-484ZM596 -476H595V1178H596H597V-476H596ZM588 1186V1185H-476V1186V1187H588V1186ZM-484 1178H-483V-476H-484H-485V1178H-484ZM-476 1186V1185C-479.866 1185 -483 1181.87 -483 1178H-484H-485C-485 1182.97 -480.971 1187 -476 1187V1186ZM596 1178H595C595 1181.87 591.866 1185 588 1185V1186V1187C592.971 1187 597 1182.97 597 1178H596ZM588 -484V-483C591.866 -483 595 -479.866 595 -476H596H597C597 -480.971 592.971 -485 588 -485V-484ZM-476 -484V-485C-480.971 -485 -485 -480.971 -485 -476H-484H-483C-483 -479.866 -479.866 -483 -476 -483V-484Z" fill="#F1F1F1"/><path d="M5.3335 8.00001H10.6668M14.6668 8.00001C14.6668 11.6819 11.6821 14.6667 8.00016 14.6667C4.31826 14.6667 1.3335 11.6819 1.3335 8.00001C1.3335 4.31811 4.31826 1.33334 8.00016 1.33334C11.6821 1.33334 14.6668 4.31811 14.6668 8.00001Z" stroke="#202020" stroke-width="1.3" stroke-linecap="round" stroke-linejoin="round"/><defs><clipPath id="clip0_7809_18809"><rect width="16" height="16" fill="white"/></clipPath></defs></svg>