<svg width="20" height="20" viewBox="0 0 20 20" fill="none" xmlns="http://www.w3.org/2000/svg"><path d="M-500 -492C-500 -496.418 -496.418 -500 -492 -500H612C616.418 -500 620 -496.418 620 -492V1198C620 1202.42 616.418 1206 612 1206H-492C-496.418 1206 -500 1202.42 -500 1198V-492Z" fill="white"/><path d="M-492 -500V-499H612V-500V-501H-492V-500ZM620 -492H619V1198H620H621V-492H620ZM612 1206V1205H-492V1206V1207H612V1206ZM-500 1198H-499V-492H-500H-501V1198H-500ZM-492 1206V1205C-495.866 1205 -499 1201.87 -499 1198H-500H-501C-501 1202.97 -496.971 1207 -492 1207V1206ZM620 1198H619C619 1201.87 615.866 1205 612 1205V1206V1207C616.971 1207 621 1202.97 621 1198H620ZM612 -500V-499C615.866 -499 619 -495.866 619 -492H620H621C621 -496.971 616.971 -501 612 -501V-500ZM-492 -500V-501C-496.971 -501 -501 -496.971 -501 -492H-500H-499C-499 -495.866 -495.866 -499 -492 -499V-500Z" fill="#F1F1F1"/><path d="M6.6665 9.99999H13.3332M18.3332 9.99999C18.3332 14.6024 14.6022 18.3333 9.99984 18.3333C5.39746 18.3333 1.6665 14.6024 1.6665 9.99999C1.6665 5.39762 5.39746 1.66666 9.99984 1.66666C14.6022 1.66666 18.3332 5.39762 18.3332 9.99999Z" stroke="#202020" stroke-width="1.5" stroke-linecap="round" stroke-linejoin="round"/><defs><clipPath id="clip0_7809_18809"><rect width="20" height="20" fill="white"/></clipPath></defs></svg>