<svg width="32" height="32" viewBox="0 0 32 32" fill="none" xmlns="http://www.w3.org/2000/svg"><path d="M-772 -540C-772 -544.418 -768.418 -548 -764 -548H460C464.418 -548 468 -544.418 468 -540V1150C468 1154.42 464.418 1158 460 1158H-764C-768.418 1158 -772 1154.42 -772 1150V-540Z" fill="white"/><path d="M-764 -548V-547H460V-548V-549H-764V-548ZM468 -540H467V1150H468H469V-540H468ZM460 1158V1157H-764V1158V1159H460V1158ZM-772 1150H-771V-540H-772H-773V1150H-772ZM-764 1158V1157C-767.866 1157 -771 1153.87 -771 1150H-772H-773C-773 1154.97 -768.971 1159 -764 1159V1158ZM468 1150H467C467 1153.87 463.866 1157 460 1157V1158V1159C464.971 1159 469 1154.97 469 1150H468ZM460 -548V-547C463.866 -547 467 -543.866 467 -540H468H469C469 -544.971 464.971 -549 460 -549V-548ZM-764 -548V-549C-768.971 -549 -773 -544.971 -773 -540H-772H-771C-771 -543.866 -767.866 -547 -764 -547V-548Z" fill="#F1F1F1"/><path d="M28.0001 17.0533C27.7904 19.3229 26.9386 21.4859 25.5444 23.2891C24.1503 25.0922 22.2714 26.4611 20.1277 27.2354C17.984 28.0097 15.6641 28.1575 13.4394 27.6615C11.2148 27.1654 9.17744 26.0461 7.56575 24.4344C5.95405 22.8227 4.8347 20.7853 4.33866 18.5607C3.84261 16.336 3.9904 14.0161 4.76473 11.8724C5.53905 9.72868 6.90789 7.84982 8.71106 6.45567C10.5142 5.06152 12.6772 4.20974 14.9468 4C13.618 5.79769 12.9786 8.0126 13.1448 10.2419C13.3111 12.4712 14.2719 14.5667 15.8526 16.1475C17.4334 17.7282 19.5289 18.689 21.7582 18.8553C23.9875 19.0215 26.2024 18.3821 28.0001 17.0533Z" stroke="#202020" stroke-width="2.2" stroke-linecap="round" stroke-linejoin="round"/></svg>