<svg width="16" height="16" viewBox="0 0 16 16" fill="none" xmlns="http://www.w3.org/2000/svg"><path d="M-676 -476C-676 -480.418 -672.418 -484 -668 -484H396C400.418 -484 404 -480.418 404 -476V1178C404 1182.42 400.418 1186 396 1186H-668C-672.418 1186 -676 1182.42 -676 1178V-476Z" fill="white"/><path d="M-668 -484V-483H396V-484V-485H-668V-484ZM404 -476H403V1178H404H405V-476H404ZM396 1186V1185H-668V1186V1187H396V1186ZM-676 1178H-675V-476H-676H-677V1178H-676ZM-668 1186V1185C-671.866 1185 -675 1181.87 -675 1178H-676H-677C-677 1182.97 -672.971 1187 -668 1187V1186ZM404 1178H403C403 1181.87 399.866 1185 396 1185V1186V1187C400.971 1187 405 1182.97 405 1178H404ZM396 -484V-483C399.866 -483 403 -479.866 403 -476H404H405C405 -480.971 400.971 -485 396 -485V-484ZM-668 -484V-485C-672.971 -485 -677 -480.971 -677 -476H-676H-675C-675 -479.866 -671.866 -483 -668 -483V-484Z" fill="#F1F1F1"/><path d="M13.9999 8.52667C13.8951 9.66147 13.4692 10.7429 12.7721 11.6445C12.075 12.5461 11.1356 13.2305 10.0637 13.6177C8.99188 14.0049 7.83192 14.0787 6.7196 13.8307C5.60728 13.5827 4.5886 13.023 3.78275 12.2172C2.97691 11.4113 2.41723 10.3927 2.16921 9.28033C1.92118 8.16801 1.99508 7.00806 2.38224 5.9362C2.7694 4.86434 3.45382 3.92491 4.35541 3.22784C5.257 2.53076 6.33846 2.10487 7.47327 2C6.80888 2.89884 6.48917 4.0063 6.57229 5.12094C6.65541 6.23559 7.13584 7.28337 7.9262 8.07373C8.71656 8.86409 9.76435 9.34452 10.879 9.42764C11.9936 9.51077 13.1011 9.19106 13.9999 8.52667Z" stroke="#202020" stroke-width="1.3" stroke-linecap="round" stroke-linejoin="round"/></svg>