<svg width="20" height="20" viewBox="0 0 20 20" fill="none" xmlns="http://www.w3.org/2000/svg"><path d="M-900 -492C-900 -496.418 -896.418 -500 -892 -500H212C216.418 -500 220 -496.418 220 -492V1198C220 1202.42 216.418 1206 212 1206H-892C-896.418 1206 -900 1202.42 -900 1198V-492Z" fill="white"/><path d="M-892 -500V-499H212V-500V-501H-892V-500ZM220 -492H219V1198H220H221V-492H220ZM212 1206V1205H-892V1206V1207H212V1206ZM-900 1198H-899V-492H-900H-901V1198H-900ZM-892 1206V1205C-895.866 1205 -899 1201.87 -899 1198H-900H-901C-901 1202.97 -896.971 1207 -892 1207V1206ZM220 1198H219C219 1201.87 215.866 1205 212 1205V1206V1207C216.971 1207 221 1202.97 221 1198H220ZM212 -500V-499C215.866 -499 219 -495.866 219 -492H220H221C221 -496.971 216.971 -501 212 -501V-500ZM-892 -500V-501C-896.971 -501 -901 -496.971 -901 -492H-900H-899C-899 -495.866 -895.866 -499 -892 -499V-500Z" fill="#F1F1F1"/><path d="M9.99984 10.8333C10.4601 10.8333 10.8332 10.4602 10.8332 10C10.8332 9.53977 10.4601 9.16668 9.99984 9.16668C9.5396 9.16668 9.1665 9.53977 9.1665 10C9.1665 10.4602 9.5396 10.8333 9.99984 10.8333Z" stroke="#202020" stroke-width="1.5" stroke-linecap="round" stroke-linejoin="round"/><path d="M9.99984 5.00001C10.4601 5.00001 10.8332 4.62691 10.8332 4.16668C10.8332 3.70644 10.4601 3.33334 9.99984 3.33334C9.5396 3.33334 9.1665 3.70644 9.1665 4.16668C9.1665 4.62691 9.5396 5.00001 9.99984 5.00001Z" stroke="#202020" stroke-width="1.5" stroke-linecap="round" stroke-linejoin="round"/><path d="M9.99984 16.6667C10.4601 16.6667 10.8332 16.2936 10.8332 15.8333C10.8332 15.3731 10.4601 15 9.99984 15C9.5396 15 9.1665 15.3731 9.1665 15.8333C9.1665 16.2936 9.5396 16.6667 9.99984 16.6667Z" stroke="#202020" stroke-width="1.5" stroke-linecap="round" stroke-linejoin="round"/></svg>