<svg width="16" height="16" viewBox="0 0 16 16" fill="none" xmlns="http://www.w3.org/2000/svg"><path d="M-868 -476C-868 -480.418 -864.418 -484 -860 -484H204C208.418 -484 212 -480.418 212 -476V1178C212 1182.42 208.418 1186 204 1186H-860C-864.418 1186 -868 1182.42 -868 1178V-476Z" fill="white"/><path d="M-860 -484V-483H204V-484V-485H-860V-484ZM212 -476H211V1178H212H213V-476H212ZM204 1186V1185H-860V1186V1187H204V1186ZM-868 1178H-867V-476H-868H-869V1178H-868ZM-860 1186V1185C-863.866 1185 -867 1181.87 -867 1178H-868H-869C-869 1182.97 -864.971 1187 -860 1187V1186ZM212 1178H211C211 1181.87 207.866 1185 204 1185V1186V1187C208.971 1187 213 1182.97 213 1178H212ZM204 -484V-483C207.866 -483 211 -479.866 211 -476H212H213C213 -480.971 208.971 -485 204 -485V-484ZM-860 -484V-485C-864.971 -485 -869 -480.971 -869 -476H-868H-867C-867 -479.866 -863.866 -483 -860 -483V-484Z" fill="#F1F1F1"/><path d="M8.00016 8.66666C8.36835 8.66666 8.66683 8.36818 8.66683 7.99999C8.66683 7.6318 8.36835 7.33332 8.00016 7.33332C7.63197 7.33332 7.3335 7.6318 7.3335 7.99999C7.3335 8.36818 7.63197 8.66666 8.00016 8.66666Z" stroke="#202020" stroke-width="1.3" stroke-linecap="round" stroke-linejoin="round"/><path d="M8.00016 3.99999C8.36835 3.99999 8.66683 3.70151 8.66683 3.33332C8.66683 2.96513 8.36835 2.66666 8.00016 2.66666C7.63197 2.66666 7.3335 2.96513 7.3335 3.33332C7.3335 3.70151 7.63197 3.99999 8.00016 3.99999Z" stroke="#202020" stroke-width="1.3" stroke-linecap="round" stroke-linejoin="round"/><path d="M8.00016 13.3333C8.36835 13.3333 8.66683 13.0348 8.66683 12.6667C8.66683 12.2985 8.36835 12 8.00016 12C7.63197 12 7.3335 12.2985 7.3335 12.6667C7.3335 13.0348 7.63197 13.3333 8.00016 13.3333Z" stroke="#202020" stroke-width="1.3" stroke-linecap="round" stroke-linejoin="round"/></svg>