<svg width="20" height="20" viewBox="0 0 20 20" fill="none" xmlns="http://www.w3.org/2000/svg"><path d="M-800 -492C-800 -496.418 -796.418 -500 -792 -500H312C316.418 -500 320 -496.418 320 -492V1198C320 1202.42 316.418 1206 312 1206H-792C-796.418 1206 -800 1202.42 -800 1198V-492Z" fill="white"/><path d="M-792 -500V-499H312V-500V-501H-792V-500ZM320 -492H319V1198H320H321V-492H320ZM312 1206V1205H-792V1206V1207H312V1206ZM-800 1198H-799V-492H-800H-801V1198H-800ZM-792 1206V1205C-795.866 1205 -799 1201.87 -799 1198H-800H-801C-801 1202.97 -796.971 1207 -792 1207V1206ZM320 1198H319C319 1201.87 315.866 1205 312 1205V1206V1207C316.971 1207 321 1202.97 321 1198H320ZM312 -500V-499C315.866 -499 319 -495.866 319 -492H320H321C321 -496.971 316.971 -501 312 -501V-500ZM-792 -500V-501C-796.971 -501 -801 -496.971 -801 -492H-800H-799C-799 -495.866 -795.866 -499 -792 -499V-500Z" fill="#F1F1F1"/><path d="M10.0002 10.8333C10.4604 10.8333 10.8335 10.4602 10.8335 9.99999C10.8335 9.53975 10.4604 9.16666 10.0002 9.16666C9.53993 9.16666 9.16683 9.53975 9.16683 9.99999C9.16683 10.4602 9.53993 10.8333 10.0002 10.8333Z" stroke="#202020" stroke-width="1.5" stroke-linecap="round" stroke-linejoin="round"/><path d="M15.8335 10.8333C16.2937 10.8333 16.6668 10.4602 16.6668 9.99999C16.6668 9.53975 16.2937 9.16666 15.8335 9.16666C15.3733 9.16666 15.0002 9.53975 15.0002 9.99999C15.0002 10.4602 15.3733 10.8333 15.8335 10.8333Z" stroke="#202020" stroke-width="1.5" stroke-linecap="round" stroke-linejoin="round"/><path d="M4.16683 10.8333C4.62707 10.8333 5.00016 10.4602 5.00016 9.99999C5.00016 9.53975 4.62707 9.16666 4.16683 9.16666C3.70659 9.16666 3.3335 9.53975 3.3335 9.99999C3.3335 10.4602 3.70659 10.8333 4.16683 10.8333Z" stroke="#202020" stroke-width="1.5" stroke-linecap="round" stroke-linejoin="round"/></svg>