<svg width="16" height="16" viewBox="0 0 16 16" fill="none" xmlns="http://www.w3.org/2000/svg"><path d="M-772 -476C-772 -480.418 -768.418 -484 -764 -484H300C304.418 -484 308 -480.418 308 -476V1178C308 1182.42 304.418 1186 300 1186H-764C-768.418 1186 -772 1182.42 -772 1178V-476Z" fill="white"/><path d="M-764 -484V-483H300V-484V-485H-764V-484ZM308 -476H307V1178H308H309V-476H308ZM300 1186V1185H-764V1186V1187H300V1186ZM-772 1178H-771V-476H-772H-773V1178H-772ZM-764 1186V1185C-767.866 1185 -771 1181.87 -771 1178H-772H-773C-773 1182.97 -768.971 1187 -764 1187V1186ZM308 1178H307C307 1181.87 303.866 1185 300 1185V1186V1187C304.971 1187 309 1182.97 309 1178H308ZM300 -484V-483C303.866 -483 307 -479.866 307 -476H308H309C309 -480.971 304.971 -485 300 -485V-484ZM-764 -484V-485C-768.971 -485 -773 -480.971 -773 -476H-772H-771C-771 -479.866 -767.866 -483 -764 -483V-484Z" fill="#F1F1F1"/><path d="M7.99984 8.66668C8.36803 8.66668 8.6665 8.3682 8.6665 8.00001C8.6665 7.63182 8.36803 7.33334 7.99984 7.33334C7.63165 7.33334 7.33317 7.63182 7.33317 8.00001C7.33317 8.3682 7.63165 8.66668 7.99984 8.66668Z" stroke="#202020" stroke-width="1.3" stroke-linecap="round" stroke-linejoin="round"/><path d="M12.6665 8.66668C13.0347 8.66668 13.3332 8.3682 13.3332 8.00001C13.3332 7.63182 13.0347 7.33334 12.6665 7.33334C12.2983 7.33334 11.9998 7.63182 11.9998 8.00001C11.9998 8.3682 12.2983 8.66668 12.6665 8.66668Z" stroke="#202020" stroke-width="1.3" stroke-linecap="round" stroke-linejoin="round"/><path d="M3.33317 8.66668C3.70136 8.66668 3.99984 8.3682 3.99984 8.00001C3.99984 7.63182 3.70136 7.33334 3.33317 7.33334C2.96498 7.33334 2.6665 7.63182 2.6665 8.00001C2.6665 8.3682 2.96498 8.66668 3.33317 8.66668Z" stroke="#202020" stroke-width="1.3" stroke-linecap="round" stroke-linejoin="round"/></svg>