<svg width="24" height="24" viewBox="0 0 24 24" fill="none" xmlns="http://www.w3.org/2000/svg"><path d="M-932 -508C-932 -512.418 -928.418 -516 -924 -516H220C224.418 -516 228 -512.418 228 -508V1182C228 1186.42 224.418 1190 220 1190H-924C-928.418 1190 -932 1186.42 -932 1182V-508Z" fill="white"/><path d="M-924 -516V-515H220V-516V-517H-924V-516ZM228 -508H227V1182H228H229V-508H228ZM220 1190V1189H-924V1190V1191H220V1190ZM-932 1182H-931V-508H-932H-933V1182H-932ZM-924 1190V1189C-927.866 1189 -931 1185.87 -931 1182H-932H-933C-933 1186.97 -928.971 1191 -924 1191V1190ZM228 1182H227C227 1185.87 223.866 1189 220 1189V1190V1191C224.971 1191 229 1186.97 229 1182H228ZM220 -516V-515C223.866 -515 227 -511.866 227 -508H228H229C229 -512.971 224.971 -517 220 -517V-516ZM-924 -516V-517C-928.971 -517 -933 -512.971 -933 -508H-932H-931C-931 -511.866 -927.866 -515 -924 -515V-516Z" fill="#F1F1F1"/><path d="M12 13C12.5523 13 13 12.5523 13 12C13 11.4477 12.5523 11 12 11C11.4477 11 11 11.4477 11 12C11 12.5523 11.4477 13 12 13Z" stroke="#202020" stroke-width="1.8" stroke-linecap="round" stroke-linejoin="round"/><path d="M12 6C12.5523 6 13 5.55228 13 5C13 4.44772 12.5523 4 12 4C11.4477 4 11 4.44772 11 5C11 5.55228 11.4477 6 12 6Z" stroke="#202020" stroke-width="1.8" stroke-linecap="round" stroke-linejoin="round"/><path d="M12 20C12.5523 20 13 19.5523 13 19C13 18.4477 12.5523 18 12 18C11.4477 18 11 18.4477 11 19C11 19.5523 11.4477 20 12 20Z" stroke="#202020" stroke-width="1.8" stroke-linecap="round" stroke-linejoin="round"/></svg>