<svg width="32" height="32" viewBox="0 0 32 32" fill="none" xmlns="http://www.w3.org/2000/svg"><path d="M-884 -540C-884 -544.418 -880.418 -548 -876 -548H348C352.418 -548 356 -544.418 356 -540V1150C356 1154.42 352.418 1158 348 1158H-876C-880.418 1158 -884 1154.42 -884 1150V-540Z" fill="white"/><path d="M-876 -548V-547H348V-548V-549H-876V-548ZM356 -540H355V1150H356H357V-540H356ZM348 1158V1157H-876V1158V1159H348V1158ZM-884 1150H-883V-540H-884H-885V1150H-884ZM-876 1158V1157C-879.866 1157 -883 1153.87 -883 1150H-884H-885C-885 1154.97 -880.971 1159 -876 1159V1158ZM356 1150H355C355 1153.87 351.866 1157 348 1157V1158V1159C352.971 1159 357 1154.97 357 1150H356ZM348 -548V-547C351.866 -547 355 -543.866 355 -540H356H357C357 -544.971 352.971 -549 348 -549V-548ZM-876 -548V-549C-880.971 -549 -885 -544.971 -885 -540H-884H-883C-883 -543.866 -879.866 -547 -876 -547V-548Z" fill="#F1F1F1"/><path d="M15.9999 17.3334C16.7363 17.3334 17.3333 16.7364 17.3333 16C17.3333 15.2636 16.7363 14.6667 15.9999 14.6667C15.2635 14.6667 14.6666 15.2636 14.6666 16C14.6666 16.7364 15.2635 17.3334 15.9999 17.3334Z" stroke="#202020" stroke-width="2.2" stroke-linecap="round" stroke-linejoin="round"/><path d="M25.3333 17.3334C26.0696 17.3334 26.6666 16.7364 26.6666 16C26.6666 15.2636 26.0696 14.6667 25.3333 14.6667C24.5969 14.6667 23.9999 15.2636 23.9999 16C23.9999 16.7364 24.5969 17.3334 25.3333 17.3334Z" stroke="#202020" stroke-width="2.2" stroke-linecap="round" stroke-linejoin="round"/><path d="M6.66659 17.3334C7.40297 17.3334 7.99992 16.7364 7.99992 16C7.99992 15.2636 7.40297 14.6667 6.66659 14.6667C5.93021 14.6667 5.33325 15.2636 5.33325 16C5.33325 16.7364 5.93021 17.3334 6.66659 17.3334Z" stroke="#202020" stroke-width="2.2" stroke-linecap="round" stroke-linejoin="round"/></svg>