<svg width="20" height="20" viewBox="0 0 20 20" fill="none" xmlns="http://www.w3.org/2000/svg"><path d="M-1000 -492C-1000 -496.418 -996.418 -500 -992 -500H112C116.418 -500 120 -496.418 120 -492V1198C120 1202.42 116.418 1206 112 1206H-992C-996.418 1206 -1000 1202.42 -1000 1198V-492Z" fill="white"/><path d="M-992 -500V-499H112V-500V-501H-992V-500ZM120 -492H119V1198H120H121V-492H120ZM112 1206V1205H-992V1206V1207H112V1206ZM-1000 1198H-999V-492H-1000H-1001V1198H-1000ZM-992 1206V1205C-995.866 1205 -999 1201.87 -999 1198H-1000H-1001C-1001 1202.97 -996.971 1207 -992 1207V1206ZM120 1198H119C119 1201.87 115.866 1205 112 1205V1206V1207C116.971 1207 121 1202.97 121 1198H120ZM112 -500V-499C115.866 -499 119 -495.866 119 -492H120H121C121 -496.971 116.971 -501 112 -501V-500ZM-992 -500V-501C-996.971 -501 -1001 -496.971 -1001 -492H-1000H-999C-999 -495.866 -995.866 -499 -992 -499V-500Z" fill="#F1F1F1"/><path d="M10.8333 10.8333L15.8333 15.8333M2.5 2.5L8.39167 16.6417L10.4833 10.4833L16.6417 8.39167L2.5 2.5Z" stroke="#202020" stroke-width="1.5" stroke-linecap="round" stroke-linejoin="round"/></svg>