<svg width="24" height="24" viewBox="0 0 24 24" fill="none" xmlns="http://www.w3.org/2000/svg"><path d="M-1036 -508C-1036 -512.418 -1032.42 -516 -1028 -516H116C120.418 -516 124 -512.418 124 -508V1182C124 1186.42 120.418 1190 116 1190H-1028C-1032.42 1190 -1036 1186.42 -1036 1182V-508Z" fill="white"/><path d="M-1028 -516V-515H116V-516V-517H-1028V-516ZM124 -508H123V1182H124H125V-508H124ZM116 1190V1189H-1028V1190V1191H116V1190ZM-1036 1182H-1035V-508H-1036H-1037V1182H-1036ZM-1028 1190V1189C-1031.87 1189 -1035 1185.87 -1035 1182H-1036H-1037C-1037 1186.97 -1032.97 1191 -1028 1191V1190ZM124 1182H123C123 1185.87 119.866 1189 116 1189V1190V1191C120.971 1191 125 1186.97 125 1182H124ZM116 -516V-515C119.866 -515 123 -511.866 123 -508H124H125C125 -512.971 120.971 -517 116 -517V-516ZM-1028 -516V-517C-1032.97 -517 -1037 -512.971 -1037 -508H-1036H-1035C-1035 -511.866 -1031.87 -515 -1028 -515V-516Z" fill="#F1F1F1"/><path d="M13 13L19 19M3 3L10.07 19.97L12.58 12.58L19.97 10.07L3 3Z" stroke="#202020" stroke-width="1.8" stroke-linecap="round" stroke-linejoin="round"/></svg>