<svg width="16" height="16" viewBox="0 0 16 16" fill="none" xmlns="http://www.w3.org/2000/svg"><path d="M-964 -476C-964 -480.418 -960.418 -484 -956 -484H108C112.418 -484 116 -480.418 116 -476V1178C116 1182.42 112.418 1186 108 1186H-956C-960.418 1186 -964 1182.42 -964 1178V-476Z" fill="white"/><path d="M-956 -484V-483H108V-484V-485H-956V-484ZM116 -476H115V1178H116H117V-476H116ZM108 1186V1185H-956V1186V1187H108V1186ZM-964 1178H-963V-476H-964H-965V1178H-964ZM-956 1186V1185C-959.866 1185 -963 1181.87 -963 1178H-964H-965C-965 1182.97 -960.971 1187 -956 1187V1186ZM116 1178H115C115 1181.87 111.866 1185 108 1185V1186V1187C112.971 1187 117 1182.97 117 1178H116ZM108 -484V-483C111.866 -483 115 -479.866 115 -476H116H117C117 -480.971 112.971 -485 108 -485V-484ZM-956 -484V-485C-960.971 -485 -965 -480.971 -965 -476H-964H-963C-963 -479.866 -959.866 -483 -956 -483V-484Z" fill="#F1F1F1"/><path d="M3.3335 6.00001L1.3335 8.00001M1.3335 8.00001L3.3335 10M1.3335 8.00001H14.6668M6.00016 3.33334L8.00016 1.33334M8.00016 1.33334L10.0002 3.33334M8.00016 1.33334V14.6667M10.0002 12.6667L8.00016 14.6667M8.00016 14.6667L6.00016 12.6667M12.6668 6.00001L14.6668 8.00001M14.6668 8.00001L12.6668 10" stroke="#202020" stroke-width="1.3" stroke-linecap="round" stroke-linejoin="round"/><defs><clipPath id="clip0_7809_18809"><rect width="16" height="16" fill="white"/></clipPath></defs></svg>