<svg width="32" height="32" viewBox="0 0 32 32" fill="none" xmlns="http://www.w3.org/2000/svg"><path d="M-1108 -540C-1108 -544.418 -1104.42 -548 -1100 -548H124C128.418 -548 132 -544.418 132 -540V1150C132 1154.42 128.418 1158 124 1158H-1100C-1104.42 1158 -1108 1154.42 -1108 1150V-540Z" fill="white"/><path d="M-1100 -548V-547H124V-548V-549H-1100V-548ZM132 -540H131V1150H132H133V-540H132ZM124 1158V1157H-1100V1158V1159H124V1158ZM-1108 1150H-1107V-540H-1108H-1109V1150H-1108ZM-1100 1158V1157C-1103.87 1157 -1107 1153.87 -1107 1150H-1108H-1109C-1109 1154.97 -1104.97 1159 -1100 1159V1158ZM132 1150H131C131 1153.87 127.866 1157 124 1157V1158V1159C128.971 1159 133 1154.97 133 1150H132ZM124 -548V-547C127.866 -547 131 -543.866 131 -540H132H133C133 -544.971 128.971 -549 124 -549V-548ZM-1100 -548V-549C-1104.97 -549 -1109 -544.971 -1109 -540H-1108H-1107C-1107 -543.866 -1103.87 -547 -1100 -547V-548Z" fill="#F1F1F1"/><path d="M6.6665 12L2.6665 16M2.6665 16L6.6665 20M2.6665 16H29.3332M11.9998 6.66669L15.9998 2.66669M15.9998 2.66669L19.9998 6.66669M15.9998 2.66669V29.3334M19.9998 25.3334L15.9998 29.3334M15.9998 29.3334L11.9998 25.3334M25.3332 12L29.3332 16M29.3332 16L25.3332 20" stroke="#202020" stroke-width="2.2" stroke-linecap="round" stroke-linejoin="round"/></svg>