<svg width="20" height="20" viewBox="0 0 20 20" fill="none" xmlns="http://www.w3.org/2000/svg"><path d="M-100 -592C-100 -596.418 -96.4183 -600 -92 -600H1012C1016.42 -600 1020 -596.418 1020 -592V1098C1020 1102.42 1016.42 1106 1012 1106H-92C-96.4183 1106 -100 1102.42 -100 1098V-592Z" fill="white"/><path d="M-92 -600V-599H1012V-600V-601H-92V-600ZM1020 -592H1019V1098H1020H1021V-592H1020ZM1012 1106V1105H-92V1106V1107H1012V1106ZM-100 1098H-99V-592H-100H-101V1098H-100ZM-92 1106V1105C-95.866 1105 -99 1101.87 -99 1098H-100H-101C-101 1102.97 -96.9706 1107 -92 1107V1106ZM1020 1098H1019C1019 1101.87 1015.87 1105 1012 1105V1106V1107C1016.97 1107 1021 1102.97 1021 1098H1020ZM1012 -600V-599C1015.87 -599 1019 -595.866 1019 -592H1020H1021C1021 -596.971 1016.97 -601 1012 -601V-600ZM-92 -600V-601C-96.9706 -601 -101 -596.971 -101 -592H-100H-99C-99 -595.866 -95.866 -599 -92 -599V-600Z" fill="#F1F1F1"/><path d="M4.1665 7.50002L1.6665 10M1.6665 10L4.1665 12.5M1.6665 10H18.3332M7.49984 4.16669L9.99984 1.66669M9.99984 1.66669L12.4998 4.16669M9.99984 1.66669V18.3334M12.4998 15.8334L9.99984 18.3334M9.99984 18.3334L7.49984 15.8334M15.8332 7.50002L18.3332 10M18.3332 10L15.8332 12.5" stroke="#202020" stroke-width="1.5" stroke-linecap="round" stroke-linejoin="round"/><defs><clipPath id="clip0_7809_18809"><rect width="20" height="20" fill="white"/></clipPath></defs></svg>