<svg width="20" height="20" viewBox="0 0 20 20" fill="none" xmlns="http://www.w3.org/2000/svg"><path d="M-200 -592C-200 -596.418 -196.418 -600 -192 -600H912C916.418 -600 920 -596.418 920 -592V1098C920 1102.42 916.418 1106 912 1106H-192C-196.418 1106 -200 1102.42 -200 1098V-592Z" fill="white"/><path d="M-192 -600V-599H912V-600V-601H-192V-600ZM920 -592H919V1098H920H921V-592H920ZM912 1106V1105H-192V1106V1107H912V1106ZM-200 1098H-199V-592H-200H-201V1098H-200ZM-192 1106V1105C-195.866 1105 -199 1101.87 -199 1098H-200H-201C-201 1102.97 -196.971 1107 -192 1107V1106ZM920 1098H919C919 1101.87 915.866 1105 912 1105V1106V1107C916.971 1107 921 1102.97 921 1098H920ZM912 -600V-599C915.866 -599 919 -595.866 919 -592H920H921C921 -596.971 916.971 -601 912 -601V-600ZM-192 -600V-601C-196.971 -601 -201 -596.971 -201 -592H-200H-199C-199 -595.866 -195.866 -599 -192 -599V-600Z" fill="#F1F1F1"/><path d="M2.5 9.16669L18.3333 1.66669L10.8333 17.5L9.16667 10.8334L2.5 9.16669Z" stroke="#202020" stroke-width="1.5" stroke-linecap="round" stroke-linejoin="round"/></svg>