<svg width="24" height="24" viewBox="0 0 24 24" fill="none" xmlns="http://www.w3.org/2000/svg"><path d="M-204 -612C-204 -616.418 -200.418 -620 -196 -620H948C952.418 -620 956 -616.418 956 -612V1078C956 1082.42 952.418 1086 948 1086H-196C-200.418 1086 -204 1082.42 -204 1078V-612Z" fill="white"/><path d="M-196 -620V-619H948V-620V-621H-196V-620ZM956 -612H955V1078H956H957V-612H956ZM948 1086V1085H-196V1086V1087H948V1086ZM-204 1078H-203V-612H-204H-205V1078H-204ZM-196 1086V1085C-199.866 1085 -203 1081.87 -203 1078H-204H-205C-205 1082.97 -200.971 1087 -196 1087V1086ZM956 1078H955C955 1081.87 951.866 1085 948 1085V1086V1087C952.971 1087 957 1082.97 957 1078H956ZM948 -620V-619C951.866 -619 955 -615.866 955 -612H956H957C957 -616.971 952.971 -621 948 -621V-620ZM-196 -620V-621C-200.971 -621 -205 -616.971 -205 -612H-204H-203C-203 -615.866 -199.866 -619 -196 -619V-620Z" fill="#F1F1F1"/><path d="M3 11L22 2L13 21L11 13L3 11Z" stroke="#202020" stroke-width="1.8" stroke-linecap="round" stroke-linejoin="round"/></svg>