<svg width="16" height="16" viewBox="0 0 16 16" fill="none" xmlns="http://www.w3.org/2000/svg"><path d="M-100 -572C-100 -576.418 -96.4183 -580 -92 -580H972C976.418 -580 980 -576.418 980 -572V1082C980 1086.42 976.418 1090 972 1090H-92C-96.4183 1090 -100 1086.42 -100 1082V-572Z" fill="white"/><path d="M-92 -580V-579H972V-580V-581H-92V-580ZM980 -572H979V1082H980H981V-572H980ZM972 1090V1089H-92V1090V1091H972V1090ZM-100 1082H-99V-572H-100H-101V1082H-100ZM-92 1090V1089C-95.866 1089 -99 1085.87 -99 1082H-100H-101C-101 1086.97 -96.9705 1091 -92 1091V1090ZM980 1082H979C979 1085.87 975.866 1089 972 1089V1090V1091C976.971 1091 981 1086.97 981 1082H980ZM972 -580V-579C975.866 -579 979 -575.866 979 -572H980H981C981 -576.971 976.971 -581 972 -581V-580ZM-92 -580V-581C-96.9706 -581 -101 -576.971 -101 -572H-100H-99C-99 -575.866 -95.866 -579 -92 -579V-580Z" fill="#F1F1F1"/><path d="M2 7.33331L14.6667 1.33331L8.66667 14L7.33333 8.66665L2 7.33331Z" stroke="#202020" stroke-width="1.3" stroke-linecap="round" stroke-linejoin="round"/></svg>