<svg width="26" height="15" viewBox="0 0 26 15" fill="none" xmlns="http://www.w3.org/2000/svg"><path d="M-261.9 -106.4C-261.9 -107.505 -261.004 -108.4 -259.9 -108.4H366.1C367.205 -108.4 368.1 -107.505 368.1 -106.4V299.6C368.1 300.705 367.205 301.6 366.1 301.6H-259.9C-261.004 301.6 -261.9 300.705 -261.9 299.6V-106.4Z" fill="white"/><path d="M-259.9 -108.4V-107.4H366.1V-108.4V-109.4H-259.9V-108.4ZM368.1 -106.4H367.1V299.6H368.1H369.1V-106.4H368.1ZM366.1 301.6V300.6H-259.9V301.6V302.6H366.1V301.6ZM-261.9 299.6H-260.9V-106.4H-261.9H-262.9V299.6H-261.9ZM-259.9 301.6V300.6C-260.452 300.6 -260.9 300.152 -260.9 299.6H-261.9H-262.9C-262.9 301.257 -261.557 302.6 -259.9 302.6V301.6ZM368.1 299.6H367.1C367.1 300.152 366.652 300.6 366.1 300.6V301.6V302.6C367.757 302.6 369.1 301.257 369.1 299.6H368.1ZM366.1 -108.4V-107.4C366.652 -107.4 367.1 -106.952 367.1 -106.4H368.1H369.1C369.1 -108.057 367.757 -109.4 366.1 -109.4V-108.4ZM-259.9 -108.4V-109.4C-261.557 -109.4 -262.9 -108.057 -262.9 -106.4H-261.9H-260.9C-260.9 -106.952 -260.452 -107.4 -259.9 -107.4V-108.4Z" fill="black" fill-opacity="0.1"/><path d="M4.1001 0.199585H23.6001C24.3733 0.199585 25.0005 0.826777 25.0005 1.59998V10.1C25.0005 12.2539 23.254 14.0004 21.1001 14.0004H1.6001C0.826899 14.0004 0.199707 13.3732 0.199707 12.6V4.09998C0.199707 1.94607 1.94619 0.199585 4.1001 0.199585Z" fill="url(#paint0_linear_7809_18809)" stroke="url(#paint1_linear_7809_18809)" stroke-width="0.2"/><mask id="mask0_7809_18809" style="mask-type:luminance" maskUnits="userSpaceOnUse" x="0" y="0" width="26" height="15"><path d="M0.100098 4.09998C0.100098 1.89084 1.89096 0.0999756 4.1001 0.0999756H23.6001C24.4285 0.0999756 25.1001 0.771549 25.1001 1.59998V10.1C25.1001 12.3091 23.3092 14.1 21.1001 14.1H1.6001C0.771671 14.1 0.100098 13.4284 0.100098 12.6V4.09998Z" fill="white" stroke="white" stroke-width="0.2"/></mask><g mask="url(#mask0_7809_18809)"><rect opacity="0.186537" width="13.5277" height="27.1483" transform="matrix(0.443533 -0.896258 0.829396 0.558661 -3.99854 11.0164)" fill="url(#paint2_linear_7809_18809)"/></g><path d="M6.49414 7.70837L6.82129 9.19275H6.86719C6.99226 8.47004 7.12092 7.62344 7.30957 6.86267L8.11816 3.59998H9.11133L7.375 10.6H6.30078L5.12207 6.47205L4.79004 5.0072H4.74512C4.62002 5.73003 4.50022 6.5393 4.31152 7.30017L3.49316 10.6H2.5L4.23633 3.59998H5.31055L6.49414 7.70837ZM13.8027 4.52283H10.9219L10.4385 6.47205H12.876L12.6455 7.40466H10.207L9.64648 9.66833H12.626L12.3945 10.6H8.36719L10.1035 3.59998H14.0312L13.8027 4.52283ZM15.9268 3.59998L15.6465 7.24255L15.4424 9.48767H15.4785C15.8093 8.73631 16.1489 7.9844 16.4863 7.24255L18.2471 3.59998H19.168L19.1318 7.24255C19.1037 7.97489 19.0616 8.7268 19.0264 9.48767H19.0713C19.3683 8.7268 19.6729 7.97489 19.9629 7.24255L21.498 3.59998H22.5L19.4551 10.6H18.1641L18.2344 6.71033C18.2538 6.15877 18.2844 5.63544 18.3262 5.10291H18.2812C18.0589 5.63547 17.8203 6.15874 17.5752 6.71033L15.7354 10.6H14.4707L14.8438 3.59998H15.9268Z" fill="url(#paint3_linear_7809_18809)"/><defs><linearGradient id="paint0_linear_7809_18809" x1="-4.85624" y1="-2.37993" x2="-3.97907" y2="16.0356" gradientUnits="userSpaceOnUse"><stop stop-color="#FF7F72"/><stop offset="1" stop-color="#F64534"/></linearGradient><linearGradient id="paint1_linear_7809_18809" x1="-7.8513" y1="2.32637" x2="-5.18992" y2="17.2686" gradientUnits="userSpaceOnUse"><stop stop-color="#FFB082"/><stop offset="1" stop-color="#FD6913"/></linearGradient><linearGradient id="paint2_linear_7809_18809" x1="0.575015" y1="1.81037" x2="7.41079" y2="25.1788" gradientUnits="userSpaceOnUse"><stop stop-color="white"/><stop offset="1" stop-color="white" stop-opacity="0.320756"/></linearGradient><linearGradient id="paint3_linear_7809_18809" x1="-1.46507" y1="2.36002" x2="-1.19058" y2="11.5805" gradientUnits="userSpaceOnUse"><stop stop-color="white"/><stop offset="1" stop-color="white"/></linearGradient></defs></svg>