<svg width="26" height="14" viewBox="0 0 26 14" fill="none" xmlns="http://www.w3.org/2000/svg"><path d="M-121 -106.5C-121 -107.605 -120.105 -108.5 -119 -108.5H507C508.105 -108.5 509 -107.605 509 -106.5V299.5C509 300.605 508.105 301.5 507 301.5H-119C-120.105 301.5 -121 300.605 -121 299.5V-106.5Z" fill="white"/><path d="M-119 -108.5V-107.5H507V-108.5V-109.5H-119V-108.5ZM509 -106.5H508V299.5H509H510V-106.5H509ZM507 301.5V300.5H-119V301.5V302.5H507V301.5ZM-121 299.5H-120V-106.5H-121H-122V299.5H-121ZM-119 301.5V300.5C-119.552 300.5 -120 300.052 -120 299.5H-121H-122C-122 301.157 -120.657 302.5 -119 302.5V301.5ZM509 299.5H508C508 300.052 507.552 300.5 507 300.5V301.5V302.5C508.657 302.5 510 301.157 510 299.5H509ZM507 -108.5V-107.5C507.552 -107.5 508 -107.052 508 -106.5H509H510C510 -108.157 508.657 -109.5 507 -109.5V-108.5ZM-119 -108.5V-109.5C-120.657 -109.5 -122 -108.157 -122 -106.5H-121H-120C-120 -107.052 -119.552 -107.5 -119 -107.5V-108.5Z" fill="black" fill-opacity="0.1"/><rect x="0.3" y="0.3" width="25.4" height="13.4" rx="1.7" fill="url(#paint0_linear_7809_18809)"/><rect x="0.3" y="0.3" width="25.4" height="13.4" rx="1.7" stroke="#FF9AB5" stroke-width="0.6"/><path d="M6.14 2.38L7.15 2.65C6.5 4.27 5.44 5.8 4.37 6.77C4.19 6.58 3.75 6.26 3.51 6.1C4.6 5.24 5.58 3.83 6.14 2.38ZM9.02 7.77L9.91 7.37C10.76 8.44 11.74 9.84 12.23 10.75L11.31 11.26C11.15 10.94 10.93 10.54 10.66 10.13C5.63 10.51 5.03 10.54 4.61 10.71C4.55 10.51 4.38 10 4.24 9.72C4.53 9.65 4.79 9.37 5.16 8.92C5.56 8.48 6.77 6.75 7.54 5.1L8.55 5.53C7.78 6.99 6.83 8.41 5.88 9.52L10.09 9.27C9.74 8.75 9.37 8.22 9.02 7.77ZM8.82 2.67L9.74 2.3C10.37 3.6 11.6 5.13 12.61 5.97C12.37 6.16 12.02 6.52 11.84 6.77C10.82 5.78 9.58 4.14 8.82 2.67ZM20.33 8.31H15.78V9.96H20.33V8.31ZM14.84 11.35V7.45H21.3V11.33H20.33V10.82H15.78V11.35H14.84ZM18.73 5.71H22.38V6.58H13.65V5.71H17.75V4.33H15.43C15.14 4.81 14.84 5.23 14.54 5.57C14.34 5.44 13.92 5.19 13.69 5.07C14.41 4.39 15.04 3.27 15.4 2.18L16.33 2.4C16.2 2.76 16.05 3.13 15.89 3.48H17.75V2.12H18.73V3.48H21.69V4.33H18.73V5.71Z" fill="#F94978"/><defs><linearGradient id="paint0_linear_7809_18809" x1="0" y1="7" x2="26" y2="7" gradientUnits="userSpaceOnUse"><stop stop-color="#FFC8D6"/><stop offset="1" stop-color="#FFE4EC"/></linearGradient></defs></svg>