<svg width="24" height="24" viewBox="0 0 24 24" fill="none" xmlns="http://www.w3.org/2000/svg"><path d="M-308 -612C-308 -616.418 -304.418 -620 -300 -620H844C848.418 -620 852 -616.418 852 -612V1078C852 1082.42 848.418 1086 844 1086H-300C-304.418 1086 -308 1082.42 -308 1078V-612Z" fill="white"/><path d="M-300 -620V-619H844V-620V-621H-300V-620ZM852 -612H851V1078H852H853V-612H852ZM844 1086V1085H-300V1086V1087H844V1086ZM-308 1078H-307V-612H-308H-309V1078H-308ZM-300 1086V1085C-303.866 1085 -307 1081.87 -307 1078H-308H-309C-309 1082.97 -304.971 1087 -300 1087V1086ZM852 1078H851C851 1081.87 847.866 1085 844 1085V1086V1087C848.971 1087 853 1082.97 853 1078H852ZM844 -620V-619C847.866 -619 851 -615.866 851 -612H852H853C853 -616.971 848.971 -621 844 -621V-620ZM-300 -620V-621C-304.971 -621 -309 -616.971 -309 -612H-308H-307C-307 -615.866 -303.866 -619 -300 -619V-620Z" fill="#F1F1F1"/><path d="M21.4398 11.05L12.2498 20.24C11.124 21.3658 9.59699 21.9983 8.0048 21.9983C6.41262 21.9983 4.88565 21.3658 3.7598 20.24C2.63396 19.1141 2.00146 17.5872 2.00146 15.995C2.00146 14.4028 2.63396 12.8758 3.7598 11.75L12.9498 2.55998C13.7004 1.80942 14.7183 1.38776 15.7798 1.38776C16.8413 1.38776 17.8592 1.80942 18.6098 2.55998C19.3604 3.31054 19.782 4.32852 19.782 5.38998C19.782 6.45144 19.3604 7.46942 18.6098 8.21998L9.4098 17.41C9.03452 17.7853 8.52553 17.9961 7.9948 17.9961C7.46407 17.9961 6.95508 17.7853 6.5798 17.41C6.20452 17.0347 5.99369 16.5257 5.99369 15.995C5.99369 15.4643 6.20452 14.9553 6.5798 14.58L15.0698 6.09998" stroke="#202020" stroke-width="1.8" stroke-linecap="round" stroke-linejoin="round"/></svg>