<svg width="20" height="20" viewBox="0 0 20 20" fill="none" xmlns="http://www.w3.org/2000/svg"><path d="M-300 -592C-300 -596.418 -296.418 -600 -292 -600H812C816.418 -600 820 -596.418 820 -592V1098C820 1102.42 816.418 1106 812 1106H-292C-296.418 1106 -300 1102.42 -300 1098V-592Z" fill="white"/><path d="M-292 -600V-599H812V-600V-601H-292V-600ZM820 -592H819V1098H820H821V-592H820ZM812 1106V1105H-292V1106V1107H812V1106ZM-300 1098H-299V-592H-300H-301V1098H-300ZM-292 1106V1105C-295.866 1105 -299 1101.87 -299 1098H-300H-301C-301 1102.97 -296.971 1107 -292 1107V1106ZM820 1098H819C819 1101.87 815.866 1105 812 1105V1106V1107C816.971 1107 821 1102.97 821 1098H820ZM812 -600V-599C815.866 -599 819 -595.866 819 -592H820H821C821 -596.971 816.971 -601 812 -601V-600ZM-292 -600V-601C-296.971 -601 -301 -596.971 -301 -592H-300H-299C-299 -595.866 -295.866 -599 -292 -599V-600Z" fill="#F1F1F1"/><path d="M17.8666 9.20835L10.2082 16.8667C9.27005 17.8049 7.99757 18.332 6.67075 18.332C5.34393 18.332 4.07145 17.8049 3.13325 16.8667C2.19505 15.9285 1.66797 14.656 1.66797 13.3292C1.66797 12.0024 2.19505 10.7299 3.13325 9.79168L10.7916 2.13335C11.4171 1.50788 12.2654 1.15649 13.1499 1.15649C14.0345 1.15649 14.8828 1.50788 15.5082 2.13335C16.1337 2.75882 16.4851 3.60713 16.4851 4.49168C16.4851 5.37623 16.1337 6.22455 15.5082 6.85001L7.84158 14.5083C7.52885 14.8211 7.10469 14.9968 6.66242 14.9968C6.22014 14.9968 5.79598 14.8211 5.48325 14.5083C5.17051 14.1956 4.99482 13.7715 4.99482 13.3292C4.99482 12.8869 5.17051 12.4627 5.48325 12.15L12.5582 5.08335" stroke="#202020" stroke-width="1.5" stroke-linecap="round" stroke-linejoin="round"/></svg>