<svg width="26" height="14" viewBox="0 0 26 14" fill="none" xmlns="http://www.w3.org/2000/svg"><path d="M-30 -106C-30 -107.105 -29.1046 -108 -28 -108H598C599.105 -108 600 -107.105 600 -106V300C600 301.105 599.105 302 598 302H-28C-29.1046 302 -30 301.105 -30 300V-106Z" fill="white"/><path d="M-28 -108V-107H598V-108V-109H-28V-108ZM600 -106H599V300H600H601V-106H600ZM598 302V301H-28V302V303H598V302ZM-30 300H-29V-106H-30H-31V300H-30ZM-28 302V301C-28.5523 301 -29 300.552 -29 300H-30H-31C-31 301.657 -29.6569 303 -28 303V302ZM600 300H599C599 300.552 598.552 301 598 301V302V303C599.657 303 601 301.657 601 300H600ZM598 -108V-107C598.552 -107 599 -106.552 599 -106H600H601C601 -107.657 599.657 -109 598 -109V-108ZM-28 -108V-109C-29.6569 -109 -31 -107.657 -31 -106H-30H-29C-29 -106.552 -28.5523 -107 -28 -107V-108Z" fill="black" fill-opacity="0.1"/><rect x="0.3" y="0.3" width="25.4" height="13.4" rx="1.7" fill="url(#paint0_linear_7809_18809)"/><rect x="0.3" y="0.3" width="25.4" height="13.4" rx="1.7" stroke="#FFA773" stroke-width="0.6"/><path d="M5.73 9.83V10.33H10.22V9.83H5.73ZM10.22 6.83H5.73V7.31H10.22V6.83ZM5.73 8.81V9.31H10.22V8.81H5.73ZM10.22 8.3V7.81H5.73V8.3H10.22ZM7.28 3.12V3.88H8.7V3.12H7.28ZM6.43 3.88V3.12H5.05V3.88H6.43ZM9.55 3.12V3.88H11V3.12H9.55ZM11.14 10.33H12.44V11.01H3.61V10.33H4.85V6.23H7.22C7.24 6.07 7.27 5.91 7.29 5.73H3.72V5.03H7.4C7.42 4.86 7.44 4.69 7.46 4.53H4.16V2.47H11.92V4.53H8.41C8.38 4.69 8.36 4.86 8.32 5.03H12.19V5.73H8.19C8.17 5.91 8.13 6.07 8.09 6.23H11.14V10.33ZM17.71 4.23H19.13C19.21 3.95 19.28 3.63 19.34 3.34H17.31V2.53H22.58V3.34H20.33C20.22 3.64 20.12 3.96 20.01 4.23H22.21V8.92H21.31V5.08H18.57V8.94H17.71V4.23ZM17.11 3.65H15.9V9.86C15.9 10.38 15.79 10.65 15.46 10.8C15.14 10.96 14.63 10.99 13.86 10.99C13.81 10.73 13.66 10.3 13.52 10.05C14.09 10.07 14.6 10.07 14.76 10.06C14.93 10.05 14.98 10.01 14.98 9.86V3.65H13.45V2.78H17.11V3.65ZM20.41 5.64V7.56C20.41 8.81 19.93 10.32 17.49 11.28C17.38 11.08 17.11 10.74 16.91 10.56C19.33 9.79 19.5 8.54 19.5 7.55V5.64H20.41ZM20.02 9.65L20.62 9.03C21.3 9.48 22.2 10.16 22.64 10.61L22.01 11.31C21.6 10.84 20.71 10.13 20.02 9.65Z" fill="#F25900"/><defs><linearGradient id="paint0_linear_7809_18809" x1="0" y1="7" x2="26" y2="7" gradientUnits="userSpaceOnUse"><stop stop-color="#FFD7C1"/><stop offset="1" stop-color="#FFC5BF"/></linearGradient></defs></svg>