<svg width="16" height="16" viewBox="0 0 16 16" fill="none" xmlns="http://www.w3.org/2000/svg"><path d="M-292 -572C-292 -576.418 -288.418 -580 -284 -580H780C784.418 -580 788 -576.418 788 -572V1082C788 1086.42 784.418 1090 780 1090H-284C-288.418 1090 -292 1086.42 -292 1082V-572Z" fill="white"/><path d="M-284 -580V-579H780V-580V-581H-284V-580ZM788 -572H787V1082H788H789V-572H788ZM780 1090V1089H-284V1090V1091H780V1090ZM-292 1082H-291V-572H-292H-293V1082H-292ZM-284 1090V1089C-287.866 1089 -291 1085.87 -291 1082H-292H-293C-293 1086.97 -288.971 1091 -284 1091V1090ZM788 1082H787C787 1085.87 783.866 1089 780 1089V1090V1091C784.971 1091 789 1086.97 789 1082H788ZM780 -580V-579C783.866 -579 787 -575.866 787 -572H788H789C789 -576.971 784.971 -581 780 -581V-580ZM-284 -580V-581C-288.971 -581 -293 -576.971 -293 -572H-292H-291C-291 -575.866 -287.866 -579 -284 -579V-580Z" fill="#F1F1F1"/><path d="M8.00016 14.6666C11.6821 14.6666 14.6668 11.6819 14.6668 7.99998C14.6668 4.31808 11.6821 1.33331 8.00016 1.33331C4.31826 1.33331 1.3335 4.31808 1.3335 7.99998C1.3335 11.6819 4.31826 14.6666 8.00016 14.6666Z" stroke="#202020" stroke-width="1.3" stroke-linecap="round" stroke-linejoin="round"/><path d="M6.66683 5.33331L10.6668 7.99998L6.66683 10.6666V5.33331Z" stroke="#202020" stroke-width="1.3" stroke-linecap="round" stroke-linejoin="round"/><defs><clipPath id="clip0_7809_18809"><rect width="16" height="16" fill="white"/></clipPath></defs></svg>