<svg width="16" height="16" viewBox="0 0 16 16" fill="none" xmlns="http://www.w3.org/2000/svg"><path d="M-388 -572C-388 -576.418 -384.418 -580 -380 -580H684C688.418 -580 692 -576.418 692 -572V1082C692 1086.42 688.418 1090 684 1090H-380C-384.418 1090 -388 1086.42 -388 1082V-572Z" fill="white"/><path d="M-380 -580V-579H684V-580V-581H-380V-580ZM692 -572H691V1082H692H693V-572H692ZM684 1090V1089H-380V1090V1091H684V1090ZM-388 1082H-387V-572H-388H-389V1082H-388ZM-380 1090V1089C-383.866 1089 -387 1085.87 -387 1082H-388H-389C-389 1086.97 -384.971 1091 -380 1091V1090ZM692 1082H691C691 1085.87 687.866 1089 684 1089V1090V1091C688.971 1091 693 1086.97 693 1082H692ZM684 -580V-579C687.866 -579 691 -575.866 691 -572H692H693C693 -576.971 688.971 -581 684 -581V-580ZM-380 -580V-581C-384.971 -581 -389 -576.971 -389 -572H-388H-387C-387 -575.866 -383.866 -579 -380 -579V-580Z" fill="#F1F1F1"/><path d="M3.3335 2L12.6668 8L3.3335 14V2Z" stroke="#202020" stroke-width="1.3" stroke-linecap="round" stroke-linejoin="round"/></svg>