<svg width="20" height="20" viewBox="0 0 20 20" fill="none" xmlns="http://www.w3.org/2000/svg"><path d="M-400 -592C-400 -596.418 -396.418 -600 -392 -600H712C716.418 -600 720 -596.418 720 -592V1098C720 1102.42 716.418 1106 712 1106H-392C-396.418 1106 -400 1102.42 -400 1098V-592Z" fill="white"/><path d="M-392 -600V-599H712V-600V-601H-392V-600ZM720 -592H719V1098H720H721V-592H720ZM712 1106V1105H-392V1106V1107H712V1106ZM-400 1098H-399V-592H-400H-401V1098H-400ZM-392 1106V1105C-395.866 1105 -399 1101.87 -399 1098H-400H-401C-401 1102.97 -396.971 1107 -392 1107V1106ZM720 1098H719C719 1101.87 715.866 1105 712 1105V1106V1107C716.971 1107 721 1102.97 721 1098H720ZM712 -600V-599C715.866 -599 719 -595.866 719 -592H720H721C721 -596.971 716.971 -601 712 -601V-600ZM-392 -600V-601C-396.971 -601 -401 -596.971 -401 -592H-400H-399C-399 -595.866 -395.866 -599 -392 -599V-600Z" fill="#F1F1F1"/><path d="M9.99984 18.3334C14.6022 18.3334 18.3332 14.6024 18.3332 10C18.3332 5.39765 14.6022 1.66669 9.99984 1.66669C5.39746 1.66669 1.6665 5.39765 1.6665 10C1.6665 14.6024 5.39746 18.3334 9.99984 18.3334Z" stroke="#202020" stroke-width="1.5" stroke-linecap="round" stroke-linejoin="round"/><path d="M8.33317 6.66669L13.3332 10L8.33317 13.3334V6.66669Z" stroke="#202020" stroke-width="1.5" stroke-linecap="round" stroke-linejoin="round"/><defs><clipPath id="clip0_7809_18809"><rect width="20" height="20" fill="white"/></clipPath></defs></svg>