<svg width="24" height="24" viewBox="0 0 24 24" fill="none" xmlns="http://www.w3.org/2000/svg"><path d="M-516 -612C-516 -616.418 -512.418 -620 -508 -620H636C640.418 -620 644 -616.418 644 -612V1078C644 1082.42 640.418 1086 636 1086H-508C-512.418 1086 -516 1082.42 -516 1078V-612Z" fill="white"/><path d="M-508 -620V-619H636V-620V-621H-508V-620ZM644 -612H643V1078H644H645V-612H644ZM636 1086V1085H-508V1086V1087H636V1086ZM-516 1078H-515V-612H-516H-517V1078H-516ZM-508 1086V1085C-511.866 1085 -515 1081.87 -515 1078H-516H-517C-517 1082.97 -512.971 1087 -508 1087V1086ZM644 1078H643C643 1081.87 639.866 1085 636 1085V1086V1087C640.971 1087 645 1082.97 645 1078H644ZM636 -620V-619C639.866 -619 643 -615.866 643 -612H644H645C645 -616.971 640.971 -621 636 -621V-620ZM-508 -620V-621C-512.971 -621 -517 -616.971 -517 -612H-516H-515C-515 -615.866 -511.866 -619 -508 -619V-620Z" fill="#F1F1F1"/><path d="M5 3L19 12L5 21V3Z" stroke="#202020" stroke-width="1.8" stroke-linecap="round" stroke-linejoin="round"/></svg>