<svg width="16" height="16" viewBox="0 0 16 16" fill="none" xmlns="http://www.w3.org/2000/svg"><path d="M-580 -572C-580 -576.418 -576.418 -580 -572 -580H492C496.418 -580 500 -576.418 500 -572V1082C500 1086.42 496.418 1090 492 1090H-572C-576.418 1090 -580 1086.42 -580 1082V-572Z" fill="white"/><path d="M-572 -580V-579H492V-580V-581H-572V-580ZM500 -572H499V1082H500H501V-572H500ZM492 1090V1089H-572V1090V1091H492V1090ZM-580 1082H-579V-572H-580H-581V1082H-580ZM-572 1090V1089C-575.866 1089 -579 1085.87 -579 1082H-580H-581C-581 1086.97 -576.971 1091 -572 1091V1090ZM500 1082H499C499 1085.87 495.866 1089 492 1089V1090V1091C496.971 1091 501 1086.97 501 1082H500ZM492 -580V-579C495.866 -579 499 -575.866 499 -572H500H501C501 -576.971 496.971 -581 492 -581V-580ZM-572 -580V-581C-576.971 -581 -581 -576.971 -581 -572H-580H-579C-579 -575.866 -575.866 -579 -572 -579V-580Z" fill="#F1F1F1"/><path d="M8.00016 3.33331V12.6666M3.3335 7.99998H12.6668" stroke="#202020" stroke-width="1.3" stroke-linecap="round" stroke-linejoin="round"/></svg>