<svg width="20" height="20" viewBox="0 0 20 20" fill="none" xmlns="http://www.w3.org/2000/svg"><path d="M-700 -592C-700 -596.418 -696.418 -600 -692 -600H412C416.418 -600 420 -596.418 420 -592V1098C420 1102.42 416.418 1106 412 1106H-692C-696.418 1106 -700 1102.42 -700 1098V-592Z" fill="white"/><path d="M-692 -600V-599H412V-600V-601H-692V-600ZM420 -592H419V1098H420H421V-592H420ZM412 1106V1105H-692V1106V1107H412V1106ZM-700 1098H-699V-592H-700H-701V1098H-700ZM-692 1106V1105C-695.866 1105 -699 1101.87 -699 1098H-700H-701C-701 1102.97 -696.971 1107 -692 1107V1106ZM420 1098H419C419 1101.87 415.866 1105 412 1105V1106V1107C416.971 1107 421 1102.97 421 1098H420ZM412 -600V-599C415.866 -599 419 -595.866 419 -592H420H421C421 -596.971 416.971 -601 412 -601V-600ZM-692 -600V-601C-696.971 -601 -701 -596.971 -701 -592H-700H-699C-699 -595.866 -695.866 -599 -692 -599V-600Z" fill="#F1F1F1"/><path d="M9.99984 4.16669V15.8334M4.1665 10H15.8332" stroke="#202020" stroke-width="1.5" stroke-linecap="round" stroke-linejoin="round"/></svg>