<svg width="24" height="24" viewBox="0 0 24 24" fill="none" xmlns="http://www.w3.org/2000/svg"><path d="M-620 -612C-620 -616.418 -616.418 -620 -612 -620H532C536.418 -620 540 -616.418 540 -612V1078C540 1082.42 536.418 1086 532 1086H-612C-616.418 1086 -620 1082.42 -620 1078V-612Z" fill="white"/><path d="M-612 -620V-619H532V-620V-621H-612V-620ZM540 -612H539V1078H540H541V-612H540ZM532 1086V1085H-612V1086V1087H532V1086ZM-620 1078H-619V-612H-620H-621V1078H-620ZM-612 1086V1085C-615.866 1085 -619 1081.87 -619 1078H-620H-621C-621 1082.97 -616.971 1087 -612 1087V1086ZM540 1078H539C539 1081.87 535.866 1085 532 1085V1086V1087C536.971 1087 541 1082.97 541 1078H540ZM532 -620V-619C535.866 -619 539 -615.866 539 -612H540H541C541 -616.971 536.971 -621 532 -621V-620ZM-612 -620V-621C-616.971 -621 -621 -616.971 -621 -612H-620H-619C-619 -615.866 -615.866 -619 -612 -619V-620Z" fill="#F1F1F1"/><path d="M12 8V16M8 12H16M22 12C22 17.5228 17.5228 22 12 22C6.47715 22 2 17.5228 2 12C2 6.47715 6.47715 2 12 2C17.5228 2 22 6.47715 22 12Z" stroke="#202020" stroke-width="1.8" stroke-linecap="round" stroke-linejoin="round"/></svg>