<svg width="16" height="16" viewBox="0 0 16 16" fill="none" xmlns="http://www.w3.org/2000/svg"><path d="M-484 -572C-484 -576.418 -480.418 -580 -476 -580H588C592.418 -580 596 -576.418 596 -572V1082C596 1086.42 592.418 1090 588 1090H-476C-480.418 1090 -484 1086.42 -484 1082V-572Z" fill="white"/><path d="M-476 -580V-579H588V-580V-581H-476V-580ZM596 -572H595V1082H596H597V-572H596ZM588 1090V1089H-476V1090V1091H588V1090ZM-484 1082H-483V-572H-484H-485V1082H-484ZM-476 1090V1089C-479.866 1089 -483 1085.87 -483 1082H-484H-485C-485 1086.97 -480.971 1091 -476 1091V1090ZM596 1082H595C595 1085.87 591.866 1089 588 1089V1090V1091C592.971 1091 597 1086.97 597 1082H596ZM588 -580V-579C591.866 -579 595 -575.866 595 -572H596H597C597 -576.971 592.971 -581 588 -581V-580ZM-476 -580V-581C-480.971 -581 -485 -576.971 -485 -572H-484H-483C-483 -575.866 -479.866 -579 -476 -579V-580Z" fill="#F1F1F1"/><path d="M8.00016 5.33331V10.6666M5.3335 7.99998H10.6668M14.6668 7.99998C14.6668 11.6819 11.6821 14.6666 8.00016 14.6666C4.31826 14.6666 1.3335 11.6819 1.3335 7.99998C1.3335 4.31808 4.31826 1.33331 8.00016 1.33331C11.6821 1.33331 14.6668 4.31808 14.6668 7.99998Z" stroke="#202020" stroke-width="1.3" stroke-linecap="round" stroke-linejoin="round"/><defs><clipPath id="clip0_7809_18809"><rect width="16" height="16" fill="white"/></clipPath></defs></svg>