<svg width="32" height="32" viewBox="0 0 32 32" fill="none" xmlns="http://www.w3.org/2000/svg"><path d="M-324 -652C-324 -656.418 -320.418 -660 -316 -660H908C912.418 -660 916 -656.418 916 -652V1038C916 1042.42 912.418 1046 908 1046H-316C-320.418 1046 -324 1042.42 -324 1038V-652Z" fill="white"/><path d="M-316 -660V-659H908V-660V-661H-316V-660ZM916 -652H915V1038H916H917V-652H916ZM908 1046V1045H-316V1046V1047H908V1046ZM-324 1038H-323V-652H-324H-325V1038H-324ZM-316 1046V1045C-319.866 1045 -323 1041.87 -323 1038H-324H-325C-325 1042.97 -320.971 1047 -316 1047V1046ZM916 1038H915C915 1041.87 911.866 1045 908 1045V1046V1047C912.971 1047 917 1042.97 917 1038H916ZM908 -660V-659C911.866 -659 915 -655.866 915 -652H916H917C917 -656.971 912.971 -661 908 -661V-660ZM-316 -660V-661C-320.971 -661 -325 -656.971 -325 -652H-324H-323C-323 -655.866 -319.866 -659 -316 -659V-660Z" fill="#F1F1F1"/><path d="M16.0001 10.6667V21.3334M10.6667 16H21.3334M29.3334 16C29.3334 23.3638 23.3639 29.3334 16.0001 29.3334C8.63628 29.3334 2.66675 23.3638 2.66675 16C2.66675 8.63622 8.63628 2.66669 16.0001 2.66669C23.3639 2.66669 29.3334 8.63622 29.3334 16Z" stroke="#202020" stroke-width="2.2" stroke-linecap="round" stroke-linejoin="round"/></svg>