<svg width="12" height="12" viewBox="0 0 12 12" fill="none" xmlns="http://www.w3.org/2000/svg"><path d="M-376 -184C-376 -188.418 -372.418 -192 -368 -192H696C700.418 -192 704 -188.418 704 -184V1470C704 1474.42 700.418 1478 696 1478H-368C-372.418 1478 -376 1474.42 -376 1470V-184Z" fill="white"/><path d="M-368 -192V-191H696V-192V-193H-368V-192ZM704 -184H703V1470H704H705V-184H704ZM696 1478V1477H-368V1478V1479H696V1478ZM-376 1470H-375V-184H-376H-377V1470H-376ZM-368 1478V1477C-371.866 1477 -375 1473.87 -375 1470H-376H-377C-377 1474.97 -372.971 1479 -368 1479V1478ZM704 1470H703C703 1473.87 699.866 1477 696 1477V1478V1479C700.971 1479 705 1474.97 705 1470H704ZM696 -192V-191C699.866 -191 703 -187.866 703 -184H704H705C705 -188.971 700.971 -193 696 -193V-192ZM-368 -192V-193C-372.971 -193 -377 -188.971 -377 -184H-376H-375C-375 -187.866 -371.866 -191 -368 -191V-192Z" fill="#F1F1F1"/><path d="M6 2.5V9.5M2.5 6H9.5" stroke="#202020" stroke-width="1.3" stroke-linecap="round" stroke-linejoin="round"/></svg>