<svg width="12" height="12" viewBox="0 0 12 12" fill="none" xmlns="http://www.w3.org/2000/svg"><path d="M-494 -120C-494 -121.105 -493.105 -122 -492 -122H213C214.105 -122 215 -121.105 215 -120V286C215 287.105 214.105 288 213 288H-492C-493.105 288 -494 287.105 -494 286V-120Z" fill="white"/><path d="M-492 -122V-121H213V-122V-123H-492V-122ZM215 -120H214V286H215H216V-120H215ZM213 288V287H-492V288V289H213V288ZM-494 286H-493V-120H-494H-495V286H-494ZM-492 288V287C-492.552 287 -493 286.552 -493 286H-494H-495C-495 287.657 -493.657 289 -492 289V288ZM215 286H214C214 286.552 213.552 287 213 287V288V289C214.657 289 216 287.657 216 286H215ZM213 -122V-121C213.552 -121 214 -120.552 214 -120H215H216C216 -121.657 214.657 -123 213 -123V-122ZM-492 -122V-123C-493.657 -123 -495 -121.657 -495 -120H-494H-493C-493 -120.552 -492.552 -121 -492 -121V-122Z" fill="black" fill-opacity="0.1"/><path d="M-4 1C-4 -1.20914 -2.20914 -3 0 -3H48V15H-2.38419e-07C-2.20914 15 -4 13.2091 -4 11V1Z" fill="black" fill-opacity="0.7"/><path d="M6.08898 0.501436C6.13578 0.496941 6.14854 0.502246 6.18108 0.528148C6.19963 0.581283 6.09729 0.810618 6.08652 0.910177C6.01537 1.56782 6.82086 1.95163 7.27457 2.29948C7.51236 2.48178 7.69937 2.63048 7.87951 2.85423C8.41784 3.50553 8.45655 4.31485 8.02372 5.02472C7.8362 5.33227 7.40957 5.88137 7.71051 6.20629C7.94191 6.45615 8.30685 6.43032 8.55938 6.22858C8.91186 5.94697 8.9994 5.50235 8.98969 5.08747C8.98631 4.93934 8.94946 4.75482 8.96267 4.6129C8.99464 4.57037 8.9776 4.58201 9.02551 4.56515C9.30413 4.58993 9.804 5.44704 9.91795 5.6819C9.99193 5.83573 10.0534 5.99468 10.1018 6.15735C10.4236 7.21546 10.374 8.29699 9.80185 9.27279C9.18414 10.3047 8.16232 11.0655 6.95691 11.391C6.7031 11.4425 6.44556 11.476 6.18645 11.491C3.84899 11.6408 1.66223 9.90717 1.50821 7.67057C1.42464 6.35048 1.98222 5.06644 3.02258 4.1832C3.32229 3.92384 3.6615 3.71629 3.97361 3.47195C4.0596 3.40463 4.15519 3.15445 4.24606 3.15805C4.42782 3.3193 4.01349 3.90051 4.10672 4.14686C4.11827 4.17738 4.13865 4.2037 4.17147 4.216C4.24156 4.24226 4.33949 4.20847 4.40506 4.18308C4.65054 4.08804 4.8705 3.88234 5.03114 3.68753C5.91356 2.61735 5.04386 2.02011 5.43553 1.14137C5.5602 0.861649 5.789 0.616648 6.08898 0.501436Z" fill="url(#paint0_linear_7809_18809)"/><defs><linearGradient id="paint0_linear_7809_18809" x1="5.9" y1="0.5" x2="5.9" y2="11.5" gradientUnits="userSpaceOnUse"><stop stop-color="#FF502C"/><stop offset="1" stop-color="#FF6A41"/></linearGradient></defs></svg>