<svg width="24" height="24" viewBox="0 0 24 24" fill="none" xmlns="http://www.w3.org/2000/svg"><path d="M-828 -612C-828 -616.418 -824.418 -620 -820 -620H324C328.418 -620 332 -616.418 332 -612V1078C332 1082.42 328.418 1086 324 1086H-820C-824.418 1086 -828 1082.42 -828 1078V-612Z" fill="white"/><path d="M-820 -620V-619H324V-620V-621H-820V-620ZM332 -612H331V1078H332H333V-612H332ZM324 1086V1085H-820V1086V1087H324V1086ZM-828 1078H-827V-612H-828H-829V1078H-828ZM-820 1086V1085C-823.866 1085 -827 1081.87 -827 1078H-828H-829C-829 1082.97 -824.971 1087 -820 1087V1086ZM332 1078H331C331 1081.87 327.866 1085 324 1085V1086V1087C328.971 1087 333 1082.97 333 1078H332ZM324 -620V-619C327.866 -619 331 -615.866 331 -612H332H333C333 -616.971 328.971 -621 324 -621V-620ZM-820 -620V-621C-824.971 -621 -829 -616.971 -829 -612H-828H-827C-827 -615.866 -823.866 -619 -820 -619V-620Z" fill="#F1F1F1"/><path d="M18.3601 6.64C19.6185 7.89879 20.4754 9.50244 20.8224 11.2482C21.1694 12.9939 20.991 14.8034 20.3098 16.4478C19.6285 18.0921 18.4749 19.4976 16.9949 20.4864C15.515 21.4752 13.775 22.0029 11.9951 22.0029C10.2152 22.0029 8.47527 21.4752 6.99529 20.4864C5.51532 19.4976 4.36176 18.0921 3.68049 16.4478C2.99921 14.8034 2.82081 12.9939 3.16784 11.2482C3.51487 9.50244 4.37174 7.89879 5.63012 6.64M12.0001 2V12" stroke="#202020" stroke-width="1.8" stroke-linecap="round" stroke-linejoin="round"/></svg>