<svg width="20" height="20" viewBox="0 0 20 20" fill="none" xmlns="http://www.w3.org/2000/svg"><path d="M-800 -592C-800 -596.418 -796.418 -600 -792 -600H312C316.418 -600 320 -596.418 320 -592V1098C320 1102.42 316.418 1106 312 1106H-792C-796.418 1106 -800 1102.42 -800 1098V-592Z" fill="white"/><path d="M-792 -600V-599H312V-600V-601H-792V-600ZM320 -592H319V1098H320H321V-592H320ZM312 1106V1105H-792V1106V1107H312V1106ZM-800 1098H-799V-592H-800H-801V1098H-800ZM-792 1106V1105C-795.866 1105 -799 1101.87 -799 1098H-800H-801C-801 1102.97 -796.971 1107 -792 1107V1106ZM320 1098H319C319 1101.87 315.866 1105 312 1105V1106V1107C316.971 1107 321 1102.97 321 1098H320ZM312 -600V-599C315.866 -599 319 -595.866 319 -592H320H321C321 -596.971 316.971 -601 312 -601V-600ZM-792 -600V-601C-796.971 -601 -801 -596.971 -801 -592H-800H-799C-799 -595.866 -795.866 -599 -792 -599V-600Z" fill="#F1F1F1"/><path d="M15.2998 5.53335C16.3484 6.58234 17.0625 7.91872 17.3517 9.37351C17.6409 10.8283 17.4922 12.3362 16.9245 13.7065C16.3567 15.0768 15.3954 16.248 14.1621 17.072C12.9288 17.896 11.4789 18.3358 9.99561 18.3358C8.51235 18.3358 7.0624 17.896 5.82909 17.072C4.59577 16.248 3.63448 15.0768 3.06675 13.7065C2.49902 12.3362 2.35035 10.8283 2.63954 9.37351C2.92873 7.91872 3.64279 6.58234 4.69144 5.53335M9.99978 1.66669V10" stroke="#202020" stroke-width="1.5" stroke-linecap="round" stroke-linejoin="round"/></svg>