<svg width="24" height="24" viewBox="0 0 24 24" fill="none" xmlns="http://www.w3.org/2000/svg"><path d="M-87 -449C-87 -450.105 -86.1046 -451 -85 -451H511C512.105 -451 513 -450.105 513 -449V202C513 203.105 512.105 204 511 204H-85C-86.1046 204 -87 203.105 -87 202V-449Z" fill="white"/><path d="M-85 -451V-450H511V-451V-452H-85V-451ZM513 -449H512V202H513H514V-449H513ZM511 204V203H-85V204V205H511V204ZM-87 202H-86V-449H-87H-88V202H-87ZM-85 204V203C-85.5523 203 -86 202.552 -86 202H-87H-88C-88 203.657 -86.6569 205 -85 205V204ZM513 202H512C512 202.552 511.552 203 511 203V204V205C512.657 205 514 203.657 514 202H513ZM511 -451V-450C511.552 -450 512 -449.552 512 -449H513H514C514 -450.657 512.657 -452 511 -452V-451ZM-85 -451V-452C-86.6569 -452 -88 -450.657 -88 -449H-87H-86C-86 -449.552 -85.5523 -450 -85 -450V-451Z" fill="black" fill-opacity="0.1"/><rect x="-19.5" y="-63.5" width="63" height="151" rx="4.5" stroke="#9747FF" stroke-dasharray="10 5"/><path d="M0 4.8C0 2.14903 2.14903 0 4.8 0H19.2C21.851 0 24 2.14903 24 4.8V19.2C24 21.851 21.851 24 19.2 24H4.8C2.14903 24 0 21.851 0 19.2V4.8Z" fill="#F4F4F4"/><path d="M15.9946 13.5256H3.7998C4.38228 14.3953 4.67351 15.2495 4.67351 16.0885C4.67351 16.9274 4.38228 17.7817 3.7998 18.6513H12.9821M18.6289 15.1242V18.666M20.3998 16.8951H16.858M19.7962 10.1257H6.50784C5.01223 10.1257 3.7998 8.97825 3.7998 7.56283C3.7998 6.14742 5.01223 5 6.50784 5H19.7962C19.7962 5 18.9225 6.30927 18.9225 7.56283C18.9225 8.8164 19.7962 10.1257 19.7962 10.1257Z" stroke="#202020" stroke-width="1.71977" stroke-linecap="round" stroke-linejoin="round"/></svg>