<svg width="24" height="24" viewBox="0 0 24 24" fill="none" xmlns="http://www.w3.org/2000/svg"><path d="M-87 -405C-87 -406.105 -86.1046 -407 -85 -407H511C512.105 -407 513 -406.105 513 -405V246C513 247.105 512.105 248 511 248H-85C-86.1046 248 -87 247.105 -87 246V-405Z" fill="white"/><path d="M-85 -407V-406H511V-407V-408H-85V-407ZM513 -405H512V246H513H514V-405H513ZM511 248V247H-85V248V249H511V248ZM-87 246H-86V-405H-87H-88V246H-87ZM-85 248V247C-85.5523 247 -86 246.552 -86 246H-87H-88C-88 247.657 -86.6569 249 -85 249V248ZM513 246H512C512 246.552 511.552 247 511 247V248V249C512.657 249 514 247.657 514 246H513ZM511 -407V-406C511.552 -406 512 -405.552 512 -405H513H514C514 -406.657 512.657 -408 511 -408V-407ZM-85 -407V-408C-86.6569 -408 -88 -406.657 -88 -405H-87H-86C-86 -405.552 -85.5523 -406 -85 -406V-407Z" fill="black" fill-opacity="0.1"/><rect x="-19.5" y="-19.5" width="63" height="107" rx="4.5" stroke="#9747FF" stroke-dasharray="10 5"/><path d="M0 4.8C0 2.14903 2.14903 0 4.8 0H19.2C21.851 0 24 2.14903 24 4.8V19.2C24 21.851 21.851 24 19.2 24H4.8C2.14903 24 0 21.851 0 19.2V4.8Z" fill="#F4F4F4"/><path d="M15.9946 13.5256H3.7998C4.38228 14.3953 4.67351 15.2495 4.67351 16.0885C4.67351 16.9274 4.38228 17.7817 3.7998 18.6513H12.9821M18.6289 15.1242V18.666M20.3998 16.8951H16.858M19.7962 10.1257H6.50784C5.01223 10.1257 3.7998 8.97825 3.7998 7.56283C3.7998 6.14742 5.01223 5 6.50784 5H19.7962C19.7962 5 18.9225 6.30927 18.9225 7.56283C18.9225 8.8164 19.7962 10.1257 19.7962 10.1257Z" stroke="#202020" stroke-width="1.71977" stroke-linecap="round" stroke-linejoin="round"/></svg>