<svg width="24" height="24" viewBox="0 0 24 24" fill="none" xmlns="http://www.w3.org/2000/svg"><path d="M-87 -493C-87 -494.105 -86.1046 -495 -85 -495H511C512.105 -495 513 -494.105 513 -493V158C513 159.105 512.105 160 511 160H-85C-86.1046 160 -87 159.105 -87 158V-493Z" fill="white"/><path d="M-85 -495V-494H511V-495V-496H-85V-495ZM513 -493H512V158H513H514V-493H513ZM511 160V159H-85V160V161H511V160ZM-87 158H-86V-493H-87H-88V158H-87ZM-85 160V159C-85.5523 159 -86 158.552 -86 158H-87H-88C-88 159.657 -86.6569 161 -85 161V160ZM513 158H512C512 158.552 511.552 159 511 159V160V161C512.657 161 514 159.657 514 158H513ZM511 -495V-494C511.552 -494 512 -493.552 512 -493H513H514C514 -494.657 512.657 -496 511 -496V-495ZM-85 -495V-496C-86.6569 -496 -88 -494.657 -88 -493H-87H-86C-86 -493.552 -85.5523 -494 -85 -494V-495Z" fill="black" fill-opacity="0.1"/><rect x="-19.5" y="-107.5" width="63" height="151" rx="4.5" stroke="#9747FF" stroke-dasharray="10 5"/><path d="M0 4.8C0 2.14903 2.14903 0 4.8 0H19.2C21.851 0 24 2.14903 24 4.8V19.2C24 21.851 21.851 24 19.2 24H4.8C2.14903 24 0 21.851 0 19.2V4.8Z" fill="#F4F4F4"/><path d="M15.9946 13.5256H3.7998C4.38228 14.3952 4.67351 15.2495 4.67351 16.0885C4.67351 16.9274 4.38228 17.7817 3.7998 18.6513H12.9821M21 15L17.2884 18.7116M17.2989 18.7011L15.7831 17.2062M19.7962 10.1257H6.50784C5.01223 10.1257 3.7998 8.97825 3.7998 7.56283C3.7998 6.14742 5.01223 5 6.50784 5H19.7962C19.7962 5 18.9225 6.30927 18.9225 7.56283C18.9225 8.8164 19.7962 10.1257 19.7962 10.1257Z" stroke="#8C8C8C" stroke-width="1.71977" stroke-linecap="round" stroke-linejoin="round"/></svg>