<svg width="24" height="24" viewBox="0 0 24 24" fill="none" xmlns="http://www.w3.org/2000/svg"><path d="M-87 -405C-87 -406.105 -86.1046 -407 -85 -407H511C512.105 -407 513 -406.105 513 -405V246C513 247.105 512.105 248 511 248H-85C-86.1046 248 -87 247.105 -87 246V-405Z" fill="white"/><path d="M-85 -407V-406H511V-407V-408H-85V-407ZM513 -405H512V246H513H514V-405H513ZM511 248V247H-85V248V249H511V248ZM-87 246H-86V-405H-87H-88V246H-87ZM-85 248V247C-85.5523 247 -86 246.552 -86 246H-87H-88C-88 247.657 -86.6569 249 -85 249V248ZM513 246H512C512 246.552 511.552 247 511 247V248V249C512.657 249 514 247.657 514 246H513ZM511 -407V-406C511.552 -406 512 -405.552 512 -405H513H514C514 -406.657 512.657 -408 511 -408V-407ZM-85 -407V-408C-86.6569 -408 -88 -406.657 -88 -405H-87H-86C-86 -405.552 -85.5523 -406 -85 -406V-407Z" fill="black" fill-opacity="0.1"/><rect x="-19.5" y="-19.5" width="63" height="151" rx="4.5" stroke="#9747FF" stroke-dasharray="10 5"/><path d="M16.2686 13.1745H3.50488C4.11453 14.0847 4.41935 14.9788 4.41935 15.8569C4.41935 16.7349 4.11453 17.6291 3.50488 18.5393H13.1155M19.0258 14.8476V18.5547M20.8793 16.7011H17.1722M20.2475 9.61589H6.33926C4.77387 9.61589 3.50488 8.41494 3.50488 6.93349C3.50488 5.45205 4.77387 4.2511 6.33926 4.2511H20.2475C20.2475 4.2511 19.3331 5.62145 19.3331 6.93349C19.3331 8.24554 20.2475 9.61589 20.2475 9.61589Z" stroke="#202020" stroke-width="1.8" stroke-linecap="round" stroke-linejoin="round"/></svg>