<svg width="24" height="24" viewBox="0 0 24 24" fill="none" xmlns="http://www.w3.org/2000/svg"><path d="M-1036 -612C-1036 -616.418 -1032.42 -620 -1028 -620H116C120.418 -620 124 -616.418 124 -612V1078C124 1082.42 120.418 1086 116 1086H-1028C-1032.42 1086 -1036 1082.42 -1036 1078V-612Z" fill="white"/><path d="M-1028 -620V-619H116V-620V-621H-1028V-620ZM124 -612H123V1078H124H125V-612H124ZM116 1086V1085H-1028V1086V1087H116V1086ZM-1036 1078H-1035V-612H-1036H-1037V1078H-1036ZM-1028 1086V1085C-1031.87 1085 -1035 1081.87 -1035 1078H-1036H-1037C-1037 1082.97 -1032.97 1087 -1028 1087V1086ZM124 1078H123C123 1081.87 119.866 1085 116 1085V1086V1087C120.971 1087 125 1082.97 125 1078H124ZM116 -620V-619C119.866 -619 123 -615.866 123 -612H124H125C125 -616.971 120.971 -621 116 -621V-620ZM-1028 -620V-621C-1032.97 -621 -1037 -616.971 -1037 -612H-1036H-1035C-1035 -615.866 -1031.87 -619 -1028 -619V-620Z" fill="#F1F1F1"/><path d="M23 4.00001V10M23 10H17M23 10L18.36 5.64001C17.2853 4.56473 15.9556 3.77922 14.4952 3.35679C13.0348 2.93436 11.4911 2.88877 10.0083 3.22427C8.52547 3.55978 7.1518 4.26545 6.01547 5.27543C4.87913 6.28542 4.01717 7.5668 3.51 9.00001M1 20V14M1 14H7M1 14L5.64 18.36C6.71475 19.4353 8.04437 20.2208 9.50481 20.6432C10.9652 21.0657 12.5089 21.1113 13.9917 20.7758C15.4745 20.4402 16.8482 19.7346 17.9845 18.7246C19.1209 17.7146 19.9828 16.4332 20.49 15" stroke="#202020" stroke-width="1.8" stroke-linecap="round" stroke-linejoin="round"/></svg>