<svg width="16" height="16" viewBox="0 0 16 16" fill="none" xmlns="http://www.w3.org/2000/svg"><path d="M-772 -572C-772 -576.418 -768.418 -580 -764 -580H300C304.418 -580 308 -576.418 308 -572V1082C308 1086.42 304.418 1090 300 1090H-764C-768.418 1090 -772 1086.42 -772 1082V-572Z" fill="white"/><path d="M-764 -580V-579H300V-580V-581H-764V-580ZM308 -572H307V1082H308H309V-572H308ZM300 1090V1089H-764V1090V1091H300V1090ZM-772 1082H-771V-572H-772H-773V1082H-772ZM-764 1090V1089C-767.866 1089 -771 1085.87 -771 1082H-772H-773C-773 1086.97 -768.971 1091 -764 1091V1090ZM308 1082H307C307 1085.87 303.866 1089 300 1089V1090V1091C304.971 1091 309 1086.97 309 1082H308ZM300 -580V-579C303.866 -579 307 -575.866 307 -572H308H309C309 -576.971 304.971 -581 300 -581V-580ZM-764 -580V-581C-768.971 -581 -773 -576.971 -773 -572H-772H-771C-771 -575.866 -767.866 -579 -764 -579V-580Z" fill="#F1F1F1"/><path d="M15.3332 2.66668V6.66668M15.3332 6.66668H11.3332M15.3332 6.66668L12.2398 3.76001C11.5233 3.04315 10.6369 2.51948 9.6633 2.23786C8.68967 1.95624 7.66057 1.92584 6.67203 2.14952C5.68348 2.37319 4.7677 2.84363 4.01015 3.51696C3.25259 4.19028 2.67795 5.04453 2.33984 6.00001M0.666504 13.3333V9.33334M0.666504 9.33334H4.6665M0.666504 9.33334L3.75984 12.24C4.47634 12.9569 5.36275 13.4805 6.33638 13.7622C7.31 14.0438 8.3391 14.0742 9.32765 13.8505C10.3162 13.6268 11.232 13.1564 11.9895 12.4831C12.7471 11.8097 13.3217 10.9555 13.6598 10" stroke="#202020" stroke-width="1.3" stroke-linecap="round" stroke-linejoin="round"/></svg>