<svg width="16" height="16" viewBox="0 0 16 16" fill="none" xmlns="http://www.w3.org/2000/svg"><path d="M-676 -572C-676 -576.418 -672.418 -580 -668 -580H396C400.418 -580 404 -576.418 404 -572V1082C404 1086.42 400.418 1090 396 1090H-668C-672.418 1090 -676 1086.42 -676 1082V-572Z" fill="white"/><path d="M-668 -580V-579H396V-580V-581H-668V-580ZM404 -572H403V1082H404H405V-572H404ZM396 1090V1089H-668V1090V1091H396V1090ZM-676 1082H-675V-572H-676H-677V1082H-676ZM-668 1090V1089C-671.866 1089 -675 1085.87 -675 1082H-676H-677C-677 1086.97 -672.971 1091 -668 1091V1090ZM404 1082H403C403 1085.87 399.866 1089 396 1089V1090V1091C400.971 1091 405 1086.97 405 1082H404ZM396 -580V-579C399.866 -579 403 -575.866 403 -572H404H405C405 -576.971 400.971 -581 396 -581V-580ZM-668 -580V-581C-672.971 -581 -677 -576.971 -677 -572H-676H-675C-675 -575.866 -671.866 -579 -668 -579V-580Z" fill="#F1F1F1"/><path d="M0.666504 2.66668V6.66668M0.666504 6.66668H4.6665M0.666504 6.66668L3.75984 3.76001C4.47634 3.04315 5.36275 2.51948 6.33638 2.23786C7.31 1.95624 8.3391 1.92584 9.32765 2.14952C10.3162 2.37319 11.232 2.84363 11.9895 3.51696C12.7471 4.19028 13.3217 5.04453 13.6598 6.00001M15.3332 13.3333V9.33334M15.3332 9.33334H11.3332M15.3332 9.33334L12.2398 12.24C11.5233 12.9569 10.6369 13.4805 9.6633 13.7622C8.68967 14.0438 7.66057 14.0742 6.67203 13.8505C5.68348 13.6268 4.7677 13.1564 4.01015 12.4831C3.25259 11.8097 2.67795 10.9555 2.33984 10" stroke="#202020" stroke-width="1.3" stroke-linecap="round" stroke-linejoin="round"/></svg>