<svg width="32" height="32" viewBox="0 0 32 32" fill="none" xmlns="http://www.w3.org/2000/svg"><path d="M-548 -652C-548 -656.418 -544.418 -660 -540 -660H684C688.418 -660 692 -656.418 692 -652V1038C692 1042.42 688.418 1046 684 1046H-540C-544.418 1046 -548 1042.42 -548 1038V-652Z" fill="white"/><path d="M-540 -660V-659H684V-660V-661H-540V-660ZM692 -652H691V1038H692H693V-652H692ZM684 1046V1045H-540V1046V1047H684V1046ZM-548 1038H-547V-652H-548H-549V1038H-548ZM-540 1046V1045C-543.866 1045 -547 1041.87 -547 1038H-548H-549C-549 1042.97 -544.971 1047 -540 1047V1046ZM692 1038H691C691 1041.87 687.866 1045 684 1045V1046V1047C688.971 1047 693 1042.97 693 1038H692ZM684 -660V-659C687.866 -659 691 -655.866 691 -652H692H693C693 -656.971 688.971 -661 684 -661V-660ZM-540 -660V-661C-544.971 -661 -549 -656.971 -549 -652H-548H-547C-547 -655.866 -543.866 -659 -540 -659V-660Z" fill="#F1F1F1"/><path d="M1.33325 5.33335V13.3334M1.33325 13.3334H9.33325M1.33325 13.3334L7.51992 7.52002C8.95292 6.0863 10.7258 5.03896 12.673 4.47572C14.6202 3.91247 16.6784 3.85169 18.6555 4.29903C20.6326 4.74637 22.4642 5.68726 23.9793 7.03391C25.4944 8.38056 26.6437 10.0891 27.3199 12M30.6666 26.6667V18.6667M30.6666 18.6667H22.6666M30.6666 18.6667L24.4799 24.48C23.0469 25.9137 21.2741 26.9611 19.3268 27.5243C17.3796 28.0876 15.3214 28.1484 13.3443 27.701C11.3672 27.2537 9.53565 26.3128 8.02054 24.9661C6.50543 23.6195 5.35614 21.911 4.67992 20" stroke="#202020" stroke-width="2.2" stroke-linecap="round" stroke-linejoin="round"/></svg>