<svg width="20" height="20" viewBox="0 0 20 20" fill="none" xmlns="http://www.w3.org/2000/svg"><path d="M-1000 -592C-1000 -596.418 -996.418 -600 -992 -600H112C116.418 -600 120 -596.418 120 -592V1098C120 1102.42 116.418 1106 112 1106H-992C-996.418 1106 -1000 1102.42 -1000 1098V-592Z" fill="white"/><path d="M-992 -600V-599H112V-600V-601H-992V-600ZM120 -592H119V1098H120H121V-592H120ZM112 1106V1105H-992V1106V1107H112V1106ZM-1000 1098H-999V-592H-1000H-1001V1098H-1000ZM-992 1106V1105C-995.866 1105 -999 1101.87 -999 1098H-1000H-1001C-1001 1102.97 -996.971 1107 -992 1107V1106ZM120 1098H119C119 1101.87 115.866 1105 112 1105V1106V1107C116.971 1107 121 1102.97 121 1098H120ZM112 -600V-599C115.866 -599 119 -595.866 119 -592H120H121C121 -596.971 116.971 -601 112 -601V-600ZM-992 -600V-601C-996.971 -601 -1001 -596.971 -1001 -592H-1000H-999C-999 -595.866 -995.866 -599 -992 -599V-600Z" fill="#F1F1F1"/><path d="M19.1668 3.33331V8.33331M19.1668 8.33331H14.1668M19.1668 8.33331L15.3002 4.69998C14.4045 3.80391 13.2965 3.14932 12.0795 2.79729C10.8625 2.44527 9.57608 2.40727 8.3404 2.68686C7.10472 2.96645 5.96 3.55451 5.01305 4.39616C4.06611 5.23782 3.3478 6.30564 2.92516 7.49998M0.833496 16.6666V11.6666M0.833496 11.6666H5.8335M0.833496 11.6666L4.70016 15.3C5.59579 16.1961 6.70381 16.8506 7.92084 17.2027C9.13787 17.5547 10.4242 17.5927 11.6599 17.3131C12.8956 17.0335 14.0403 16.4455 14.9873 15.6038C15.9342 14.7621 16.6525 13.6943 17.0752 12.5" stroke="#202020" stroke-width="1.5" stroke-linecap="round" stroke-linejoin="round"/></svg>