<svg width="20" height="20" viewBox="0 0 20 20" fill="none" xmlns="http://www.w3.org/2000/svg"><path d="M-900 -592C-900 -596.418 -896.418 -600 -892 -600H212C216.418 -600 220 -596.418 220 -592V1098C220 1102.42 216.418 1106 212 1106H-892C-896.418 1106 -900 1102.42 -900 1098V-592Z" fill="white"/><path d="M-892 -600V-599H212V-600V-601H-892V-600ZM220 -592H219V1098H220H221V-592H220ZM212 1106V1105H-892V1106V1107H212V1106ZM-900 1098H-899V-592H-900H-901V1098H-900ZM-892 1106V1105C-895.866 1105 -899 1101.87 -899 1098H-900H-901C-901 1102.97 -896.971 1107 -892 1107V1106ZM220 1098H219C219 1101.87 215.866 1105 212 1105V1106V1107C216.971 1107 221 1102.97 221 1098H220ZM212 -600V-599C215.866 -599 219 -595.866 219 -592H220H221C221 -596.971 216.971 -601 212 -601V-600ZM-892 -600V-601C-896.971 -601 -901 -596.971 -901 -592H-900H-899C-899 -595.866 -895.866 -599 -892 -599V-600Z" fill="#F1F1F1"/><path d="M0.833496 3.33331V8.33331M0.833496 8.33331H5.8335M0.833496 8.33331L4.70016 4.69998C5.59579 3.80391 6.70381 3.14932 7.92084 2.79729C9.13787 2.44527 10.4242 2.40727 11.6599 2.68686C12.8956 2.96645 14.0403 3.55451 14.9873 4.39616C15.9342 5.23782 16.6525 6.30564 17.0752 7.49998M19.1668 16.6666V11.6666M19.1668 11.6666H14.1668M19.1668 11.6666L15.3002 15.3C14.4045 16.1961 13.2965 16.8506 12.0795 17.2027C10.8625 17.5547 9.57608 17.5927 8.3404 17.3131C7.10472 17.0335 5.96 16.4455 5.01305 15.6038C4.06611 14.7621 3.3478 13.6943 2.92516 12.5" stroke="#202020" stroke-width="1.5" stroke-linecap="round" stroke-linejoin="round"/></svg>