<svg width="16" height="16" viewBox="0 0 16 16" fill="none" xmlns="http://www.w3.org/2000/svg"><path d="M-232 -452C-232 -453.105 -231.105 -454 -230 -454H989C990.105 -454 991 -453.105 991 -452V387C991 388.105 990.105 389 989 389H-230C-231.105 389 -232 388.105 -232 387V-452Z" fill="white"/><path d="M-230 -454V-453H989V-454V-455H-230V-454ZM991 -452H990V387H991H992V-452H991ZM989 389V388H-230V389V390H989V389ZM-232 387H-231V-452H-232H-233V387H-232ZM-230 389V388C-230.552 388 -231 387.552 -231 387H-232H-233C-233 388.657 -231.657 390 -230 390V389ZM991 387H990C990 387.552 989.552 388 989 388V389V390C990.657 390 992 388.657 992 387H991ZM989 -454V-453C989.552 -453 990 -452.552 990 -452H991H992C992 -453.657 990.657 -455 989 -455V-454ZM-230 -454V-455C-231.657 -455 -233 -453.657 -233 -452H-232H-231C-231 -452.552 -230.552 -453 -230 -453V-454Z" fill="black" fill-opacity="0.1"/><path d="M0.666504 2.66668V6.66668M0.666504 6.66668H4.6665M0.666504 6.66668L3.75984 3.76001C4.47634 3.04315 5.36275 2.51948 6.33638 2.23786C7.31 1.95624 8.3391 1.92584 9.32765 2.14952C10.3162 2.37319 11.232 2.84363 11.9895 3.51696C12.7471 4.19028 13.3217 5.04453 13.6598 6.00001M15.3332 13.3333V9.33334M15.3332 9.33334H11.3332M15.3332 9.33334L12.2398 12.24C11.5233 12.9569 10.6369 13.4805 9.6633 13.7622C8.68967 14.0438 7.66057 14.0742 6.67203 13.8505C5.68348 13.6268 4.7677 13.1564 4.01015 12.4831C3.25259 11.8097 2.67795 10.9555 2.33984 10" stroke="#202020" stroke-width="1.3" stroke-linecap="round" stroke-linejoin="round"/></svg>