<svg width="32" height="32" viewBox="0 0 32 32" fill="none" xmlns="http://www.w3.org/2000/svg"><path d="M-772 -652C-772 -656.418 -768.418 -660 -764 -660H460C464.418 -660 468 -656.418 468 -652V1038C468 1042.42 464.418 1046 460 1046H-764C-768.418 1046 -772 1042.42 -772 1038V-652Z" fill="white"/><path d="M-764 -660V-659H460V-660V-661H-764V-660ZM468 -652H467V1038H468H469V-652H468ZM460 1046V1045H-764V1046V1047H460V1046ZM-772 1038H-771V-652H-772H-773V1038H-772ZM-764 1046V1045C-767.866 1045 -771 1041.87 -771 1038H-772H-773C-773 1042.97 -768.971 1047 -764 1047V1046ZM468 1038H467C467 1041.87 463.866 1045 460 1045V1046V1047C464.971 1047 469 1042.97 469 1038H468ZM460 -660V-659C463.866 -659 467 -655.866 467 -652H468H469C469 -656.971 464.971 -661 460 -661V-660ZM-764 -660V-661C-768.971 -661 -773 -656.971 -773 -652H-772H-771C-771 -655.866 -767.866 -659 -764 -659V-660Z" fill="#F1F1F1"/><path d="M22.6667 1.33331L28 6.66665M28 6.66665L22.6667 12M28 6.66665H9.33333C7.91885 6.66665 6.56229 7.22855 5.5621 8.22874C4.5619 9.22894 4 10.5855 4 12V14.6666M9.33333 30.6666L4 25.3333M4 25.3333L9.33333 20M4 25.3333L22.6667 25.3333C24.0812 25.3333 25.4377 24.7714 26.4379 23.7712C27.4381 22.771 28 21.4145 28 20V17.3333" stroke="#202020" stroke-width="2.2" stroke-linecap="round" stroke-linejoin="round"/></svg>