<svg width="16" height="16" viewBox="0 0 16 16" fill="none" xmlns="http://www.w3.org/2000/svg"><path d="M-964 -572C-964 -576.418 -960.418 -580 -956 -580H108C112.418 -580 116 -576.418 116 -572V1082C116 1086.42 112.418 1090 108 1090H-956C-960.418 1090 -964 1086.42 -964 1082V-572Z" fill="white"/><path d="M-956 -580V-579H108V-580V-581H-956V-580ZM116 -572H115V1082H116H117V-572H116ZM108 1090V1089H-956V1090V1091H108V1090ZM-964 1082H-963V-572H-964H-965V1082H-964ZM-956 1090V1089C-959.866 1089 -963 1085.87 -963 1082H-964H-965C-965 1086.97 -960.971 1091 -956 1091V1090ZM116 1082H115C115 1085.87 111.866 1089 108 1089V1090V1091C112.971 1091 117 1086.97 117 1082H116ZM108 -580V-579C111.866 -579 115 -575.866 115 -572H116H117C117 -576.971 112.971 -581 108 -581V-580ZM-956 -580V-581C-960.971 -581 -965 -576.971 -965 -572H-964H-963C-963 -575.866 -959.866 -579 -956 -579V-580Z" fill="#F1F1F1"/><path d="M15.3331 2.66666V6.66666M15.3331 6.66666H11.3331M15.3331 6.66666L12.2464 3.75999C11.3268 2.83981 10.1331 2.24345 8.84506 2.06075C7.55704 1.87806 6.24454 2.11893 5.10533 2.74708C3.96612 3.37523 3.06192 4.35662 2.529 5.54337C1.99608 6.73011 1.8633 8.05792 2.15067 9.32669C2.43804 10.5955 3.12999 11.7365 4.12226 12.5778C5.11453 13.4191 6.35335 13.9151 7.65204 13.991C8.95073 14.067 10.2389 13.7188 11.3225 12.999C12.4061 12.2791 13.2264 11.2266 13.6598 9.99999" stroke="#202020" stroke-width="1.3" stroke-linecap="round" stroke-linejoin="round"/></svg>