<svg width="32" height="32" viewBox="0 0 32 32" fill="none" xmlns="http://www.w3.org/2000/svg"><path d="M-884 -652C-884 -656.418 -880.418 -660 -876 -660H348C352.418 -660 356 -656.418 356 -652V1038C356 1042.42 352.418 1046 348 1046H-876C-880.418 1046 -884 1042.42 -884 1038V-652Z" fill="white"/><path d="M-876 -660V-659H348V-660V-661H-876V-660ZM356 -652H355V1038H356H357V-652H356ZM348 1046V1045H-876V1046V1047H348V1046ZM-884 1038H-883V-652H-884H-885V1038H-884ZM-876 1046V1045C-879.866 1045 -883 1041.87 -883 1038H-884H-885C-885 1042.97 -880.971 1047 -876 1047V1046ZM356 1038H355C355 1041.87 351.866 1045 348 1045V1046V1047C352.971 1047 357 1042.97 357 1038H356ZM348 -660V-659C351.866 -659 355 -655.866 355 -652H356H357C357 -656.971 352.971 -661 348 -661V-660ZM-876 -660V-661C-880.971 -661 -885 -656.971 -885 -652H-884H-883C-883 -655.866 -879.866 -659 -876 -659V-660Z" fill="#F1F1F1"/><path d="M1.33325 5.33335V13.3333M1.33325 13.3333H9.33325M1.33325 13.3333L7.51992 7.52001C9.36114 5.68191 11.7499 4.49197 14.3262 4.1295C16.9025 3.76703 19.5268 4.25166 21.8037 5.51037C24.0806 6.76907 25.8868 8.73367 26.9501 11.1081C28.0134 13.4826 28.2762 16.1383 27.6989 18.6752C27.1216 21.212 25.7355 23.4925 23.7494 25.173C21.7634 26.8536 19.2849 27.8431 16.6875 27.9926C14.0902 28.1421 11.5146 27.4434 9.34879 26.0019C7.18303 24.5603 5.54444 22.4539 4.67992 20" stroke="#202020" stroke-width="2.2" stroke-linecap="round" stroke-linejoin="round"/></svg>