<svg width="32" height="32" viewBox="0 0 32 32" fill="none" xmlns="http://www.w3.org/2000/svg"><path d="M-996 -652C-996 -656.418 -992.418 -660 -988 -660H236C240.418 -660 244 -656.418 244 -652V1038C244 1042.42 240.418 1046 236 1046H-988C-992.418 1046 -996 1042.42 -996 1038V-652Z" fill="white"/><path d="M-988 -660V-659H236V-660V-661H-988V-660ZM244 -652H243V1038H244H245V-652H244ZM236 1046V1045H-988V1046V1047H236V1046ZM-996 1038H-995V-652H-996H-997V1038H-996ZM-988 1046V1045C-991.866 1045 -995 1041.87 -995 1038H-996H-997C-997 1042.97 -992.971 1047 -988 1047V1046ZM244 1038H243C243 1041.87 239.866 1045 236 1045V1046V1047C240.971 1047 245 1042.97 245 1038H244ZM236 -660V-659C239.866 -659 243 -655.866 243 -652H244H245C245 -656.971 240.971 -661 236 -661V-660ZM-988 -660V-661C-992.971 -661 -997 -656.971 -997 -652H-996H-995C-995 -655.866 -991.866 -659 -988 -659V-660Z" fill="#F1F1F1"/><path d="M30.6667 5.33331V13.3333M30.6667 13.3333H22.6667M30.6667 13.3333L24.4933 7.51998C22.6542 5.67963 20.2667 4.48689 17.6906 4.1215C15.1146 3.75611 12.4896 4.23786 10.2111 5.49416C7.93272 6.75046 6.12433 8.71324 5.05849 11.0867C3.99264 13.4602 3.72708 16.1158 4.30182 18.6534C4.87657 21.1909 6.26048 23.4729 8.24501 25.1555C10.2295 26.8381 12.7072 27.8301 15.3046 27.9821C17.9019 28.134 20.4784 27.4377 22.6455 25.998C24.8127 24.5583 26.4533 22.4532 27.32 20" stroke="#202020" stroke-width="2.2" stroke-linecap="round" stroke-linejoin="round"/></svg>