<svg width="16" height="16" viewBox="0 0 16 16" fill="none" xmlns="http://www.w3.org/2000/svg"><path d="M-868 -572C-868 -576.418 -864.418 -580 -860 -580H204C208.418 -580 212 -576.418 212 -572V1082C212 1086.42 208.418 1090 204 1090H-860C-864.418 1090 -868 1086.42 -868 1082V-572Z" fill="white"/><path d="M-860 -580V-579H204V-580V-581H-860V-580ZM212 -572H211V1082H212H213V-572H212ZM204 1090V1089H-860V1090V1091H204V1090ZM-868 1082H-867V-572H-868H-869V1082H-868ZM-860 1090V1089C-863.866 1089 -867 1085.87 -867 1082H-868H-869C-869 1086.97 -864.971 1091 -860 1091V1090ZM212 1082H211C211 1085.87 207.866 1089 204 1089V1090V1091C208.971 1091 213 1086.97 213 1082H212ZM204 -580V-579C207.866 -579 211 -575.866 211 -572H212H213C213 -576.971 208.971 -581 204 -581V-580ZM-860 -580V-581C-864.971 -581 -869 -576.971 -869 -572H-868H-867C-867 -575.866 -863.866 -579 -860 -579V-580Z" fill="#F1F1F1"/><path d="M0.666504 2.66667V6.66667M0.666504 6.66667H4.6665M0.666504 6.66667L3.75984 3.76001C4.68045 2.84095 5.8748 2.24599 7.16296 2.06475C8.45111 1.88352 9.76327 2.12583 10.9017 2.75518C12.0402 3.38454 12.9433 4.36684 13.4749 5.55407C14.0066 6.74131 14.138 8.06917 13.8493 9.33758C13.5607 10.606 12.8676 11.7462 11.8746 12.5865C10.8816 13.4268 9.64234 13.9216 8.34365 13.9963C7.04496 14.0711 5.75716 13.7217 4.67427 13.0009C3.59139 12.2801 2.7721 11.2269 2.33984 10" stroke="#202020" stroke-width="1.3" stroke-linecap="round" stroke-linejoin="round"/></svg>