<svg width="16" height="16" viewBox="0 0 16 16" fill="none" xmlns="http://www.w3.org/2000/svg"><path d="M-100 -668C-100 -672.418 -96.4183 -676 -92 -676H972C976.418 -676 980 -672.418 980 -668V986C980 990.418 976.418 994 972 994H-92C-96.4183 994 -100 990.418 -100 986V-668Z" fill="white"/><path d="M-92 -676V-675H972V-676V-677H-92V-676ZM980 -668H979V986H980H981V-668H980ZM972 994V993H-92V994V995H972V994ZM-100 986H-99V-668H-100H-101V986H-100ZM-92 994V993C-95.866 993 -99 989.866 -99 986H-100H-101C-101 990.971 -96.9705 995 -92 995V994ZM980 986H979C979 989.866 975.866 993 972 993V994V995C976.971 995 981 990.971 981 986H980ZM972 -676V-675C975.866 -675 979 -671.866 979 -668H980H981C981 -672.971 976.971 -677 972 -677V-676ZM-92 -676V-677C-96.9706 -677 -101 -672.971 -101 -668H-100H-99C-99 -671.866 -95.866 -675 -92 -675V-676Z" fill="#F1F1F1"/><path d="M15 15L12.6349 12.6349M14.638 7.81898C14.638 11.585 11.585 14.638 7.81898 14.638C4.05296 14.638 1 11.585 1 7.81898C1 4.05296 4.05296 1 7.81898 1C11.585 1 14.638 4.05296 14.638 7.81898Z" stroke="#202020" stroke-width="1.51667" stroke-linecap="round" stroke-linejoin="round"/><defs><clipPath id="clip0_7809_18809"><rect width="16" height="16" fill="white"/></clipPath></defs></svg>