<svg width="24" height="24" viewBox="0 0 24 24" fill="none" xmlns="http://www.w3.org/2000/svg"><path d="M-117 -240C-117 -241.105 -116.105 -242 -115 -242H1104C1105.1 -242 1106 -241.105 1106 -240V599C1106 600.105 1105.1 601 1104 601H-115C-116.105 601 -117 600.105 -117 599V-240Z" fill="white"/><path d="M-115 -242V-241H1104V-242V-243H-115V-242ZM1106 -240H1105V599H1106H1107V-240H1106ZM1104 601V600H-115V601V602H1104V601ZM-117 599H-116V-240H-117H-118V599H-117ZM-115 601V600C-115.552 600 -116 599.552 -116 599H-117H-118C-118 600.657 -116.657 602 -115 602V601ZM1106 599H1105C1105 599.552 1104.55 600 1104 600V601V602C1105.66 602 1107 600.657 1107 599H1106ZM1104 -242V-241C1104.55 -241 1105 -240.552 1105 -240H1106H1107C1107 -241.657 1105.66 -243 1104 -243V-242ZM-115 -242V-243C-116.657 -243 -118 -241.657 -118 -240H-117H-116C-116 -240.552 -115.552 -241 -115 -241V-242Z" fill="black" fill-opacity="0.1"/><path d="M20.2123 20.2124L17.4376 17.4377M19.7876 11.7877C19.7876 16.2059 16.2059 19.7877 11.7876 19.7877C7.36932 19.7877 3.7876 16.2059 3.7876 11.7877C3.7876 7.36938 7.36932 3.78766 11.7876 3.78766C16.2059 3.78766 19.7876 7.36938 19.7876 11.7877Z" stroke="#202020" stroke-width="1.8" stroke-linecap="round" stroke-linejoin="round"/></svg>