<svg width="32" height="32" viewBox="0 0 32 32" fill="none" xmlns="http://www.w3.org/2000/svg"><path d="M-1108 -652C-1108 -656.418 -1104.42 -660 -1100 -660H124C128.418 -660 132 -656.418 132 -652V1038C132 1042.42 128.418 1046 124 1046H-1100C-1104.42 1046 -1108 1042.42 -1108 1038V-652Z" fill="white"/><path d="M-1100 -660V-659H124V-660V-661H-1100V-660ZM132 -652H131V1038H132H133V-652H132ZM124 1046V1045H-1100V1046V1047H124V1046ZM-1108 1038H-1107V-652H-1108H-1109V1038H-1108ZM-1100 1046V1045C-1103.87 1045 -1107 1041.87 -1107 1038H-1108H-1109C-1109 1042.97 -1104.97 1047 -1100 1047V1046ZM132 1038H131C131 1041.87 127.866 1045 124 1045V1046V1047C128.971 1047 133 1042.97 133 1038H132ZM124 -660V-659C127.866 -659 131 -655.866 131 -652H132H133C133 -656.971 128.971 -661 124 -661V-660ZM-1100 -660V-661C-1104.97 -661 -1109 -656.971 -1109 -652H-1108H-1107C-1107 -655.866 -1103.87 -659 -1100 -659V-660Z" fill="#F1F1F1"/><path d="M28 28L22.2 22.2M25.3333 14.6667C25.3333 20.5577 20.5577 25.3333 14.6667 25.3333C8.77563 25.3333 4 20.5577 4 14.6667C4 8.77563 8.77563 4 14.6667 4C20.5577 4 25.3333 8.77563 25.3333 14.6667Z" stroke="#202020" stroke-width="2.2" stroke-linecap="round" stroke-linejoin="round"/></svg>