<svg width="26" height="14" viewBox="0 0 26 14" fill="none" xmlns="http://www.w3.org/2000/svg"><path d="M-76 -106.5C-76 -107.605 -75.1046 -108.5 -74 -108.5H552C553.105 -108.5 554 -107.605 554 -106.5V299.5C554 300.605 553.105 301.5 552 301.5H-74C-75.1046 301.5 -76 300.605 -76 299.5V-106.5Z" fill="white"/><path d="M-74 -108.5V-107.5H552V-108.5V-109.5H-74V-108.5ZM554 -106.5H553V299.5H554H555V-106.5H554ZM552 301.5V300.5H-74V301.5V302.5H552V301.5ZM-76 299.5H-75V-106.5H-76H-77V299.5H-76ZM-74 301.5V300.5C-74.5523 300.5 -75 300.052 -75 299.5H-76H-77C-77 301.157 -75.6569 302.5 -74 302.5V301.5ZM554 299.5H553C553 300.052 552.552 300.5 552 300.5V301.5V302.5C553.657 302.5 555 301.157 555 299.5H554ZM552 -108.5V-107.5C552.552 -107.5 553 -107.052 553 -106.5H554H555C555 -108.157 553.657 -109.5 552 -109.5V-108.5ZM-74 -108.5V-109.5C-75.6569 -109.5 -77 -108.157 -77 -106.5H-76H-75C-75 -107.052 -74.5523 -107.5 -74 -107.5V-108.5Z" fill="black" fill-opacity="0.1"/><rect x="0.3" y="0.3" width="25.4" height="13.4" rx="1.7" fill="url(#paint0_linear_7809_18809)"/><rect x="0.3" y="0.3" width="25.4" height="13.4" rx="1.7" stroke="#B2A1FF" stroke-width="0.6"/><path d="M6.24 2.7L6.99 2.87C6.75 3.63 6.46 4.55 6.22 5.11L5.65 4.94C5.86 4.35 6.11 3.38 6.24 2.7ZM4.66 4.94L3.99 5.1C3.95 4.51 3.74 3.59 3.49 2.89L4.11 2.75C4.38 3.43 4.59 4.34 4.66 4.94ZM5.61 6.3V6.44C5.85 6.72 6.73 7.95 6.91 8.26L6.32 8.97C6.18 8.64 5.88 8.08 5.61 7.58V11.27H4.78V7.93C4.49 8.77 4.12 9.58 3.75 10.12C3.67 9.84 3.45 9.43 3.3 9.17C3.81 8.5 4.33 7.31 4.63 6.3H3.43V5.43H4.78V2.14H5.61V5.43H6.65V6.3H5.61ZM8.4 9.09H11.08V8.46H8.4V9.09ZM11.08 7.2H8.4V7.83H11.08V7.2ZM11.95 6.51V10.39C11.95 10.8 11.86 11.03 11.58 11.14C11.29 11.27 10.84 11.28 10.23 11.28C10.19 11.06 10.07 10.73 9.97 10.52C10.37 10.54 10.8 10.54 10.91 10.54C11.04 10.54 11.08 10.5 11.08 10.39V9.72H8.4V11.28H7.54V6.51H11.95ZM10.13 5.31H12.57V6H6.95V5.31H9.25V4.74H7.48V4.08H9.25V3.57H7.24V2.89H9.25V2.13H10.13V2.89H12.31V3.57H10.13V4.08H12.1V4.74H10.13V5.31ZM19.73 6.36H18.87C18.68 7.86 18.2 8.98 16.53 9.65C16.43 9.42 16.17 9.07 15.97 8.9C17.4 8.39 17.77 7.52 17.92 6.36H16.21V5.55H18.96V4.22H17.61C17.4 4.6 17.18 4.95 16.95 5.22C16.78 5.08 16.39 4.83 16.18 4.72C16.72 4.15 17.14 3.29 17.36 2.42L18.24 2.61C18.17 2.88 18.08 3.17 17.97 3.43H18.96V2.16H19.89V3.43H22.07V4.22H19.89V5.55H22.48V6.36H20.64V8.42C20.64 8.68 20.67 8.71 20.88 8.71H21.51C21.71 8.71 21.75 8.57 21.78 7.59C21.96 7.75 22.34 7.9 22.6 7.96C22.5 9.25 22.27 9.57 21.6 9.57H20.74C19.91 9.57 19.73 9.3 19.73 8.43V6.36ZM15.87 4.02L15.1 4.59C14.82 4.11 14.15 3.43 13.58 2.94L14.3 2.43C14.88 2.88 15.55 3.55 15.87 4.02ZM15.62 5.92V9.36C15.88 9.4 16.13 9.63 16.59 9.9C17.21 10.27 18.04 10.33 19.08 10.33C20.15 10.33 21.66 10.25 22.63 10.13C22.53 10.38 22.39 10.84 22.38 11.09C21.61 11.14 20.03 11.2 19.07 11.2C17.91 11.2 17.1 11.08 16.44 10.71C16.05 10.47 15.75 10.18 15.52 10.18C15.16 10.18 14.62 10.72 14.07 11.34L13.46 10.53C13.88 10.14 14.32 9.8 14.73 9.59V6.78H13.56V5.92H15.62Z" fill="#6041EA"/><defs><linearGradient id="paint0_linear_7809_18809" x1="0" y1="7" x2="26" y2="7" gradientUnits="userSpaceOnUse"><stop stop-color="#D3CAFF"/><stop offset="1" stop-color="#F0ECFF"/></linearGradient></defs></svg>