<svg width="16" height="16" viewBox="0 0 16 16" fill="none" xmlns="http://www.w3.org/2000/svg"><path d="M-196 -668C-196 -672.418 -192.418 -676 -188 -676H876C880.418 -676 884 -672.418 884 -668V986C884 990.418 880.418 994 876 994H-188C-192.418 994 -196 990.418 -196 986V-668Z" fill="white"/><path d="M-188 -676V-675H876V-676V-677H-188V-676ZM884 -668H883V986H884H885V-668H884ZM876 994V993H-188V994V995H876V994ZM-196 986H-195V-668H-196H-197V986H-196ZM-188 994V993C-191.866 993 -195 989.866 -195 986H-196H-197C-197 990.971 -192.971 995 -188 995V994ZM884 986H883C883 989.866 879.866 993 876 993V994V995C880.971 995 885 990.971 885 986H884ZM876 -676V-675C879.866 -675 883 -671.866 883 -668H884H885C885 -672.971 880.971 -677 876 -677V-676ZM-188 -676V-677C-192.971 -677 -197 -672.971 -197 -668H-196H-195C-195 -671.866 -191.866 -675 -188 -675V-676Z" fill="#F1F1F1"/><path d="M14.6668 1.33331L7.3335 8.66665M14.6668 1.33331L10.0002 14.6666L7.3335 8.66665M14.6668 1.33331L1.3335 5.99998L7.3335 8.66665" stroke="#202020" stroke-width="1.3" stroke-linecap="round" stroke-linejoin="round"/><defs><clipPath id="clip0_7809_18809"><rect width="16" height="16" fill="white"/></clipPath></defs></svg>