<svg width="32" height="32" viewBox="0 0 32 32" fill="none" xmlns="http://www.w3.org/2000/svg"><path d="M-100 -764C-100 -768.418 -96.4183 -772 -92 -772H1132C1136.42 -772 1140 -768.418 1140 -764V926C1140 930.418 1136.42 934 1132 934H-92C-96.4183 934 -100 930.418 -100 926V-764Z" fill="white"/><path d="M-92 -772V-771H1132V-772V-773H-92V-772ZM1140 -764H1139V926H1140H1141V-764H1140ZM1132 934V933H-92V934V935H1132V934ZM-100 926H-99V-764H-100H-101V926H-100ZM-92 934V933C-95.866 933 -99 929.866 -99 926H-100H-101C-101 930.971 -96.9706 935 -92 935V934ZM1140 926H1139C1139 929.866 1135.87 933 1132 933V934V935C1136.97 935 1141 930.971 1141 926H1140ZM1132 -772V-771C1135.87 -771 1139 -767.866 1139 -764H1140H1141C1141 -768.971 1136.97 -773 1132 -773V-772ZM-92 -772V-773C-96.9706 -773 -101 -768.971 -101 -764H-100H-99C-99 -767.866 -95.866 -771 -92 -771V-772Z" fill="#F1F1F1"/><path d="M29.3334 2.66669L14.6667 17.3334M29.3334 2.66669L20.0001 29.3334L14.6667 17.3334M29.3334 2.66669L2.66675 12L14.6667 17.3334" stroke="#202020" stroke-width="2.2" stroke-linecap="round" stroke-linejoin="round"/></svg>