<svg width="20" height="20" viewBox="0 0 20 20" fill="none" xmlns="http://www.w3.org/2000/svg"><path d="M-400 -692C-400 -696.418 -396.418 -700 -392 -700H712C716.418 -700 720 -696.418 720 -692V998C720 1002.42 716.418 1006 712 1006H-392C-396.418 1006 -400 1002.42 -400 998V-692Z" fill="white"/><path d="M-392 -700V-699H712V-700V-701H-392V-700ZM720 -692H719V998H720H721V-692H720ZM712 1006V1005H-392V1006V1007H712V1006ZM-400 998H-399V-692H-400H-401V998H-400ZM-392 1006V1005C-395.866 1005 -399 1001.87 -399 998H-400H-401C-401 1002.97 -396.971 1007 -392 1007V1006ZM720 998H719C719 1001.87 715.866 1005 712 1005V1006V1007C716.971 1007 721 1002.97 721 998H720ZM712 -700V-699C715.866 -699 719 -695.866 719 -692H720H721C721 -696.971 716.971 -701 712 -701V-700ZM-392 -700V-701C-396.971 -701 -401 -696.971 -401 -692H-400H-399C-399 -695.866 -395.866 -699 -392 -699V-700Z" fill="#F1F1F1"/><path d="M18.3332 1.66669L9.1665 10.8334M18.3332 1.66669L12.4998 18.3334L9.1665 10.8334M18.3332 1.66669L1.6665 7.50002L9.1665 10.8334" stroke="#202020" stroke-width="1.5" stroke-linecap="round" stroke-linejoin="round"/><defs><clipPath id="clip0_7809_18809"><rect width="20" height="20" fill="white"/></clipPath></defs></svg>