<svg width="28" height="16" viewBox="0 0 28 16" fill="none" xmlns="http://www.w3.org/2000/svg"><path d="M-177 -53C-177 -54.1046 -176.105 -55 -175 -55H451C452.105 -55 453 -54.1046 453 -53V353C453 354.105 452.105 355 451 355H-175C-176.105 355 -177 354.105 -177 353V-53Z" fill="white"/><path d="M-175 -55V-54H451V-55V-56H-175V-55ZM453 -53H452V353H453H454V-53H453ZM451 355V354H-175V355V356H451V355ZM-177 353H-176V-53H-177H-178V353H-177ZM-175 355V354C-175.552 354 -176 353.552 -176 353H-177H-178C-178 354.657 -176.657 356 -175 356V355ZM453 353H452C452 353.552 451.552 354 451 354V355V356C452.657 356 454 354.657 454 353H453ZM451 -55V-54C451.552 -54 452 -53.5523 452 -53H453H454C454 -54.6569 452.657 -56 451 -56V-55ZM-175 -55V-56C-176.657 -56 -178 -54.6569 -178 -53H-177H-176C-176 -53.5523 -175.552 -54 -175 -54V-55Z" fill="black" fill-opacity="0.1"/><mask id="path-3-inside-1_7809_18809" fill="white"><path d="M0 3C0 1.34315 1.34315 0 3 0H25C26.6569 0 28 1.34315 28 3V13C28 14.6569 26.6569 16 25 16H3C1.34315 16 0 14.6569 0 13V3Z"/></mask><path d="M0 3C0 1.34315 1.34315 0 3 0H25C26.6569 0 28 1.34315 28 3V13C28 14.6569 26.6569 16 25 16H3C1.34315 16 0 14.6569 0 13V3Z" fill="#3D394B"/><path d="M3 0V1H25V0V-1H3V0ZM28 3H27V13H28H29V3H28ZM25 16V15H3V16V17H25V16ZM0 13H1V3H0H-1V13H0ZM3 16V15C1.89543 15 1 14.1046 1 13H0H-1C-1 15.2091 0.790861 17 3 17V16ZM28 13H27C27 14.1046 26.1046 15 25 15V16V17C27.2091 17 29 15.2091 29 13H28ZM25 0V1C26.1046 1 27 1.89543 27 3H28H29C29 0.790861 27.2091 -1 25 -1V0ZM3 0V-1C0.790861 -1 -1 0.790861 -1 3H0H1C1 1.89543 1.89543 1 3 1V0Z" fill="#2A253A" mask="url(#path-3-inside-1_7809_18809)"/><path d="M10.16 11.02V9.38H7.18V8.5H10.16V7.36H8.7C8.24 7.36 7.86 7.41 7.78 7.51C7.73 7.31 7.57 6.87 7.46 6.63C7.66 6.58 7.82 6.34 8.01 5.99C8.11 5.83 8.31 5.42 8.51 4.92H7.27V4.12H8.83C8.94 3.79 9.06 3.44 9.15 3.1L10.12 3.37C10.03 3.62 9.94 3.87 9.85 4.12H13.24V4.92H9.51C9.27 5.48 9 6.03 8.73 6.5H10.16V5.37H11.12V6.5H12.94V7.36H11.12V8.5H13.38V9.38H11.12V11.02H10.16ZM6.94 4.96L6.18 5.49C5.92 5 5.33 4.23 4.83 3.67L5.54 3.21C6.04 3.74 6.66 4.48 6.94 4.96ZM6.59 6.44V10.32C6.77 10.43 6.98 10.6 7.28 10.79C7.94 11.2 8.84 11.27 9.99 11.27C11.15 11.27 12.73 11.18 13.73 11.04C13.62 11.31 13.46 11.8 13.44 12.08C12.74 12.13 10.98 12.19 9.96 12.19C8.66 12.19 7.83 12.08 7.09 11.64C6.67 11.38 6.32 11.03 6.1 11.03C5.8 11.03 5.37 11.69 4.96 12.34L4.28 11.43C4.77 10.85 5.27 10.41 5.7 10.23V7.3H4.47V6.44H6.59ZM23.21 4.57L22.51 5.05C22.27 4.68 21.76 4.11 21.33 3.7L22 3.27C22.44 3.64 22.97 4.2 23.21 4.57ZM22.27 6.53L23.1 6.77C22.74 8 22.25 9.15 21.62 10.15C21.86 10.88 22.18 11.31 22.53 11.31C22.74 11.31 22.85 10.88 22.9 9.78C23.09 9.98 23.39 10.18 23.62 10.26C23.48 11.77 23.2 12.2 22.45 12.2C21.83 12.2 21.36 11.76 21.01 11.01C20.61 11.52 20.16 11.96 19.67 12.34C19.53 12.13 19.26 11.86 19.03 11.69C19.65 11.26 20.19 10.7 20.66 10.05C20.35 8.98 20.18 7.6 20.09 6.05H16.54L17.32 6.27C17.23 6.49 17.13 6.71 17.02 6.94H19.77V7.68H16.64C16.45 8.03 16.25 8.37 16.04 8.66H17.24V7.95H18.11V8.66H19.6L19.59 9.43H18.11V10.21L19.8 10.07V10.82C19.24 10.88 18.67 10.94 18.11 10.99V12.26H17.24V11.08L14.74 11.32L14.65 10.47C15.35 10.43 16.25 10.36 17.24 10.28V9.43H15.99C15.59 9.43 15.27 9.49 15.18 9.59C15.13 9.4 15 8.98 14.89 8.76C15.07 8.72 15.21 8.53 15.38 8.26C15.45 8.16 15.57 7.95 15.71 7.68H14.69V6.94H16.06C16.18 6.65 16.29 6.35 16.39 6.05H14.55V5.31H16.84V4.59H15.05V3.86H16.84V3.12H17.73V3.86H19.44V4.59H17.73V5.31H20.05C20.03 4.61 20.01 3.87 20.01 3.12H20.93C20.92 3.88 20.92 4.62 20.95 5.31H23.48V6.05H20.98C21.05 7.16 21.17 8.16 21.32 8.97C21.72 8.22 22.04 7.4 22.27 6.53Z" fill="white"/></svg>