<svg width="32" height="32" viewBox="0 0 32 32" fill="none" xmlns="http://www.w3.org/2000/svg"><path d="M-324 -764C-324 -768.418 -320.418 -772 -316 -772H908C912.418 -772 916 -768.418 916 -764V926C916 930.418 912.418 934 908 934H-316C-320.418 934 -324 930.418 -324 926V-764Z" fill="white"/><path d="M-316 -772V-771H908V-772V-773H-316V-772ZM916 -764H915V926H916H917V-764H916ZM908 934V933H-316V934V935H908V934ZM-324 926H-323V-764H-324H-325V926H-324ZM-316 934V933C-319.866 933 -323 929.866 -323 926H-324H-325C-325 930.971 -320.971 935 -316 935V934ZM916 926H915C915 929.866 911.866 933 908 933V934V935C912.971 935 917 930.971 917 926H916ZM908 -772V-771C911.866 -771 915 -767.866 915 -764H916H917C917 -768.971 912.971 -773 908 -773V-772ZM-316 -772V-773C-320.971 -773 -325 -768.971 -325 -764H-324H-323C-323 -767.866 -319.866 -771 -316 -771V-772Z" fill="#F1F1F1"/><path d="M11.4533 18.0134L20.56 23.32M20.5467 8.68002L11.4533 13.9867M28 6.66669C28 8.87583 26.2091 10.6667 24 10.6667C21.7909 10.6667 20 8.87583 20 6.66669C20 4.45755 21.7909 2.66669 24 2.66669C26.2091 2.66669 28 4.45755 28 6.66669ZM12 16C12 18.2092 10.2091 20 8 20C5.79086 20 4 18.2092 4 16C4 13.7909 5.79086 12 8 12C10.2091 12 12 13.7909 12 16ZM28 25.3334C28 27.5425 26.2091 29.3334 24 29.3334C21.7909 29.3334 20 27.5425 20 25.3334C20 23.1242 21.7909 21.3334 24 21.3334C26.2091 21.3334 28 23.1242 28 25.3334Z" stroke="#202020" stroke-width="2.2" stroke-linecap="round" stroke-linejoin="round"/></svg>