<svg width="32" height="32" viewBox="0 0 32 32" fill="none" xmlns="http://www.w3.org/2000/svg"><path d="M-436 -764C-436 -768.418 -432.418 -772 -428 -772H796C800.418 -772 804 -768.418 804 -764V926C804 930.418 800.418 934 796 934H-428C-432.418 934 -436 930.418 -436 926V-764Z" fill="white"/><path d="M-428 -772V-771H796V-772V-773H-428V-772ZM804 -764H803V926H804H805V-764H804ZM796 934V933H-428V934V935H796V934ZM-436 926H-435V-764H-436H-437V926H-436ZM-428 934V933C-431.866 933 -435 929.866 -435 926H-436H-437C-437 930.971 -432.971 935 -428 935V934ZM804 926H803C803 929.866 799.866 933 796 933V934V935C800.971 935 805 930.971 805 926H804ZM796 -772V-771C799.866 -771 803 -767.866 803 -764H804H805C805 -768.971 800.971 -773 796 -773V-772ZM-428 -772V-773C-432.971 -773 -437 -768.971 -437 -764H-436H-435C-435 -767.866 -431.866 -771 -428 -771V-772Z" fill="#F1F1F1"/><path d="M6.38911 17.3703H7.48911H6.38911ZM6.97714 15.9538L7.75372 16.7328L6.97714 15.9538ZM7.18911 22.4074L7.18911 21.3074H7.18911L7.18911 22.4074ZM6.38911 21.6074H5.28911H6.38911ZM12.8365 21.8249L13.6125 22.6045L12.8365 21.8249ZM11.4255 22.4074L11.4255 23.5074H11.4255V22.4074ZM25.3765 6.54484L26.1627 5.77553V5.77553L25.3765 6.54484ZM25.3579 9.36105L24.5819 8.58144V8.58144L25.3579 9.36105ZM22.3639 3.466L21.5777 4.23531V4.23531L22.3639 3.466ZM19.5225 3.44829L20.299 4.22734L19.5225 3.44829ZM3.29932 26.728C2.6918 26.728 2.19932 27.2205 2.19932 27.828C2.19932 28.4355 2.6918 28.928 3.29932 28.928V27.828V26.728ZM28.6993 28.928C29.3068 28.928 29.7993 28.4355 29.7993 27.828C29.7993 27.2205 29.3068 26.728 28.6993 26.728V27.828V28.928ZM22.3639 3.466L21.5777 4.23531L24.5903 7.31415L25.3765 6.54484L26.1627 5.77553L23.1502 2.69669L22.3639 3.466ZM25.3579 9.36105L24.5819 8.58144L12.0605 21.0453L12.8365 21.8249L13.6125 22.6045L26.134 10.1407L25.3579 9.36105ZM11.4255 22.4074L11.4255 21.3074L7.18911 21.3074L7.18911 22.4074L7.18911 23.5074L11.4255 23.5074L11.4255 22.4074ZM6.38911 21.6074H7.48911V17.3703H6.38911H5.28911L5.28911 21.6074H6.38911ZM6.97714 15.9538L7.75372 16.7328L20.299 4.22734L19.5225 3.44829L18.7459 2.66923L6.20056 15.1747L6.97714 15.9538ZM6.38911 17.3703H7.48911C7.48911 17.1311 7.58432 16.9017 7.75372 16.7328L6.97714 15.9538L6.20056 15.1747C5.61707 15.7564 5.28911 16.5464 5.28911 17.3703H6.38911ZM7.18911 22.4074L7.18911 21.3074C7.35479 21.3074 7.48911 21.4417 7.48911 21.6074H6.38911H5.28911C5.28911 22.6568 6.13977 23.5074 7.18911 23.5074L7.18911 22.4074ZM12.8365 21.8249L12.0605 21.0453C11.8918 21.2132 11.6635 21.3074 11.4255 21.3074V22.4074V23.5074C12.2452 23.5074 13.0316 23.1828 13.6125 22.6045L12.8365 21.8249ZM25.3765 6.54484L24.5903 7.31415C24.9358 7.66727 24.9321 8.23291 24.5819 8.58144L25.3579 9.36105L26.134 10.1407C27.34 8.94015 27.3529 6.99184 26.1627 5.77553L25.3765 6.54484ZM22.3639 3.466L23.1502 2.69669C21.9449 1.46492 19.9664 1.45259 18.7459 2.66923L19.5225 3.44829L20.299 4.22734C20.6534 3.87412 21.2278 3.8777 21.5777 4.23531L22.3639 3.466ZM17.9876 5.39164L17.2098 6.16946L22.3524 11.3121L23.1302 10.5342L23.908 9.75642L18.7654 4.61382L17.9876 5.39164ZM3.29932 27.828V28.928H28.6993V27.828V26.728H3.29932V27.828Z" fill="#202020"/></svg>