<svg width="16" height="16" viewBox="0 0 16 16" fill="none" xmlns="http://www.w3.org/2000/svg"><path d="M-388 -668C-388 -672.418 -384.418 -676 -380 -676H684C688.418 -676 692 -672.418 692 -668V986C692 990.418 688.418 994 684 994H-380C-384.418 994 -388 990.418 -388 986V-668Z" fill="white"/><path d="M-380 -676V-675H684V-676V-677H-380V-676ZM692 -668H691V986H692H693V-668H692ZM684 994V993H-380V994V995H684V994ZM-388 986H-387V-668H-388H-389V986H-388ZM-380 994V993C-383.866 993 -387 989.866 -387 986H-388H-389C-389 990.971 -384.971 995 -380 995V994ZM692 986H691C691 989.866 687.866 993 684 993V994V995C688.971 995 693 990.971 693 986H692ZM684 -676V-675C687.866 -675 691 -671.866 691 -668H692H693C693 -672.971 688.971 -677 684 -677V-676ZM-380 -676V-677C-384.971 -677 -389 -672.971 -389 -668H-388H-387C-387 -671.866 -383.866 -675 -380 -675V-676Z" fill="#F1F1F1"/><path d="M6.39996 9.22553C6.40051 9.5569 6.66958 9.82508 7.00095 9.82454C7.33232 9.82399 7.60051 9.55492 7.59996 9.22355L6.99996 9.22454L6.39996 9.22553ZM12.8285 4.18949C13.1599 4.18949 13.4285 3.92087 13.4285 3.58949C13.4285 3.25812 13.1599 2.98949 12.8285 2.98949V3.58949V4.18949ZM12.6814 1.64458C12.4471 1.41027 12.0672 1.41027 11.8329 1.64458C11.5986 1.8789 11.5986 2.2588 11.8329 2.49311L12.2572 2.06885L12.6814 1.64458ZM11.8329 4.79185C11.5986 5.02617 11.5986 5.40607 11.8329 5.64038C12.0672 5.87469 12.4471 5.87469 12.6814 5.64038L12.2572 5.21612L11.8329 4.79185ZM13.5951 3.40678L13.1708 3.83104V3.83104L13.5951 3.40678ZM13.5951 3.87818L13.1708 3.45392V3.45392L13.5951 3.87818ZM13.6878 8.54954H14.2878V6.60403H13.6878H13.0878V8.54954H13.6878ZM13.6878 6.60403H13.0878V10.1967H13.6878H14.2878V6.60403H13.6878ZM13.6878 10.1967H13.0878C13.0878 11.7179 11.8547 12.9511 10.3335 12.9511V13.5511V14.1511C12.5174 14.1511 14.2878 12.3806 14.2878 10.1967H13.6878ZM10.3335 13.5511V12.9511H6.02081V13.5511V14.1511H10.3335V13.5511ZM6.02081 13.5511V12.9511C4.49965 12.9511 3.2665 11.7179 3.2665 10.1967H2.6665H2.0665C2.0665 12.3806 3.83691 14.1511 6.02081 14.1511V13.5511ZM2.6665 10.1967H3.2665V5.88406H2.6665H2.0665V10.1967H2.6665ZM2.6665 5.88406H3.2665C3.2665 4.3629 4.49965 3.12975 6.02081 3.12975V2.52975V1.92975C3.83691 1.92975 2.0665 3.70016 2.0665 5.88406H2.6665ZM6.02081 2.52975V3.12975H7.7822V2.52975V1.92975H6.02081V2.52975ZM6.99996 9.22454C7.59996 9.22355 7.59996 9.22383 7.59996 9.2241C7.59996 9.22415 7.59996 9.2244 7.59996 9.22451C7.59996 9.22475 7.59996 9.2249 7.59996 9.22497C7.59996 9.22511 7.59996 9.22492 7.59997 9.2244C7.59997 9.22336 7.59999 9.22102 7.60005 9.21741C7.60015 9.2102 7.6004 9.19794 7.60096 9.18098C7.60208 9.14704 7.60443 9.09438 7.6094 9.02571C7.61935 8.88815 7.6397 8.68756 7.68114 8.44521C7.76451 7.95773 7.93069 7.31654 8.25818 6.68229C8.58422 6.05085 9.0655 5.43458 9.7799 4.97437C10.4916 4.51592 11.4698 4.18949 12.8285 4.18949V3.58949V2.98949C11.2683 2.98949 10.0585 3.36745 9.13004 3.96557C8.20429 4.56193 7.59329 5.35442 7.19193 6.13174C6.79201 6.90625 6.59564 7.67382 6.49832 8.24292C6.44942 8.52885 6.42487 8.7685 6.41253 8.93911C6.40635 9.02452 6.40321 9.09293 6.40161 9.14153C6.40081 9.16584 6.40039 9.18523 6.40018 9.19934C6.40008 9.20639 6.40002 9.21213 6.39999 9.21651C6.39998 9.2187 6.39997 9.22055 6.39997 9.22205C6.39996 9.22281 6.39996 9.22347 6.39996 9.22405C6.39996 9.22434 6.39996 9.22471 6.39996 9.22485C6.39996 9.2252 6.39996 9.22553 6.99996 9.22454ZM12.2572 2.06885L11.8329 2.49311L13.1708 3.83104L13.5951 3.40678L14.0194 2.98252L12.6814 1.64458L12.2572 2.06885ZM13.5951 3.87818L13.1708 3.45392L11.8329 4.79185L12.2572 5.21612L12.6814 5.64038L14.0194 4.30245L13.5951 3.87818ZM13.5951 3.40678L13.1708 3.83104C13.0667 3.7269 13.0667 3.55806 13.1708 3.45392L13.5951 3.87818L14.0193 4.30245C14.3838 3.93796 14.3838 3.347 14.0193 2.98252L13.5951 3.40678Z" fill="#202020"/></svg>