<svg width="24" height="24" viewBox="0 0 24 24" fill="none" xmlns="http://www.w3.org/2000/svg"><path d="M-620 -716C-620 -720.418 -616.418 -724 -612 -724H532C536.418 -724 540 -720.418 540 -716V974C540 978.418 536.418 982 532 982H-612C-616.418 982 -620 978.418 -620 974V-716Z" fill="white"/><path d="M-612 -724V-723H532V-724V-725H-612V-724ZM540 -716H539V974H540H541V-716H540ZM532 982V981H-612V982V983H532V982ZM-620 974H-619V-716H-620H-621V974H-620ZM-612 982V981C-615.866 981 -619 977.866 -619 974H-620H-621C-621 978.971 -616.971 983 -612 983V982ZM540 974H539C539 977.866 535.866 981 532 981V982V983C536.971 983 541 978.971 541 974H540ZM532 -724V-723C535.866 -723 539 -719.866 539 -716H540H541C541 -720.971 536.971 -725 532 -725V-724ZM-612 -724V-725C-616.971 -725 -621 -720.971 -621 -716H-620H-619C-619 -719.866 -615.866 -723 -612 -723V-724Z" fill="#F1F1F1"/><path d="M8.59 13.51L15.42 17.49M15.41 6.51L8.59 10.49M21 5C21 6.65685 19.6569 8 18 8C16.3431 8 15 6.65685 15 5C15 3.34315 16.3431 2 18 2C19.6569 2 21 3.34315 21 5ZM9 12C9 13.6569 7.65685 15 6 15C4.34315 15 3 13.6569 3 12C3 10.3431 4.34315 9 6 9C7.65685 9 9 10.3431 9 12ZM21 19C21 20.6569 19.6569 22 18 22C16.3431 22 15 20.6569 15 19C15 17.3431 16.3431 16 18 16C19.6569 16 21 17.3431 21 19Z" stroke="#202020" stroke-width="1.8" stroke-linecap="round" stroke-linejoin="round"/></svg>