<svg width="20" height="20" viewBox="0 0 20 20" fill="none" xmlns="http://www.w3.org/2000/svg"><path d="M-800 -692C-800 -696.418 -796.418 -700 -792 -700H312C316.418 -700 320 -696.418 320 -692V998C320 1002.42 316.418 1006 312 1006H-792C-796.418 1006 -800 1002.42 -800 998V-692Z" fill="white"/><path d="M-792 -700V-699H312V-700V-701H-792V-700ZM320 -692H319V998H320H321V-692H320ZM312 1006V1005H-792V1006V1007H312V1006ZM-800 998H-799V-692H-800H-801V998H-800ZM-792 1006V1005C-795.866 1005 -799 1001.87 -799 998H-800H-801C-801 1002.97 -796.971 1007 -792 1007V1006ZM320 998H319C319 1001.87 315.866 1005 312 1005V1006V1007C316.971 1007 321 1002.97 321 998H320ZM312 -700V-699C315.866 -699 319 -695.866 319 -692H320H321C321 -696.971 316.971 -701 312 -701V-700ZM-792 -700V-701C-796.971 -701 -801 -696.971 -801 -692H-800H-799C-799 -695.866 -795.866 -699 -792 -699V-700Z" fill="#F1F1F1"/><path d="M6.6665 11.6667C6.6665 11.6667 7.9165 13.3334 9.99984 13.3334C12.0832 13.3334 13.3332 11.6667 13.3332 11.6667M7.49984 7.50002H7.50817M12.4998 7.50002H12.5082M18.3332 10C18.3332 14.6024 14.6022 18.3334 9.99984 18.3334C5.39746 18.3334 1.6665 14.6024 1.6665 10C1.6665 5.39765 5.39746 1.66669 9.99984 1.66669C14.6022 1.66669 18.3332 5.39765 18.3332 10Z" stroke="#202020" stroke-width="1.5" stroke-linecap="round" stroke-linejoin="round"/><defs><clipPath id="clip0_7809_18809"><rect width="20" height="20" fill="white"/></clipPath></defs></svg>