<svg width="24" height="24" viewBox="0 0 24 24" fill="none" xmlns="http://www.w3.org/2000/svg"><path d="M-828 -716C-828 -720.418 -824.418 -724 -820 -724H324C328.418 -724 332 -720.418 332 -716V974C332 978.418 328.418 982 324 982H-820C-824.418 982 -828 978.418 -828 974V-716Z" fill="white"/><path d="M-820 -724V-723H324V-724V-725H-820V-724ZM332 -716H331V974H332H333V-716H332ZM324 982V981H-820V982V983H324V982ZM-828 974H-827V-716H-828H-829V974H-828ZM-820 982V981C-823.866 981 -827 977.866 -827 974H-828H-829C-829 978.971 -824.971 983 -820 983V982ZM332 974H331C331 977.866 327.866 981 324 981V982V983C328.971 983 333 978.971 333 974H332ZM324 -724V-723C327.866 -723 331 -719.866 331 -716H332H333C333 -720.971 328.971 -725 324 -725V-724ZM-820 -724V-725C-824.971 -725 -829 -720.971 -829 -716H-828H-827C-827 -719.866 -823.866 -723 -820 -723V-724Z" fill="#F1F1F1"/><path d="M8 14C8 14 9.5 16 12 16C14.5 16 16 14 16 14M9 9H9.01M15 9H15.01M22 12C22 17.5228 17.5228 22 12 22C6.47715 22 2 17.5228 2 12C2 6.47715 6.47715 2 12 2C17.5228 2 22 6.47715 22 12Z" stroke="#202020" stroke-width="1.8" stroke-linecap="round" stroke-linejoin="round"/></svg>