<svg width="16" height="16" viewBox="0 0 16 16" fill="none" xmlns="http://www.w3.org/2000/svg"><path d="M-484 -668C-484 -672.418 -480.418 -676 -476 -676H588C592.418 -676 596 -672.418 596 -668V986C596 990.418 592.418 994 588 994H-476C-480.418 994 -484 990.418 -484 986V-668Z" fill="white"/><path d="M-476 -676V-675H588V-676V-677H-476V-676ZM596 -668H595V986H596H597V-668H596ZM588 994V993H-476V994V995H588V994ZM-484 986H-483V-668H-484H-485V986H-484ZM-476 994V993C-479.866 993 -483 989.866 -483 986H-484H-485C-485 990.971 -480.971 995 -476 995V994ZM596 986H595C595 989.866 591.866 993 588 993V994V995C592.971 995 597 990.971 597 986H596ZM588 -676V-675C591.866 -675 595 -671.866 595 -668H596H597C597 -672.971 592.971 -677 588 -677V-676ZM-476 -676V-677C-480.971 -677 -485 -672.971 -485 -668H-484H-483C-483 -671.866 -479.866 -675 -476 -675V-676Z" fill="#F1F1F1"/><path d="M5.3335 9.33331C5.3335 9.33331 6.3335 10.6666 8.00016 10.6666C9.66683 10.6666 10.6668 9.33331 10.6668 9.33331M6.00016 5.99998H6.00683M10.0002 5.99998H10.0068M14.6668 7.99998C14.6668 11.6819 11.6821 14.6666 8.00016 14.6666C4.31826 14.6666 1.3335 11.6819 1.3335 7.99998C1.3335 4.31808 4.31826 1.33331 8.00016 1.33331C11.6821 1.33331 14.6668 4.31808 14.6668 7.99998Z" stroke="#202020" stroke-width="1.3" stroke-linecap="round" stroke-linejoin="round"/><defs><clipPath id="clip0_7809_18809"><rect width="16" height="16" fill="white"/></clipPath></defs></svg>