<svg width="32" height="32" viewBox="0 0 32 32" fill="none" xmlns="http://www.w3.org/2000/svg"><path d="M-660 -764C-660 -768.418 -656.418 -772 -652 -772H572C576.418 -772 580 -768.418 580 -764V926C580 930.418 576.418 934 572 934H-652C-656.418 934 -660 930.418 -660 926V-764Z" fill="white"/><path d="M-652 -772V-771H572V-772V-773H-652V-772ZM580 -764H579V926H580H581V-764H580ZM572 934V933H-652V934V935H572V934ZM-660 926H-659V-764H-660H-661V926H-660ZM-652 934V933C-655.866 933 -659 929.866 -659 926H-660H-661C-661 930.971 -656.971 935 -652 935V934ZM580 926H579C579 929.866 575.866 933 572 933V934V935C576.971 935 581 930.971 581 926H580ZM572 -772V-771C575.866 -771 579 -767.866 579 -764H580H581C581 -768.971 576.971 -773 572 -773V-772ZM-652 -772V-773C-656.971 -773 -661 -768.971 -661 -764H-660H-659C-659 -767.866 -655.866 -771 -652 -771V-772Z" fill="#F1F1F1"/><path d="M16.0001 2.66669L20.1201 11.0134L29.3334 12.36L22.6667 18.8534L24.2401 28.0267L16.0001 23.6934L7.76008 28.0267L9.33342 18.8534L2.66675 12.36L11.8801 11.0134L16.0001 2.66669Z" stroke="#202020" stroke-width="2.2" stroke-linecap="round" stroke-linejoin="round"/></svg>