<svg width="16" height="16" viewBox="0 0 16 16" fill="none" xmlns="http://www.w3.org/2000/svg"><path d="M-580 -668C-580 -672.418 -576.418 -676 -572 -676H492C496.418 -676 500 -672.418 500 -668V986C500 990.418 496.418 994 492 994H-572C-576.418 994 -580 990.418 -580 986V-668Z" fill="white"/><path d="M-572 -676V-675H492V-676V-677H-572V-676ZM500 -668H499V986H500H501V-668H500ZM492 994V993H-572V994V995H492V994ZM-580 986H-579V-668H-580H-581V986H-580ZM-572 994V993C-575.866 993 -579 989.866 -579 986H-580H-581C-581 990.971 -576.971 995 -572 995V994ZM500 986H499C499 989.866 495.866 993 492 993V994V995C496.971 995 501 990.971 501 986H500ZM492 -676V-675C495.866 -675 499 -671.866 499 -668H500H501C501 -672.971 496.971 -677 492 -677V-676ZM-572 -676V-677C-576.971 -677 -581 -672.971 -581 -668H-580H-579C-579 -671.866 -575.866 -675 -572 -675V-676Z" fill="#F1F1F1"/><path d="M8.00016 1.33331L10.0602 5.50665L14.6668 6.17998L11.3335 9.42665L12.1202 14.0133L8.00016 11.8466L3.88016 14.0133L4.66683 9.42665L1.3335 6.17998L5.94016 5.50665L8.00016 1.33331Z" stroke="#202020" stroke-width="1.3" stroke-linecap="round" stroke-linejoin="round"/></svg>