<svg width="20" height="20" viewBox="0 0 20 20" fill="none" xmlns="http://www.w3.org/2000/svg"><path d="M-900 -692C-900 -696.418 -896.418 -700 -892 -700H212C216.418 -700 220 -696.418 220 -692V998C220 1002.42 216.418 1006 212 1006H-892C-896.418 1006 -900 1002.42 -900 998V-692Z" fill="white"/><path d="M-892 -700V-699H212V-700V-701H-892V-700ZM220 -692H219V998H220H221V-692H220ZM212 1006V1005H-892V1006V1007H212V1006ZM-900 998H-899V-692H-900H-901V998H-900ZM-892 1006V1005C-895.866 1005 -899 1001.87 -899 998H-900H-901C-901 1002.97 -896.971 1007 -892 1007V1006ZM220 998H219C219 1001.87 215.866 1005 212 1005V1006V1007C216.971 1007 221 1002.97 221 998H220ZM212 -700V-699C215.866 -699 219 -695.866 219 -692H220H221C221 -696.971 216.971 -701 212 -701V-700ZM-892 -700V-701C-896.971 -701 -901 -696.971 -901 -692H-900H-899C-899 -695.866 -895.866 -699 -892 -699V-700Z" fill="#F1F1F1"/><path d="M9.99984 1.66669L12.5748 6.88335L18.3332 7.72502L14.1665 11.7834L15.1498 17.5167L9.99984 14.8084L4.84984 17.5167L5.83317 11.7834L1.6665 7.72502L7.42484 6.88335L9.99984 1.66669Z" stroke="#202020" stroke-width="1.5" stroke-linecap="round" stroke-linejoin="round"/></svg>