<svg width="32" height="32" viewBox="0 0 32 32" fill="none" xmlns="http://www.w3.org/2000/svg"><path d="M-1108 -764C-1108 -768.418 -1104.42 -772 -1100 -772H124C128.418 -772 132 -768.418 132 -764V926C132 930.418 128.418 934 124 934H-1100C-1104.42 934 -1108 930.418 -1108 926V-764Z" fill="white"/><path d="M-1100 -772V-771H124V-772V-773H-1100V-772ZM132 -764H131V926H132H133V-764H132ZM124 934V933H-1100V934V935H124V934ZM-1108 926H-1107V-764H-1108H-1109V926H-1108ZM-1100 934V933C-1103.87 933 -1107 929.866 -1107 926H-1108H-1109C-1109 930.971 -1104.97 935 -1100 935V934ZM132 926H131C131 929.866 127.866 933 124 933V934V935C128.971 935 133 930.971 133 926H132ZM124 -772V-771C127.866 -771 131 -767.866 131 -764H132H133C133 -768.971 128.971 -773 124 -773V-772ZM-1100 -772V-773C-1104.97 -773 -1109 -768.971 -1109 -764H-1108H-1107C-1107 -767.866 -1103.87 -771 -1100 -771V-772Z" fill="#F1F1F1"/><path d="M9.33317 9.33335H9.3465M27.4532 17.88L17.8932 27.44C17.6455 27.688 17.3514 27.8847 17.0277 28.0188C16.704 28.153 16.3569 28.2221 16.0065 28.2221C15.6561 28.2221 15.3091 28.153 14.9853 28.0188C14.6616 27.8847 14.3675 27.688 14.1198 27.44L2.6665 16V2.66669H15.9998L27.4532 14.12C27.9498 14.6197 28.2286 15.2955 28.2286 16C28.2286 16.7045 27.9498 17.3804 27.4532 17.88Z" stroke="#202020" stroke-width="2.2" stroke-linecap="round" stroke-linejoin="round"/></svg>