<svg width="16" height="16" viewBox="0 0 16 16" fill="none" xmlns="http://www.w3.org/2000/svg"><path d="M-676 -668C-676 -672.418 -672.418 -676 -668 -676H396C400.418 -676 404 -672.418 404 -668V986C404 990.418 400.418 994 396 994H-668C-672.418 994 -676 990.418 -676 986V-668Z" fill="white"/><path d="M-668 -676V-675H396V-676V-677H-668V-676ZM404 -668H403V986H404H405V-668H404ZM396 994V993H-668V994V995H396V994ZM-676 986H-675V-668H-676H-677V986H-676ZM-668 994V993C-671.866 993 -675 989.866 -675 986H-676H-677C-677 990.971 -672.971 995 -668 995V994ZM404 986H403C403 989.866 399.866 993 396 993V994V995C400.971 995 405 990.971 405 986H404ZM396 -676V-675C399.866 -675 403 -671.866 403 -668H404H405C405 -672.971 400.971 -677 396 -677V-676ZM-668 -676V-677C-672.971 -677 -677 -672.971 -677 -668H-676H-675C-675 -671.866 -671.866 -675 -668 -675V-676Z" fill="#F1F1F1"/><path d="M4.66683 4.66665H4.6735M13.7268 8.93998L8.94683 13.72C8.823 13.8439 8.67595 13.9423 8.51408 14.0094C8.35222 14.0765 8.17872 14.111 8.0035 14.111C7.82828 14.111 7.65477 14.0765 7.49291 14.0094C7.33104 13.9423 7.18399 13.8439 7.06016 13.72L1.3335 7.99998V1.33331H8.00016L13.7268 7.05998C13.9752 7.3098 14.1146 7.64773 14.1146 7.99998C14.1146 8.35223 13.9752 8.69016 13.7268 8.93998Z" stroke="#202020" stroke-width="1.3" stroke-linecap="round" stroke-linejoin="round"/></svg>