<svg width="20" height="20" viewBox="0 0 20 20" fill="none" xmlns="http://www.w3.org/2000/svg"><path d="M-1000 -692C-1000 -696.418 -996.418 -700 -992 -700H112C116.418 -700 120 -696.418 120 -692V998C120 1002.42 116.418 1006 112 1006H-992C-996.418 1006 -1000 1002.42 -1000 998V-692Z" fill="white"/><path d="M-992 -700V-699H112V-700V-701H-992V-700ZM120 -692H119V998H120H121V-692H120ZM112 1006V1005H-992V1006V1007H112V1006ZM-1000 998H-999V-692H-1000H-1001V998H-1000ZM-992 1006V1005C-995.866 1005 -999 1001.87 -999 998H-1000H-1001C-1001 1002.97 -996.971 1007 -992 1007V1006ZM120 998H119C119 1001.87 115.866 1005 112 1005V1006V1007C116.971 1007 121 1002.97 121 998H120ZM112 -700V-699C115.866 -699 119 -695.866 119 -692H120H121C121 -696.971 116.971 -701 112 -701V-700ZM-992 -700V-701C-996.971 -701 -1001 -696.971 -1001 -692H-1000H-999C-999 -695.866 -995.866 -699 -992 -699V-700Z" fill="#F1F1F1"/><path d="M5.83317 5.83335H5.8415M17.1582 11.175L11.1832 17.15C11.0284 17.305 10.8446 17.4279 10.6422 17.5118C10.4399 17.5957 10.223 17.6388 10.004 17.6388C9.78498 17.6388 9.5681 17.5957 9.36577 17.5118C9.16344 17.4279 8.97963 17.305 8.82484 17.15L1.6665 10V1.66669H9.99984L17.1582 8.82502C17.4686 9.13729 17.6428 9.55971 17.6428 10C17.6428 10.4403 17.4686 10.8627 17.1582 11.175Z" stroke="#202020" stroke-width="1.5" stroke-linecap="round" stroke-linejoin="round"/></svg>