<svg width="20" height="20" viewBox="0 0 20 20" fill="none" xmlns="http://www.w3.org/2000/svg"><path d="M-200 -792C-200 -796.418 -196.418 -800 -192 -800H912C916.418 -800 920 -796.418 920 -792V898C920 902.418 916.418 906 912 906H-192C-196.418 906 -200 902.418 -200 898V-792Z" fill="white"/><path d="M-192 -800V-799H912V-800V-801H-192V-800ZM920 -792H919V898H920H921V-792H920ZM912 906V905H-192V906V907H912V906ZM-200 898H-199V-792H-200H-201V898H-200ZM-192 906V905C-195.866 905 -199 901.866 -199 898H-200H-201C-201 902.971 -196.971 907 -192 907V906ZM920 898H919C919 901.866 915.866 905 912 905V906V907C916.971 907 921 902.971 921 898H920ZM912 -800V-799C915.866 -799 919 -795.866 919 -792H920H921C921 -796.971 916.971 -801 912 -801V-800ZM-192 -800V-801C-196.971 -801 -201 -796.971 -201 -792H-200H-199C-199 -795.866 -195.866 -799 -192 -799V-800Z" fill="#F1F1F1"/><path d="M5.83317 9.16669L9.1665 1.66669C9.82955 1.66669 10.4654 1.93008 10.9343 2.39892C11.4031 2.86776 11.6665 3.50365 11.6665 4.16669V7.50002H16.3832C16.6248 7.49728 16.8641 7.54711 17.0845 7.64603C17.3049 7.74496 17.5012 7.89063 17.6597 8.07295C17.8183 8.25527 17.9353 8.46987 18.0026 8.7019C18.07 8.93392 18.0861 9.17782 18.0498 9.41669L16.8998 16.9167C16.8396 17.3141 16.6377 17.6764 16.3314 17.9367C16.0252 18.197 15.6351 18.3379 15.2332 18.3334H5.83317M5.83317 9.16669V18.3334M5.83317 9.16669H3.33317C2.89114 9.16669 2.46722 9.34228 2.15466 9.65484C1.8421 9.9674 1.6665 10.3913 1.6665 10.8334V16.6667C1.6665 17.1087 1.8421 17.5326 2.15466 17.8452C2.46722 18.1578 2.89114 18.3334 3.33317 18.3334H5.83317" stroke="#202020" stroke-width="1.5" stroke-linecap="round" stroke-linejoin="round"/></svg>