<svg width="24" height="24" viewBox="0 0 24 24" fill="none" xmlns="http://www.w3.org/2000/svg"><path d="M-100 -820C-100 -824.418 -96.4183 -828 -92 -828H1052C1056.42 -828 1060 -824.418 1060 -820V870C1060 874.418 1056.42 878 1052 878H-92C-96.4183 878 -100 874.418 -100 870V-820Z" fill="white"/><path d="M-92 -828V-827H1052V-828V-829H-92V-828ZM1060 -820H1059V870H1060H1061V-820H1060ZM1052 878V877H-92V878V879H1052V878ZM-100 870H-99V-820H-100H-101V870H-100ZM-92 878V877C-95.866 877 -99 873.866 -99 870H-100H-101C-101 874.971 -96.9706 879 -92 879V878ZM1060 870H1059C1059 873.866 1055.87 877 1052 877V878V879C1056.97 879 1061 874.971 1061 870H1060ZM1052 -828V-827C1055.87 -827 1059 -823.866 1059 -820H1060H1061C1061 -824.971 1056.97 -829 1052 -829V-828ZM-92 -828V-829C-96.9706 -829 -101 -824.971 -101 -820H-100H-99C-99 -823.866 -95.866 -827 -92 -827V-828Z" fill="#F1F1F1"/><path d="M17 13L13 22C12.2044 22 11.4413 21.6839 10.8787 21.1213C10.3161 20.5587 10 19.7956 10 19V15H4.34003C4.05012 15.0033 3.76297 14.9435 3.49846 14.8248C3.23395 14.7061 2.99842 14.5313 2.80817 14.3125C2.61793 14.0937 2.47753 13.8362 2.39669 13.5577C2.31586 13.2793 2.29652 12.9866 2.34003 12.7L3.72003 3.7C3.79235 3.22309 4.0346 2.78839 4.40212 2.47599C4.76965 2.16359 5.2377 1.99454 5.72003 2H17M17 13V2M17 13H19.67C20.236 13.01 20.7859 12.8119 21.2154 12.4432C21.645 12.0745 21.9242 11.5609 22 11V4C21.9242 3.43905 21.645 2.9255 21.2154 2.55681C20.7859 2.18813 20.236 1.98999 19.67 2H17" stroke="#202020" stroke-width="1.8" stroke-linecap="round" stroke-linejoin="round"/></svg>