<svg width="20" height="20" viewBox="0 0 20 20" fill="none" xmlns="http://www.w3.org/2000/svg"><path d="M-253 -60C-253 -61.1046 -252.105 -62 -251 -62H345C346.105 -62 347 -61.1046 347 -60V591C347 592.105 346.105 593 345 593H-251C-252.105 593 -253 592.105 -253 591V-60Z" fill="white"/><path d="M-251 -62V-61H345V-62V-63H-251V-62ZM347 -60H346V591H347H348V-60H347ZM345 593V592H-251V593V594H345V593ZM-253 591H-252V-60H-253H-254V591H-253ZM-251 593V592C-251.552 592 -252 591.552 -252 591H-253H-254C-254 592.657 -252.657 594 -251 594V593ZM347 591H346C346 591.552 345.552 592 345 592V593V594C346.657 594 348 592.657 348 591H347ZM345 -62V-61C345.552 -61 346 -60.5523 346 -60H347H348C348 -61.6569 346.657 -63 345 -63V-62ZM-251 -62V-63C-252.657 -63 -254 -61.6569 -254 -60H-253H-252C-252 -60.5523 -251.552 -61 -251 -61V-62Z" fill="black" fill-opacity="0.1"/><path fill-rule="evenodd" clip-rule="evenodd" d="M9.30859 1.25588L9.31934 1.25686L9.33105 1.25783C10.4397 1.35192 11.2214 1.81722 11.6631 2.57229C12.06 3.25093 12.1125 4.05084 12.0645 4.73537L13.3613 4.73635L13.5547 4.74123C15.5358 4.84188 17.1113 6.48018 17.1113 8.48635C17.1113 8.63696 17.1021 8.788 17.084 8.93752L16.9385 10.1436C16.5773 13.1267 14.0449 15.3701 11.04 15.3701H6C3.92893 15.3701 2.25 13.6912 2.25 11.6201V8.48635C2.25004 6.54955 3.71833 4.95534 5.60254 4.75686L5.66113 4.34377C5.88651 2.73252 7.14671 1.23722 9.11621 1.25002L9.30859 1.25588ZM6.7002 10.2207C5.98231 10.2208 5.40039 10.8026 5.40039 11.5205C5.40052 12.2383 5.98239 12.8202 6.7002 12.8203C7.41809 12.8203 7.99987 12.2384 8 11.5205C8 10.8026 7.41817 10.2207 6.7002 10.2207Z" fill="#FF7E32"/></svg>