<svg width="32" height="32" viewBox="0 0 32 32" fill="none" xmlns="http://www.w3.org/2000/svg"><path d="M-884 -764C-884 -768.418 -880.418 -772 -876 -772H348C352.418 -772 356 -768.418 356 -764V926C356 930.418 352.418 934 348 934H-876C-880.418 934 -884 930.418 -884 926V-764Z" fill="white"/><path d="M-876 -772V-771H348V-772V-773H-876V-772ZM356 -764H355V926H356H357V-764H356ZM348 934V933H-876V934V935H348V934ZM-884 926H-883V-764H-884H-885V926H-884ZM-876 934V933C-879.866 933 -883 929.866 -883 926H-884H-885C-885 930.971 -880.971 935 -876 935V934ZM356 926H355C355 929.866 351.866 933 348 933V934V935C352.971 935 357 930.971 357 926H356ZM348 -772V-771C351.866 -771 355 -767.866 355 -764H356H357C357 -768.971 352.971 -773 348 -773V-772ZM-876 -772V-773C-880.971 -773 -885 -768.971 -885 -764H-884H-883C-883 -767.866 -879.866 -771 -876 -771V-772Z" fill="#F1F1F1"/><path d="M9.33342 14.6667L14.6667 2.66669C15.7276 2.66669 16.745 3.08811 17.4952 3.83826C18.2453 4.58841 18.6667 5.60582 18.6667 6.66669V12H26.2134C26.6 11.9956 26.9828 12.0754 27.3355 12.2336C27.6882 12.3919 28.0022 12.625 28.2559 12.9167C28.5096 13.2084 28.6968 13.5518 28.8045 13.923C28.9123 14.2943 28.9381 14.6845 28.8801 15.0667L27.0401 27.0667C26.9437 27.7026 26.6207 28.2822 26.1306 28.6987C25.6406 29.1152 25.0165 29.3406 24.3734 29.3334H9.33342M9.33342 14.6667V29.3334M9.33342 14.6667H5.33341C4.62617 14.6667 3.94789 14.9476 3.4478 15.4477C2.9477 15.9478 2.66675 16.6261 2.66675 17.3334V26.6667C2.66675 27.3739 2.9477 28.0522 3.4478 28.5523C3.94789 29.0524 4.62617 29.3334 5.33341 29.3334H9.33342" stroke="#202020" stroke-width="2.2" stroke-linecap="round" stroke-linejoin="round"/></svg>