<svg width="20" height="20" viewBox="0 0 20 20" fill="none" xmlns="http://www.w3.org/2000/svg"><path d="M-100 -792C-100 -796.418 -96.4183 -800 -92 -800H1012C1016.42 -800 1020 -796.418 1020 -792V898C1020 902.418 1016.42 906 1012 906H-92C-96.4183 906 -100 902.418 -100 898V-792Z" fill="white"/><path d="M-92 -800V-799H1012V-800V-801H-92V-800ZM1020 -792H1019V898H1020H1021V-792H1020ZM1012 906V905H-92V906V907H1012V906ZM-100 898H-99V-792H-100H-101V898H-100ZM-92 906V905C-95.866 905 -99 901.866 -99 898H-100H-101C-101 902.971 -96.9706 907 -92 907V906ZM1020 898H1019C1019 901.866 1015.87 905 1012 905V906V907C1016.97 907 1021 902.971 1021 898H1020ZM1012 -800V-799C1015.87 -799 1019 -795.866 1019 -792H1020H1021C1021 -796.971 1016.97 -801 1012 -801V-800ZM-92 -800V-801C-96.9706 -801 -101 -796.971 -101 -792H-100H-99C-99 -795.866 -95.866 -799 -92 -799V-800Z" fill="#F1F1F1"/><path d="M14.1667 10.8333L10.8334 18.3333C10.1703 18.3333 9.53443 18.07 9.06559 17.6011C8.59675 17.1323 8.33336 16.4964 8.33336 15.8333V12.5H3.61669C3.3751 12.5028 3.13581 12.4529 2.91538 12.354C2.69496 12.2551 2.49868 12.1094 2.34014 11.9271C2.18161 11.7448 2.0646 11.5302 1.99724 11.2981C1.92988 11.0661 1.91377 10.8222 1.95003 10.5833L3.10003 3.08335C3.16029 2.68593 3.36216 2.32368 3.66844 2.06334C3.97471 1.80301 4.36475 1.66214 4.76669 1.66668H14.1667M14.1667 10.8333V1.66668M14.1667 10.8333H16.3917C16.8633 10.8417 17.3216 10.6766 17.6795 10.3693C18.0375 10.0621 18.2701 9.63413 18.3334 9.16668V3.33335C18.2701 2.8659 18.0375 2.43793 17.6795 2.1307C17.3216 1.82346 16.8633 1.65834 16.3917 1.66668H14.1667" stroke="#202020" stroke-width="1.5" stroke-linecap="round" stroke-linejoin="round"/></svg>