<svg width="16" height="16" viewBox="0 0 16 16" fill="none" xmlns="http://www.w3.org/2000/svg"><path d="M-868 -668C-868 -672.418 -864.418 -676 -860 -676H204C208.418 -676 212 -672.418 212 -668V986C212 990.418 208.418 994 204 994H-860C-864.418 994 -868 990.418 -868 986V-668Z" fill="white"/><path d="M-860 -676V-675H204V-676V-677H-860V-676ZM212 -668H211V986H212H213V-668H212ZM204 994V993H-860V994V995H204V994ZM-868 986H-867V-668H-868H-869V986H-868ZM-860 994V993C-863.866 993 -867 989.866 -867 986H-868H-869C-869 990.971 -864.971 995 -860 995V994ZM212 986H211C211 989.866 207.866 993 204 993V994V995C208.971 995 213 990.971 213 986H212ZM204 -676V-675C207.866 -675 211 -671.866 211 -668H212H213C213 -672.971 208.971 -677 204 -677V-676ZM-860 -676V-677C-864.971 -677 -869 -672.971 -869 -668H-868H-867C-867 -671.866 -863.866 -675 -860 -675V-676Z" fill="#F1F1F1"/><path d="M4.66683 7.33331L7.3335 1.33331C7.86393 1.33331 8.37264 1.54403 8.74771 1.9191C9.12278 2.29417 9.3335 2.80288 9.3335 3.33331V5.99998H13.1068C13.3001 5.99779 13.4915 6.03765 13.6679 6.11679C13.8442 6.19593 14.0012 6.31247 14.1281 6.45832C14.2549 6.60418 14.3485 6.77586 14.4024 6.96148C14.4563 7.1471 14.4692 7.34222 14.4402 7.53331L13.5202 13.5333C13.4719 13.8512 13.3105 14.141 13.0654 14.3493C12.8204 14.5576 12.5084 14.6703 12.1868 14.6666H4.66683M4.66683 7.33331V14.6666M4.66683 7.33331H2.66683C2.31321 7.33331 1.97407 7.47379 1.72402 7.72384C1.47397 7.97389 1.3335 8.31302 1.3335 8.66665V13.3333C1.3335 13.6869 1.47397 14.0261 1.72402 14.2761C1.97407 14.5262 2.31321 14.6666 2.66683 14.6666H4.66683" stroke="#202020" stroke-width="1.3" stroke-linecap="round" stroke-linejoin="round"/><defs><clipPath id="clip0_7809_18809"><rect width="16" height="16" fill="white"/></clipPath></defs></svg>