<svg width="20" height="20" viewBox="0 0 20 20" fill="none" xmlns="http://www.w3.org/2000/svg"><path d="M-203 -60C-203 -61.1046 -202.105 -62 -201 -62H395C396.105 -62 397 -61.1046 397 -60V591C397 592.105 396.105 593 395 593H-201C-202.105 593 -203 592.105 -203 591V-60Z" fill="white"/><path d="M-201 -62V-61H395V-62V-63H-201V-62ZM397 -60H396V591H397H398V-60H397ZM395 593V592H-201V593V594H395V593ZM-203 591H-202V-60H-203H-204V591H-203ZM-201 593V592C-201.552 592 -202 591.552 -202 591H-203H-204C-204 592.657 -202.657 594 -201 594V593ZM397 591H396C396 591.552 395.552 592 395 592V593V594C396.657 594 398 592.657 398 591H397ZM395 -62V-61C395.552 -61 396 -60.5523 396 -60H397H398C398 -61.6569 396.657 -63 395 -63V-62ZM-201 -62V-63C-202.657 -63 -204 -61.6569 -204 -60H-203H-202C-202 -60.5523 -201.552 -61 -201 -61V-62Z" fill="black" fill-opacity="0.1"/><path fill-rule="evenodd" clip-rule="evenodd" d="M9.26733 2.00478C11.0989 2.16005 11.4164 3.45903 11.3125 4.74458L11.3021 4.84613C11.2596 5.18557 11.5241 5.48549 11.8662 5.48565L13.3613 5.48634C15.0181 5.48634 16.3613 6.82949 16.3613 8.48634C16.3613 8.60685 16.354 8.72725 16.3395 8.84688L16.1935 10.0533C15.878 12.6599 13.6658 14.6204 11.0403 14.6204H6C4.34315 14.6204 3 13.2772 3 11.6204V8.48634C3 6.82949 4.34315 5.48634 6 5.48634C6.14811 5.48578 6.27333 5.37653 6.29398 5.22987L6.404 4.44871C6.59325 3.09216 7.65137 1.91542 9.26733 2.00478Z" stroke="#9B9B9B" stroke-width="1.5"/><circle cx="6.6999" cy="11.5203" r="1.3" fill="#D8D8D8"/></svg>