<svg width="40" height="22" viewBox="0 0 40 22" fill="none" xmlns="http://www.w3.org/2000/svg"><path d="M-162 -403C-162 -404.105 -161.105 -405 -160 -405H436C437.105 -405 438 -404.105 438 -403V248C438 249.105 437.105 250 436 250H-160C-161.105 250 -162 249.105 -162 248V-403Z" fill="white"/><path d="M-160 -405V-404H436V-405V-406H-160V-405ZM438 -403H437V248H438H439V-403H438ZM436 250V249H-160V250V251H436V250ZM-162 248H-161V-403H-162H-163V248H-162ZM-160 250V249C-160.552 249 -161 248.552 -161 248H-162H-163C-163 249.657 -161.657 251 -160 251V250ZM438 248H437C437 248.552 436.552 249 436 249V250V251C437.657 251 439 249.657 439 248H438ZM436 -405V-404C436.552 -404 437 -403.552 437 -403H438H439C439 -404.657 437.657 -406 436 -406V-405ZM-160 -405V-406C-161.657 -406 -163 -404.657 -163 -403H-162H-161C-161 -403.552 -160.552 -404 -160 -404V-405Z" fill="black" fill-opacity="0.1"/><rect width="40" height="22" rx="11" fill="#FFE847"/><circle cx="29" cy="11" r="8.5" fill="white" stroke="#FFDA35"/></svg>