<svg width="40" height="22" viewBox="0 0 40 22" fill="none" xmlns="http://www.w3.org/2000/svg"><path d="M-225 -403C-225 -404.105 -224.105 -405 -223 -405H373C374.105 -405 375 -404.105 375 -403V248C375 249.105 374.105 250 373 250H-223C-224.105 250 -225 249.105 -225 248V-403Z" fill="white"/><path d="M-223 -405V-404H373V-405V-406H-223V-405ZM375 -403H374V248H375H376V-403H375ZM373 250V249H-223V250V251H373V250ZM-225 248H-224V-403H-225H-226V248H-225ZM-223 250V249C-223.552 249 -224 248.552 -224 248H-225H-226C-226 249.657 -224.657 251 -223 251V250ZM375 248H374C374 248.552 373.552 249 373 249V250V251C374.657 251 376 249.657 376 248H375ZM373 -405V-404C373.552 -404 374 -403.552 374 -403H375H376C376 -404.657 374.657 -406 373 -406V-405ZM-223 -405V-406C-224.657 -406 -226 -404.657 -226 -403H-225H-224C-224 -403.552 -223.552 -404 -223 -404V-405Z" fill="black" fill-opacity="0.1"/><rect width="40" height="22" rx="11" fill="#E8E8E8"/><circle cx="11" cy="11" r="8.5" fill="white" stroke="#E0E0E0"/></svg>