<svg width="40" height="22" viewBox="0 0 40 22" fill="none" xmlns="http://www.w3.org/2000/svg"><path d="M-257 -395C-257 -396.105 -256.105 -397 -255 -397H341C342.105 -397 343 -396.105 343 -395V256C343 257.105 342.105 258 341 258H-255C-256.105 258 -257 257.105 -257 256V-395Z" fill="white"/><path d="M-255 -397V-396H341V-397V-398H-255V-397ZM343 -395H342V256H343H344V-395H343ZM341 258V257H-255V258V259H341V258ZM-257 256H-256V-395H-257H-258V256H-257ZM-255 258V257C-255.552 257 -256 256.552 -256 256H-257H-258C-258 257.657 -256.657 259 -255 259V258ZM343 256H342C342 256.552 341.552 257 341 257V258V259C342.657 259 344 257.657 344 256H343ZM341 -397V-396C341.552 -396 342 -395.552 342 -395H343H344C344 -396.657 342.657 -398 341 -398V-397ZM-255 -397V-398C-256.657 -398 -258 -396.657 -258 -395H-257H-256C-256 -395.552 -255.552 -396 -255 -396V-397Z" fill="black" fill-opacity="0.1"/><rect width="40" height="22" rx="11" fill="#FFE847"/><circle cx="29" cy="11" r="8.5" fill="white" stroke="#FFDA35"/></svg>