<svg width="40" height="22" viewBox="0 0 40 22" fill="none" xmlns="http://www.w3.org/2000/svg"><path d="M-320 -395C-320 -396.105 -319.105 -397 -318 -397H278C279.105 -397 280 -396.105 280 -395V256C280 257.105 279.105 258 278 258H-318C-319.105 258 -320 257.105 -320 256V-395Z" fill="white"/><path d="M-318 -397V-396H278V-397V-398H-318V-397ZM280 -395H279V256H280H281V-395H280ZM278 258V257H-318V258V259H278V258ZM-320 256H-319V-395H-320H-321V256H-320ZM-318 258V257C-318.552 257 -319 256.552 -319 256H-320H-321C-321 257.657 -319.657 259 -318 259V258ZM280 256H279C279 256.552 278.552 257 278 257V258V259C279.657 259 281 257.657 281 256H280ZM278 -397V-396C278.552 -396 279 -395.552 279 -395H280H281C281 -396.657 279.657 -398 278 -398V-397ZM-318 -397V-398C-319.657 -398 -321 -396.657 -321 -395H-320H-319C-319 -395.552 -318.552 -396 -318 -396V-397Z" fill="black" fill-opacity="0.1"/><rect width="40" height="22" rx="11" fill="#E8E8E8"/><circle cx="11" cy="11" r="8.5" fill="white" stroke="#E0E0E0"/></svg>