<svg width="20" height="20" viewBox="0 0 20 20" fill="none" xmlns="http://www.w3.org/2000/svg"><path d="M-300 -792C-300 -796.418 -296.418 -800 -292 -800H812C816.418 -800 820 -796.418 820 -792V898C820 902.418 816.418 906 812 906H-292C-296.418 906 -300 902.418 -300 898V-792Z" fill="white"/><path d="M-292 -800V-799H812V-800V-801H-292V-800ZM820 -792H819V898H820H821V-792H820ZM812 906V905H-292V906V907H812V906ZM-300 898H-299V-792H-300H-301V898H-300ZM-292 906V905C-295.866 905 -299 901.866 -299 898H-300H-301C-301 902.971 -296.971 907 -292 907V906ZM820 898H819C819 901.866 815.866 905 812 905V906V907C816.971 907 821 902.971 821 898H820ZM812 -800V-799C815.866 -799 819 -795.866 819 -792H820H821C821 -796.971 816.971 -801 812 -801V-800ZM-292 -800V-801C-296.971 -801 -301 -796.971 -301 -792H-300H-299C-299 -795.866 -295.866 -799 -292 -799V-800Z" fill="#F1F1F1"/><path d="M2.5 5.00002H4.16667M4.16667 5.00002H17.5M4.16667 5.00002L4.16667 16.6667C4.16667 17.1087 4.34226 17.5326 4.65482 17.8452C4.96738 18.1578 5.39131 18.3334 5.83333 18.3334H14.1667C14.6087 18.3334 15.0326 18.1578 15.3452 17.8452C15.6577 17.5326 15.8333 17.1087 15.8333 16.6667V5.00002M6.66667 5.00002V3.33335C6.66667 2.89133 6.84226 2.4674 7.15482 2.15484C7.46738 1.84228 7.89131 1.66669 8.33333 1.66669H11.6667C12.1087 1.66669 12.5326 1.84228 12.8452 2.15484C13.1577 2.4674 13.3333 2.89133 13.3333 3.33335V5.00002M8.33333 9.16669V14.1667M11.6667 9.16669V14.1667" stroke="#202020" stroke-width="1.5" stroke-linecap="round" stroke-linejoin="round"/></svg>