<svg width="16" height="16" viewBox="0 0 16 16" fill="none" xmlns="http://www.w3.org/2000/svg"><path d="M-964 -668C-964 -672.418 -960.418 -676 -956 -676H108C112.418 -676 116 -672.418 116 -668V986C116 990.418 112.418 994 108 994H-956C-960.418 994 -964 990.418 -964 986V-668Z" fill="white"/><path d="M-956 -676V-675H108V-676V-677H-956V-676ZM116 -668H115V986H116H117V-668H116ZM108 994V993H-956V994V995H108V994ZM-964 986H-963V-668H-964H-965V986H-964ZM-956 994V993C-959.866 993 -963 989.866 -963 986H-964H-965C-965 990.971 -960.971 995 -956 995V994ZM116 986H115C115 989.866 111.866 993 108 993V994V995C112.971 995 117 990.971 117 986H116ZM108 -676V-675C111.866 -675 115 -671.866 115 -668H116H117C117 -672.971 112.971 -677 108 -677V-676ZM-956 -676V-677C-960.971 -677 -965 -672.971 -965 -668H-964H-963C-963 -671.866 -959.866 -675 -956 -675V-676Z" fill="#F1F1F1"/><path d="M2 3.99998H3.33333M3.33333 3.99998H14M3.33333 3.99998L3.33333 13.3333C3.33333 13.6869 3.47381 14.0261 3.72386 14.2761C3.97391 14.5262 4.31304 14.6666 4.66667 14.6666H11.3333C11.687 14.6666 12.0261 14.5262 12.2761 14.2761C12.5262 14.0261 12.6667 13.6869 12.6667 13.3333V3.99998M5.33333 3.99998V2.66665C5.33333 2.31302 5.47381 1.97389 5.72386 1.72384C5.97391 1.47379 6.31304 1.33331 6.66667 1.33331H9.33333C9.68696 1.33331 10.0261 1.47379 10.2761 1.72384C10.5262 1.97389 10.6667 2.31302 10.6667 2.66665V3.99998M6.66667 7.33331V11.3333M9.33333 7.33331V11.3333" stroke="#202020" stroke-width="1.3" stroke-linecap="round" stroke-linejoin="round"/></svg>