<svg width="24" height="24" viewBox="0 0 24 24" fill="none" xmlns="http://www.w3.org/2000/svg"><path d="M-308 -820C-308 -824.418 -304.418 -828 -300 -828H844C848.418 -828 852 -824.418 852 -820V870C852 874.418 848.418 878 844 878H-300C-304.418 878 -308 874.418 -308 870V-820Z" fill="white"/><path d="M-300 -828V-827H844V-828V-829H-300V-828ZM852 -820H851V870H852H853V-820H852ZM844 878V877H-300V878V879H844V878ZM-308 870H-307V-820H-308H-309V870H-308ZM-300 878V877C-303.866 877 -307 873.866 -307 870H-308H-309C-309 874.971 -304.971 879 -300 879V878ZM852 870H851C851 873.866 847.866 877 844 877V878V879C848.971 879 853 874.971 853 870H852ZM844 -828V-827C847.866 -827 851 -823.866 851 -820H852H853C853 -824.971 848.971 -829 844 -829V-828ZM-300 -828V-829C-304.971 -829 -309 -824.971 -309 -820H-308H-307C-307 -823.866 -303.866 -827 -300 -827V-828Z" fill="#F1F1F1"/><path d="M3 6H5M5 6H21M5 6V20C5 20.5304 5.21071 21.0391 5.58579 21.4142C5.96086 21.7893 6.46957 22 7 22H17C17.5304 22 18.0391 21.7893 18.4142 21.4142C18.7893 21.0391 19 20.5304 19 20V6M8 6V4C8 3.46957 8.21071 2.96086 8.58579 2.58579C8.96086 2.21071 9.46957 2 10 2H14C14.5304 2 15.0391 2.21071 15.4142 2.58579C15.7893 2.96086 16 3.46957 16 4V6M10 11V17M14 11V17" stroke="#202020" stroke-width="1.8" stroke-linecap="round" stroke-linejoin="round"/></svg>