<svg width="16" height="16" viewBox="0 0 16 16" fill="none" xmlns="http://www.w3.org/2000/svg"><path d="M-79 -579C-79 -580.105 -78.1046 -581 -77 -581H519C520.105 -581 521 -580.105 521 -579V72C521 73.1046 520.105 74 519 74H-77C-78.1046 74 -79 73.1046 -79 72V-579Z" fill="white"/><path d="M-77 -581V-580H519V-581V-582H-77V-581ZM521 -579H520V72H521H522V-579H521ZM519 74V73H-77V74V75H519V74ZM-79 72H-78V-579H-79H-80V72H-79ZM-77 74V73C-77.5523 73 -78 72.5523 -78 72H-79H-80C-80 73.6569 -78.6569 75 -77 75V74ZM521 72H520C520 72.5523 519.552 73 519 73V74V75C520.657 75 522 73.6569 522 72H521ZM519 -581V-580C519.552 -580 520 -579.552 520 -579H521H522C522 -580.657 520.657 -582 519 -582V-581ZM-77 -581V-582C-78.6569 -582 -80 -580.657 -80 -579H-79H-78C-78 -579.552 -77.5523 -580 -77 -580V-581Z" fill="black" fill-opacity="0.1"/><rect x="-19.5" y="-19.5" width="135" height="55" rx="4.5" stroke="#9747FF" stroke-dasharray="10 5"/><path d="M11.7352 0.69313C11.822 0.662373 11.9131 0.726744 11.9131 0.818817L11.9118 12.9419L4.09086 13.1126L4.09086 0.915584C4.09086 0.825319 4.17868 0.761139 4.26468 0.788545L8.05653 1.99687L11.7352 0.69313Z" fill="#EF3E26"/><path d="M6.37891 1.46178L8.05637 1.99362L9.72729 1.40304V6.6839H6.37891V1.46178Z" fill="#FFE9B1"/><ellipse opacity="0.3" cx="7.99984" cy="9.08724" rx="6.04427" ry="5.99398" fill="#6D1B00"/><path d="M8.00001 15.5736C11.3383 15.5736 14.0445 12.8674 14.0445 9.52919C14.0445 6.19093 11.3383 3.48474 8.00001 3.48474C4.66176 3.48474 1.95557 6.19093 1.95557 9.52919C1.95557 12.8674 4.66176 15.5736 8.00001 15.5736Z" fill="#D6D6D6"/><path d="M8.00001 15.5736C11.3383 15.5736 14.0445 12.8674 14.0445 9.52919C14.0445 6.19093 11.3383 3.48474 8.00001 3.48474C4.66176 3.48474 1.95557 6.19093 1.95557 9.52919C1.95557 12.8674 4.66176 15.5736 8.00001 15.5736Z" fill="#F7BB26"/><path d="M1.95557 9.52806C1.95557 9.92305 1.99399 10.309 2.06629 10.6828L7.39609 3.5134C4.34149 3.81644 1.95557 6.39359 1.95557 9.52806Z" fill="#FFD15D"/><path d="M8.00365 15.3633C11.2258 15.3633 13.8379 12.7512 13.8379 9.52904C13.8379 6.30689 11.2258 3.69482 8.00365 3.69482C4.7815 3.69482 2.16943 6.30689 2.16943 9.52904C2.16943 12.7512 4.7815 15.3633 8.00365 15.3633Z" fill="#FFE164"/><path d="M8.00555 4.72415C5.35608 4.72415 3.20068 6.87977 3.20068 9.52902C3.20068 12.1783 5.35608 14.3341 8.00555 14.3341C10.655 14.3341 12.8106 12.1787 12.8106 9.52902C12.8106 6.87934 10.6552 4.72415 8.00555 4.72415Z" fill="#E3A000"/><path d="M7.91044 5.2923C5.57459 5.2923 3.67432 7.19279 3.67432 9.52842C3.67432 11.864 5.57459 13.7648 7.91044 13.7648C10.2463 13.7648 12.1468 11.8645 12.1468 9.52842C12.1468 7.19236 10.2465 5.2923 7.91044 5.2923Z" fill="#FFDA64"/><path d="M11.2235 6.8955C11.2235 6.8955 10.3616 5.76401 9.21238 5.48804L3.88818 10.8709C4.70712 13.1633 6.70559 13.7649 7.90719 13.7649C10.243 13.7649 12.1435 11.8646 12.1435 9.52855C12.1435 8.53434 11.7992 7.61893 11.2235 6.8955Z" fill="#FFCE33"/><path d="M10.803 6.42947L4.84668 12.4564C5.61832 13.2626 6.70424 13.7655 7.90584 13.7655C10.2417 13.7655 12.1422 11.8652 12.1422 9.52912C12.1422 8.53491 11.7475 7.22277 10.803 6.42947Z" fill="#F7BB26"/><path d="M8.95179 11.7483C8.86934 11.7099 8.82725 11.7043 8.82725 11.6546L8.83092 6.75006L8.66558 6.59854C8.60018 6.59854 8.41715 6.75719 8.3906 6.77186C8.36384 6.78654 8.27642 6.88302 8.12835 7.06152C7.93647 7.29183 7.73984 7.47594 7.53846 7.61365C7.33686 7.75135 7.178 7.84287 7.06145 7.88798C6.97403 7.9195 6.91942 7.94842 6.89762 7.97432C6.87582 8.00044 6.86481 8.03929 6.86481 8.09131L6.70703 8.12778C6.70703 8.20462 6.90215 8.34211 6.97727 8.34233C7.13008 8.34233 7.31571 8.30758 7.53414 8.23765L7.53155 11.6171C7.53155 11.6894 7.46356 11.7447 7.32758 11.7831C7.24016 11.8079 7.18987 11.8338 7.17649 11.861C7.16311 11.8882 7.01461 11.9557 7.01439 12.0686C7.01439 12.1478 7.23865 12.2508 7.30902 12.2508L8.97575 12.2521C9.06057 12.2521 9.1031 12.223 9.1031 12.164C9.1031 12.0149 9.09533 11.9227 9.07957 11.8878C9.06381 11.8528 9.02172 11.7809 8.95136 11.7492L8.95179 11.7483Z" fill="#7D3109"/><path d="M8.78555 11.6354C8.7031 11.597 8.66187 11.553 8.66187 11.5031L8.66554 6.59855H8.36336C8.29796 6.59833 8.25177 6.60567 8.22501 6.62035C8.19824 6.63502 8.11083 6.7315 7.96276 6.91001C7.77088 7.14031 7.57424 7.32442 7.37286 7.46213C7.17127 7.59984 7.01241 7.69135 6.89585 7.73647C6.80843 7.76798 6.75383 7.7969 6.73203 7.8228C6.71023 7.84892 6.69922 7.88777 6.69922 7.93979V8.07534C6.69922 8.15218 6.73656 8.1906 6.81189 8.1906C6.96471 8.1906 7.15033 8.15585 7.36876 8.08591L7.36617 11.4654C7.36617 11.5377 7.29818 11.5929 7.1622 11.6313C7.07478 11.6562 7.02449 11.6821 7.01111 11.7093C6.99773 11.7365 6.99104 11.8064 6.99104 11.9195C6.99104 11.9987 6.99881 12.0483 7.01456 12.0686C7.03032 12.0889 7.07327 12.0993 7.14385 12.0993L8.81059 12.1006C8.89541 12.1006 8.93793 12.0714 8.93793 12.0125C8.93793 11.8634 8.93016 11.7712 8.91441 11.7362C8.89865 11.7013 8.8557 11.6678 8.78533 11.6361L8.78555 11.6354Z" fill="#9D4507"/><path d="M7.40234 10.5206L8.66265 9.18039L8.66373 7.63647L7.40493 8.97491L7.40234 10.5206Z" fill="#B66C2F"/><path d="M4.28391 5.54012L4.18505 5.13455L4.07584 5.51163C4.03763 5.64351 3.93014 5.74021 3.79481 5.76438L3.46436 5.82374L3.81208 5.93166C3.94763 5.97375 4.05468 6.08404 4.09267 6.22089L4.19455 6.58717L4.28671 6.22715C4.32125 6.09224 4.42831 5.99145 4.56515 5.96511L4.91546 5.89777L4.49327 5.76373C4.3901 5.73092 4.30981 5.64502 4.28412 5.5399L4.28391 5.54012Z" fill="white"/><path d="M12.1976 12.8008L12.1398 12.5636L12.0759 12.7842C12.0537 12.8612 11.9907 12.9178 11.9114 12.932L11.7183 12.9668L11.9216 13.0298C12.0008 13.0544 12.0634 13.1189 12.0856 13.1988L12.1452 13.4129L12.1989 13.2025C12.2192 13.1235 12.2818 13.0645 12.3617 13.0492L12.5665 13.0097L12.3196 12.9314C12.2592 12.9122 12.2123 12.8619 12.1974 12.8006L12.1976 12.8008Z" fill="white"/><defs><clipPath id="clip0_7809_18809"><rect width="7.82222" height="13.037" fill="white" transform="translate(4.09082 0.426331)"/></clipPath></defs></svg>