<svg width="16" height="16" viewBox="0 0 16 16" fill="none" xmlns="http://www.w3.org/2000/svg"><path d="M-177 -501C-177 -502.105 -176.105 -503 -175 -503H421C422.105 -503 423 -502.105 423 -501V150C423 151.105 422.105 152 421 152H-175C-176.105 152 -177 151.105 -177 150V-501Z" fill="white"/><path d="M-175 -503V-502H421V-503V-504H-175V-503ZM423 -501H422V150H423H424V-501H423ZM421 152V151H-175V152V153H421V152ZM-177 150H-176V-501H-177H-178V150H-177ZM-175 152V151C-175.552 151 -176 150.552 -176 150H-177H-178C-178 151.657 -176.657 153 -175 153V152ZM423 150H422C422 150.552 421.552 151 421 151V152V153C422.657 153 424 151.657 424 150H423ZM421 -503V-502C421.552 -502 422 -501.552 422 -501H423H424C424 -502.657 422.657 -504 421 -504V-503ZM-175 -503V-504C-176.657 -504 -178 -502.657 -178 -501H-177H-176C-176 -501.552 -175.552 -502 -175 -502V-503Z" fill="black" fill-opacity="0.1"/><rect x="-19.5" y="-19.5" width="135" height="55" rx="4.5" stroke="#9747FF" stroke-dasharray="10 5"/><path d="M11.7352 0.69313C11.822 0.662373 11.9131 0.726744 11.9131 0.818817L11.9118 12.9419L4.09086 13.1126L4.09086 0.915584C4.09086 0.825319 4.17868 0.761139 4.26468 0.788545L8.05653 1.99687L11.7352 0.69313Z" fill="#EF3E26"/><path d="M6.37891 1.46178L8.05637 1.99362L9.72729 1.40304V6.6839H6.37891V1.46178Z" fill="#FFE9B1"/><ellipse opacity="0.3" cx="7.99984" cy="9.08724" rx="6.04427" ry="5.99398" fill="#6D1B00"/><path d="M8.00001 15.5736C11.3383 15.5736 14.0445 12.8674 14.0445 9.52919C14.0445 6.19093 11.3383 3.48474 8.00001 3.48474C4.66176 3.48474 1.95557 6.19093 1.95557 9.52919C1.95557 12.8674 4.66176 15.5736 8.00001 15.5736Z" fill="#D6D6D6"/><path d="M8.00001 15.5736C11.3383 15.5736 14.0445 12.8674 14.0445 9.52919C14.0445 6.19093 11.3383 3.48474 8.00001 3.48474C4.66176 3.48474 1.95557 6.19093 1.95557 9.52919C1.95557 12.8674 4.66176 15.5736 8.00001 15.5736Z" fill="#F7BB26"/><path d="M1.95557 9.52803C1.95557 9.92302 1.99399 10.3089 2.06629 10.6828L7.39609 3.51337C4.34149 3.81641 1.95557 6.39356 1.95557 9.52803Z" fill="#FFD15D"/><path d="M8.00365 15.3633C11.2258 15.3633 13.8379 12.7512 13.8379 9.52904C13.8379 6.30689 11.2258 3.69482 8.00365 3.69482C4.7815 3.69482 2.16943 6.30689 2.16943 9.52904C2.16943 12.7512 4.7815 15.3633 8.00365 15.3633Z" fill="#FFE164"/><path d="M8.00555 4.72418C5.35608 4.72418 3.20068 6.8798 3.20068 9.52905C3.20068 12.1783 5.35608 14.3341 8.00555 14.3341C10.655 14.3341 12.8106 12.1787 12.8106 9.52905C12.8106 6.87937 10.6552 4.72418 8.00555 4.72418Z" fill="#E3A000"/><path d="M7.91044 5.2923C5.57459 5.2923 3.67432 7.19279 3.67432 9.52842C3.67432 11.864 5.57459 13.7648 7.91044 13.7648C10.2463 13.7648 12.1468 11.8645 12.1468 9.52842C12.1468 7.19236 10.2465 5.2923 7.91044 5.2923Z" fill="#FFDA64"/><path d="M11.2235 6.8955C11.2235 6.8955 10.3616 5.76401 9.21238 5.48804L3.88818 10.8709C4.70712 13.1633 6.70559 13.7649 7.90719 13.7649C10.243 13.7649 12.1435 11.8646 12.1435 9.52855C12.1435 8.53434 11.7992 7.61893 11.2235 6.8955Z" fill="#FFCE33"/><path d="M10.803 6.42944L4.84668 12.4564C5.61832 13.2625 6.70424 13.7654 7.90584 13.7654C10.2417 13.7654 12.1422 11.8652 12.1422 9.52909C12.1422 8.53488 11.7475 7.22274 10.803 6.42944Z" fill="#F7BB26"/><path d="M8.95179 11.7483C8.86934 11.7099 8.82725 11.7043 8.82725 11.6546L8.83092 6.75003L8.66558 6.59851C8.60018 6.59851 8.41715 6.75715 8.3906 6.77183C8.36384 6.78651 8.27642 6.88299 8.12835 7.06149C7.93647 7.2918 7.73984 7.47591 7.53846 7.61362C7.33686 7.75132 7.178 7.84284 7.06145 7.88795C6.97403 7.91947 6.91942 7.94839 6.89762 7.97429C6.87582 8.00041 6.86481 8.03926 6.86481 8.09128L6.70703 8.12775C6.70703 8.20459 6.90215 8.34208 6.97727 8.3423C7.13008 8.3423 7.31571 8.30755 7.53414 8.23762L7.53155 11.6171C7.53155 11.6894 7.46356 11.7446 7.32758 11.783C7.24016 11.8079 7.18987 11.8338 7.17649 11.861C7.16311 11.8882 7.01461 11.9557 7.01439 12.0686C7.01439 12.1478 7.23865 12.2508 7.30902 12.2508L8.97575 12.2521C9.06057 12.2521 9.1031 12.2229 9.1031 12.164C9.1031 12.0149 9.09533 11.9227 9.07957 11.8877C9.06381 11.8528 9.02172 11.7809 8.95136 11.7492L8.95179 11.7483Z" fill="#7D3109"/><path d="M8.78555 11.6354C8.7031 11.597 8.66187 11.553 8.66187 11.5031L8.66554 6.59852H8.36336C8.29796 6.5983 8.25177 6.60564 8.22501 6.62031C8.19824 6.63499 8.11083 6.73147 7.96276 6.90998C7.77088 7.14028 7.57424 7.32439 7.37286 7.4621C7.17127 7.59981 7.01241 7.69132 6.89585 7.73644C6.80843 7.76795 6.75383 7.79687 6.73203 7.82277C6.71023 7.84889 6.69922 7.88774 6.69922 7.93976V8.07531C6.69922 8.15215 6.73656 8.19057 6.81189 8.19057C6.96471 8.19057 7.15033 8.15582 7.36876 8.08588L7.36617 11.4653C7.36617 11.5376 7.29818 11.5929 7.1622 11.6313C7.07478 11.6561 7.02449 11.682 7.01111 11.7092C6.99773 11.7364 6.99104 11.8064 6.99104 11.9195C6.99104 11.9987 6.99881 12.0483 7.01456 12.0686C7.03032 12.0889 7.07327 12.0993 7.14385 12.0993L8.81059 12.1005C8.89541 12.1005 8.93793 12.0714 8.93793 12.0125C8.93793 11.8633 8.93016 11.7712 8.91441 11.7362C8.89865 11.7012 8.8557 11.6678 8.78533 11.6361L8.78555 11.6354Z" fill="#9D4507"/><path d="M7.40234 10.5206L8.66265 9.18039L8.66373 7.63647L7.40493 8.97491L7.40234 10.5206Z" fill="#B66C2F"/><path d="M4.28391 5.54015L4.18505 5.13458L4.07584 5.51166C4.03763 5.64354 3.93014 5.74024 3.79481 5.76441L3.46436 5.82377L3.81208 5.93169C3.94763 5.97378 4.05468 6.08407 4.09267 6.22092L4.19455 6.5872L4.28671 6.22718C4.32125 6.09227 4.42831 5.99148 4.56515 5.96514L4.91546 5.8978L4.49327 5.76376C4.3901 5.73095 4.30981 5.64505 4.28412 5.53993L4.28391 5.54015Z" fill="white"/><path d="M12.1976 12.8008L12.1398 12.5636L12.0759 12.7842C12.0537 12.8612 11.9907 12.9178 11.9114 12.932L11.7183 12.9668L11.9216 13.0298C12.0008 13.0544 12.0634 13.119 12.0856 13.1988L12.1452 13.4129L12.1989 13.2025C12.2192 13.1235 12.2818 13.0646 12.3617 13.0492L12.5665 13.0097L12.3196 12.9314C12.2592 12.9122 12.2123 12.8619 12.1974 12.8006L12.1976 12.8008Z" fill="white"/><defs><clipPath id="clip0_7809_18809"><rect width="7.82222" height="13.037" fill="white" transform="translate(4.09082 0.426331)"/></clipPath></defs></svg>