<svg width="16" height="16" viewBox="0 0 16 16" fill="none" xmlns="http://www.w3.org/2000/svg"><path d="M-158.042 -579C-158.042 -580.105 -157.147 -581 -156.042 -581H439.958C441.062 -581 441.958 -580.105 441.958 -579V72C441.958 73.1046 441.062 74 439.958 74H-156.042C-157.147 74 -158.042 73.1046 -158.042 72V-579Z" fill="white"/><path d="M-156.042 -581V-580H439.958V-581V-582H-156.042V-581ZM441.958 -579H440.958V72H441.958H442.958V-579H441.958ZM439.958 74V73H-156.042V74V75H439.958V74ZM-158.042 72H-157.042V-579H-158.042H-159.042V72H-158.042ZM-156.042 74V73C-156.595 73 -157.042 72.5523 -157.042 72H-158.042H-159.042C-159.042 73.6569 -157.699 75 -156.042 75V74ZM441.958 72H440.958C440.958 72.5523 440.51 73 439.958 73V74V75C441.614 75 442.958 73.6569 442.958 72H441.958ZM439.958 -581V-580C440.51 -580 440.958 -579.552 440.958 -579H441.958H442.958C442.958 -580.657 441.614 -582 439.958 -582V-581ZM-156.042 -581V-582C-157.699 -582 -159.042 -580.657 -159.042 -579H-158.042H-157.042C-157.042 -579.552 -156.595 -580 -156.042 -580V-581Z" fill="black" fill-opacity="0.1"/><rect x="-98.5425" y="-19.5" width="135" height="55" rx="4.5" stroke="#9747FF" stroke-dasharray="10 5"/><path fill-rule="evenodd" clip-rule="evenodd" d="M0 0H16L13.9747 11.0789C13.4537 13.9293 10.9701 16 8.07255 16H0V0Z" fill="#1A1A1A" fill-opacity="0.7"/><path d="M9.27678 10.716H8.36478V12H7.17678V10.716H3.72078V9.576L6.73278 3.456H8.05278L5.05278 9.576H7.17678V7.584H8.36478V9.576H9.27678V10.716Z" fill="white"/><defs><clipPath id="clip0_7809_18809"><rect width="16" height="16" fill="white"/></clipPath></defs></svg>