<svg width="16" height="16" viewBox="0 0 16 16" fill="none" xmlns="http://www.w3.org/2000/svg"><path d="M-225.042 -501C-225.042 -502.105 -224.147 -503 -223.042 -503H372.958C374.062 -503 374.958 -502.105 374.958 -501V150C374.958 151.105 374.062 152 372.958 152H-223.042C-224.147 152 -225.042 151.105 -225.042 150V-501Z" fill="white"/><path d="M-223.042 -503V-502H372.958V-503V-504H-223.042V-503ZM374.958 -501H373.958V150H374.958H375.958V-501H374.958ZM372.958 152V151H-223.042V152V153H372.958V152ZM-225.042 150H-224.042V-501H-225.042H-226.042V150H-225.042ZM-223.042 152V151C-223.595 151 -224.042 150.552 -224.042 150H-225.042H-226.042C-226.042 151.657 -224.699 153 -223.042 153V152ZM374.958 150H373.958C373.958 150.552 373.51 151 372.958 151V152V153C374.614 153 375.958 151.657 375.958 150H374.958ZM372.958 -503V-502C373.51 -502 373.958 -501.552 373.958 -501H374.958H375.958C375.958 -502.657 374.614 -504 372.958 -504V-503ZM-223.042 -503V-504C-224.699 -504 -226.042 -502.657 -226.042 -501H-225.042H-224.042C-224.042 -501.552 -223.595 -502 -223.042 -502V-503Z" fill="black" fill-opacity="0.1"/><rect x="-67.5425" y="-19.5" width="135" height="55" rx="4.5" stroke="#9747FF" stroke-dasharray="10 5"/><path d="M11.8221 0.271436C11.9089 0.240679 12 0.30505 12 0.397123L11.9987 12.8L4 12.9746L4 0.496234C4 0.405969 4.08781 0.341788 4.17382 0.369194L8.0558 1.60624L11.8221 0.271436Z" fill="#CE6B3F"/><path d="M6.33789 1.05949L8.05347 1.60341L9.76237 0.999415V6.40029H6.33789V1.05949Z" fill="#F6B396"/><ellipse opacity="0.3" cx="8" cy="8.85824" rx="6.18164" ry="6.13021" fill="#C9521D"/><path d="M7.99823 15.4909C11.4123 15.4909 14.18 12.7232 14.18 9.30908C14.18 5.89495 11.4123 3.12726 7.99823 3.12726C4.5841 3.12726 1.81641 5.89495 1.81641 9.30908C1.81641 12.7232 4.5841 15.4909 7.99823 15.4909Z" fill="#D6D6D6"/><path d="M7.99823 15.4909C11.4123 15.4909 14.18 12.7232 14.18 9.30908C14.18 5.89495 11.4123 3.12726 7.99823 3.12726C4.5841 3.12726 1.81641 5.89495 1.81641 9.30908C1.81641 12.7232 4.5841 15.4909 7.99823 15.4909Z" fill="#EFA279"/><path d="M1.81641 9.30925C1.81641 9.71322 1.8557 10.1079 1.92965 10.4903L7.38057 3.1579C4.25655 3.46783 1.81641 6.10355 1.81641 9.30925Z" fill="#FFB48C"/><path d="M8.00001 15.2759C11.2954 15.2759 13.9668 12.6045 13.9668 9.30909C13.9668 6.01372 11.2954 3.34229 8.00001 3.34229C4.70463 3.34229 2.0332 6.01372 2.0332 9.30909C2.0332 12.6045 4.70463 15.2759 8.00001 15.2759Z" fill="#FFCEB5"/><path d="M8.00196 4.39502C5.29228 4.39502 3.08789 6.59963 3.08789 9.30908C3.08789 12.0185 5.29228 14.2234 8.00196 14.2234C10.7116 14.2234 12.9162 12.019 12.9162 9.30908C12.9162 6.59918 10.7119 4.39502 8.00196 4.39502Z" fill="#EE9B6E"/><path d="M7.90271 4.97656C5.51377 4.97656 3.57031 6.92025 3.57031 9.30896C3.57031 11.6977 5.51377 13.6416 7.90271 13.6416C10.2916 13.6416 12.2353 11.6981 12.2353 9.30896C12.2353 6.9198 10.2919 4.97656 7.90271 4.97656Z" fill="#FFD4C1"/><path d="M11.293 6.6167C11.293 6.6167 10.4116 5.45949 9.23622 5.17725L3.79102 10.6825C4.62856 13.0269 6.67246 13.6422 7.90136 13.6422C10.2903 13.6422 12.234 11.6987 12.234 9.30959C12.234 8.29278 11.8818 7.35657 11.293 6.6167Z" fill="#FFC8AB"/><path d="M10.8631 6.13928L4.77148 12.3032C5.56066 13.1277 6.67127 13.642 7.90017 13.642C10.2891 13.642 12.2328 11.6985 12.2328 9.30938C12.2328 8.29258 11.8291 6.95061 10.8631 6.13928Z" fill="#FDB28A"/><path d="M7.99075 11.749C7.58319 11.7465 7.23188 11.6765 6.93684 11.539C6.6418 11.4015 6.41176 11.2052 6.24674 10.9502C6.08421 10.6951 5.9992 10.3926 5.9917 10.0425H6.88058C6.93309 10.3651 7.06061 10.6051 7.26314 10.7626C7.46817 10.9177 7.71696 10.9952 8.0095 10.9952C8.25204 10.9952 8.46207 10.9589 8.63959 10.8864C8.81712 10.8114 8.95339 10.7089 9.0484 10.5789C9.14592 10.4489 9.19468 10.2976 9.19468 10.1251C9.19468 9.94252 9.14217 9.78625 9.03715 9.65623C8.93464 9.52621 8.79337 9.4262 8.61334 9.35619C8.43331 9.28618 8.23078 9.24867 8.00575 9.24367L7.50317 9.22867V8.48606L7.96824 8.46731C8.18328 8.4598 8.37205 8.41855 8.53458 8.34354C8.6996 8.26853 8.82837 8.16976 8.92089 8.04724C9.0134 7.92472 9.05966 7.7872 9.05966 7.63468C9.05966 7.49466 9.0159 7.36839 8.92839 7.25588C8.84337 7.14336 8.72211 7.05585 8.56458 6.99334C8.40706 6.92833 8.22078 6.89582 8.00575 6.89582C7.82322 6.89582 7.65195 6.92833 7.49192 6.99334C7.3319 7.05835 7.19938 7.16336 7.09436 7.30838C6.99185 7.4509 6.93559 7.63843 6.92559 7.87097H6.04046C6.04046 7.50091 6.12922 7.18962 6.30675 6.93708C6.48427 6.68204 6.72181 6.49076 7.01935 6.36324C7.3194 6.23322 7.65195 6.16821 8.017 6.16821C8.40956 6.16821 8.75711 6.22197 9.05966 6.32949C9.3647 6.4345 9.60349 6.59328 9.77601 6.80581C9.95104 7.01834 10.0386 7.28213 10.0386 7.59718C10.0386 7.86472 9.95729 8.1035 9.79477 8.31353C9.63224 8.52356 9.37595 8.68859 9.0259 8.80861C9.24343 8.86862 9.43846 8.95863 9.61099 9.07865C9.78351 9.19616 9.91978 9.34369 10.0198 9.52121C10.1223 9.69874 10.1736 9.90752 10.1736 10.1476C10.1736 10.4051 10.1173 10.6339 10.0048 10.8339C9.89478 11.0339 9.73976 11.2027 9.53973 11.3402C9.3422 11.4753 9.11091 11.5778 8.84587 11.6478C8.58083 11.7153 8.29579 11.749 7.99075 11.749Z" fill="#632A09"/><path d="M7.68997 11.749C7.2824 11.7465 6.9311 11.6765 6.63606 11.539C6.34101 11.4015 6.11098 11.2052 5.94596 10.9502C5.78343 10.6951 5.69842 10.3926 5.69092 10.0425H6.5798C6.63231 10.3651 6.75983 10.6051 6.96236 10.7626C7.16739 10.9177 7.41617 10.9952 7.70872 10.9952C7.95125 10.9952 8.16129 10.9589 8.33881 10.8864C8.51634 10.8114 8.65261 10.7089 8.74762 10.5789C8.84514 10.4489 8.89389 10.2976 8.89389 10.1251C8.89389 9.94252 8.84139 9.78625 8.73637 9.65623C8.63386 9.52621 8.49258 9.4262 8.31256 9.35619C8.13253 9.28618 7.93 9.24867 7.70497 9.24367L7.20239 9.22867V8.48606L7.66746 8.46731C7.88249 8.4598 8.07127 8.41855 8.2338 8.34354C8.39882 8.26853 8.52759 8.16976 8.6201 8.04724C8.71262 7.92472 8.75887 7.7872 8.75887 7.63468C8.75887 7.49466 8.71512 7.36839 8.62761 7.25588C8.54259 7.14336 8.42132 7.05585 8.2638 6.99334C8.10628 6.92833 7.92 6.89582 7.70497 6.89582C7.52244 6.89582 7.35117 6.92833 7.19114 6.99334C7.03112 7.05835 6.8986 7.16336 6.79358 7.30838C6.69107 7.4509 6.63481 7.63843 6.62481 7.87097H5.73968C5.73968 7.50091 5.82844 7.18962 6.00596 6.93708C6.18349 6.68204 6.42103 6.49076 6.71857 6.36324C7.01862 6.23322 7.35117 6.16821 7.71622 6.16821C8.10878 6.16821 8.45633 6.22197 8.75887 6.32949C9.06392 6.4345 9.30271 6.59328 9.47523 6.80581C9.65026 7.01834 9.73777 7.28213 9.73777 7.59718C9.73777 7.86472 9.65651 8.1035 9.49398 8.31353C9.33146 8.52356 9.07517 8.68859 8.72512 8.80861C8.94265 8.86862 9.13768 8.95863 9.31021 9.07865C9.48273 9.19616 9.619 9.34369 9.71902 9.52121C9.82153 9.69874 9.87279 9.90752 9.87279 10.1476C9.87279 10.4051 9.81653 10.6339 9.70402 10.8339C9.594 11.0339 9.43898 11.2027 9.23895 11.3402C9.04142 11.4753 8.81013 11.5778 8.54509 11.6478C8.28005 11.7153 7.99501 11.749 7.68997 11.749Z" fill="#A15326"/><path d="M6.58008 10.0425C6.61084 10.2314 6.66775 10.3916 6.75 10.5239L6.11035 11.1606C6.05005 11.0954 5.9942 11.0253 5.94531 10.9497C5.82804 10.7655 5.7513 10.5565 5.71484 10.3228L6.00488 10.0425H6.58008Z" fill="#B45F2E"/><path d="M9.47461 6.80615C9.64051 7.0076 9.7267 7.25478 9.73535 7.54834L8.00488 9.27295C7.90978 9.25648 7.80996 9.246 7.70508 9.24365L7.20215 9.229V8.87744L7.62207 8.46826L7.66699 8.46729C7.88198 8.45979 8.0709 8.41824 8.2334 8.34326C8.39842 8.26825 8.5276 8.16988 8.62012 8.04736C8.71263 7.92484 8.75879 7.7868 8.75879 7.63428C8.75874 7.5539 8.74179 7.47903 8.71289 7.40771L9.4082 6.73096C9.43125 6.75531 9.45354 6.78019 9.47461 6.80615Z" fill="#B45F2E"/><path d="M4.19755 5.22991L4.09645 4.81512L3.98475 5.20077C3.94568 5.33565 3.83575 5.43454 3.69734 5.45927L3.35938 5.51997L3.715 5.63035C3.85363 5.67339 3.96312 5.78619 4.00197 5.92615L4.10616 6.30076L4.20042 5.93255C4.23574 5.79458 4.34523 5.69149 4.48519 5.66456L4.84346 5.59569L4.41168 5.4586C4.30616 5.42505 4.22404 5.33719 4.19777 5.22969L4.19755 5.22991Z" fill="white"/><path d="M12.2891 12.6552L12.2299 12.4126L12.1646 12.6382C12.1419 12.717 12.0774 12.7748 11.9964 12.7894L11.7988 12.825L12.0068 12.8894C12.0878 12.9146 12.1518 12.9806 12.1745 13.0623L12.2355 13.2812L12.2904 13.066C12.3112 12.9852 12.3752 12.925 12.4569 12.9093L12.6664 12.8689L12.4138 12.7888C12.352 12.7691 12.3041 12.7177 12.2889 12.655L12.2891 12.6552Z" fill="white"/><defs><clipPath id="clip0_7809_18809"><rect width="8" height="13.3333" fill="white" transform="translate(4)"/></clipPath></defs></svg>