<svg width="16" height="16" viewBox="0 0 16 16" fill="none" xmlns="http://www.w3.org/2000/svg"><path d="M-127.042 -579C-127.042 -580.105 -126.147 -581 -125.042 -581H470.958C472.062 -581 472.958 -580.105 472.958 -579V72C472.958 73.1046 472.062 74 470.958 74H-125.042C-126.147 74 -127.042 73.1046 -127.042 72V-579Z" fill="white"/><path d="M-125.042 -581V-580H470.958V-581V-582H-125.042V-581ZM472.958 -579H471.958V72H472.958H473.958V-579H472.958ZM470.958 74V73H-125.042V74V75H470.958V74ZM-127.042 72H-126.042V-579H-127.042H-128.042V72H-127.042ZM-125.042 74V73C-125.595 73 -126.042 72.5523 -126.042 72H-127.042H-128.042C-128.042 73.6569 -126.699 75 -125.042 75V74ZM472.958 72H471.958C471.958 72.5523 471.51 73 470.958 73V74V75C472.614 75 473.958 73.6569 473.958 72H472.958ZM470.958 -581V-580C471.51 -580 471.958 -579.552 471.958 -579H472.958H473.958C473.958 -580.657 472.614 -582 470.958 -582V-581ZM-125.042 -581V-582C-126.699 -582 -128.042 -580.657 -128.042 -579H-127.042H-126.042C-126.042 -579.552 -125.595 -580 -125.042 -580V-581Z" fill="black" fill-opacity="0.1"/><rect x="-67.5425" y="-19.5" width="135" height="55" rx="4.5" stroke="#9747FF" stroke-dasharray="10 5"/><path d="M11.8221 0.271436C11.9089 0.240679 12 0.30505 12 0.397123L11.9987 12.8L4 12.9746L4 0.496234C4 0.405969 4.08781 0.341788 4.17382 0.369194L8.0558 1.60624L11.8221 0.271436Z" fill="#CE6B3F"/><path d="M6.33789 1.05949L8.05347 1.60341L9.76237 0.999415V6.40029H6.33789V1.05949Z" fill="#F6B396"/><ellipse opacity="0.3" cx="8" cy="8.85824" rx="6.18164" ry="6.13021" fill="#C9521D"/><path d="M7.99823 15.4909C11.4123 15.4909 14.18 12.7232 14.18 9.30911C14.18 5.89498 11.4123 3.12729 7.99823 3.12729C4.5841 3.12729 1.81641 5.89498 1.81641 9.30911C1.81641 12.7232 4.5841 15.4909 7.99823 15.4909Z" fill="#D6D6D6"/><path d="M7.99823 15.4909C11.4123 15.4909 14.18 12.7232 14.18 9.30911C14.18 5.89498 11.4123 3.12729 7.99823 3.12729C4.5841 3.12729 1.81641 5.89498 1.81641 9.30911C1.81641 12.7232 4.5841 15.4909 7.99823 15.4909Z" fill="#EFA279"/><path d="M1.81641 9.30922C1.81641 9.71319 1.8557 10.1079 1.92965 10.4902L7.38057 3.15787C4.25655 3.4678 1.81641 6.10352 1.81641 9.30922Z" fill="#FFB48C"/><path d="M8.00001 15.2759C11.2954 15.2759 13.9668 12.6045 13.9668 9.30909C13.9668 6.01372 11.2954 3.34229 8.00001 3.34229C4.70463 3.34229 2.0332 6.01372 2.0332 9.30909C2.0332 12.6045 4.70463 15.2759 8.00001 15.2759Z" fill="#FFCEB5"/><path d="M8.00196 4.39502C5.29228 4.39502 3.08789 6.59963 3.08789 9.30908C3.08789 12.0185 5.29228 14.2234 8.00196 14.2234C10.7116 14.2234 12.9162 12.019 12.9162 9.30908C12.9162 6.59918 10.7119 4.39502 8.00196 4.39502Z" fill="#EE9B6E"/><path d="M7.90271 4.97656C5.51377 4.97656 3.57031 6.92025 3.57031 9.30896C3.57031 11.6977 5.51377 13.6416 7.90271 13.6416C10.2916 13.6416 12.2353 11.6981 12.2353 9.30896C12.2353 6.9198 10.2919 4.97656 7.90271 4.97656Z" fill="#FFD4C1"/><path d="M11.293 6.6167C11.293 6.6167 10.4116 5.45949 9.23622 5.17725L3.79102 10.6825C4.62856 13.0269 6.67246 13.6422 7.90136 13.6422C10.2903 13.6422 12.234 11.6987 12.234 9.30959C12.234 8.29278 11.8818 7.35657 11.293 6.6167Z" fill="#FFC8AB"/><path d="M10.8631 6.13928L4.77148 12.3032C5.56066 13.1277 6.67127 13.642 7.90017 13.642C10.2891 13.642 12.2328 11.6985 12.2328 9.30938C12.2328 8.29258 11.8291 6.95061 10.8631 6.13928Z" fill="#FDB28A"/><path d="M7.99075 11.749C7.58319 11.7465 7.23188 11.6765 6.93684 11.539C6.6418 11.4015 6.41176 11.2052 6.24674 10.9501C6.08421 10.6951 5.9992 10.3926 5.9917 10.0425H6.88058C6.93309 10.3651 7.06061 10.6051 7.26314 10.7626C7.46817 10.9176 7.71696 10.9952 8.0095 10.9952C8.25204 10.9952 8.46207 10.9589 8.63959 10.8864C8.81712 10.8114 8.95339 10.7089 9.0484 10.5788C9.14592 10.4488 9.19468 10.2975 9.19468 10.125C9.19468 9.94249 9.14217 9.78622 9.03715 9.6562C8.93464 9.52618 8.79337 9.42617 8.61334 9.35616C8.43331 9.28615 8.23078 9.24864 8.00575 9.24364L7.50317 9.22864V8.48603L7.96824 8.46727C8.18328 8.45977 8.37205 8.41852 8.53458 8.34351C8.6996 8.2685 8.82837 8.16973 8.92089 8.04721C9.0134 7.92469 9.05966 7.78717 9.05966 7.63465C9.05966 7.49463 9.0159 7.36836 8.92839 7.25584C8.84337 7.14333 8.72211 7.05581 8.56458 6.99331C8.40706 6.9283 8.22078 6.89579 8.00575 6.89579C7.82322 6.89579 7.65195 6.9283 7.49192 6.99331C7.3319 7.05832 7.19938 7.16333 7.09436 7.30835C6.99185 7.45087 6.93559 7.6384 6.92559 7.87094H6.04046C6.04046 7.50088 6.12922 7.18958 6.30675 6.93705C6.48427 6.68201 6.72181 6.49073 7.01935 6.36321C7.3194 6.23319 7.65195 6.16818 8.017 6.16818C8.40956 6.16818 8.75711 6.22194 9.05966 6.32946C9.3647 6.43447 9.60349 6.59325 9.77601 6.80578C9.95104 7.01831 10.0386 7.2821 10.0386 7.59715C10.0386 7.86469 9.95729 8.10347 9.79477 8.3135C9.63224 8.52353 9.37595 8.68856 9.0259 8.80858C9.24343 8.86858 9.43846 8.9586 9.61099 9.07862C9.78351 9.19613 9.91978 9.34366 10.0198 9.52118C10.1223 9.69871 10.1736 9.90749 10.1736 10.1475C10.1736 10.4051 10.1173 10.6338 10.0048 10.8339C9.89478 11.0339 9.73976 11.2027 9.53973 11.3402C9.3422 11.4752 9.11091 11.5777 8.84587 11.6477C8.58083 11.7153 8.29579 11.749 7.99075 11.749Z" fill="#632A09"/><path d="M7.68997 11.749C7.2824 11.7465 6.9311 11.6765 6.63606 11.539C6.34101 11.4015 6.11098 11.2052 5.94596 10.9501C5.78343 10.6951 5.69842 10.3926 5.69092 10.0425H6.5798C6.63231 10.3651 6.75983 10.6051 6.96236 10.7626C7.16739 10.9176 7.41617 10.9952 7.70872 10.9952C7.95125 10.9952 8.16129 10.9589 8.33881 10.8864C8.51634 10.8114 8.65261 10.7089 8.74762 10.5788C8.84514 10.4488 8.89389 10.2975 8.89389 10.125C8.89389 9.94249 8.84139 9.78622 8.73637 9.6562C8.63386 9.52618 8.49258 9.42617 8.31256 9.35616C8.13253 9.28615 7.93 9.24864 7.70497 9.24364L7.20239 9.22864V8.48603L7.66746 8.46727C7.88249 8.45977 8.07127 8.41852 8.2338 8.34351C8.39882 8.2685 8.52759 8.16973 8.6201 8.04721C8.71262 7.92469 8.75887 7.78717 8.75887 7.63465C8.75887 7.49463 8.71512 7.36836 8.62761 7.25584C8.54259 7.14333 8.42132 7.05581 8.2638 6.99331C8.10628 6.9283 7.92 6.89579 7.70497 6.89579C7.52244 6.89579 7.35117 6.9283 7.19114 6.99331C7.03112 7.05832 6.8986 7.16333 6.79358 7.30835C6.69107 7.45087 6.63481 7.6384 6.62481 7.87094H5.73968C5.73968 7.50088 5.82844 7.18958 6.00596 6.93705C6.18349 6.68201 6.42103 6.49073 6.71857 6.36321C7.01862 6.23319 7.35117 6.16818 7.71622 6.16818C8.10878 6.16818 8.45633 6.22194 8.75887 6.32946C9.06392 6.43447 9.30271 6.59325 9.47523 6.80578C9.65026 7.01831 9.73777 7.2821 9.73777 7.59715C9.73777 7.86469 9.65651 8.10347 9.49398 8.3135C9.33146 8.52353 9.07517 8.68856 8.72512 8.80858C8.94265 8.86858 9.13768 8.9586 9.31021 9.07862C9.48273 9.19613 9.619 9.34366 9.71902 9.52118C9.82153 9.69871 9.87279 9.90749 9.87279 10.1475C9.87279 10.4051 9.81653 10.6338 9.70402 10.8339C9.594 11.0339 9.43898 11.2027 9.23895 11.3402C9.04142 11.4752 8.81013 11.5777 8.54509 11.6477C8.28005 11.7153 7.99501 11.749 7.68997 11.749Z" fill="#A15326"/><path d="M6.58008 10.0425C6.61084 10.2314 6.66775 10.3916 6.75 10.5239L6.11035 11.1606C6.05005 11.0954 5.9942 11.0253 5.94531 10.9497C5.82804 10.7655 5.7513 10.5565 5.71484 10.3228L6.00488 10.0425H6.58008Z" fill="#B45F2E"/><path d="M9.47461 6.80615C9.64051 7.0076 9.7267 7.25478 9.73535 7.54834L8.00488 9.27295C7.90978 9.25648 7.80996 9.246 7.70508 9.24365L7.20215 9.229V8.87744L7.62207 8.46826L7.66699 8.46729C7.88198 8.45979 8.0709 8.41824 8.2334 8.34326C8.39842 8.26825 8.5276 8.16988 8.62012 8.04736C8.71263 7.92484 8.75879 7.7868 8.75879 7.63428C8.75874 7.5539 8.74179 7.47903 8.71289 7.40771L9.4082 6.73096C9.43125 6.75531 9.45354 6.78019 9.47461 6.80615Z" fill="#B45F2E"/><path d="M4.19755 5.22988L4.09645 4.81509L3.98475 5.20074C3.94568 5.33562 3.83575 5.43451 3.69734 5.45924L3.35938 5.51994L3.715 5.63032C3.85363 5.67336 3.96312 5.78616 4.00197 5.92612L4.10616 6.30073L4.20042 5.93252C4.23574 5.79455 4.34523 5.69146 4.48519 5.66453L4.84346 5.59566L4.41168 5.45857C4.30616 5.42502 4.22404 5.33716 4.19777 5.22966L4.19755 5.22988Z" fill="white"/><path d="M12.2891 12.6552L12.2299 12.4126L12.1646 12.6382C12.1419 12.717 12.0774 12.7748 11.9964 12.7894L11.7988 12.825L12.0068 12.8894C12.0878 12.9146 12.1518 12.9806 12.1745 13.0623L12.2355 13.2812L12.2904 13.066C12.3112 12.9852 12.3752 12.925 12.4569 12.9093L12.6664 12.8689L12.4138 12.7888C12.352 12.7691 12.3041 12.7177 12.2889 12.655L12.2891 12.6552Z" fill="white"/><defs><clipPath id="clip0_7809_18809"><rect width="8" height="13.3333" fill="white" transform="translate(4)"/></clipPath></defs></svg>