<svg width="16" height="16" viewBox="0 0 16 16" fill="none" xmlns="http://www.w3.org/2000/svg"><path d="M-201.042 -501C-201.042 -502.105 -200.147 -503 -199.042 -503H396.958C398.062 -503 398.958 -502.105 398.958 -501V150C398.958 151.105 398.062 152 396.958 152H-199.042C-200.147 152 -201.042 151.105 -201.042 150V-501Z" fill="white"/><path d="M-199.042 -503V-502H396.958V-503V-504H-199.042V-503ZM398.958 -501H397.958V150H398.958H399.958V-501H398.958ZM396.958 152V151H-199.042V152V153H396.958V152ZM-201.042 150H-200.042V-501H-201.042H-202.042V150H-201.042ZM-199.042 152V151C-199.595 151 -200.042 150.552 -200.042 150H-201.042H-202.042C-202.042 151.657 -200.699 153 -199.042 153V152ZM398.958 150H397.958C397.958 150.552 397.51 151 396.958 151V152V153C398.614 153 399.958 151.657 399.958 150H398.958ZM396.958 -503V-502C397.51 -502 397.958 -501.552 397.958 -501H398.958H399.958C399.958 -502.657 398.614 -504 396.958 -504V-503ZM-199.042 -503V-504C-200.699 -504 -202.042 -502.657 -202.042 -501H-201.042H-200.042C-200.042 -501.552 -199.595 -502 -199.042 -502V-503Z" fill="black" fill-opacity="0.1"/><rect x="-43.5425" y="-19.5" width="135" height="55" rx="4.5" stroke="#9747FF" stroke-dasharray="10 5"/><path d="M11.8221 0.271436C11.9089 0.240679 12 0.30505 12 0.397123L11.9987 12.8L4 12.9746L4 0.496234C4 0.405969 4.08781 0.341788 4.17382 0.369194L8.0558 1.60624L11.8221 0.271436Z" fill="#439CDF"/><path d="M6.33789 1.05949L8.05347 1.60341L9.76237 0.999415V6.40029H6.33789V1.05949Z" fill="#A2D5FF"/><ellipse opacity="0.3" cx="8" cy="8.85824" rx="6.18164" ry="6.13021" fill="#00456D"/><path d="M7.99823 15.4909C11.4123 15.4909 14.18 12.7232 14.18 9.30908C14.18 5.89495 11.4123 3.12726 7.99823 3.12726C4.5841 3.12726 1.81641 5.89495 1.81641 9.30908C1.81641 12.7232 4.5841 15.4909 7.99823 15.4909Z" fill="#D6D6D6"/><path d="M7.99823 15.4909C11.4123 15.4909 14.18 12.7232 14.18 9.30908C14.18 5.89495 11.4123 3.12726 7.99823 3.12726C4.5841 3.12726 1.81641 5.89495 1.81641 9.30908C1.81641 12.7232 4.5841 15.4909 7.99823 15.4909Z" fill="#8FCCF9"/><path d="M1.81641 9.30925C1.81641 9.71322 1.8557 10.1079 1.92965 10.4903L7.38057 3.1579C4.25655 3.46783 1.81641 6.10355 1.81641 9.30925Z" fill="#C6E5FF"/><path d="M8.00001 15.2759C11.2954 15.2759 13.9668 12.6045 13.9668 9.30909C13.9668 6.01372 11.2954 3.34229 8.00001 3.34229C4.70463 3.34229 2.0332 6.01372 2.0332 9.30909C2.0332 12.6045 4.70463 15.2759 8.00001 15.2759Z" fill="#B3DDFF"/><path d="M8.00196 4.39502C5.29228 4.39502 3.08789 6.59963 3.08789 9.30908C3.08789 12.0185 5.29228 14.2234 8.00196 14.2234C10.7116 14.2234 12.9162 12.019 12.9162 9.30908C12.9162 6.59918 10.7119 4.39502 8.00196 4.39502Z" fill="#75BCF2"/><path d="M7.90271 4.97656C5.51377 4.97656 3.57031 6.92025 3.57031 9.30896C3.57031 11.6977 5.51377 13.6416 7.90271 13.6416C10.2916 13.6416 12.2353 11.6981 12.2353 9.30896C12.2353 6.9198 10.2919 4.97656 7.90271 4.97656Z" fill="#BFE2FF"/><path d="M11.293 6.6167C11.293 6.6167 10.4116 5.45949 9.23622 5.17725L3.79102 10.6825C4.62856 13.0269 6.67246 13.6422 7.90136 13.6422C10.2903 13.6422 12.234 11.6987 12.234 9.30959C12.234 8.29278 11.8818 7.35657 11.293 6.6167Z" fill="#ADDCFF"/><path d="M10.8631 6.13928L4.77148 12.3032C5.56066 13.1277 6.67127 13.642 7.90017 13.642C10.2891 13.642 12.2328 11.6985 12.2328 9.30938C12.2328 8.29258 11.8291 6.95061 10.8631 6.13928Z" fill="#8FCFFF"/><path d="M4.19755 5.22991L4.09645 4.81512L3.98475 5.20077C3.94568 5.33565 3.83575 5.43454 3.69734 5.45927L3.35938 5.51997L3.715 5.63035C3.85363 5.67339 3.96312 5.78619 4.00197 5.92615L4.10616 6.30076L4.20042 5.93255C4.23574 5.79458 4.34523 5.69149 4.48519 5.66456L4.84346 5.59569L4.41168 5.4586C4.30616 5.42505 4.22404 5.33719 4.19777 5.22969L4.19755 5.22991Z" fill="white"/><path d="M12.2891 12.6552L12.2299 12.4126L12.1646 12.6382C12.1419 12.717 12.0774 12.7748 11.9964 12.7894L11.7988 12.825L12.0068 12.8894C12.0878 12.9146 12.1518 12.9806 12.1745 13.0623L12.2355 13.2812L12.2904 13.066C12.3112 12.9852 12.3752 12.925 12.4569 12.9093L12.6664 12.8689L12.4138 12.7888C12.352 12.7691 12.3041 12.7177 12.2889 12.655L12.2891 12.6552Z" fill="white"/><path d="M6.24226 11.775V11.0714C6.24226 10.807 6.29107 10.5796 6.38871 10.3891C6.48634 10.1962 6.61612 10.0283 6.77805 9.88547C6.93997 9.74259 7.11738 9.61639 7.31026 9.50685C7.50553 9.39493 7.69841 9.29015 7.88892 9.19252C8.0818 9.0925 8.25921 8.99011 8.42113 8.88533C8.58306 8.77817 8.71284 8.65911 8.81048 8.52814C8.91049 8.39717 8.9605 8.24119 8.9605 8.06022C8.9605 7.82923 8.87834 7.64111 8.71403 7.49585C8.55211 7.34821 8.33184 7.27439 8.05323 7.27439C7.75795 7.27439 7.51386 7.35893 7.32098 7.528C7.13048 7.69707 7.01737 7.9352 6.98165 8.24238H6.13867C6.14343 7.92805 6.21844 7.6423 6.3637 7.38512C6.50896 7.12794 6.72447 6.92315 7.01022 6.77075C7.29598 6.61597 7.65198 6.53857 8.07823 6.53857C8.44733 6.53857 8.76523 6.60287 9.03193 6.73146C9.30102 6.85767 9.50819 7.03507 9.65345 7.26368C9.80109 7.4899 9.87491 7.75422 9.87491 8.05664C9.87491 8.32097 9.82609 8.54719 9.72846 8.73531C9.63321 8.92343 9.50581 9.08655 9.34626 9.22467C9.1891 9.3604 9.01527 9.48065 8.82476 9.58543C8.63664 9.69021 8.44733 9.78903 8.25683 9.8819C8.0687 9.97239 7.89487 10.0676 7.73532 10.1677C7.57816 10.2653 7.45076 10.3772 7.35313 10.5034C7.25788 10.6296 7.21025 10.7808 7.21025 10.9571V11.0321H9.88563V11.775H6.24226Z" fill="#103A5B"/><path d="M5.99616 11.6417V10.9381C5.99616 10.6737 6.04498 10.4463 6.14261 10.2558C6.24025 10.0629 6.37003 9.89505 6.53195 9.75217C6.69388 9.60929 6.87129 9.48309 7.06417 9.37355C7.25944 9.26163 7.45232 9.15685 7.64282 9.05922C7.83571 8.9592 8.01311 8.85681 8.17504 8.75203C8.33697 8.64487 8.46675 8.52581 8.56438 8.39484C8.6644 8.26387 8.7144 8.10789 8.7144 7.92692C8.7144 7.69593 8.63225 7.50781 8.46794 7.36255C8.30601 7.21491 8.08574 7.14109 7.80713 7.14109C7.51185 7.14109 7.26777 7.22563 7.07489 7.3947C6.88438 7.56377 6.77127 7.8019 6.73555 8.10908H5.89258C5.89734 7.79475 5.97235 7.509 6.11761 7.25182C6.26287 6.99464 6.47837 6.78985 6.76413 6.63745C7.04988 6.48267 7.40589 6.40527 7.83214 6.40527C8.20124 6.40527 8.51914 6.46957 8.78584 6.59816C9.05493 6.72437 9.2621 6.90177 9.40736 7.13038C9.555 7.3566 9.62882 7.62092 9.62882 7.92334C9.62882 8.18767 9.58 8.41389 9.48237 8.60201C9.38712 8.79013 9.25972 8.95325 9.10017 9.09136C8.94301 9.2271 8.76917 9.34735 8.57867 9.45213C8.39055 9.55691 8.20124 9.65573 8.01073 9.7486C7.82261 9.83909 7.64878 9.93434 7.48923 10.0344C7.33207 10.132 7.20467 10.2439 7.10703 10.3701C7.01178 10.4963 6.96416 10.6475 6.96416 10.8238V10.8988H9.63953V11.6417H5.99616Z" fill="#235379"/><path d="M9.23633 6.91797C9.29969 6.98362 9.35805 7.05347 9.40723 7.13086C9.51483 7.29583 9.58221 7.48104 9.61133 7.68652L5.99609 11.3008V10.9385C5.99609 10.6742 6.04496 10.4464 6.14258 10.2559C6.24021 10.063 6.3703 9.89483 6.53223 9.75195C6.69408 9.60917 6.87167 9.4835 7.06445 9.37402C7.2596 9.26217 7.45219 9.15715 7.64258 9.05957C7.83541 8.95958 8.01291 8.8567 8.1748 8.75195C8.33673 8.6448 8.46682 8.5255 8.56445 8.39453C8.66435 8.26361 8.71484 8.10763 8.71484 7.92676C8.71482 7.77633 8.6791 7.64434 8.60938 7.53027L9.23633 6.91797Z" fill="#3774A5"/><defs><clipPath id="clip0_7809_18809"><rect width="8" height="13.3333" fill="white" transform="translate(4)"/></clipPath></defs></svg>