<svg width="16" height="16" viewBox="0 0 16 16" fill="none" xmlns="http://www.w3.org/2000/svg"><path d="M-256.042 -501C-256.042 -502.105 -255.147 -503 -254.042 -503H341.958C343.062 -503 343.958 -502.105 343.958 -501V150C343.958 151.105 343.062 152 341.958 152H-254.042C-255.147 152 -256.042 151.105 -256.042 150V-501Z" fill="white"/><path d="M-254.042 -503V-502H341.958V-503V-504H-254.042V-503ZM343.958 -501H342.958V150H343.958H344.958V-501H343.958ZM341.958 152V151H-254.042V152V153H341.958V152ZM-256.042 150H-255.042V-501H-256.042H-257.042V150H-256.042ZM-254.042 152V151C-254.595 151 -255.042 150.552 -255.042 150H-256.042H-257.042C-257.042 151.657 -255.699 153 -254.042 153V152ZM343.958 150H342.958C342.958 150.552 342.51 151 341.958 151V152V153C343.614 153 344.958 151.657 344.958 150H343.958ZM341.958 -503V-502C342.51 -502 342.958 -501.552 342.958 -501H343.958H344.958C344.958 -502.657 343.614 -504 341.958 -504V-503ZM-254.042 -503V-504C-255.699 -504 -257.042 -502.657 -257.042 -501H-256.042H-255.042C-255.042 -501.552 -254.595 -502 -254.042 -502V-503Z" fill="black" fill-opacity="0.1"/><rect x="-98.5425" y="-19.5" width="135" height="55" rx="4.5" stroke="#9747FF" stroke-dasharray="10 5"/><path fill-rule="evenodd" clip-rule="evenodd" d="M0 0H16L13.9747 11.0789C13.4537 13.9293 10.9701 16 8.07255 16H0V0Z" fill="#1A1A1A" fill-opacity="0.7"/><path d="M9.27678 10.716H8.36478V12H7.17678V10.716H3.72078V9.576L6.73278 3.456H8.05278L5.05278 9.576H7.17678V7.584H8.36478V9.576H9.27678V10.716Z" fill="white"/><defs><clipPath id="clip0_7809_18809"><rect width="16" height="16" fill="white"/></clipPath></defs></svg>