<svg width="16" height="16" viewBox="0 0 16 16" fill="none" xmlns="http://www.w3.org/2000/svg"><path d="M-100 -764C-100 -768.418 -96.4183 -772 -92 -772H972C976.418 -772 980 -768.418 980 -764V890C980 894.418 976.418 898 972 898H-92C-96.4183 898 -100 894.418 -100 890V-764Z" fill="white"/><path d="M-92 -772V-771H972V-772V-773H-92V-772ZM980 -764H979V890H980H981V-764H980ZM972 898V897H-92V898V899H972V898ZM-100 890H-99V-764H-100H-101V890H-100ZM-92 898V897C-95.866 897 -99 893.866 -99 890H-100H-101C-101 894.971 -96.9705 899 -92 899V898ZM980 890H979C979 893.866 975.866 897 972 897V898V899C976.971 899 981 894.971 981 890H980ZM972 -772V-771C975.866 -771 979 -767.866 979 -764H980H981C981 -768.971 976.971 -773 972 -773V-772ZM-92 -772V-773C-96.9706 -773 -101 -768.971 -101 -764H-100H-99C-99 -767.866 -95.866 -771 -92 -771V-772Z" fill="#F1F1F1"/><path d="M4.66667 7.33331V4.66665C4.66584 3.84001 4.97219 3.04256 5.52625 2.42909C6.08031 1.81563 6.84255 1.42992 7.665 1.34684C8.48745 1.26376 9.31143 1.48925 9.97698 1.97952C10.6425 2.4698 11.1022 3.18988 11.2667 3.99998M3.33333 7.33331H12.6667C13.403 7.33331 14 7.93027 14 8.66665V13.3333C14 14.0697 13.403 14.6666 12.6667 14.6666H3.33333C2.59695 14.6666 2 14.0697 2 13.3333V8.66665C2 7.93027 2.59695 7.33331 3.33333 7.33331Z" stroke="#202020" stroke-width="1.3" stroke-linecap="round" stroke-linejoin="round"/></svg>