<svg width="20" height="20" viewBox="0 0 20 20" fill="none" xmlns="http://www.w3.org/2000/svg"><path d="M-400 -792C-400 -796.418 -396.418 -800 -392 -800H712C716.418 -800 720 -796.418 720 -792V898C720 902.418 716.418 906 712 906H-392C-396.418 906 -400 902.418 -400 898V-792Z" fill="white"/><path d="M-392 -800V-799H712V-800V-801H-392V-800ZM720 -792H719V898H720H721V-792H720ZM712 906V905H-392V906V907H712V906ZM-400 898H-399V-792H-400H-401V898H-400ZM-392 906V905C-395.866 905 -399 901.866 -399 898H-400H-401C-401 902.971 -396.971 907 -392 907V906ZM720 898H719C719 901.866 715.866 905 712 905V906V907C716.971 907 721 902.971 721 898H720ZM712 -800V-799C715.866 -799 719 -795.866 719 -792H720H721C721 -796.971 716.971 -801 712 -801V-800ZM-392 -800V-801C-396.971 -801 -401 -796.971 -401 -792H-400H-399C-399 -795.866 -395.866 -799 -392 -799V-800Z" fill="#F1F1F1"/><path d="M5.83333 9.16667V5.83334C5.8323 4.80005 6.21523 3.80323 6.90781 3.03639C7.60039 2.26956 8.55319 1.78742 9.58125 1.68358C10.6093 1.57974 11.6393 1.86159 12.4712 2.47443C13.3032 3.08727 13.8777 3.98738 14.0833 5.00001M4.16667 9.16667H15.8333C16.7538 9.16667 17.5 9.91286 17.5 10.8333V16.6667C17.5 17.5871 16.7538 18.3333 15.8333 18.3333H4.16667C3.24619 18.3333 2.5 17.5871 2.5 16.6667V10.8333C2.5 9.91286 3.24619 9.16667 4.16667 9.16667Z" stroke="#202020" stroke-width="1.5" stroke-linecap="round" stroke-linejoin="round"/></svg>