<svg width="24" height="24" viewBox="0 0 24 24" fill="none" xmlns="http://www.w3.org/2000/svg"><path d="M-412 -820C-412 -824.418 -408.418 -828 -404 -828H740C744.418 -828 748 -824.418 748 -820V870C748 874.418 744.418 878 740 878H-404C-408.418 878 -412 874.418 -412 870V-820Z" fill="white"/><path d="M-404 -828V-827H740V-828V-829H-404V-828ZM748 -820H747V870H748H749V-820H748ZM740 878V877H-404V878V879H740V878ZM-412 870H-411V-820H-412H-413V870H-412ZM-404 878V877C-407.866 877 -411 873.866 -411 870H-412H-413C-413 874.971 -408.971 879 -404 879V878ZM748 870H747C747 873.866 743.866 877 740 877V878V879C744.971 879 749 874.971 749 870H748ZM740 -828V-827C743.866 -827 747 -823.866 747 -820H748H749C749 -824.971 744.971 -829 740 -829V-828ZM-404 -828V-829C-408.971 -829 -413 -824.971 -413 -820H-412H-411C-411 -823.866 -407.866 -827 -404 -827V-828Z" fill="#F1F1F1"/><path d="M7 11V6.99997C6.99875 5.76002 7.45828 4.56384 8.28937 3.64364C9.12047 2.72344 10.2638 2.14487 11.4975 2.02026C12.7312 1.89565 13.9671 2.23387 14.9655 2.96928C15.9638 3.70469 16.6533 4.78482 16.9 5.99997M5 11H19C20.1046 11 21 11.8954 21 13V20C21 21.1045 20.1046 22 19 22H5C3.89543 22 3 21.1045 3 20V13C3 11.8954 3.89543 11 5 11Z" stroke="#202020" stroke-width="1.8" stroke-linecap="round" stroke-linejoin="round"/></svg>