<svg width="28" height="14" viewBox="0 0 28 14" fill="none" xmlns="http://www.w3.org/2000/svg"><path d="M-313 -106.5C-313 -107.605 -312.105 -108.5 -311 -108.5H315C316.105 -108.5 317 -107.605 317 -106.5V299.5C317 300.605 316.105 301.5 315 301.5H-311C-312.105 301.5 -313 300.605 -313 299.5V-106.5Z" fill="white"/><path d="M-311 -108.5V-107.5H315V-108.5V-109.5H-311V-108.5ZM317 -106.5H316V299.5H317H318V-106.5H317ZM315 301.5V300.5H-311V301.5V302.5H315V301.5ZM-313 299.5H-312V-106.5H-313H-314V299.5H-313ZM-311 301.5V300.5C-311.552 300.5 -312 300.052 -312 299.5H-313H-314C-314 301.157 -312.657 302.5 -311 302.5V301.5ZM317 299.5H316C316 300.052 315.552 300.5 315 300.5V301.5V302.5C316.657 302.5 318 301.157 318 299.5H317ZM315 -108.5V-107.5C315.552 -107.5 316 -107.052 316 -106.5H317H318C318 -108.157 316.657 -109.5 315 -109.5V-108.5ZM-311 -108.5V-109.5C-312.657 -109.5 -314 -108.157 -314 -106.5H-313H-312C-312 -107.052 -311.552 -107.5 -311 -107.5V-108.5Z" fill="black" fill-opacity="0.1"/><rect x="0.3" y="0.3" width="27.4" height="13.4" rx="6.7" stroke="#FF7E32" stroke-width="0.6" stroke-linejoin="bevel"/><path d="M13.39 7.0653H9.8C10.71 8.3453 12.23 9.5953 13.62 10.2053C13.45 10.3453 13.21 10.6353 13.08 10.8353C11.76 10.1753 10.34 8.9353 9.37 7.6053V11.3853H8.6V7.6453C7.63 8.9753 6.23 10.1653 4.92 10.8253C4.79 10.6453 4.55 10.3553 4.38 10.2153C5.77 9.5953 7.28 8.3553 8.18 7.0653H4.65V6.3353H8.6V4.6153H5.37V3.8853H8.6V2.2553H9.37V3.8853H12.7V4.6153H9.37V6.3353H13.39V7.0653ZM22.64 6.6753L22.05 6.5253C22.18 6.2053 22.35 5.7753 22.49 5.3453H17.68V4.6953H20.1V3.80529H18.05V3.1753H20.1V2.2553H20.83V3.1753H22.9V3.80529H20.83V4.6953H22.75L22.86 4.6653L23.34 4.7953C23.13 5.4553 22.87 6.2053 22.64 6.6753ZM20.23 6.6753L19.87 7.1053C19.57 6.7953 18.95 6.3753 18.44 6.0953L18.78 5.7253C19.29 5.9853 19.91 6.3853 20.23 6.6753ZM17.71 7.0053L18.07 6.6153C18.58 6.8753 19.23 7.2953 19.53 7.6053L19.18 8.0353C18.87 7.7253 18.24 7.2853 17.71 7.0053ZM17.11 3.94529L16.61 4.4753C16.28 4.0653 15.62 3.42529 15.08 2.9553L15.55 2.4753C16.09 2.92529 16.79 3.5353 17.11 3.94529ZM16.6 9.5553L17.49 8.8453C17.56 9.0353 17.69 9.3253 17.78 9.4653C16.22 10.7553 15.97 10.9653 15.83 11.1753V11.1853C15.75 11.0253 15.56 10.7753 15.44 10.6553C15.61 10.5153 15.91 10.1953 15.91 9.7153V6.0853H14.44V5.3653H16.6V9.5553ZM23.43 8.7553H20.8C20.43 9.7353 19.59 10.6953 17.77 11.4353C17.68 11.2553 17.47 10.9853 17.31 10.8553C18.84 10.2653 19.62 9.5153 20.01 8.7553H17.48V8.0953H20.25C20.36 7.6853 20.38 7.2853 20.38 6.9153V5.7353H21.1V6.9353C21.1 7.3053 21.08 7.6953 21 8.0953H23.43V8.7553ZM20.81 9.5353L21.26 9.1153C22.06 9.6453 23.07 10.4053 23.55 10.9353L23.09 11.4153C22.61 10.8953 21.63 10.0853 20.81 9.5353Z" fill="#FF7E32"/></svg>