<svg width="28" height="16" viewBox="0 0 28 16" fill="none" xmlns="http://www.w3.org/2000/svg"><path d="M-30 -53C-30 -54.1046 -29.1046 -55 -28 -55H598C599.105 -55 600 -54.1046 600 -53V353C600 354.105 599.105 355 598 355H-28C-29.1046 355 -30 354.105 -30 353V-53Z" fill="white"/><path d="M-28 -55V-54H598V-55V-56H-28V-55ZM600 -53H599V353H600H601V-53H600ZM598 355V354H-28V355V356H598V355ZM-30 353H-29V-53H-30H-31V353H-30ZM-28 355V354C-28.5523 354 -29 353.552 -29 353H-30H-31C-31 354.657 -29.6569 356 -28 356V355ZM600 353H599C599 353.552 598.552 354 598 354V355V356C599.657 356 601 354.657 601 353H600ZM598 -55V-54C598.552 -54 599 -53.5523 599 -53H600H601C601 -54.6569 599.657 -56 598 -56V-55ZM-28 -55V-56C-29.6569 -56 -31 -54.6569 -31 -53H-30H-29C-29 -53.5523 -28.5523 -54 -28 -54V-55Z" fill="black" fill-opacity="0.1"/><path d="M3 0.5H25C26.3807 0.5 27.5 1.61929 27.5 3V13C27.5 14.3807 26.3807 15.5 25 15.5H3C1.61929 15.5 0.5 14.3807 0.5 13V3C0.5 1.61929 1.61929 0.5 3 0.5Z" fill="#FF8CAB"/><path d="M3 0.5H25C26.3807 0.5 27.5 1.61929 27.5 3V13C27.5 14.3807 26.3807 15.5 25 15.5H3C1.61929 15.5 0.5 14.3807 0.5 13V3C0.5 1.61929 1.61929 0.5 3 0.5Z" stroke="#FF5784"/><path d="M6.44 8.35H8.57C8.59 8.19 8.59 8.03 8.59 7.86V7.5H6.44V8.35ZM6.44 5.93V6.78H8.59V5.93H6.44ZM11.78 5.93H9.56V6.78H11.78V5.93ZM11.78 8.35V7.5H9.56V7.87C9.56 8.04 9.56 8.19 9.54 8.35H11.78ZM12.7 9.11H9.43C9.31 9.68 9.06 10.21 8.6 10.68C9.88 11.18 11.56 11.29 13.68 11.31C13.51 11.53 13.34 11.92 13.29 12.23C11.05 12.15 9.23 11.98 7.83 11.29C7.18 11.7 6.27 12.04 5.05 12.3C4.94 12.09 4.69 11.69 4.48 11.48C5.57 11.29 6.36 11.04 6.96 10.75C6.51 10.41 6.13 9.98 5.8 9.46L6.61 9.14C6.92 9.59 7.29 9.95 7.73 10.24C8.11 9.9 8.32 9.52 8.44 9.11H5.56V5.17H8.59V4.45H4.68V3.61H13.33V4.45H9.56V5.17H12.7V9.11ZM19.03 4.13V4.9H14.63V4.13H16.46C16.35 3.85 16.22 3.53 16.1 3.28L16.92 3.07C17.09 3.39 17.29 3.81 17.41 4.13H19.03ZM15.29 9.16L16.04 9.36C15.8 10.04 15.41 10.75 15.02 11.21C14.88 11.08 14.58 10.87 14.4 10.76C14.78 10.35 15.11 9.76 15.29 9.16ZM19.05 8.84H17.28V11.21C17.28 11.61 17.21 11.83 16.96 11.95C16.69 12.08 16.34 12.1 15.83 12.1C15.8 11.88 15.69 11.54 15.58 11.32C15.9 11.33 16.2 11.33 16.31 11.33C16.42 11.33 16.44 11.3 16.44 11.2V8.84H14.53V8.05H16.44V7.14H14.47V6.36H15.57C15.52 6.01 15.39 5.5 15.21 5.11L15.96 4.92C16.15 5.31 16.31 5.86 16.36 6.21L15.8 6.36H17.18C17.36 5.94 17.56 5.33 17.67 4.91L18.53 5.09C18.36 5.53 18.18 5.99 18.02 6.36H19.19V7.14H17.28V8.05H19.05V8.84ZM17.58 9.44L18.2 9.11C18.53 9.58 18.87 10.2 19.03 10.61L18.38 11C18.22 10.58 17.88 9.92 17.58 9.44ZM23.57 6.43V7.29H22.56V12.25H21.65V7.29H20.37V7.5C20.37 8.93 20.24 10.92 19.35 12.18C19.21 12.01 18.83 11.73 18.64 11.63C19.43 10.46 19.5 8.79 19.5 7.5V4.07C20.61 3.88 21.85 3.57 22.56 3.26L23.3 3.94C22.47 4.26 21.39 4.5 20.37 4.68V6.43H23.57Z" fill="white"/></svg>