<svg width="16" height="16" viewBox="0 0 16 16" fill="none" xmlns="http://www.w3.org/2000/svg"><path d="M-196 -764C-196 -768.418 -192.418 -772 -188 -772H876C880.418 -772 884 -768.418 884 -764V890C884 894.418 880.418 898 876 898H-188C-192.418 898 -196 894.418 -196 890V-764Z" fill="white"/><path d="M-188 -772V-771H876V-772V-773H-188V-772ZM884 -764H883V890H884H885V-764H884ZM876 898V897H-188V898V899H876V898ZM-196 890H-195V-764H-196H-197V890H-196ZM-188 898V897C-191.866 897 -195 893.866 -195 890H-196H-197C-197 894.971 -192.971 899 -188 899V898ZM884 890H883C883 893.866 879.866 897 876 897V898V899C880.971 899 885 894.971 885 890H884ZM876 -772V-771C879.866 -771 883 -767.866 883 -764H884H885C885 -768.971 880.971 -773 876 -773V-772ZM-188 -772V-773C-192.971 -773 -197 -768.971 -197 -764H-196H-195C-195 -767.866 -191.866 -771 -188 -771V-772Z" fill="#F1F1F1"/><path d="M13.3332 14V12.6667C13.3332 11.9594 13.0522 11.2811 12.5521 10.781C12.052 10.281 11.3737 10 10.6665 10H5.33317C4.62593 10 3.94765 10.281 3.44755 10.781C2.94746 11.2811 2.6665 11.9594 2.6665 12.6667V14M10.6665 4.66667C10.6665 6.13943 9.4726 7.33333 7.99984 7.33333C6.52708 7.33333 5.33317 6.13943 5.33317 4.66667C5.33317 3.19391 6.52708 2 7.99984 2C9.4726 2 10.6665 3.19391 10.6665 4.66667Z" stroke="#202020" stroke-width="1.3" stroke-linecap="round" stroke-linejoin="round"/></svg>