<svg width="20" height="20" viewBox="0 0 20 20" fill="none" xmlns="http://www.w3.org/2000/svg"><path d="M-500 -792C-500 -796.418 -496.418 -800 -492 -800H612C616.418 -800 620 -796.418 620 -792V898C620 902.418 616.418 906 612 906H-492C-496.418 906 -500 902.418 -500 898V-792Z" fill="white"/><path d="M-492 -800V-799H612V-800V-801H-492V-800ZM620 -792H619V898H620H621V-792H620ZM612 906V905H-492V906V907H612V906ZM-500 898H-499V-792H-500H-501V898H-500ZM-492 906V905C-495.866 905 -499 901.866 -499 898H-500H-501C-501 902.971 -496.971 907 -492 907V906ZM620 898H619C619 901.866 615.866 905 612 905V906V907C616.971 907 621 902.971 621 898H620ZM612 -800V-799C615.866 -799 619 -795.866 619 -792H620H621C621 -796.971 616.971 -801 612 -801V-800ZM-492 -800V-801C-496.971 -801 -501 -796.971 -501 -792H-500H-499C-499 -795.866 -495.866 -799 -492 -799V-800Z" fill="#F1F1F1"/><path d="M16.6668 17.5V15.8333C16.6668 14.9493 16.3156 14.1014 15.6905 13.4763C15.0654 12.8512 14.2176 12.5 13.3335 12.5H6.66683C5.78277 12.5 4.93493 12.8512 4.30981 13.4763C3.68469 14.1014 3.3335 14.9493 3.3335 15.8333V17.5M13.3335 5.83333C13.3335 7.67428 11.8411 9.16667 10.0002 9.16667C8.15921 9.16667 6.66683 7.67428 6.66683 5.83333C6.66683 3.99238 8.15921 2.5 10.0002 2.5C11.8411 2.5 13.3335 3.99238 13.3335 5.83333Z" stroke="#202020" stroke-width="1.5" stroke-linecap="round" stroke-linejoin="round"/></svg>