<svg width="16" height="16" viewBox="0 0 16 16" fill="none" xmlns="http://www.w3.org/2000/svg"><path d="M-292 -764C-292 -768.418 -288.418 -772 -284 -772H780C784.418 -772 788 -768.418 788 -764V890C788 894.418 784.418 898 780 898H-284C-288.418 898 -292 894.418 -292 890V-764Z" fill="white"/><path d="M-284 -772V-771H780V-772V-773H-284V-772ZM788 -764H787V890H788H789V-764H788ZM780 898V897H-284V898V899H780V898ZM-292 890H-291V-764H-292H-293V890H-292ZM-284 898V897C-287.866 897 -291 893.866 -291 890H-292H-293C-293 894.971 -288.971 899 -284 899V898ZM788 890H787C787 893.866 783.866 897 780 897V898V899C784.971 899 789 894.971 789 890H788ZM780 -772V-771C783.866 -771 787 -767.866 787 -764H788H789C789 -768.971 784.971 -773 780 -773V-772ZM-284 -772V-773C-288.971 -773 -293 -768.971 -293 -764H-292H-291C-291 -767.866 -287.866 -771 -284 -771V-772Z" fill="#F1F1F1"/><path d="M11.3332 14V12.6667C11.3332 11.9594 11.0522 11.2811 10.5521 10.781C10.052 10.281 9.37375 10 8.6665 10H3.33317C2.62593 10 1.94765 10.281 1.44755 10.781C0.947456 11.2811 0.666504 11.9594 0.666504 12.6667V14M15.3332 14V12.6667C15.3327 12.0758 15.1361 11.5018 14.7741 11.0349C14.4121 10.5679 13.9053 10.2344 13.3332 10.0867M10.6665 2.08667C11.2401 2.23353 11.7485 2.56713 12.1116 3.03487C12.4747 3.50261 12.6717 4.07789 12.6717 4.67C12.6717 5.26211 12.4747 5.83739 12.1116 6.30513C11.7485 6.77287 11.2401 7.10647 10.6665 7.25333M8.6665 4.66667C8.6665 6.13943 7.4726 7.33333 5.99984 7.33333C4.52708 7.33333 3.33317 6.13943 3.33317 4.66667C3.33317 3.19391 4.52708 2 5.99984 2C7.4726 2 8.6665 3.19391 8.6665 4.66667Z" stroke="#202020" stroke-width="1.3" stroke-linecap="round" stroke-linejoin="round"/></svg>