<svg width="20" height="20" viewBox="0 0 20 20" fill="none" xmlns="http://www.w3.org/2000/svg"><path d="M-600 -792C-600 -796.418 -596.418 -800 -592 -800H512C516.418 -800 520 -796.418 520 -792V898C520 902.418 516.418 906 512 906H-592C-596.418 906 -600 902.418 -600 898V-792Z" fill="white"/><path d="M-592 -800V-799H512V-800V-801H-592V-800ZM520 -792H519V898H520H521V-792H520ZM512 906V905H-592V906V907H512V906ZM-600 898H-599V-792H-600H-601V898H-600ZM-592 906V905C-595.866 905 -599 901.866 -599 898H-600H-601C-601 902.971 -596.971 907 -592 907V906ZM520 898H519C519 901.866 515.866 905 512 905V906V907C516.971 907 521 902.971 521 898H520ZM512 -800V-799C515.866 -799 519 -795.866 519 -792H520H521C521 -796.971 516.971 -801 512 -801V-800ZM-592 -800V-801C-596.971 -801 -601 -796.971 -601 -792H-600H-599C-599 -795.866 -595.866 -799 -592 -799V-800Z" fill="#F1F1F1"/><path d="M14.1668 17.5V15.8333C14.1668 14.9493 13.8156 14.1014 13.1905 13.4763C12.5654 12.8512 11.7176 12.5 10.8335 12.5H4.16683C3.28277 12.5 2.43493 12.8512 1.80981 13.4763C1.18469 14.1014 0.833496 14.9493 0.833496 15.8333V17.5M19.1668 17.5V15.8333C19.1663 15.0948 18.9205 14.3773 18.468 13.7936C18.0155 13.2099 17.3819 12.793 16.6668 12.6083M13.3335 2.60833C14.0505 2.79192 14.686 3.20892 15.1399 3.79359C15.5937 4.37827 15.84 5.09736 15.84 5.8375C15.84 6.57764 15.5937 7.29673 15.1399 7.88141C14.686 8.46608 14.0505 8.88308 13.3335 9.06667M10.8335 5.83333C10.8335 7.67428 9.34111 9.16667 7.50016 9.16667C5.65921 9.16667 4.16683 7.67428 4.16683 5.83333C4.16683 3.99238 5.65921 2.5 7.50016 2.5C9.34111 2.5 10.8335 3.99238 10.8335 5.83333Z" stroke="#202020" stroke-width="1.5" stroke-linecap="round" stroke-linejoin="round"/></svg>