<svg width="24" height="24" viewBox="0 0 24 24" fill="none" xmlns="http://www.w3.org/2000/svg"><path d="M-620 -820C-620 -824.418 -616.418 -828 -612 -828H532C536.418 -828 540 -824.418 540 -820V870C540 874.418 536.418 878 532 878H-612C-616.418 878 -620 874.418 -620 870V-820Z" fill="white"/><path d="M-612 -828V-827H532V-828V-829H-612V-828ZM540 -820H539V870H540H541V-820H540ZM532 878V877H-612V878V879H532V878ZM-620 870H-619V-820H-620H-621V870H-620ZM-612 878V877C-615.866 877 -619 873.866 -619 870H-620H-621C-621 874.971 -616.971 879 -612 879V878ZM540 870H539C539 873.866 535.866 877 532 877V878V879C536.971 879 541 874.971 541 870H540ZM532 -828V-827C535.866 -827 539 -823.866 539 -820H540H541C541 -824.971 536.971 -829 532 -829V-828ZM-612 -828V-829C-616.971 -829 -621 -824.971 -621 -820H-620H-619C-619 -823.866 -615.866 -827 -612 -827V-828Z" fill="#F1F1F1"/><path d="M17 21V19C17 17.9391 16.5786 16.9217 15.8284 16.1716C15.0783 15.4214 14.0609 15 13 15H5C3.93913 15 2.92172 15.4214 2.17157 16.1716C1.42143 16.9217 1 17.9391 1 19V21M23 21V19C22.9993 18.1137 22.7044 17.2528 22.1614 16.5523C21.6184 15.8519 20.8581 15.3516 20 15.13M16 3.13C16.8604 3.3503 17.623 3.8507 18.1676 4.55231C18.7122 5.25392 19.0078 6.11683 19.0078 7.005C19.0078 7.89317 18.7122 8.75608 18.1676 9.45769C17.623 10.1593 16.8604 10.6597 16 10.88M13 7C13 9.20914 11.2091 11 9 11C6.79086 11 5 9.20914 5 7C5 4.79086 6.79086 3 9 3C11.2091 3 13 4.79086 13 7Z" stroke="#202020" stroke-width="1.8" stroke-linecap="round" stroke-linejoin="round"/></svg>