<svg width="32" height="32" viewBox="0 0 32 32" fill="none" xmlns="http://www.w3.org/2000/svg"><path d="M-212 -876C-212 -880.418 -208.418 -884 -204 -884H1020C1024.42 -884 1028 -880.418 1028 -876V814C1028 818.418 1024.42 822 1020 822H-204C-208.418 822 -212 818.418 -212 814V-876Z" fill="white"/><path d="M-204 -884V-883H1020V-884V-885H-204V-884ZM1028 -876H1027V814H1028H1029V-876H1028ZM1020 822V821H-204V822V823H1020V822ZM-212 814H-211V-876H-212H-213V814H-212ZM-204 822V821C-207.866 821 -211 817.866 -211 814H-212H-213C-213 818.971 -208.971 823 -204 823V822ZM1028 814H1027C1027 817.866 1023.87 821 1020 821V822V823C1024.97 823 1029 818.971 1029 814H1028ZM1020 -884V-883C1023.87 -883 1027 -879.866 1027 -876H1028H1029C1029 -880.971 1024.97 -885 1020 -885V-884ZM-204 -884V-885C-208.971 -885 -213 -880.971 -213 -876H-212H-211C-211 -879.866 -207.866 -883 -204 -883V-884Z" fill="#F1F1F1"/><path d="M26.6666 28V25.3333C26.6666 23.9188 26.1047 22.5623 25.1045 21.5621C24.1043 20.5619 22.7477 20 21.3333 20H10.6666C9.2521 20 7.89554 20.5619 6.89535 21.5621C5.89515 22.5623 5.33325 23.9188 5.33325 25.3333V28M21.3333 9.33333C21.3333 12.2789 18.9454 14.6667 15.9999 14.6667C13.0544 14.6667 10.6666 12.2789 10.6666 9.33333C10.6666 6.38781 13.0544 4 15.9999 4C18.9454 4 21.3333 6.38781 21.3333 9.33333Z" stroke="#202020" stroke-width="2.2" stroke-linecap="round" stroke-linejoin="round"/></svg>