<svg width="37" height="20" viewBox="0 0 37 20" fill="none" xmlns="http://www.w3.org/2000/svg"><path d="M-133 -60C-133 -61.1046 -132.105 -62 -131 -62H465C466.105 -62 467 -61.1046 467 -60V591C467 592.105 466.105 593 465 593H-131C-132.105 593 -133 592.105 -133 591V-60Z" fill="white"/><path d="M-131 -62V-61H465V-62V-63H-131V-62ZM467 -60H466V591H467H468V-60H467ZM465 593V592H-131V593V594H465V593ZM-133 591H-132V-60H-133H-134V591H-133ZM-131 593V592C-131.552 592 -132 591.552 -132 591H-133H-134C-134 592.657 -132.657 594 -131 594V593ZM467 591H466C466 591.552 465.552 592 465 592V593V594C466.657 594 468 592.657 468 591H467ZM465 -62V-61C465.552 -61 466 -60.5523 466 -60H467H468C468 -61.6569 466.657 -63 465 -63V-62ZM-131 -62V-63C-132.657 -63 -134 -61.6569 -134 -60H-133H-132C-132 -60.5523 -131.552 -61 -131 -61V-62Z" fill="black" fill-opacity="0.1"/><mask id="path-3-outside-1_7809_18809" maskUnits="userSpaceOnUse" x="1" y="2" width="35" height="16" fill="black"><rect fill="white" x="1" y="2" width="35" height="16"/><path d="M5.68848 3L8.94922 11.5928L14.3838 3H18.1045L9.9043 15.6729C9.9043 15.6729 9.11413 16.9999 8.25781 17C7.40147 17 6.94043 15.7725 6.94043 15.7725L2 3H5.68848ZM20.377 16.834H17.0508L18.9941 3H22.3535L20.377 16.834ZM30.5869 3C32.1348 3.00017 34.9998 4.02886 35 7.47852C35 11.5603 31.0474 13.3174 30.1582 13.3174H26.2061L25.7119 16.834H22.3203L23.3408 9.83398H29.6641C30.3886 9.83398 31.5742 9.23714 31.5742 7.87695C31.5742 6.81541 30.5206 6.5166 30.29 6.5166H23.8018L24.3291 3H30.5869Z"/></mask><g filter="url(#filter0_i_7809_18809)"><path d="M5.68848 3L8.94922 11.5928L14.3838 3H18.1045L9.9043 15.6729C9.9043 15.6729 9.11413 16.9999 8.25781 17C7.40147 17 6.94043 15.7725 6.94043 15.7725L2 3H5.68848ZM20.377 16.834H17.0508L18.9941 3H22.3535L20.377 16.834ZM30.5869 3C32.1348 3.00017 34.9998 4.02886 35 7.47852C35 11.5603 31.0474 13.3174 30.1582 13.3174H26.2061L25.7119 16.834H22.3203L23.3408 9.83398H29.6641C30.3886 9.83398 31.5742 9.23714 31.5742 7.87695C31.5742 6.81541 30.5206 6.5166 30.29 6.5166H23.8018L24.3291 3H30.5869Z" fill="url(#paint0_linear_7809_18809)"/></g><path d="M5.68848 3L6.24944 2.78713L6.10254 2.4H5.68848V3ZM8.94922 11.5928L8.38825 11.8056L8.81435 12.9285L9.45631 11.9135L8.94922 11.5928ZM14.3838 3V2.4H14.0533L13.8767 2.67929L14.3838 3ZM18.1045 3L18.6082 3.32595L19.2074 2.4H18.1045V3ZM9.9043 15.6729L9.40056 15.3469L9.39448 15.3563L9.38876 15.3659L9.9043 15.6729ZM8.25781 17V17.6H8.25786L8.25781 17ZM6.94043 15.7725L7.50215 15.5615L7.50003 15.556L6.94043 15.7725ZM2 3V2.4H1.1246L1.4404 3.21645L2 3ZM20.377 16.834V17.434H20.8973L20.9709 16.9188L20.377 16.834ZM17.0508 16.834L16.4566 16.7505L16.3606 17.434H17.0508V16.834ZM18.9941 3V2.4H18.4725L18.4 2.91653L18.9941 3ZM22.3535 3L22.9475 3.08486L23.0453 2.4H22.3535V3ZM30.5869 3L30.587 2.4H30.5869V3ZM35 7.47852H35.6V7.47848L35 7.47852ZM26.2061 13.3174V12.7174H25.6845L25.6119 13.2339L26.2061 13.3174ZM25.7119 16.834V17.434H26.2335L26.3061 16.9175L25.7119 16.834ZM22.3203 16.834L21.7266 16.7474L21.6265 17.434H22.3203V16.834ZM23.3408 9.83398V9.23398H22.8219L22.7471 9.74743L23.3408 9.83398ZM31.5742 7.87695H32.1742V7.87692L31.5742 7.87695ZM23.8018 6.5166L23.2084 6.42762L23.1051 7.1166H23.8018V6.5166ZM24.3291 3V2.4H23.8124L23.7357 2.91102L24.3291 3ZM5.68848 3L5.12751 3.21287L8.38825 11.8056L8.94922 11.5928L9.51019 11.3799L6.24944 2.78713L5.68848 3ZM8.94922 11.5928L9.45631 11.9135L14.8909 3.32071L14.3838 3L13.8767 2.67929L8.44213 11.2721L8.94922 11.5928ZM14.3838 3V3.6H18.1045V3V2.4H14.3838V3ZM18.1045 3L17.6008 2.67405L9.40056 15.3469L9.9043 15.6729L10.408 15.9988L18.6082 3.32595L18.1045 3ZM9.9043 15.6729C9.38876 15.3659 9.38883 15.3658 9.3889 15.3657C9.38891 15.3656 9.38898 15.3655 9.38901 15.3655C9.38908 15.3654 9.38914 15.3653 9.38919 15.3652C9.38929 15.365 9.38934 15.3649 9.38935 15.3649C9.38936 15.3649 9.38918 15.3652 9.38883 15.3658C9.38812 15.3669 9.3867 15.3693 9.38457 15.3727C9.38031 15.3796 9.37328 15.3909 9.36365 15.4059C9.34435 15.436 9.31486 15.4807 9.2766 15.5352C9.19928 15.6451 9.09001 15.7892 8.96018 15.9306C8.82836 16.0742 8.68874 16.2003 8.553 16.2872C8.41488 16.3755 8.31746 16.4 8.25777 16.4L8.25781 17L8.25786 17.6C8.62633 17.6 8.94879 17.4585 9.19966 17.298C9.45293 17.136 9.6714 16.9304 9.84417 16.7422C10.0189 16.5518 10.1607 16.3641 10.2583 16.2253C10.3075 16.1553 10.3464 16.0963 10.3737 16.0538C10.3873 16.0326 10.3981 16.0153 10.4059 16.0028C10.4097 15.9965 10.4128 15.9914 10.4152 15.9876C10.4163 15.9856 10.4173 15.984 10.4181 15.9827C10.4185 15.9821 10.4188 15.9815 10.4191 15.981C10.4193 15.9808 10.4194 15.9806 10.4195 15.9804C10.4196 15.9803 10.4197 15.9801 10.4197 15.9801C10.4198 15.9799 10.4198 15.9798 9.9043 15.6729ZM8.25781 17V16.4C8.13074 16.4 7.95762 16.3017 7.7639 16.0342C7.67826 15.916 7.61073 15.7939 7.56425 15.6995C7.5414 15.653 7.52458 15.6151 7.51403 15.5903C7.50877 15.578 7.50513 15.569 7.50313 15.564C7.50212 15.5615 7.50154 15.56 7.50137 15.5595C7.50128 15.5593 7.5013 15.5593 7.50143 15.5597C7.50149 15.5598 7.50158 15.5601 7.50169 15.5604C7.50175 15.5605 7.50182 15.5607 7.50189 15.5609C7.50192 15.561 7.50198 15.5611 7.502 15.5612C7.50206 15.5613 7.50212 15.5615 6.94043 15.7725C6.37874 15.9834 6.37881 15.9836 6.37887 15.9838C6.3789 15.9838 6.37897 15.984 6.37901 15.9842C6.37911 15.9844 6.37922 15.9847 6.37933 15.985C6.37956 15.9856 6.37982 15.9863 6.38011 15.987C6.38068 15.9885 6.38137 15.9903 6.38219 15.9925C6.38382 15.9967 6.38592 16.002 6.38851 16.0085C6.39367 16.0215 6.40077 16.0389 6.4098 16.0601C6.4278 16.1024 6.4537 16.1605 6.48745 16.2291C6.55418 16.3647 6.65543 16.5496 6.79209 16.7382C7.04298 17.0846 7.52855 17.6 8.25781 17.6V17ZM6.94043 15.7725L7.50003 15.556L2.5596 2.78355L2 3L1.4404 3.21645L6.38083 15.9889L6.94043 15.7725ZM2 3V3.6H5.68848V3V2.4H2V3ZM20.377 16.834V16.234H17.0508V16.834V17.434H20.377V16.834ZM17.0508 16.834L17.6449 16.9175L19.5883 3.08347L18.9941 3L18.4 2.91653L16.4566 16.7505L17.0508 16.834ZM18.9941 3V3.6H22.3535V3V2.4H18.9941V3ZM22.3535 3L21.7595 2.91514L19.783 16.7491L20.377 16.834L20.9709 16.9188L22.9475 3.08486L22.3535 3ZM30.5869 3L30.5868 3.6C31.2511 3.60007 32.2218 3.82641 33.0118 4.42416C33.7752 5.00181 34.3999 5.94602 34.4 7.47855L35 7.47852L35.6 7.47848C35.5999 5.56136 34.792 4.2664 33.7359 3.46724C32.7063 2.68819 31.4706 2.4001 30.587 2.4L30.5869 3ZM35 7.47852H34.4C34.4 9.30295 33.5233 10.6083 32.5204 11.4745C32.017 11.9093 31.4879 12.227 31.0386 12.4342C30.5652 12.6525 30.2477 12.7174 30.1582 12.7174V13.3174V13.9174C30.5133 13.9174 31.0234 13.7626 31.5411 13.5239C32.083 13.2741 32.7088 12.8974 33.3048 12.3827C34.5004 11.3499 35.6 9.73585 35.6 7.47852H35ZM30.1582 13.3174V12.7174H26.2061V13.3174V13.9174H30.1582V13.3174ZM26.2061 13.3174L25.6119 13.2339L25.1178 16.7505L25.7119 16.834L26.3061 16.9175L26.8002 13.4009L26.2061 13.3174ZM25.7119 16.834V16.234H22.3203V16.834V17.434H25.7119V16.834ZM22.3203 16.834L22.914 16.9205L23.9345 9.92054L23.3408 9.83398L22.7471 9.74743L21.7266 16.7474L22.3203 16.834ZM23.3408 9.83398V10.434H29.6641V9.83398V9.23398H23.3408V9.83398ZM29.6641 9.83398V10.434C30.168 10.434 30.78 10.2348 31.2727 9.82837C31.7843 9.40632 32.1742 8.75299 32.1742 7.87695H31.5742H30.9742C30.9742 8.36111 30.7714 8.68629 30.509 8.90271C30.2277 9.13479 29.8846 9.23398 29.6641 9.23398V9.83398ZM31.5742 7.87695L32.1742 7.87692C32.1742 7.11146 31.7806 6.60378 31.3658 6.3094C31.1646 6.16658 30.9573 6.07171 30.7811 6.01181C30.6173 5.95612 30.4386 5.9166 30.29 5.9166V6.5166V7.1166C30.2567 7.1166 30.2962 7.11444 30.3948 7.14795C30.481 7.17724 30.5803 7.22343 30.6713 7.28799C30.841 7.40841 30.9742 7.5809 30.9742 7.87698L31.5742 7.87695ZM30.29 6.5166V5.9166H23.8018V6.5166V7.1166H30.29V6.5166ZM23.8018 6.5166L24.3951 6.60558L24.9225 3.08898L24.3291 3L23.7357 2.91102L23.2084 6.42762L23.8018 6.5166ZM24.3291 3V3.6H30.5869V3V2.4H24.3291V3Z" fill="#FFF9C9" mask="url(#path-3-outside-1_7809_18809)"/><defs><filter id="filter0_i_7809_18809" x="1.12451" y="2.40002" width="34.4756" height="15.2" filterUnits="userSpaceOnUse" color-interpolation-filters="sRGB"><feFlood flood-opacity="0" result="BackgroundImageFix"/><feBlend mode="normal" in="SourceGraphic" in2="BackgroundImageFix" result="shape"/><feColorMatrix in="SourceAlpha" type="matrix" values="0 0 0 0 0 0 0 0 0 0 0 0 0 0 0 0 0 0 127 0" result="hardAlpha"/><feOffset/><feGaussianBlur stdDeviation="1.35"/><feComposite in2="hardAlpha" operator="arithmetic" k2="-1" k3="1"/><feColorMatrix type="matrix" values="0 0 0 0 0.990291 0 0 0 0 0 0 0 0 0 0.808737 0 0 0 1 0"/><feBlend mode="normal" in2="shape" result="effect1_innerShadow_7809_18809"/></filter><linearGradient id="paint0_linear_7809_18809" x1="12" y1="-1.5" x2="18.9997" y2="16.0001" gradientUnits="userSpaceOnUse"><stop stop-color="#FFD5B3"/><stop offset="1" stop-color="#ED77D1"/></linearGradient></defs></svg>