<svg width="14" height="14" viewBox="0 0 14 14" fill="none" xmlns="http://www.w3.org/2000/svg"><path d="M-73 -38.9777C-73 -40.0822 -72.1046 -40.9777 -71 -40.9777H525C526.105 -40.9777 527 -40.0822 527 -38.9777V612.022C527 613.127 526.105 614.022 525 614.022H-71C-72.1046 614.022 -73 613.127 -73 612.022V-38.9777Z" fill="white"/><path d="M-71 -40.9777V-39.9777H525V-40.9777V-41.9777H-71V-40.9777ZM527 -38.9777H526V612.022H527H528V-38.9777H527ZM525 614.022V613.022H-71V614.022V615.022H525V614.022ZM-73 612.022H-72V-38.9777H-73H-74V612.022H-73ZM-71 614.022V613.022C-71.5523 613.022 -72 612.575 -72 612.022H-73H-74C-74 613.679 -72.6569 615.022 -71 615.022V614.022ZM527 612.022H526C526 612.575 525.552 613.022 525 613.022V614.022V615.022C526.657 615.022 528 613.679 528 612.022H527ZM525 -40.9777V-39.9777C525.552 -39.9777 526 -39.5299 526 -38.9777H527H528C528 -40.6345 526.657 -41.9777 525 -41.9777V-40.9777ZM-71 -40.9777V-41.9777C-72.6569 -41.9777 -74 -40.6345 -74 -38.9777H-73H-72C-72 -39.5299 -71.5523 -39.9777 -71 -39.9777V-40.9777Z" fill="black" fill-opacity="0.1"/><path fill-rule="evenodd" clip-rule="evenodd" d="M9.44678 1.73482C10.0682 1.0633 11.1422 1.02543 11.8091 1.65182L12.1987 2.01803C12.8197 2.60155 12.861 3.55158 12.2974 4.18502C13.0004 5.15939 13.4146 6.35653 13.4146 7.64986C13.4143 10.9229 10.7609 13.5765 7.48779 13.5766H6.5083C3.23512 13.5766 0.581797 10.923 0.581543 7.64986C0.581543 6.35744 0.994618 5.16097 1.69678 4.18697C1.13128 3.55354 1.17181 2.60215 1.79346 2.01803L2.18311 1.65182C2.84997 1.02534 3.92393 1.06327 4.54541 1.73482C4.6198 1.81526 4.68432 1.90097 4.73877 1.99068C5.2975 1.81616 5.89206 1.72213 6.5083 1.72213H7.48779C8.10292 1.72214 8.69654 1.81577 9.25439 1.98971C9.30869 1.90041 9.37272 1.81491 9.44678 1.73482ZM2.91553 5.11959L3.24365 5.82564H3.88037L6.41162 10.5454H7.00049L11.0815 5.11959H8.72412L6.77002 7.73189L5.43018 5.11959H2.91553Z" fill="url(#paint0_radial_7809_18809)"/><g filter="url(#filter0_i_7809_18809)"><path d="M2.91504 5.11926H5.43026L6.76996 7.73207L8.72404 5.11926H11.0817L7.00031 10.5458H6.41186L3.88043 5.82592H3.24352L2.91504 5.11926Z" fill="url(#paint1_linear_7809_18809)"/></g><path d="M5.51953 4.97375L5.55957 5.05286L6.79297 7.45715L8.60742 5.03235L8.65137 4.97375H11.374L11.1982 5.20715L7.11719 10.6329L7.07324 10.6915H6.32422L6.2832 10.6144L3.79297 5.9718H3.15039L3.11133 5.88782L2.7832 5.18079L2.68652 4.97375H5.51953Z" stroke="url(#paint2_linear_7809_18809)" stroke-width="0.291667"/><mask id="mask0_7809_18809" style="mask-type:luminance" maskUnits="userSpaceOnUse" x="0" y="1" width="14" height="13"><path fill-rule="evenodd" clip-rule="evenodd" d="M11.8091 1.65419C11.1421 1.02425 10.0681 1.06175 9.44659 1.73669C9.37074 1.81905 9.30528 1.90703 9.25014 1.99907C8.6844 1.82075 8.08222 1.7246 7.45757 1.7246H6.5369C5.91119 1.7246 5.30802 1.82108 4.74145 1.99997C4.6862 1.90761 4.62056 1.81932 4.54446 1.73669C3.92293 1.06175 2.84899 1.02425 2.1819 1.65419L1.79289 2.02154C1.16985 2.60988 1.13069 3.56825 1.69956 4.20482C0.995356 5.18306 0.580566 6.38356 0.580566 7.68093C0.580566 10.9705 3.2473 13.6373 6.5369 13.6373H7.45756C10.7472 13.6373 13.4139 10.9705 13.4139 7.68093C13.4139 6.38262 12.9985 5.18133 12.2934 4.20271C12.8603 3.56612 12.8205 2.60923 12.1982 2.02154L11.8091 1.65419ZM5.42977 5.13874H2.91455L3.24303 5.84891H3.87994L6.41137 10.5922H6.99983L11.0812 5.13874H8.72356L6.76948 7.76452L5.42977 5.13874Z" fill="white"/></mask><g mask="url(#mask0_7809_18809)"></g><path d="M11.7548 1.59454L11.8739 1.46629V1.46629L11.7548 1.59454ZM9.49788 1.67335L9.37016 1.55372V1.55372L9.49788 1.67335ZM12.1466 1.95829L12.0275 2.08653V2.08653L12.1466 1.95829ZM12.3028 4.13666L12.1668 4.02657C12.117 4.08808 12.1147 4.17535 12.1612 4.23941L12.3028 4.13666ZM1.69293 4.13889L1.83464 4.24157C1.88113 4.17742 1.87872 4.09005 1.82877 4.02856L1.69293 4.13889ZM1.84738 1.95829L1.96644 2.08653V2.08653L1.84738 1.95829ZM2.23917 1.59454L2.1201 1.46629V1.46629L2.23917 1.59454ZM4.4961 1.67335L4.36837 1.79298V1.79298L4.4961 1.67335ZM4.71732 1.97219L4.56552 2.05926C4.60619 2.13017 4.69053 2.16348 4.76868 2.13949L4.71732 1.97219ZM9.27717 1.9713L9.2259 2.13862C9.30399 2.16255 9.38824 2.12928 9.42892 2.05846L9.27717 1.9713ZM11.7548 1.59454L11.8739 1.46629C11.1575 0.80123 10.0384 0.840311 9.37016 1.55372L9.49788 1.67335L9.62561 1.79298C10.1621 1.22022 11.0606 1.18884 11.6357 1.72279L11.7548 1.59454ZM12.1466 1.95829L12.2657 1.83004L11.8739 1.46629L11.7548 1.59454L11.6357 1.72279L12.0275 2.08653L12.1466 1.95829ZM12.3028 4.13666L12.4389 4.24676C13.021 3.5275 12.9545 2.46953 12.2657 1.83004L12.1466 1.95829L12.0275 2.08653C12.5804 2.59986 12.634 3.44935 12.1668 4.02657L12.3028 4.13666ZM13.4154 7.57137H13.5904C13.5904 6.25013 13.1653 5.02766 12.4445 4.03391L12.3028 4.13666L12.1612 4.23941C12.8401 5.17541 13.2404 6.32639 13.2404 7.57137H13.4154ZM7.55928 13.4275V13.6025C10.8902 13.6025 13.5904 10.9022 13.5904 7.57137H13.4154H13.2404C13.2404 10.7089 10.6969 13.2525 7.55928 13.2525V13.4275ZM6.43811 13.4275V13.6025H7.55928V13.4275V13.2525H6.43811V13.4275ZM0.582031 7.57137H0.407031C0.407031 10.9022 3.10724 13.6025 6.43811 13.6025V13.4275V13.2525C3.30054 13.2525 0.757031 10.7089 0.757031 7.57137H0.582031ZM1.69293 4.13889L1.55123 4.03621C0.831439 5.02954 0.407031 6.25115 0.407031 7.57137H0.582031H0.757031C0.757031 6.32734 1.15669 5.17718 1.83464 4.24157L1.69293 4.13889ZM1.84738 1.95829L1.72831 1.83004C1.03872 2.47026 0.972832 3.52992 1.5571 4.24922L1.69293 4.13889L1.82877 4.02856C1.35989 3.4513 1.41291 2.60045 1.96644 2.08653L1.84738 1.95829ZM2.23917 1.59454L2.1201 1.46629L1.72831 1.83004L1.84738 1.95829L1.96644 2.08653L2.35824 1.72279L2.23917 1.59454ZM4.4961 1.67335L4.62382 1.55372C3.95562 0.840312 2.83644 0.80123 2.1201 1.46629L2.23917 1.59454L2.35824 1.72279C2.93336 1.18884 3.8319 1.22022 4.36837 1.79298L4.4961 1.67335ZM4.71732 1.97219L4.86913 1.88513C4.80183 1.76779 4.72005 1.65647 4.62382 1.55372L4.4961 1.67335L4.36837 1.79298C4.44595 1.87581 4.5116 1.96525 4.56552 2.05926L4.71732 1.97219ZM6.43812 1.71529V1.54029C5.82167 1.54029 5.22652 1.63283 4.66597 1.8049L4.71732 1.97219L4.76868 2.13949C5.29632 1.97752 5.85687 1.89029 6.43812 1.89029V1.71529ZM7.55928 1.71529V1.54029H6.43812V1.71529V1.89029H7.55928V1.71529ZM9.27717 1.9713L9.32843 1.80398C8.76876 1.6325 8.17463 1.54029 7.55928 1.54029V1.71529V1.89029C8.13949 1.89029 8.69908 1.97721 9.2259 2.13862L9.27717 1.9713ZM9.49788 1.67335L9.37016 1.55372C9.2742 1.65618 9.19261 1.76716 9.12542 1.88414L9.27717 1.9713L9.42892 2.05846C9.48274 1.96475 9.54825 1.87558 9.62561 1.79298L9.49788 1.67335Z" fill="url(#paint3_linear_7809_18809)"/><mask id="mask1_7809_18809" style="mask-type:luminance" maskUnits="userSpaceOnUse" x="0" y="1" width="14" height="13"><path fill-rule="evenodd" clip-rule="evenodd" d="M9.49788 1.67335C10.1002 1.03026 11.1091 0.995034 11.7548 1.59454L12.1466 1.95829C12.7675 2.53469 12.8275 3.48843 12.3028 4.13666C13.0027 5.10153 13.4154 6.28826 13.4154 7.57137C13.4154 10.8056 10.7935 13.4275 7.55928 13.4275H6.43811C3.20389 13.4275 0.582031 10.8056 0.582031 7.57137C0.582031 6.28925 0.994062 5.10336 1.69293 4.13889C1.16636 3.49061 1.22581 2.53535 1.84738 1.95829L2.23917 1.59454C2.8849 0.995034 3.89376 1.03026 4.4961 1.67335C4.583 1.76614 4.65672 1.86652 4.71732 1.97219C5.26142 1.80517 5.83927 1.71529 6.43812 1.71529H7.55928C8.15706 1.71529 8.73392 1.80485 9.27717 1.9713C9.33768 1.86596 9.41122 1.76588 9.49788 1.67335Z" fill="white"/></mask><g mask="url(#mask1_7809_18809)"></g><defs><filter id="filter0_i_7809_18809" x="2.45801" y="4.82758" width="9.20801" height="6.00983" filterUnits="userSpaceOnUse" color-interpolation-filters="sRGB"><feFlood flood-opacity="0" result="BackgroundImageFix"/><feBlend mode="normal" in="SourceGraphic" in2="BackgroundImageFix" result="shape"/><feColorMatrix in="SourceAlpha" type="matrix" values="0 0 0 0 0 0 0 0 0 0 0 0 0 0 0 0 0 0 127 0" result="hardAlpha"/><feOffset dy="0.291667"/><feComposite in2="hardAlpha" operator="arithmetic" k2="-1" k3="1"/><feColorMatrix type="matrix" values="0 0 0 0 0.899038 0 0 0 0 0.736863 0 0 0 0 0.31622 0 0 0 1 0"/><feBlend mode="normal" in2="shape" result="effect1_innerShadow_7809_18809"/></filter><radialGradient id="paint0_radial_7809_18809" cx="0" cy="0" r="1" gradientTransform="matrix(4.91446 8.74874 -9.07538 4.73758 4.02 4.19284)" gradientUnits="userSpaceOnUse"><stop stop-color="#6B5D70"/><stop offset="0.663486" stop-color="#40324A"/><stop offset="1" stop-color="#40283B"/></radialGradient><linearGradient id="paint1_linear_7809_18809" x1="4.18371" y1="5.11926" x2="8.82912" y2="10.3586" gradientUnits="userSpaceOnUse"><stop stop-color="#FFD8B4"/><stop offset="1" stop-color="#FF8ECE"/></linearGradient><linearGradient id="paint2_linear_7809_18809" x1="-0.27609" y1="6.78148" x2="2.40004" y2="12.7544" gradientUnits="userSpaceOnUse"><stop stop-color="#F461CA"/><stop offset="0.534076" stop-color="#F589C3"/><stop offset="1" stop-color="#E2478D"/></linearGradient><linearGradient id="paint3_linear_7809_18809" x1="4.29235" y1="3.03172" x2="11.5151" y2="12.8458" gradientUnits="userSpaceOnUse"><stop stop-color="#45263F"/><stop offset="1" stop-color="#947098"/></linearGradient></defs></svg>