<svg width="16" height="16" viewBox="0 0 16 16" fill="none" xmlns="http://www.w3.org/2000/svg"><path d="M-388 -764C-388 -768.418 -384.418 -772 -380 -772H684C688.418 -772 692 -768.418 692 -764V890C692 894.418 688.418 898 684 898H-380C-384.418 898 -388 894.418 -388 890V-764Z" fill="white"/><path d="M-380 -772V-771H684V-772V-773H-380V-772ZM692 -764H691V890H692H693V-764H692ZM684 898V897H-380V898V899H684V898ZM-388 890H-387V-764H-388H-389V890H-388ZM-380 898V897C-383.866 897 -387 893.866 -387 890H-388H-389C-389 894.971 -384.971 899 -380 899V898ZM692 890H691C691 893.866 687.866 897 684 897V898V899C688.971 899 693 894.971 693 890H692ZM684 -772V-771C687.866 -771 691 -767.866 691 -764H692H693C693 -768.971 688.971 -773 684 -773V-772ZM-380 -772V-773C-384.971 -773 -389 -768.971 -389 -764H-388H-387C-387 -767.866 -383.866 -771 -380 -771V-772Z" fill="#F1F1F1"/><path d="M10.3602 5.63998C10.9851 6.26507 11.3361 7.11277 11.3361 7.99665C11.3361 8.88053 10.9851 9.72822 10.3602 10.3533M7.3335 3.33331L4.00016 5.99998H1.3335V9.99998H4.00016L7.3335 12.6666V3.33331Z" stroke="#202020" stroke-width="1.3" stroke-linecap="round" stroke-linejoin="round"/></svg>