<svg width="16" height="16" viewBox="0 0 16 16" fill="none" xmlns="http://www.w3.org/2000/svg"><path d="M-580 -764C-580 -768.418 -576.418 -772 -572 -772H492C496.418 -772 500 -768.418 500 -764V890C500 894.418 496.418 898 492 898H-572C-576.418 898 -580 894.418 -580 890V-764Z" fill="white"/><path d="M-572 -772V-771H492V-772V-773H-572V-772ZM500 -764H499V890H500H501V-764H500ZM492 898V897H-572V898V899H492V898ZM-580 890H-579V-764H-580H-581V890H-580ZM-572 898V897C-575.866 897 -579 893.866 -579 890H-580H-581C-581 894.971 -576.971 899 -572 899V898ZM500 890H499C499 893.866 495.866 897 492 897V898V899C496.971 899 501 894.971 501 890H500ZM492 -772V-771C495.866 -771 499 -767.866 499 -764H500H501C501 -768.971 496.971 -773 492 -773V-772ZM-572 -772V-773C-576.971 -773 -581 -768.971 -581 -764H-580H-579C-579 -767.866 -575.866 -771 -572 -771V-772Z" fill="#F1F1F1"/><path d="M15.3335 5.99998L11.3335 9.99998M11.3335 5.99998L15.3335 9.99998M7.3335 3.33331L4.00016 5.99998H1.3335V9.99998H4.00016L7.3335 12.6666V3.33331Z" stroke="#202020" stroke-width="1.3" stroke-linecap="round" stroke-linejoin="round"/></svg>