<svg width="24" height="24" viewBox="0 0 24 24" fill="none" xmlns="http://www.w3.org/2000/svg"><path d="M-932 -820C-932 -824.418 -928.418 -828 -924 -828H220C224.418 -828 228 -824.418 228 -820V870C228 874.418 224.418 878 220 878H-924C-928.418 878 -932 874.418 -932 870V-820Z" fill="white"/><path d="M-924 -828V-827H220V-828V-829H-924V-828ZM228 -820H227V870H228H229V-820H228ZM220 878V877H-924V878V879H220V878ZM-932 870H-931V-820H-932H-933V870H-932ZM-924 878V877C-927.866 877 -931 873.866 -931 870H-932H-933C-933 874.971 -928.971 879 -924 879V878ZM228 870H227C227 873.866 223.866 877 220 877V878V879C224.971 879 229 874.971 229 870H228ZM220 -828V-827C223.866 -827 227 -823.866 227 -820H228H229C229 -824.971 224.971 -829 220 -829V-828ZM-924 -828V-829C-928.971 -829 -933 -824.971 -933 -820H-932H-931C-931 -823.866 -927.866 -827 -924 -827V-828Z" fill="#F1F1F1"/><path d="M23 9L17 15M17 9L23 15M11 5L6 9H2V15H6L11 19V5Z" stroke="#202020" stroke-width="1.8" stroke-linecap="round" stroke-linejoin="round"/></svg>