<svg width="24" height="24" viewBox="0 0 24 24" fill="none" xmlns="http://www.w3.org/2000/svg"><path d="M-828 -820C-828 -824.418 -824.418 -828 -820 -828H324C328.418 -828 332 -824.418 332 -820V870C332 874.418 328.418 878 324 878H-820C-824.418 878 -828 874.418 -828 870V-820Z" fill="white"/><path d="M-820 -828V-827H324V-828V-829H-820V-828ZM332 -820H331V870H332H333V-820H332ZM324 878V877H-820V878V879H324V878ZM-828 870H-827V-820H-828H-829V870H-828ZM-820 878V877C-823.866 877 -827 873.866 -827 870H-828H-829C-829 874.971 -824.971 879 -820 879V878ZM332 870H331C331 873.866 327.866 877 324 877V878V879C328.971 879 333 874.971 333 870H332ZM324 -828V-827C327.866 -827 331 -823.866 331 -820H332H333C333 -824.971 328.971 -829 324 -829V-828ZM-820 -828V-829C-824.971 -829 -829 -824.971 -829 -820H-828H-827C-827 -823.866 -823.866 -827 -820 -827V-828Z" fill="#F1F1F1"/><path d="M19.07 4.92999C20.9447 6.80527 21.9979 9.34835 21.9979 12C21.9979 14.6516 20.9447 17.1947 19.07 19.07M15.54 8.45999C16.4774 9.39763 17.0039 10.6692 17.0039 11.995C17.0039 13.3208 16.4774 14.5924 15.54 15.53M11 4.99999L6 8.99999H2V15H6L11 19V4.99999Z" stroke="#202020" stroke-width="1.8" stroke-linecap="round" stroke-linejoin="round"/></svg>