<svg width="24" height="24" viewBox="0 0 24 24" fill="none" xmlns="http://www.w3.org/2000/svg"><path d="M-724 -820C-724 -824.418 -720.418 -828 -716 -828H428C432.418 -828 436 -824.418 436 -820V870C436 874.418 432.418 878 428 878H-716C-720.418 878 -724 874.418 -724 870V-820Z" fill="white"/><path d="M-716 -828V-827H428V-828V-829H-716V-828ZM436 -820H435V870H436H437V-820H436ZM428 878V877H-716V878V879H428V878ZM-724 870H-723V-820H-724H-725V870H-724ZM-716 878V877C-719.866 877 -723 873.866 -723 870H-724H-725C-725 874.971 -720.971 879 -716 879V878ZM436 870H435C435 873.866 431.866 877 428 877V878V879C432.971 879 437 874.971 437 870H436ZM428 -828V-827C431.866 -827 435 -823.866 435 -820H436H437C437 -824.971 432.971 -829 428 -829V-828ZM-716 -828V-829C-720.971 -829 -725 -824.971 -725 -820H-724H-723C-723 -823.866 -719.866 -827 -716 -827V-828Z" fill="#F1F1F1"/><path d="M15.54 8.46C16.4774 9.39764 17.0039 10.6692 17.0039 11.995C17.0039 13.3208 16.4774 14.5924 15.54 15.53M11 5L6 9H2V15H6L11 19V5Z" stroke="#202020" stroke-width="1.8" stroke-linecap="round" stroke-linejoin="round"/></svg>