<svg width="16" height="16" viewBox="0 0 16 16" fill="none" xmlns="http://www.w3.org/2000/svg"><path d="M-484 -764C-484 -768.418 -480.418 -772 -476 -772H588C592.418 -772 596 -768.418 596 -764V890C596 894.418 592.418 898 588 898H-476C-480.418 898 -484 894.418 -484 890V-764Z" fill="white"/><path d="M-476 -772V-771H588V-772V-773H-476V-772ZM596 -764H595V890H596H597V-764H596ZM588 898V897H-476V898V899H588V898ZM-484 890H-483V-764H-484H-485V890H-484ZM-476 898V897C-479.866 897 -483 893.866 -483 890H-484H-485C-485 894.971 -480.971 899 -476 899V898ZM596 890H595C595 893.866 591.866 897 588 897V898V899C592.971 899 597 894.971 597 890H596ZM588 -772V-771C591.866 -771 595 -767.866 595 -764H596H597C597 -768.971 592.971 -773 588 -773V-772ZM-476 -772V-773C-480.971 -773 -485 -768.971 -485 -764H-484H-483C-483 -767.866 -479.866 -771 -476 -771V-772Z" fill="#F1F1F1"/><path d="M12.7135 3.28668C13.9633 4.53687 14.6654 6.23225 14.6654 8.00002C14.6654 9.76778 13.9633 11.4632 12.7135 12.7133M10.3602 5.64002C10.9851 6.26511 11.3361 7.1128 11.3361 7.99668C11.3361 8.88056 10.9851 9.72826 10.3602 10.3533M7.3335 3.33335L4.00016 6.00002H1.3335V10H4.00016L7.3335 12.6667V3.33335Z" stroke="#202020" stroke-width="1.3" stroke-linecap="round" stroke-linejoin="round"/></svg>