<svg width="20" height="20" viewBox="0 0 20 20" fill="none" xmlns="http://www.w3.org/2000/svg"><path d="M-900 -792C-900 -796.418 -896.418 -800 -892 -800H212C216.418 -800 220 -796.418 220 -792V898C220 902.418 216.418 906 212 906H-892C-896.418 906 -900 902.418 -900 898V-792Z" fill="white"/><path d="M-892 -800V-799H212V-800V-801H-892V-800ZM220 -792H219V898H220H221V-792H220ZM212 906V905H-892V906V907H212V906ZM-900 898H-899V-792H-900H-901V898H-900ZM-892 906V905C-895.866 905 -899 901.866 -899 898H-900H-901C-901 902.971 -896.971 907 -892 907V906ZM220 898H219C219 901.866 215.866 905 212 905V906V907C216.971 907 221 902.971 221 898H220ZM212 -800V-799C215.866 -799 219 -795.866 219 -792H220H221C221 -796.971 216.971 -801 212 -801V-800ZM-892 -800V-801C-896.971 -801 -901 -796.971 -901 -792H-900H-899C-899 -795.866 -895.866 -799 -892 -799V-800Z" fill="#F1F1F1"/><path d="M19.1665 7.50002L14.1665 12.5M14.1665 7.50002L19.1665 12.5M9.1665 4.16669L4.99984 7.50002H1.6665V12.5H4.99984L9.1665 15.8334V4.16669Z" stroke="#202020" stroke-width="1.5" stroke-linecap="round" stroke-linejoin="round"/></svg>