<svg width="16" height="16" viewBox="0 0 16 16" fill="none" xmlns="http://www.w3.org/2000/svg"><path d="M-676 -764C-676 -768.418 -672.418 -772 -668 -772H396C400.418 -772 404 -768.418 404 -764V890C404 894.418 400.418 898 396 898H-668C-672.418 898 -676 894.418 -676 890V-764Z" fill="white"/><path d="M-668 -772V-771H396V-772V-773H-668V-772ZM404 -764H403V890H404H405V-764H404ZM396 898V897H-668V898V899H396V898ZM-676 890H-675V-764H-676H-677V890H-676ZM-668 898V897C-671.866 897 -675 893.866 -675 890H-676H-677C-677 894.971 -672.971 899 -668 899V898ZM404 890H403C403 893.866 399.866 897 396 897V898V899C400.971 899 405 894.971 405 890H404ZM396 -772V-771C399.866 -771 403 -767.866 403 -764H404H405C405 -768.971 400.971 -773 396 -773V-772ZM-668 -772V-773C-672.971 -773 -677 -768.971 -677 -764H-676H-675C-675 -767.866 -671.866 -771 -668 -771V-772Z" fill="#F1F1F1"/><path d="M7.3335 3.33331L4.00016 5.99998H1.3335V9.99998H4.00016L7.3335 12.6666V3.33331Z" stroke="#202020" stroke-width="1.3" stroke-linecap="round" stroke-linejoin="round"/></svg>