<svg width="20" height="20" viewBox="0 0 20 20" fill="none" xmlns="http://www.w3.org/2000/svg"><path d="M-1000 -792C-1000 -796.418 -996.418 -800 -992 -800H112C116.418 -800 120 -796.418 120 -792V898C120 902.418 116.418 906 112 906H-992C-996.418 906 -1000 902.418 -1000 898V-792Z" fill="white"/><path d="M-992 -800V-799H112V-800V-801H-992V-800ZM120 -792H119V898H120H121V-792H120ZM112 906V905H-992V906V907H112V906ZM-1000 898H-999V-792H-1000H-1001V898H-1000ZM-992 906V905C-995.866 905 -999 901.866 -999 898H-1000H-1001C-1001 902.971 -996.971 907 -992 907V906ZM120 898H119C119 901.866 115.866 905 112 905V906V907C116.971 907 121 902.971 121 898H120ZM112 -800V-799C115.866 -799 119 -795.866 119 -792H120H121C121 -796.971 116.971 -801 112 -801V-800ZM-992 -800V-801C-996.971 -801 -1001 -796.971 -1001 -792H-1000H-999C-999 -795.866 -995.866 -799 -992 -799V-800Z" fill="#F1F1F1"/><path d="M9.1665 4.16669L4.99984 7.50002H1.6665V12.5H4.99984L9.1665 15.8334V4.16669Z" stroke="#202020" stroke-width="1.5" stroke-linecap="round" stroke-linejoin="round"/></svg>