<svg width="32" height="32" viewBox="0 0 32 32" fill="none" xmlns="http://www.w3.org/2000/svg"><path d="M-772 -876C-772 -880.418 -768.418 -884 -764 -884H460C464.418 -884 468 -880.418 468 -876V814C468 818.418 464.418 822 460 822H-764C-768.418 822 -772 818.418 -772 814V-876Z" fill="white"/><path d="M-764 -884V-883H460V-884V-885H-764V-884ZM468 -876H467V814H468H469V-876H468ZM460 822V821H-764V822V823H460V822ZM-772 814H-771V-876H-772H-773V814H-772ZM-764 822V821C-767.866 821 -771 817.866 -771 814H-772H-773C-773 818.971 -768.971 823 -764 823V822ZM468 814H467C467 817.866 463.866 821 460 821V822V823C464.971 823 469 818.971 469 814H468ZM460 -884V-883C463.866 -883 467 -879.866 467 -876H468H469C469 -880.971 464.971 -885 460 -885V-884ZM-764 -884V-885C-768.971 -885 -773 -880.971 -773 -876H-772H-771C-771 -879.866 -767.866 -883 -764 -883V-884Z" fill="#F1F1F1"/><path d="M14.6667 6.66669L8.00008 12H2.66675V20H8.00008L14.6667 25.3334V6.66669Z" stroke="#202020" stroke-width="2.2" stroke-linecap="round" stroke-linejoin="round"/></svg>