<svg width="20" height="20" viewBox="0 0 20 20" fill="none" xmlns="http://www.w3.org/2000/svg"><path d="M-800 -792C-800 -796.418 -796.418 -800 -792 -800H312C316.418 -800 320 -796.418 320 -792V898C320 902.418 316.418 906 312 906H-792C-796.418 906 -800 902.418 -800 898V-792Z" fill="white"/><path d="M-792 -800V-799H312V-800V-801H-792V-800ZM320 -792H319V898H320H321V-792H320ZM312 906V905H-792V906V907H312V906ZM-800 898H-799V-792H-800H-801V898H-800ZM-792 906V905C-795.866 905 -799 901.866 -799 898H-800H-801C-801 902.971 -796.971 907 -792 907V906ZM320 898H319C319 901.866 315.866 905 312 905V906V907C316.971 907 321 902.971 321 898H320ZM312 -800V-799C315.866 -799 319 -795.866 319 -792H320H321C321 -796.971 316.971 -801 312 -801V-800ZM-792 -800V-801C-796.971 -801 -801 -796.971 -801 -792H-800H-799C-799 -795.866 -795.866 -799 -792 -799V-800Z" fill="#F1F1F1"/><path d="M15.8915 4.10834C17.4538 5.67107 18.3314 7.7903 18.3314 10C18.3314 12.2097 17.4538 14.3289 15.8915 15.8917M12.9498 7.05C13.731 7.83137 14.1698 8.89099 14.1698 9.99584C14.1698 11.1007 13.731 12.1603 12.9498 12.9417M9.1665 4.16667L4.99984 7.5H1.6665V12.5H4.99984L9.1665 15.8333V4.16667Z" stroke="#202020" stroke-width="1.5" stroke-linecap="round" stroke-linejoin="round"/></svg>