<svg width="20" height="20" viewBox="0 0 20 20" fill="none" xmlns="http://www.w3.org/2000/svg"><path d="M-700 -792C-700 -796.418 -696.418 -800 -692 -800H412C416.418 -800 420 -796.418 420 -792V898C420 902.418 416.418 906 412 906H-692C-696.418 906 -700 902.418 -700 898V-792Z" fill="white"/><path d="M-692 -800V-799H412V-800V-801H-692V-800ZM420 -792H419V898H420H421V-792H420ZM412 906V905H-692V906V907H412V906ZM-700 898H-699V-792H-700H-701V898H-700ZM-692 906V905C-695.866 905 -699 901.866 -699 898H-700H-701C-701 902.971 -696.971 907 -692 907V906ZM420 898H419C419 901.866 415.866 905 412 905V906V907C416.971 907 421 902.971 421 898H420ZM412 -800V-799C415.866 -799 419 -795.866 419 -792H420H421C421 -796.971 416.971 -801 412 -801V-800ZM-692 -800V-801C-696.971 -801 -701 -796.971 -701 -792H-700H-699C-699 -795.866 -695.866 -799 -692 -799V-800Z" fill="#F1F1F1"/><path d="M12.9498 7.05002C13.731 7.83139 14.1698 8.891 14.1698 9.99585C14.1698 11.1007 13.731 12.1603 12.9498 12.9417M9.1665 4.16669L4.99984 7.50002H1.6665V12.5H4.99984L9.1665 15.8334V4.16669Z" stroke="#202020" stroke-width="1.5" stroke-linecap="round" stroke-linejoin="round"/></svg>