<svg width="32" height="32" viewBox="0 0 32 32" fill="none" xmlns="http://www.w3.org/2000/svg"><path d="M-884 -876C-884 -880.418 -880.418 -884 -876 -884H348C352.418 -884 356 -880.418 356 -876V814C356 818.418 352.418 822 348 822H-876C-880.418 822 -884 818.418 -884 814V-876Z" fill="white"/><path d="M-876 -884V-883H348V-884V-885H-876V-884ZM356 -876H355V814H356H357V-876H356ZM348 822V821H-876V822V823H348V822ZM-884 814H-883V-876H-884H-885V814H-884ZM-876 822V821C-879.866 821 -883 817.866 -883 814H-884H-885C-885 818.971 -880.971 823 -876 823V822ZM356 814H355C355 817.866 351.866 821 348 821V822V823C352.971 823 357 818.971 357 814H356ZM348 -884V-883C351.866 -883 355 -879.866 355 -876H356H357C357 -880.971 352.971 -885 348 -885V-884ZM-876 -884V-885C-880.971 -885 -885 -880.971 -885 -876H-884H-883C-883 -879.866 -879.866 -883 -876 -883V-884Z" fill="#F1F1F1"/><path d="M20.0001 12L12.0001 20M12.0001 12L20.0001 20M29.3334 16C29.3334 23.3638 23.3639 29.3334 16.0001 29.3334C8.63628 29.3334 2.66675 23.3638 2.66675 16C2.66675 8.63622 8.63628 2.66669 16.0001 2.66669C23.3639 2.66669 29.3334 8.63622 29.3334 16Z" stroke="#202020" stroke-width="2.2" stroke-linecap="round" stroke-linejoin="round"/></svg>