<svg width="16" height="16" viewBox="0 0 16 16" fill="none" xmlns="http://www.w3.org/2000/svg"><path d="M-772 -764C-772 -768.418 -768.418 -772 -764 -772H300C304.418 -772 308 -768.418 308 -764V890C308 894.418 304.418 898 300 898H-764C-768.418 898 -772 894.418 -772 890V-764Z" fill="white"/><path d="M-764 -772V-771H300V-772V-773H-764V-772ZM308 -764H307V890H308H309V-764H308ZM300 898V897H-764V898V899H300V898ZM-772 890H-771V-764H-772H-773V890H-772ZM-764 898V897C-767.866 897 -771 893.866 -771 890H-772H-773C-773 894.971 -768.971 899 -764 899V898ZM308 890H307C307 893.866 303.866 897 300 897V898V899C304.971 899 309 894.971 309 890H308ZM300 -772V-771C303.866 -771 307 -767.866 307 -764H308H309C309 -768.971 304.971 -773 300 -773V-772ZM-764 -772V-773C-768.971 -773 -773 -768.971 -773 -764H-772H-771C-771 -767.866 -767.866 -771 -764 -771V-772Z" fill="#F1F1F1"/><path d="M10.0002 5.99998L6.00016 9.99998M6.00016 5.99998L10.0002 9.99998M14.6668 7.99998C14.6668 11.6819 11.6821 14.6666 8.00016 14.6666C4.31826 14.6666 1.3335 11.6819 1.3335 7.99998C1.3335 4.31808 4.31826 1.33331 8.00016 1.33331C11.6821 1.33331 14.6668 4.31808 14.6668 7.99998Z" stroke="#202020" stroke-width="1.3" stroke-linecap="round" stroke-linejoin="round"/><defs><clipPath id="clip0_7809_18809"><rect width="16" height="16" fill="white"/></clipPath></defs></svg>