<svg width="16" height="16" viewBox="0 0 16 16" fill="none" xmlns="http://www.w3.org/2000/svg"><path d="M-868 -764C-868 -768.418 -864.418 -772 -860 -772H204C208.418 -772 212 -768.418 212 -764V890C212 894.418 208.418 898 204 898H-860C-864.418 898 -868 894.418 -868 890V-764Z" fill="white"/><path d="M-860 -772V-771H204V-772V-773H-860V-772ZM212 -764H211V890H212H213V-764H212ZM204 898V897H-860V898V899H204V898ZM-868 890H-867V-764H-868H-869V890H-868ZM-860 898V897C-863.866 897 -867 893.866 -867 890H-868H-869C-869 894.971 -864.971 899 -860 899V898ZM212 890H211C211 893.866 207.866 897 204 897V898V899C208.971 899 213 894.971 213 890H212ZM204 -772V-771C207.866 -771 211 -767.866 211 -764H212H213C213 -768.971 208.971 -773 204 -773V-772ZM-860 -772V-773C-864.971 -773 -869 -768.971 -869 -764H-868H-867C-867 -767.866 -863.866 -771 -860 -771V-772Z" fill="#F1F1F1"/><path d="M12 4L4 12M4 4L12 12" stroke="#202020" stroke-width="1.3" stroke-linecap="round" stroke-linejoin="round"/></svg>