<svg width="32" height="32" viewBox="0 0 32 32" fill="none" xmlns="http://www.w3.org/2000/svg"><path d="M-996 -876C-996 -880.418 -992.418 -884 -988 -884H236C240.418 -884 244 -880.418 244 -876V814C244 818.418 240.418 822 236 822H-988C-992.418 822 -996 818.418 -996 814V-876Z" fill="white"/><path d="M-988 -884V-883H236V-884V-885H-988V-884ZM244 -876H243V814H244H245V-876H244ZM236 822V821H-988V822V823H236V822ZM-996 814H-995V-876H-996H-997V814H-996ZM-988 822V821C-991.866 821 -995 817.866 -995 814H-996H-997C-997 818.971 -992.971 823 -988 823V822ZM244 814H243C243 817.866 239.866 821 236 821V822V823C240.971 823 245 818.971 245 814H244ZM236 -884V-883C239.866 -883 243 -879.866 243 -876H244H245C245 -880.971 240.971 -885 236 -885V-884ZM-988 -884V-885C-992.971 -885 -997 -880.971 -997 -876H-996H-995C-995 -879.866 -991.866 -883 -988 -883V-884Z" fill="#F1F1F1"/><path d="M24 8L8 24M8 8L24 24" stroke="#202020" stroke-width="2.2" stroke-linecap="round" stroke-linejoin="round"/></svg>