<svg width="24" height="24" viewBox="0 0 24 24" fill="none" xmlns="http://www.w3.org/2000/svg"><path d="M-204 -924C-204 -928.418 -200.418 -932 -196 -932H948C952.418 -932 956 -928.418 956 -924V766C956 770.418 952.418 774 948 774H-196C-200.418 774 -204 770.418 -204 766V-924Z" fill="white"/><path d="M-196 -932V-931H948V-932V-933H-196V-932ZM956 -924H955V766H956H957V-924H956ZM948 774V773H-196V774V775H948V774ZM-204 766H-203V-924H-204H-205V766H-204ZM-196 774V773C-199.866 773 -203 769.866 -203 766H-204H-205C-205 770.971 -200.971 775 -196 775V774ZM956 766H955C955 769.866 951.866 773 948 773V774V775C952.971 775 957 770.971 957 766H956ZM948 -932V-931C951.866 -931 955 -927.866 955 -924H956H957C957 -928.971 952.971 -933 948 -933V-932ZM-196 -932V-933C-200.971 -933 -205 -928.971 -205 -924H-204H-203C-203 -927.866 -199.866 -931 -196 -931V-932Z" fill="#F1F1F1"/><path d="M18 6L6 18M6 6L18 18" stroke="#202020" stroke-width="1.8" stroke-linecap="round" stroke-linejoin="round"/></svg>