<svg width="12" height="12" viewBox="0 0 12 12" fill="none" xmlns="http://www.w3.org/2000/svg"><path d="M-357 -115C-357 -116.105 -356.105 -117 -355 -117H864C865.105 -117 866 -116.105 866 -115V724C866 725.105 865.105 726 864 726H-355C-356.105 726 -357 725.105 -357 724V-115Z" fill="white"/><path d="M-355 -117V-116H864V-117V-118H-355V-117ZM866 -115H865V724H866H867V-115H866ZM864 726V725H-355V726V727H864V726ZM-357 724H-356V-115H-357H-358V724H-357ZM-355 726V725C-355.552 725 -356 724.552 -356 724H-357H-358C-358 725.657 -356.657 727 -355 727V726ZM866 724H865C865 724.552 864.552 725 864 725V726V727C865.657 727 867 725.657 867 724H866ZM864 -117V-116C864.552 -116 865 -115.552 865 -115H866H867C867 -116.657 865.657 -118 864 -118V-117ZM-355 -117V-118C-356.657 -118 -358 -116.657 -358 -115H-357H-356C-356 -115.552 -355.552 -116 -355 -116V-117Z" fill="black" fill-opacity="0.1"/><path d="M9 3L3 9M3 3L9 9" stroke="#202020" stroke-width="1.3" stroke-linecap="round" stroke-linejoin="round"/></svg>