<svg width="20" height="20" viewBox="0 0 20 20" fill="none" xmlns="http://www.w3.org/2000/svg"><path d="M-308 -115C-308 -116.105 -307.105 -117 -306 -117H913C914.105 -117 915 -116.105 915 -115V724C915 725.105 914.105 726 913 726H-306C-307.105 726 -308 725.105 -308 724V-115Z" fill="white"/><path d="M-306 -117V-116H913V-117V-118H-306V-117ZM915 -115H914V724H915H916V-115H915ZM913 726V725H-306V726V727H913V726ZM-308 724H-307V-115H-308H-309V724H-308ZM-306 726V725C-306.552 725 -307 724.552 -307 724H-308H-309C-309 725.657 -307.657 727 -306 727V726ZM915 724H914C914 724.552 913.552 725 913 725V726V727C914.657 727 916 725.657 916 724H915ZM913 -117V-116C913.552 -116 914 -115.552 914 -115H915H916C916 -116.657 914.657 -118 913 -118V-117ZM-306 -117V-118C-307.657 -118 -309 -116.657 -309 -115H-308H-307C-307 -115.552 -306.552 -116 -306 -116V-117Z" fill="black" fill-opacity="0.1"/><path d="M15 5L5 15M5 5L15 15" stroke="#202020" stroke-width="1.5" stroke-linecap="round" stroke-linejoin="round"/></svg>