<svg width="16" height="16" viewBox="0 0 16 16" fill="none" xmlns="http://www.w3.org/2000/svg"><path d="M-964 -764C-964 -768.418 -960.418 -772 -956 -772H108C112.418 -772 116 -768.418 116 -764V890C116 894.418 112.418 898 108 898H-956C-960.418 898 -964 894.418 -964 890V-764Z" fill="white"/><path d="M-956 -772V-771H108V-772V-773H-956V-772ZM116 -764H115V890H116H117V-764H116ZM108 898V897H-956V898V899H108V898ZM-964 890H-963V-764H-964H-965V890H-964ZM-956 898V897C-959.866 897 -963 893.866 -963 890H-964H-965C-965 894.971 -960.971 899 -956 899V898ZM116 890H115C115 893.866 111.866 897 108 897V898V899C112.971 899 117 894.971 117 890H116ZM108 -772V-771C111.866 -771 115 -767.866 115 -764H116H117C117 -768.971 112.971 -773 108 -773V-772ZM-956 -772V-773C-960.971 -773 -965 -768.971 -965 -764H-964H-963C-963 -767.866 -959.866 -771 -956 -771V-772Z" fill="#F1F1F1"/><path d="M14 14L11.1 11.1M7.33333 5.33333V9.33333M5.33333 7.33333H9.33333M12.6667 7.33333C12.6667 10.2789 10.2789 12.6667 7.33333 12.6667C4.38781 12.6667 2 10.2789 2 7.33333C2 4.38781 4.38781 2 7.33333 2C10.2789 2 12.6667 4.38781 12.6667 7.33333Z" stroke="#202020" stroke-width="1.3" stroke-linecap="round" stroke-linejoin="round"/></svg>