<svg width="16" height="16" viewBox="0 0 16 16" fill="none" xmlns="http://www.w3.org/2000/svg"><path d="M-100 -860C-100 -864.418 -96.4183 -868 -92 -868H972C976.418 -868 980 -864.418 980 -860V794C980 798.418 976.418 802 972 802H-92C-96.4183 802 -100 798.418 -100 794V-860Z" fill="white"/><path d="M-92 -868V-867H972V-868V-869H-92V-868ZM980 -860H979V794H980H981V-860H980ZM972 802V801H-92V802V803H972V802ZM-100 794H-99V-860H-100H-101V794H-100ZM-92 802V801C-95.866 801 -99 797.866 -99 794H-100H-101C-101 798.971 -96.9705 803 -92 803V802ZM980 794H979C979 797.866 975.866 801 972 801V802V803C976.971 803 981 798.971 981 794H980ZM972 -868V-867C975.866 -867 979 -863.866 979 -860H980H981C981 -864.971 976.971 -869 972 -869V-868ZM-92 -868V-869C-96.9706 -869 -101 -864.971 -101 -860H-100H-99C-99 -863.866 -95.866 -867 -92 -867V-868Z" fill="#F1F1F1"/><path d="M14 14L11.1 11.1M5.33333 7.33333H9.33333M12.6667 7.33333C12.6667 10.2789 10.2789 12.6667 7.33333 12.6667C4.38781 12.6667 2 10.2789 2 7.33333C2 4.38781 4.38781 2 7.33333 2C10.2789 2 12.6667 4.38781 12.6667 7.33333Z" stroke="#202020" stroke-width="1.3" stroke-linecap="round" stroke-linejoin="round"/></svg>