<svg width="32" height="32" viewBox="0 0 32 32" fill="none" xmlns="http://www.w3.org/2000/svg"><path d="M-100 -988C-100 -992.418 -96.4183 -996 -92 -996H1132C1136.42 -996 1140 -992.418 1140 -988V702C1140 706.418 1136.42 710 1132 710H-92C-96.4183 710 -100 706.418 -100 702V-988Z" fill="white"/><path d="M-92 -996V-995H1132V-996V-997H-92V-996ZM1140 -988H1139V702H1140H1141V-988H1140ZM1132 710V709H-92V710V711H1132V710ZM-100 702H-99V-988H-100H-101V702H-100ZM-92 710V709C-95.866 709 -99 705.866 -99 702H-100H-101C-101 706.971 -96.9706 711 -92 711V710ZM1140 702H1139C1139 705.866 1135.87 709 1132 709V710V711C1136.97 711 1141 706.971 1141 702H1140ZM1132 -996V-995C1135.87 -995 1139 -991.866 1139 -988H1140H1141C1141 -992.971 1136.97 -997 1132 -997V-996ZM-92 -996V-997C-96.9706 -997 -101 -992.971 -101 -988H-100H-99C-99 -991.866 -95.866 -995 -92 -995V-996Z" fill="#F1F1F1"/><path d="M28 28L22.2 22.2M10.6667 14.6667H18.6667M25.3333 14.6667C25.3333 20.5577 20.5577 25.3333 14.6667 25.3333C8.77563 25.3333 4 20.5577 4 14.6667C4 8.77563 8.77563 4 14.6667 4C20.5577 4 25.3333 8.77563 25.3333 14.6667Z" stroke="#202020" stroke-width="2.2" stroke-linecap="round" stroke-linejoin="round"/></svg>