<svg width="32" height="32" viewBox="0 0 32 32" fill="none" xmlns="http://www.w3.org/2000/svg"><path d="M-1108 -876C-1108 -880.418 -1104.42 -884 -1100 -884H124C128.418 -884 132 -880.418 132 -876V814C132 818.418 128.418 822 124 822H-1100C-1104.42 822 -1108 818.418 -1108 814V-876Z" fill="white"/><path d="M-1100 -884V-883H124V-884V-885H-1100V-884ZM132 -876H131V814H132H133V-876H132ZM124 822V821H-1100V822V823H124V822ZM-1108 814H-1107V-876H-1108H-1109V814H-1108ZM-1100 822V821C-1103.87 821 -1107 817.866 -1107 814H-1108H-1109C-1109 818.971 -1104.97 823 -1100 823V822ZM132 814H131C131 817.866 127.866 821 124 821V822V823C128.971 823 133 818.971 133 814H132ZM124 -884V-883C127.866 -883 131 -879.866 131 -876H132H133C133 -880.971 128.971 -885 124 -885V-884ZM-1100 -884V-885C-1104.97 -885 -1109 -880.971 -1109 -876H-1108H-1107C-1107 -879.866 -1103.87 -883 -1100 -883V-884Z" fill="#F1F1F1"/><path d="M28 28L22.2 22.2M14.6667 10.6667V18.6667M10.6667 14.6667H18.6667M25.3333 14.6667C25.3333 20.5577 20.5577 25.3333 14.6667 25.3333C8.77563 25.3333 4 20.5577 4 14.6667C4 8.77563 8.77563 4 14.6667 4C20.5577 4 25.3333 8.77563 25.3333 14.6667Z" stroke="#202020" stroke-width="2.2" stroke-linecap="round" stroke-linejoin="round"/></svg>